<svg width="290" height="217" viewBox="0 0 290 217" fill="none" xmlns="http://www.w3.org/2000/svg">
    <g clip-path="url(#clip0_7827_8556)">
        <mask id="mask0_7827_8556" style="mask-type:luminance" maskUnits="userSpaceOnUse" x="0" y="0" width="290"
            height="217">
            <path fill-rule="evenodd" clip-rule="evenodd"
                d="M0 217L-9.46699e-06 0.420547L289.581 0.420535L289.581 217L0 217Z" fill="white" />
        </mask>
        <g mask="url(#mask0_7827_8556)">
            <path
                d="M53.8779 111.975L97.2527 86.8354L140.627 111.975L140.627 162.254L97.2527 187.394L53.8779 162.254L53.8779 111.975ZM52.5239 111.19L52.5239 163.039L97.2527 188.964L141.981 163.039L141.981 111.189L97.2527 85.2642L52.5239 111.19Z"
                fill="#12AAFF" />
            <path
                d="M201.392 27.3049L244.767 2.16425L288.142 27.3049L288.142 77.5838L244.767 102.724L201.392 77.5838L201.392 27.3049ZM200.039 26.5198L200.039 78.3694L244.767 104.294L289.495 78.3694L289.495 26.5198L244.767 0.594793L200.039 26.5198Z"
                fill="#12AAFF" />
            <path
                d="M97.5208 83.5121C97.7605 83.5121 97.9979 83.5357 98.2326 83.5828C98.4673 83.6299 98.6958 83.6994 98.9171 83.7914C99.1384 83.8833 99.3485 83.996 99.548 84.1295C99.7469 84.2635 99.9313 84.4149 100.101 84.5853C100.27 84.7552 100.421 84.9403 100.554 85.1399C100.687 85.3401 100.8 85.5509 100.891 85.7735C100.983 85.9956 101.052 86.2243 101.099 86.4604C101.146 86.6965 101.169 86.9342 101.169 87.1748C101.169 87.4153 101.146 87.6536 101.099 87.8897C101.052 88.1252 100.983 88.3545 100.891 88.5766C100.8 88.7986 100.687 89.01 100.554 89.2096C100.421 89.4098 100.27 89.5948 100.101 89.7647C99.9313 89.9346 99.7469 90.0866 99.548 90.22C99.3485 90.3541 99.1384 90.4668 98.9171 90.5587C98.6958 90.6507 98.4673 90.7202 98.2326 90.7673C97.9979 90.8139 97.7605 90.8374 97.5208 90.8374C97.281 90.8374 97.0441 90.8139 96.8089 90.7673C96.5742 90.7202 96.3462 90.6507 96.125 90.5587C95.9031 90.4668 95.693 90.3541 95.4941 90.22C95.2946 90.0866 95.1102 89.9346 94.9409 89.7647C94.7716 89.5948 94.6208 89.4098 94.4872 89.2096C94.3542 89.01 94.2419 88.7986 94.1503 88.5766C94.0586 88.3545 93.9893 88.1252 93.9424 87.8897C93.896 87.6536 93.8726 87.4153 93.8726 87.1748C93.8726 86.9342 93.896 86.6965 93.9424 86.4604C93.9893 86.2243 94.0586 85.9956 94.1503 85.7735C94.2419 85.5509 94.3542 85.3401 94.4872 85.1399C94.6208 84.9403 94.7716 84.7552 94.9409 84.5853C95.1102 84.4149 95.2946 84.2635 95.4941 84.1295C95.693 83.996 95.9031 83.8833 96.125 83.7914C96.3462 83.6994 96.5742 83.6299 96.8089 83.5828C97.0441 83.5357 97.281 83.5121 97.5208 83.5121Z"
                fill="#12AAFF" />
            <path
                d="M53.1986 109.007C53.4381 109.007 53.6754 109.031 53.9103 109.078C54.1453 109.124 54.3734 109.194 54.5947 109.286C54.816 109.378 55.0263 109.491 55.2255 109.625C55.4246 109.758 55.6089 109.91 55.7783 110.08C55.9479 110.25 56.0988 110.435 56.2317 110.635C56.3653 110.835 56.4776 111.046 56.5692 111.268C56.6609 111.491 56.7302 111.719 56.7765 111.956C56.8235 112.191 56.847 112.429 56.847 112.67C56.847 112.91 56.8235 113.149 56.7765 113.384C56.7302 113.62 56.6609 113.849 56.5692 114.072C56.4776 114.294 56.3653 114.505 56.2317 114.705C56.0988 114.904 55.9479 115.089 55.7783 115.26C55.6089 115.43 55.4246 115.582 55.2255 115.715C55.0263 115.849 54.816 115.961 54.5947 116.054C54.3734 116.146 54.1453 116.215 53.9103 116.262C53.6754 116.309 53.4381 116.333 53.1986 116.333C52.959 116.333 52.7217 116.309 52.4868 116.262C52.2519 116.215 52.0237 116.146 51.8024 116.054C51.5811 115.961 51.3709 115.849 51.1717 115.715C50.9725 115.582 50.7882 115.43 50.6188 115.26C50.4495 115.089 50.2982 114.904 50.1651 114.705C50.032 114.505 49.9196 114.294 49.828 114.072C49.7363 113.849 49.6671 113.62 49.6204 113.384C49.5737 113.149 49.5503 112.91 49.5503 112.67C49.5503 112.429 49.5737 112.191 49.6204 111.956C49.6671 111.719 49.7363 111.491 49.828 111.268C49.9196 111.046 50.032 110.835 50.1651 110.635C50.2982 110.435 50.4495 110.25 50.6188 110.08C50.7882 109.91 50.9725 109.758 51.1717 109.625C51.3709 109.491 51.5811 109.378 51.8024 109.286C52.0237 109.194 52.2519 109.124 52.4868 109.078C52.7217 109.031 52.959 109.007 53.1986 109.007Z"
                fill="#12AAFF" />
            <path
                d="M151.103 112.536L194.478 87.3959L237.853 112.536L237.853 162.815L194.478 187.955L151.103 162.815L151.103 112.536ZM149.75 111.751L149.75 163.6L194.478 189.524L239.206 163.6L239.206 111.75L194.478 85.8248L149.75 111.751Z"
                fill="#12AAFF" />
            <path
                d="M150.701 109.163C150.94 109.163 151.178 109.186 151.412 109.233C151.648 109.28 151.876 109.35 152.097 109.442C152.318 109.534 152.528 109.646 152.728 109.78C152.927 109.914 153.111 110.065 153.28 110.236C153.45 110.406 153.601 110.591 153.734 110.79C153.868 110.99 153.98 111.202 154.071 111.424C154.163 111.646 154.232 111.875 154.279 112.111C154.326 112.347 154.349 112.585 154.349 112.825C154.349 113.066 154.326 113.304 154.279 113.54C154.232 113.776 154.163 114.005 154.071 114.227C153.98 114.449 153.868 114.66 153.734 114.86C153.601 115.06 153.45 115.245 153.28 115.415C153.111 115.585 152.927 115.737 152.728 115.87C152.528 116.004 152.318 116.117 152.097 116.209C151.876 116.301 151.648 116.371 151.412 116.418C151.178 116.464 150.94 116.488 150.701 116.488C150.461 116.488 150.224 116.464 149.989 116.418C149.754 116.371 149.526 116.301 149.305 116.209C149.083 116.117 148.873 116.004 148.674 115.87C148.475 115.737 148.29 115.585 148.121 115.415C147.952 115.245 147.8 115.06 147.667 114.86C147.534 114.66 147.422 114.449 147.33 114.227C147.238 114.005 147.169 113.776 147.123 113.54C147.076 113.304 147.052 113.066 147.052 112.825C147.052 112.585 147.076 112.347 147.123 112.111C147.169 111.875 147.238 111.646 147.33 111.424C147.422 111.202 147.534 110.99 147.667 110.791C147.8 110.591 147.952 110.406 148.121 110.236C148.29 110.065 148.475 109.914 148.674 109.78C148.873 109.646 149.083 109.534 149.305 109.442C149.526 109.35 149.754 109.28 149.989 109.233C150.224 109.186 150.461 109.163 150.701 109.163Z"
                fill="#12AAFF" />
            <path
                d="M194.236 84.0985C194.476 84.0985 194.713 84.1221 194.948 84.1692C195.183 84.2163 195.411 84.2858 195.632 84.3778C195.854 84.4697 196.064 84.5824 196.263 84.7159C196.462 84.8493 196.647 85.0013 196.816 85.1718C196.985 85.3417 197.137 85.5267 197.27 85.7263C197.403 85.9265 197.515 86.1373 197.607 86.3599C197.698 86.582 197.767 86.8108 197.814 87.0468C197.861 87.2829 197.884 87.5206 197.884 87.7612C197.884 88.0017 197.861 88.24 197.814 88.4755C197.767 88.7116 197.698 88.9409 197.607 89.163C197.515 89.385 197.403 89.5959 197.27 89.796C197.137 89.9962 196.985 90.1813 196.816 90.3512C196.647 90.5211 196.462 90.673 196.263 90.8065C196.064 90.9399 195.854 91.0532 195.632 91.1451C195.411 91.2371 195.183 91.3066 194.948 91.3532C194.713 91.4003 194.476 91.4238 194.236 91.4238C193.996 91.4238 193.759 91.4003 193.524 91.3532C193.29 91.3066 193.062 91.2371 192.84 91.1451C192.618 91.0532 192.408 90.9399 192.209 90.8065C192.01 90.673 191.826 90.5211 191.656 90.3512C191.487 90.1813 191.336 89.9962 191.203 89.796C191.07 89.5959 190.957 89.385 190.866 89.163C190.774 88.9409 190.705 88.7116 190.658 88.4755C190.611 88.24 190.588 88.0017 190.588 87.7612C190.588 87.5206 190.611 87.2829 190.658 87.0468C190.705 86.8108 190.774 86.582 190.866 86.3599C190.957 86.1373 191.07 85.9265 191.203 85.7263C191.336 85.5267 191.487 85.3417 191.656 85.1718C191.826 85.0013 192.01 84.8493 192.209 84.7159C192.408 84.5824 192.618 84.4697 192.84 84.3778C193.062 84.2853 193.29 84.2163 193.524 84.1692C193.759 84.1221 193.996 84.0985 194.236 84.0985Z"
                fill="#12AAFF" />
            <path
                d="M200.693 74.3437C200.932 74.3437 201.17 74.3673 201.404 74.4138C201.639 74.4609 201.868 74.5305 202.089 74.6224C202.31 74.7144 202.52 74.8271 202.72 74.9611C202.919 75.0945 203.103 75.2465 203.272 75.4164C203.442 75.5863 203.593 75.7713 203.726 75.9715C203.859 76.1711 203.971 76.3825 204.063 76.6046C204.155 76.8266 204.224 77.0559 204.271 77.2914C204.318 77.5275 204.341 77.7658 204.341 78.0064C204.341 78.2469 204.318 78.4847 204.271 78.7207C204.224 78.9568 204.155 79.1856 204.063 79.4076C203.971 79.6302 203.859 79.8411 203.726 80.0412C203.593 80.2409 203.442 80.4259 203.272 80.5958C203.103 80.7663 202.919 80.9177 202.72 81.0517C202.52 81.1851 202.31 81.2978 202.089 81.3898C201.868 81.4817 201.639 81.5513 201.404 81.5984C201.17 81.6455 200.932 81.6685 200.693 81.6685C200.453 81.6685 200.216 81.6455 199.981 81.5984C199.746 81.5513 199.518 81.4817 199.297 81.3898C199.076 81.2978 198.865 81.1851 198.666 81.0517C198.466 80.9177 198.283 80.7663 198.113 80.5958C197.943 80.4259 197.793 80.2409 197.659 80.0412C197.526 79.8411 197.414 79.6302 197.322 79.4076C197.231 79.1856 197.161 78.9568 197.115 78.7207C197.068 78.4847 197.044 78.2469 197.044 78.0064C197.044 77.7658 197.068 77.5275 197.115 77.2914C197.161 77.0559 197.231 76.8266 197.322 76.6046C197.414 76.3825 197.526 76.1711 197.659 75.9715C197.793 75.7713 197.943 75.5863 198.113 75.4164C198.283 75.2465 198.466 75.0945 198.666 74.9611C198.865 74.8271 199.076 74.7144 199.297 74.6224C199.518 74.5305 199.746 74.4609 199.981 74.4138C200.216 74.3673 200.453 74.3437 200.693 74.3437Z"
                fill="#12AAFF" />
            <path
                d="M200.777 23.3109C201.017 23.3109 201.254 23.3345 201.489 23.3816C201.724 23.4281 201.952 23.4977 202.173 23.5896C202.395 23.6821 202.605 23.7949 202.804 23.9283C203.003 24.0618 203.188 24.2137 203.357 24.3836C203.526 24.5541 203.678 24.7391 203.811 24.9387C203.944 25.1389 204.056 25.3497 204.148 25.5718C204.239 25.7944 204.309 26.0232 204.355 26.2592C204.402 26.4947 204.425 26.733 204.425 26.9736C204.425 27.2141 204.402 27.4524 204.355 27.6879C204.309 27.924 204.239 28.1528 204.148 28.3754C204.056 28.5974 203.944 28.8083 203.811 29.0085C203.678 29.2081 203.526 29.3931 203.357 29.5636C203.188 29.7335 203.003 29.8854 202.804 30.0189C202.605 30.1523 202.395 30.265 202.173 30.3576C201.952 30.4495 201.724 30.519 201.489 30.5656C201.254 30.6127 201.017 30.6362 200.777 30.6362C200.537 30.6362 200.3 30.6127 200.065 30.5656C199.831 30.519 199.603 30.4495 199.381 30.3576C199.159 30.265 198.949 30.1523 198.75 30.0189C198.551 29.8854 198.367 29.7335 198.197 29.5636C198.028 29.3931 197.877 29.2081 197.744 29.0085C197.611 28.8083 197.498 28.5974 197.407 28.3754C197.315 28.1528 197.246 27.924 197.199 27.6879C197.152 27.4524 197.129 27.2141 197.129 26.9736C197.129 26.733 197.152 26.4947 197.199 26.2592C197.246 26.0232 197.315 25.7944 197.407 25.5718C197.498 25.3497 197.611 25.1389 197.744 24.9387C197.877 24.7391 198.028 24.5541 198.197 24.3836C198.367 24.2137 198.551 24.0618 198.75 23.9283C198.949 23.7949 199.159 23.6821 199.381 23.5896C199.603 23.4977 199.831 23.4281 200.065 23.3816C200.3 23.3345 200.537 23.3109 200.777 23.3109Z"
                fill="#12AAFF" />
            <path
                d="M165.196 63.8781L165.196 63.7082C165.168 63.7105 165.14 63.7116 165.112 63.7116C165.076 63.7116 165.04 63.7093 165.004 63.7065L165.004 63.877C165.04 63.8798 165.076 63.882 165.112 63.882C165.139 63.8832 165.168 63.8809 165.196 63.8781Z"
                fill="#12AAFF" />
            <path
                d="M195.552 66.1114L195.552 79.88L184.933 86.0345C184.991 86.1354 185.038 86.2437 185.07 86.3569L195.899 80.0813L195.899 65.9113L185.022 59.6076C184.978 59.7158 184.921 59.8173 184.854 59.9121L195.552 66.1114Z"
                fill="#3786E5" />
            <path
                d="M171.796 79.88L171.796 74.2027L171.45 74.0014L171.45 80.0813L182.278 86.3569C182.312 86.2425 182.357 86.1354 182.416 86.0345L171.796 79.88Z"
                fill="#3786E5" />
            <path
                d="M182.496 59.9111C182.428 59.818 182.371 59.7159 182.328 59.6066L178.06 62.0799L178.407 62.2812L182.496 59.9111Z"
                fill="#3786E5" />
            <path
                d="M178.214 62.3921L177.867 62.192L171.45 65.9107L171.45 73.7776L171.796 73.9795L171.796 66.112L178.214 62.3921Z"
                fill="#3786E5" />
            <path
                d="M165.196 70.1526L165.196 63.8787C165.168 63.8798 165.14 63.882 165.112 63.882C165.076 63.882 165.04 63.8798 165.004 63.8775L165.004 70.2647L171.451 74.002L171.451 73.7777L165.196 70.1526Z"
                fill="#12AAFF" />
            <path
                d="M178.591 62.3883L178.405 62.2812L178.214 62.3923L178.398 62.5005L178.398 70.1527L171.797 73.9791L171.797 74.2017L178.591 70.2643L178.591 62.3883Z"
                fill="#12AAFF" />
            <path
                d="M171.797 58.6739L177.867 62.1919L178.06 62.0797L171.798 58.4513L166.27 61.6547C166.307 61.7069 166.34 61.7629 166.369 61.8213L171.797 58.6739Z"
                fill="#12AAFF" />
            <path d="M178.214 62.3921L178.405 62.2811L178.059 62.0798L177.867 62.1913L178.214 62.3921Z"
                fill="#12AAFF" />
            <path d="M171.796 73.9791L171.45 73.7778L171.45 74.0015L171.796 74.2017L171.796 73.9791Z" fill="#12AAFF" />
            <path
                d="M166.524 62.4639C166.524 62.2318 166.467 62.0142 166.368 61.8202L166.222 61.9043C166.306 62.0725 166.355 62.2626 166.355 62.4628C166.355 63.1222 165.842 63.6627 165.196 63.7065L165.196 63.877C165.936 63.8349 166.524 63.2175 166.524 62.4639Z"
                fill="#12AAFF" />
            <path
                d="M163.866 62.4646C163.866 61.7755 164.424 61.2159 165.11 61.2159C165.527 61.2159 165.896 61.4234 166.121 61.7396L166.269 61.6538C166.014 61.2866 165.59 61.0454 165.11 61.0454C164.331 61.0454 163.698 61.6824 163.698 62.463C163.698 63.2082 164.274 63.8199 165.002 63.876L165.002 63.7055C164.367 63.6523 163.866 63.1162 163.866 62.4646Z"
                fill="#12AAFF" />
            <path
                d="M166.222 61.9058L166.368 61.8211C166.338 61.7639 166.306 61.7084 166.269 61.6545L166.121 61.7403C166.159 61.7925 166.192 61.8474 166.222 61.9058Z"
                fill="#12AAFF" />
            <path
                d="M183.675 60.2629C183.283 60.2629 182.936 60.074 182.717 59.7818L182.496 59.9097C182.762 60.2764 183.19 60.5181 183.676 60.5181C184.161 60.5181 184.59 60.2781 184.855 59.9097L184.634 59.7818C184.413 60.074 184.066 60.2629 183.675 60.2629Z"
                fill="#12AAFF" />
            <path
                d="M182.22 59.0581C182.22 59.2521 182.258 59.4371 182.328 59.6064L182.551 59.4769C182.502 59.3463 182.473 59.2044 182.473 59.0581C182.473 58.3925 183.013 57.8514 183.675 57.8514C184.338 57.8514 184.877 58.3925 184.877 59.0581C184.877 59.2061 184.848 59.3463 184.8 59.4769L185.023 59.6064C185.092 59.4371 185.131 59.2521 185.131 59.0581C185.131 58.2517 184.478 57.5968 183.675 57.5968C182.872 57.5968 182.22 58.2517 182.22 59.0581Z"
                fill="#12AAFF" />
            <path
                d="M182.717 59.7827C182.647 59.6908 182.59 59.5876 182.55 59.4771L182.327 59.6061C182.371 59.7143 182.428 59.8164 182.495 59.9111L182.717 59.7827Z"
                fill="#12AAFF" />
            <path
                d="M184.631 59.7813L184.852 59.9097C184.92 59.816 184.977 59.7145 185.02 59.6046L184.797 59.4757C184.758 59.5873 184.701 59.6893 184.631 59.7813Z"
                fill="#12AAFF" />
            <path
                d="M183.674 85.3037C183.136 85.3037 182.667 85.5981 182.416 86.0349L182.635 86.1616C182.843 85.8011 183.231 85.5583 183.674 85.5583C184.118 85.5583 184.505 85.8022 184.714 86.1616L184.933 86.0349C184.681 85.5981 184.212 85.3037 183.674 85.3037Z"
                fill="#12AAFF" />
            <path
                d="M184.876 86.7639C184.876 87.4289 184.337 87.97 183.674 87.97C183.012 87.97 182.472 87.4289 182.472 86.7639C182.472 86.6691 182.485 86.5771 182.505 86.4891L182.277 86.3568C182.239 86.4863 182.219 86.6231 182.219 86.7639C182.219 87.5696 182.871 88.2251 183.674 88.2251C184.477 88.2251 185.13 87.5696 185.13 86.7639C185.13 86.622 185.109 86.4863 185.072 86.3568L184.844 86.4891C184.863 86.5771 184.876 86.6691 184.876 86.7639Z"
                fill="#12AAFF" />
            <path
                d="M182.634 86.1619L182.415 86.0351C182.357 86.1355 182.31 86.2437 182.278 86.357L182.506 86.4888C182.533 86.3721 182.576 86.2622 182.634 86.1619Z"
                fill="#12AAFF" />
            <path
                d="M184.714 86.1619C184.772 86.2622 184.816 86.3721 184.842 86.4888L185.07 86.357C185.037 86.2426 184.991 86.1355 184.933 86.0351L184.714 86.1619Z"
                fill="#12AAFF" />
            <path
                d="M274.64 114.019L274.64 127.787L264.021 133.942C264.079 134.043 264.125 134.151 264.159 134.264L274.987 127.989L274.987 113.819L264.11 107.515C264.065 107.623 264.008 107.725 263.942 107.82L274.64 114.019Z"
                fill="#3786E5" />
            <path
                d="M250.885 127.787L250.885 122.11L250.538 121.909L250.538 127.989L261.367 134.264C261.399 134.15 261.446 134.043 261.504 133.942L250.885 127.787Z"
                fill="#3786E5" />
            <path
                d="M261.583 107.818C261.515 107.725 261.458 107.623 261.414 107.514L257.146 109.987L257.493 110.189L261.583 107.818Z"
                fill="#3786E5" />
            <path
                d="M257.3 110.301L256.953 110.1L250.538 113.818L250.538 121.685L250.885 121.887L250.885 114.019L257.3 110.301Z"
                fill="#3786E5" />
            <path
                d="M244.283 118.06L244.283 111.786C244.255 111.787 244.227 111.79 244.199 111.79C244.162 111.79 244.127 111.787 244.091 111.785L244.091 118.172L250.537 121.909L250.537 121.685L244.283 118.06Z"
                fill="#12AAFF" />
            <path
                d="M257.68 110.296L257.494 110.189L257.301 110.301L257.487 110.408L257.487 118.06L250.885 121.887L250.885 122.11L257.68 118.172L257.68 110.296Z"
                fill="#12AAFF" />
            <path
                d="M250.884 106.581L256.953 110.1L257.146 109.987L250.884 106.358L245.356 109.562C245.394 109.615 245.426 109.67 245.456 109.729L250.884 106.581Z"
                fill="#12AAFF" />
            <path d="M257.3 110.301L257.493 110.189L257.146 109.987L256.953 110.099L257.3 110.301Z" fill="#12AAFF" />
            <path d="M250.885 121.887L250.538 121.685L250.538 121.909L250.885 122.11L250.885 121.887Z" fill="#12AAFF" />
            <path
                d="M245.613 110.372C245.613 110.139 245.556 109.921 245.456 109.727L245.309 109.812C245.393 109.98 245.442 110.17 245.442 110.371C245.442 111.029 244.929 111.571 244.283 111.614L244.283 111.784C245.022 111.742 245.613 111.125 245.613 110.372Z"
                fill="#12AAFF" />
            <path
                d="M242.955 110.372C242.955 109.683 243.512 109.123 244.199 109.123C244.615 109.123 244.984 109.331 245.21 109.647L245.357 109.561C245.102 109.194 244.678 108.953 244.199 108.953C243.419 108.953 242.786 109.59 242.786 110.371C242.786 111.115 243.362 111.728 244.091 111.783L244.091 111.613C243.455 111.559 242.955 111.025 242.955 110.372Z"
                fill="#12AAFF" />
            <path
                d="M245.308 109.813L245.456 109.728C245.426 109.671 245.394 109.615 245.357 109.562L245.209 109.648C245.246 109.7 245.28 109.755 245.308 109.813Z"
                fill="#12AAFF" />
            <path
                d="M262.762 108.171C262.371 108.171 262.024 107.982 261.805 107.69L261.584 107.818C261.849 108.185 262.278 108.426 262.763 108.426C263.249 108.426 263.678 108.186 263.943 107.818L263.722 107.69C263.501 107.981 263.154 108.171 262.762 108.171Z"
                fill="#12AAFF" />
            <path
                d="M261.307 106.965C261.307 107.159 261.345 107.345 261.414 107.514L261.637 107.385C261.589 107.254 261.561 107.112 261.561 106.965C261.561 106.3 262.1 105.759 262.762 105.759C263.425 105.759 263.964 106.3 263.964 106.965C263.964 107.113 263.936 107.254 263.887 107.385L264.11 107.514C264.179 107.345 264.218 107.159 264.218 106.965C264.218 106.16 263.565 105.504 262.762 105.504C261.96 105.504 261.307 106.16 261.307 106.965Z"
                fill="#12AAFF" />
            <path
                d="M261.805 107.691C261.735 107.599 261.678 107.496 261.637 107.385L261.415 107.514C261.459 107.623 261.516 107.725 261.583 107.819L261.805 107.691Z"
                fill="#12AAFF" />
            <path
                d="M263.72 107.691L263.94 107.819C264.008 107.726 264.065 107.624 264.109 107.514L263.886 107.385C263.846 107.496 263.789 107.597 263.72 107.691Z"
                fill="#12AAFF" />
            <path
                d="M262.762 133.211C262.225 133.211 261.755 133.506 261.504 133.942L261.723 134.069C261.931 133.708 262.319 133.466 262.762 133.466C263.206 133.466 263.594 133.71 263.802 134.069L264.021 133.942C263.77 133.506 263.3 133.211 262.762 133.211Z"
                fill="#12AAFF" />
            <path
                d="M263.964 134.671C263.964 135.337 263.425 135.878 262.762 135.878C262.1 135.878 261.561 135.337 261.561 134.671C261.561 134.577 261.573 134.485 261.593 134.396L261.365 134.265C261.328 134.394 261.307 134.531 261.307 134.671C261.307 135.477 261.96 136.132 262.762 136.132C263.565 136.132 264.218 135.477 264.218 134.671C264.218 134.529 264.197 134.394 264.16 134.265L263.932 134.396C263.952 134.485 263.964 134.577 263.964 134.671Z"
                fill="#12AAFF" />
            <path
                d="M261.723 134.069L261.503 133.942C261.445 134.043 261.399 134.151 261.366 134.264L261.594 134.396C261.621 134.28 261.665 134.17 261.723 134.069Z"
                fill="#12AAFF" />
            <path
                d="M263.802 134.069C263.86 134.17 263.903 134.279 263.931 134.396L264.159 134.264C264.125 134.15 264.079 134.043 264.021 133.942L263.802 134.069Z"
                fill="#12AAFF" />
            <path
                d="M143.168 81.8601C143.168 82.109 143.082 82.3378 142.941 82.5206L143.383 82.7769C143.517 82.5868 143.611 82.3664 143.652 82.1275L143.168 81.8466C143.168 81.8528 143.168 81.8567 143.168 81.8601Z"
                fill="#12AAFF" />
            <path
                d="M141.246 82.5205C141.105 82.3377 141.019 82.1089 141.019 81.8599C141.019 81.856 141.019 81.8526 141.021 81.8476L140.537 82.1285C140.577 82.3674 140.67 82.5877 140.805 82.7778L141.246 82.5205Z"
                fill="#12AAFF" />
            <path
                d="M118.339 121.859L118.339 95.7992L140.805 82.7781C140.671 82.588 140.577 82.3676 140.537 82.1287L117.646 95.396L117.646 121.825C117.734 121.809 117.824 121.8 117.917 121.8C118.063 121.8 118.204 121.822 118.339 121.859Z"
                fill="#3786E5" />
            <path
                d="M165.848 95.799L165.848 123.336L142.095 137.104L119.395 123.947C119.31 124.17 119.18 124.368 119.013 124.53L142.095 137.908L166.544 123.738L166.544 95.3969L143.653 82.1302C143.612 82.3685 143.519 82.5889 143.384 82.779L165.848 95.799Z"
                fill="#3786E5" />
            <path
                d="M142.093 82.938C141.749 82.938 141.443 82.7738 141.246 82.5203L140.804 82.7766C141.091 83.182 141.561 83.4478 142.093 83.4478C142.625 83.4478 143.096 83.182 143.383 82.7766L142.941 82.5203C142.744 82.7738 142.438 82.938 142.093 82.938Z"
                fill="#12AAFF" />
            <path
                d="M140.511 81.8598C140.511 81.9518 140.521 82.0398 140.536 82.1284L141.02 81.8469C141.027 81.2576 141.506 80.7816 142.095 80.7816C142.683 80.7816 143.161 81.2587 143.169 81.8469L143.653 82.1284C143.668 82.0415 143.678 81.9518 143.678 81.8598C143.678 80.984 142.968 80.2713 142.096 80.2713C141.221 80.2713 140.511 80.984 140.511 81.8598Z"
                fill="#12AAFF" />
            <path
                d="M118.339 121.859L118.339 122.396C118.722 122.562 118.991 122.944 118.991 123.388C118.991 123.492 118.975 123.592 118.947 123.687L119.395 123.947C119.46 123.773 119.498 123.585 119.498 123.389C119.498 122.659 119.005 122.046 118.339 121.859Z"
                fill="#12AAFF" />
            <path
                d="M117.915 124.465C117.324 124.465 116.841 123.982 116.841 123.388C116.841 122.886 117.183 122.466 117.645 122.345L117.645 121.824C116.902 121.953 116.333 122.604 116.333 123.388C116.333 124.263 117.044 124.976 117.915 124.976C118.342 124.976 118.728 124.805 119.013 124.529L118.546 124.259C118.369 124.389 118.151 124.465 117.915 124.465Z"
                fill="#12AAFF" />
            <path
                d="M119.395 123.947L118.948 123.687C118.881 123.92 118.737 124.12 118.546 124.26L119.014 124.529C119.181 124.368 119.312 124.169 119.395 123.947Z"
                fill="#12AAFF" />
            <path
                d="M117.916 122.31C118.066 122.31 118.209 122.34 118.34 122.396L118.34 121.859C118.204 121.822 118.063 121.8 117.916 121.8C117.823 121.8 117.734 121.809 117.645 121.825L117.645 122.345C117.732 122.323 117.823 122.31 117.916 122.31Z"
                fill="#12AAFF" />
            <path
                d="M195.966 160.958C195.966 161.207 195.88 161.436 195.739 161.618L196.181 161.875C196.315 161.684 196.409 161.464 196.45 161.225L195.966 160.944C195.966 160.949 195.966 160.953 195.966 160.958Z"
                fill="#12AAFF" />
            <path
                d="M194.044 161.618C193.903 161.435 193.817 161.206 193.817 160.958C193.817 160.954 193.817 160.95 193.817 160.945L193.333 161.226C193.374 161.465 193.467 161.685 193.602 161.875L194.044 161.618Z"
                fill="#12AAFF" />
            <path
                d="M171.137 200.957L171.137 174.897L193.603 161.876C193.47 161.685 193.375 161.465 193.334 161.227L170.444 174.494L170.444 200.922C170.532 200.907 170.622 200.897 170.715 200.897C170.861 200.897 171.003 200.918 171.137 200.957Z"
                fill="#3786E5" />
            <path
                d="M218.647 174.895L218.647 202.432L194.893 216.2L172.194 203.044C172.11 203.266 171.98 203.464 171.812 203.627L194.894 217.005L219.343 202.835L219.343 174.494L196.452 161.227C196.412 161.465 196.319 161.685 196.184 161.876L218.647 174.895Z"
                fill="#3786E5" />
            <path
                d="M194.892 162.037C194.547 162.037 194.241 161.872 194.044 161.619L193.602 161.875C193.889 162.28 194.359 162.546 194.892 162.546C195.423 162.546 195.894 162.28 196.181 161.875L195.739 161.619C195.542 161.872 195.236 162.037 194.892 162.037Z"
                fill="#12AAFF" />
            <path
                d="M193.31 160.958C193.31 161.05 193.319 161.14 193.334 161.227L193.819 160.946C193.825 160.356 194.304 159.88 194.893 159.88C195.481 159.88 195.959 160.357 195.967 160.946L196.451 161.227C196.466 161.139 196.476 161.05 196.476 160.958C196.476 160.083 195.766 159.37 194.894 159.37C194.019 159.37 193.31 160.081 193.31 160.958Z"
                fill="#12AAFF" />
            <path
                d="M171.137 200.957L171.137 201.494C171.52 201.659 171.789 202.041 171.789 202.485C171.789 202.59 171.773 202.689 171.746 202.785L172.193 203.045C172.259 202.871 172.296 202.683 172.296 202.487C172.296 201.756 171.804 201.142 171.137 200.957Z"
                fill="#12AAFF" />
            <path
                d="M170.714 203.564C170.121 203.564 169.64 203.08 169.64 202.486C169.64 201.984 169.982 201.564 170.444 201.443L170.444 200.922C169.7 201.052 169.132 201.702 169.132 202.486C169.132 203.361 169.841 204.074 170.714 204.074C171.14 204.074 171.526 203.903 171.811 203.627L171.344 203.357C171.167 203.487 170.949 203.564 170.714 203.564Z"
                fill="#12AAFF" />
            <path
                d="M172.193 203.044L171.746 202.784C171.679 203.017 171.535 203.217 171.344 203.356L171.811 203.626C171.979 203.466 172.11 203.267 172.193 203.044Z"
                fill="#12AAFF" />
            <path
                d="M170.714 201.407C170.864 201.407 171.007 201.438 171.137 201.494L171.137 200.957C171.002 200.92 170.861 200.897 170.714 200.897C170.621 200.897 170.532 200.907 170.442 200.922L170.442 201.443C170.531 201.42 170.621 201.407 170.714 201.407Z"
                fill="#12AAFF" />
            <path
                d="M30.0132 140.097L52.6364 126.984L76.3917 140.753L76.3917 168.289L52.6364 182.058L28.8822 168.289L28.8822 142.181C28.7682 142.206 28.6493 142.223 28.5266 142.223C28.4102 142.223 28.2975 142.209 28.1885 142.186L28.1885 168.691L52.6364 182.862L77.0857 168.692L77.0857 140.351L52.6364 126.181L29.6415 139.509C29.8063 139.672 29.9327 139.873 30.0132 140.097Z"
                fill="#3786E5" />
            <path
                d="M48.2661 97.1256L48.2661 123.334L25.7012 136.412C25.8535 136.588 25.9675 136.795 26.0332 137.024L48.9611 123.736L48.9611 97.0931C48.8285 97.1296 48.6886 97.1503 48.5448 97.1503C48.4482 97.152 48.3553 97.1419 48.2661 97.1256Z"
                fill="#3786E5" />
            <path
                d="M47.0346 95.0845C47.1064 94.8585 47.2278 94.6544 47.3864 94.4839L26.0875 82.1396C26.0702 82.3869 25.9971 82.6196 25.8794 82.8237L47.0346 95.0845Z"
                fill="#3786E5" />
            <path
                d="M0.756236 123.336L0.756235 95.7991L23.1428 82.824C23.0251 82.6204 22.952 82.3877 22.9347 82.1404L0.0624982 95.3976L0.0624994 123.739L22.9904 137.027C23.0548 136.798 23.17 136.589 23.3224 136.415L0.756236 123.336Z"
                fill="#3786E5" />
            <path
                d="M27.4527 140.633C27.4527 140.039 27.9346 139.555 28.5268 139.555C28.7708 139.555 28.9963 139.638 29.1772 139.777L29.6417 139.509C29.3556 139.223 28.9616 139.046 28.5268 139.046C27.6547 139.046 26.9448 139.759 26.9448 140.634C26.9448 141.393 27.4788 142.029 28.1886 142.185L28.1886 141.657C27.7612 141.514 27.4527 141.11 27.4527 140.633Z"
                fill="#12AAFF" />
            <path
                d="M29.6008 140.633C29.6008 141.103 29.2998 141.502 28.8823 141.649L28.8823 142.179C29.5835 142.016 30.1087 141.385 30.1087 140.633C30.1087 140.444 30.074 140.264 30.0133 140.096L29.5636 140.357C29.5872 140.446 29.6008 140.537 29.6008 140.633Z"
                fill="#12AAFF" />
            <path
                d="M28.8822 142.18L28.8822 141.65C28.7707 141.69 28.6518 141.712 28.5266 141.712C28.4077 141.712 28.295 141.693 28.1885 141.656L28.1885 142.185C28.2975 142.209 28.4102 142.223 28.5266 142.223C28.6493 142.221 28.767 142.206 28.8822 142.18Z"
                fill="#12AAFF" />
            <path
                d="M29.5638 140.357L30.0134 140.096C29.9329 139.872 29.8054 139.672 29.6418 139.508L29.1772 139.777C29.3643 139.921 29.5018 140.123 29.5638 140.357Z"
                fill="#12AAFF" />
            <path
                d="M25.5842 137.457C25.5842 138.052 25.1023 138.535 24.5102 138.535C23.918 138.535 23.4361 138.051 23.4361 137.457C23.4361 137.401 23.4411 137.346 23.4498 137.293L22.9889 137.026C22.9505 137.162 22.9282 137.307 22.9282 137.457C22.9282 138.333 23.638 139.045 24.5101 139.045C25.3823 139.045 26.0921 138.333 26.0921 137.457C26.0921 137.308 26.0698 137.164 26.0314 137.026L25.5706 137.293C25.5793 137.346 25.5842 137.401 25.5842 137.457Z"
                fill="#12AAFF" />
            <path
                d="M24.5105 135.869C24.0361 135.869 23.6111 136.08 23.3213 136.413L23.7734 136.676C23.9667 136.492 24.2256 136.379 24.5117 136.379C24.7979 136.379 25.0568 136.492 25.2501 136.676L25.7023 136.413C25.4099 136.08 24.985 135.869 24.5105 135.869Z"
                fill="#12AAFF" />
            <path
                d="M25.2485 136.676C25.417 136.836 25.5335 137.052 25.5706 137.294L26.0314 137.027C25.9671 136.798 25.8518 136.589 25.6995 136.415L25.2485 136.676Z"
                fill="#12AAFF" />
            <path
                d="M23.772 136.676L23.3198 136.414C23.1674 136.589 23.0534 136.797 22.9878 137.026L23.4487 137.293C23.4871 137.051 23.6035 136.837 23.772 136.676Z"
                fill="#12AAFF" />
            <path
                d="M48.2659 97.1255L48.2659 96.6046C47.8076 96.4812 47.4681 96.0624 47.4681 95.5633C47.4681 95.4899 47.4756 95.4181 47.4892 95.348L47.0334 95.0845C46.985 95.2364 46.959 95.3968 46.959 95.5633C46.9602 96.3444 47.5251 96.9937 48.2659 97.1255Z"
                fill="#12AAFF" />
            <path
                d="M48.5423 94.4853C49.1345 94.4853 49.6164 94.9692 49.6164 95.5636C49.6164 96.0099 49.3451 96.3946 48.9586 96.5572L48.9586 97.0933C49.6288 96.9093 50.1243 96.2937 50.1243 95.5625C50.1243 94.6872 49.4144 93.9745 48.5423 93.9745C48.0852 93.9745 47.6751 94.1708 47.3853 94.4831L47.8412 94.7478C48.0307 94.5851 48.2748 94.4853 48.5423 94.4853Z"
                fill="#12AAFF" />
            <path
                d="M47.4906 95.3486C47.5388 95.1109 47.6652 94.9006 47.8424 94.7481L47.3865 94.4829C47.2292 94.6533 47.1065 94.8574 47.0347 95.0834L47.4906 95.3486Z"
                fill="#12AAFF" />
            <path
                d="M48.5421 96.6416C48.4468 96.6416 48.3538 96.6281 48.2646 96.6046L48.2646 97.1255C48.3551 97.1418 48.4468 97.1519 48.5421 97.1519C48.6871 97.1519 48.8258 97.1306 48.9584 97.0947L48.9584 96.5586C48.8308 96.6119 48.6908 96.6416 48.5421 96.6416Z"
                fill="#12AAFF" />
            <path
                d="M22.9282 82.0303C22.9282 82.0679 22.9307 82.1038 22.9331 82.1396L23.4535 81.8391C23.5439 81.335 23.9824 80.952 24.5102 80.952C25.0367 80.952 25.4752 81.335 25.5669 81.8391L26.0872 82.1396C26.0897 82.1038 26.0921 82.0679 26.0921 82.0303C26.0921 81.155 25.3823 80.4423 24.5102 80.4423C23.638 80.4423 22.9282 81.1533 22.9282 82.0303Z"
                fill="#12AAFF" />
            <path
                d="M24.5105 83.1089C24.1141 83.1089 23.7672 82.8908 23.5814 82.569L23.1416 82.8241C23.4154 83.2979 23.9258 83.6187 24.5105 83.6187C25.0952 83.6187 25.6056 83.2979 25.8794 82.8241L25.4396 82.569C25.2538 82.8908 24.9081 83.1089 24.5105 83.1089Z"
                fill="#12AAFF" />
            <path
                d="M23.5812 82.5693C23.4896 82.4101 23.4363 82.2273 23.4363 82.0305C23.4363 81.9649 23.4425 81.9015 23.4549 81.8376L22.9346 82.1387C22.9519 82.3865 23.025 82.6187 23.1427 82.8228L23.5812 82.5693Z"
                fill="#12AAFF" />
            <path
                d="M25.5844 82.0303C25.5844 82.2266 25.5311 82.4094 25.4395 82.5686L25.8793 82.8237C25.9969 82.6196 26.07 82.3869 26.0873 82.1396L25.5671 81.8385C25.5782 81.8997 25.5844 81.9641 25.5844 82.0303Z"
                fill="#12AAFF" />
        </g>
        <path
            d="M98.2146 126.285H94.626V121.278H98.2146V126.285ZM98.2146 152.39H94.626V147.277H98.2146V152.39ZM96.9586 149.172C94.6618 149.172 92.784 148.85 91.3244 148.206C89.8649 147.539 88.7765 146.621 88.0588 145.453C87.3652 144.261 87.0181 142.902 87.0181 141.376V140.768H90.822V141.161C90.822 142.139 90.9897 142.961 91.3244 143.629C91.6833 144.297 92.3175 144.797 93.2264 145.131C94.1353 145.465 95.4396 145.632 97.138 145.632C98.9082 145.632 100.152 145.381 100.87 144.881C101.588 144.356 101.947 143.546 101.947 142.449C101.947 141.71 101.839 141.114 101.624 140.661C101.408 140.208 100.978 139.838 100.332 139.552C99.71 139.242 98.777 138.968 97.5328 138.73L93.4417 137.907C92.0539 137.645 90.8938 137.239 89.9607 136.691C89.0277 136.119 88.31 135.392 87.8076 134.51C87.3293 133.628 87.0898 132.567 87.0898 131.327C87.0898 130.135 87.401 129.027 88.0229 128.001C88.6688 126.953 89.6495 126.106 90.9656 125.462C92.3051 124.819 94.0041 124.497 96.0614 124.497C98.2623 124.497 100.045 124.866 101.408 125.605C102.796 126.345 103.801 127.322 104.423 128.538C105.069 129.73 105.392 131.041 105.392 132.472V132.901H101.552V132.507C101.552 131.506 101.384 130.683 101.05 130.04C100.738 129.372 100.164 128.871 99.3271 128.538C98.5135 128.18 97.401 128.001 95.9896 128.001C94.2194 128.001 92.9393 128.263 92.1498 128.788C91.3603 129.313 90.9656 130.1 90.9656 131.148C90.9656 131.864 91.085 132.436 91.3244 132.865C91.5874 133.294 92.0304 133.64 92.6522 133.902C93.2982 134.141 94.1594 134.391 95.236 134.653L99.3271 135.511C100.858 135.797 102.09 136.25 103.023 136.87C103.981 137.49 104.686 138.253 105.141 139.159C105.595 140.041 105.822 141.09 105.822 142.306C105.822 143.546 105.511 144.69 104.889 145.739C104.268 146.788 103.299 147.622 101.983 148.242C100.691 148.862 99.0159 149.172 96.9586 149.172Z"
            fill="#0E88CB" />
        <path
            d="M195.44 126.845H191.852V121.839H195.44V126.845ZM195.44 152.951H191.852V147.837H195.44V152.951ZM194.184 149.733C191.887 149.733 190.01 149.411 188.55 148.767C187.09 148.099 186.002 147.182 185.284 146.013C184.591 144.822 184.244 143.463 184.244 141.937V141.329H188.048V141.722C188.048 142.699 188.215 143.522 188.55 144.19C188.909 144.857 189.543 145.358 190.452 145.691C191.361 146.025 192.665 146.192 194.364 146.192C196.134 146.192 197.378 145.942 198.096 145.441C198.813 144.916 199.172 144.106 199.172 143.009C199.172 142.27 199.065 141.675 198.849 141.221C198.634 140.768 198.203 140.399 197.557 140.113C196.936 139.803 196.003 139.529 194.758 139.29L190.667 138.468C189.28 138.206 188.119 137.8 187.186 137.252C186.253 136.68 185.536 135.953 185.033 135.07C184.555 134.188 184.315 133.128 184.315 131.888C184.315 130.696 184.627 129.587 185.248 128.562C185.894 127.513 186.875 126.667 188.191 126.023C189.531 125.379 191.23 125.057 193.287 125.057C195.488 125.057 197.27 125.427 198.634 126.166C200.022 126.905 201.027 127.882 201.649 129.098C202.294 130.29 202.617 131.602 202.617 133.032V133.461H198.778V133.068C198.778 132.067 198.61 131.244 198.275 130.6C197.964 129.933 197.39 129.432 196.553 129.098C195.739 128.741 194.627 128.562 193.215 128.562C191.445 128.562 190.165 128.824 189.375 129.349C188.586 129.873 188.191 130.66 188.191 131.709C188.191 132.424 188.311 132.996 188.55 133.425C188.813 133.855 189.256 134.2 189.878 134.463C190.524 134.701 191.385 134.951 192.462 135.214L196.553 136.072C198.084 136.358 199.316 136.811 200.249 137.431C201.206 138.05 201.911 138.814 202.366 139.719C202.821 140.602 203.048 141.65 203.048 142.866C203.048 144.106 202.737 145.251 202.115 146.299C201.493 147.348 200.524 148.183 199.208 148.803C197.916 149.422 196.241 149.733 194.184 149.733Z"
            fill="#0E88CB" />
        <path fill-rule="evenodd" clip-rule="evenodd"
            d="M239.423 54.199L239.381 54.1889C239.349 54.1816 239.32 54.1867 239.293 54.204C239.266 54.2208 239.248 54.2454 239.242 54.2766C239.022 55.2774 238.674 55.5685 237.975 56.2659C236.838 57.3979 235.022 57.3968 233.854 56.2659L232.393 54.8505C232.369 54.827 232.339 54.8159 232.304 54.8186C232.27 54.8209 232.242 54.836 232.221 54.8633L229.594 58.2763C229.558 58.3221 229.563 58.3864 229.604 58.4272L237.299 66.0957C237.339 66.1348 237.399 66.1409 237.445 66.1102L240.306 64.2087C241.787 63.2253 244.319 63.3499 246 63.408C247.058 63.4443 247.09 63.4237 248.282 63.2409H248.284L249.72 63.0431C249.732 63.0415 249.741 63.0392 249.751 63.0348C250.352 62.7766 250.883 62.3955 251.345 61.9345L260.069 53.2323C260.077 53.2239 260.083 53.2155 260.089 53.2055C260.503 52.435 261.007 51.2224 260.339 50.4474C259.953 49.9987 259.328 49.8613 258.768 49.7814C258.122 49.6897 258.001 49.0639 258.371 48.4509C258.862 47.6368 259.055 46.4293 258.314 45.6906C257.869 45.2475 257.45 45.1648 256.868 45.0425C256.433 44.9508 256.074 44.6469 255.943 44.2188C255.855 43.9339 255.989 43.6651 256.084 43.3902C256.327 42.6817 256.315 41.9486 255.748 41.3837C254.654 40.2935 254.279 41.3568 253.313 40.3946C252.805 39.8884 253.074 39.3916 253.054 38.772C253.007 37.3393 251.209 36.5358 250.141 37.6002L247.736 39.9968C247.691 40.0415 247.691 40.1147 247.736 40.1594L249.17 41.5887C250.37 42.7839 250.37 44.7312 249.17 45.9264C248.626 46.4684 248.426 46.6349 247.76 46.8886C247.723 46.9026 247.698 46.9317 247.689 46.9702C247.681 47.0082 247.69 47.0456 247.718 47.0747L247.761 47.1211C249.671 49.1623 248.237 52.5517 245.389 52.5517C244.608 52.5517 244.053 52.3221 243.453 51.9136C243.422 51.8924 243.386 51.8879 243.351 51.9002C243.315 51.9125 243.29 51.9382 243.278 51.9745L243.26 52.031C242.752 53.6447 241.077 54.5862 239.423 54.199ZM260.569 55.0969L262.96 57.4795C263.005 57.5242 263.005 57.5974 262.96 57.6421L255.016 65.5581C254.972 65.6017 254.902 65.6029 254.856 65.5609L252.848 63.7148C252.693 63.5728 252.507 63.47 252.319 63.3717C252.286 63.3544 252.264 63.3242 252.259 63.2868C252.254 63.2488 252.266 63.2141 252.293 63.1873L252.449 63.0364L252.451 63.0353L260.406 55.0969C260.45 55.0522 260.524 55.0522 260.569 55.0969ZM244.288 39.0955C243.911 38.7206 243.614 38.4261 243.614 37.7975C243.614 37.3963 243.771 37.0135 244.056 36.7297L246.598 34.1968C247.188 33.6095 248.152 33.6095 248.741 34.1968C249.117 34.5712 249.414 34.8662 249.414 35.4948C249.414 35.8954 249.257 36.2782 248.972 36.5621L246.43 39.0955C245.841 39.6822 244.876 39.6822 244.288 39.0955ZM239.343 38.7183C238.858 38.1221 238.9 37.2454 239.447 36.6995C239.824 36.3246 240.12 36.0284 240.751 36.0284C241.431 36.0284 241.744 36.3872 242.153 36.7984C242.183 36.8286 242.193 36.8688 242.182 36.9096C241.878 38.0227 242.115 39.1335 242.951 39.9661L243.182 40.1968C244.017 41.0288 245.133 41.2663 246.249 40.9629C246.291 40.9517 246.331 40.9624 246.361 40.9925L248.065 42.6901C248.653 43.2768 248.653 44.2378 248.065 44.8251C247.688 45.1995 247.392 45.4956 246.762 45.4956C246.363 45.4956 245.979 45.3436 245.697 45.0615L239.565 38.9513C239.563 38.9502 239.563 38.9491 239.562 38.948L239.329 38.7317L239.343 38.7183ZM235.603 41.3904H235.592C235.592 40.8657 235.684 40.4505 236.084 40.0516C236.735 39.4023 237.806 39.4023 238.458 40.0516L246.576 48.1414C247.615 49.1762 246.899 50.9939 245.389 50.9939C244.944 50.9939 244.518 50.8212 244.202 50.5066L236.084 42.4168C235.806 42.1397 235.638 41.7765 235.603 41.3904ZM235.272 48.5426L238.438 51.6968C238.968 52.2221 239.337 52.7272 240.17 52.7272C241.681 52.7272 242.396 50.9101 241.357 49.8752L236.132 44.6681C235.819 44.3557 235.394 44.1875 234.952 44.1875C233.441 44.1875 232.726 46.0052 233.764 47.0401L235.272 48.5426ZM231.793 52.0097L234.959 55.164C235.213 55.4171 235.555 55.5568 235.914 55.5568C236.586 55.5568 236.889 55.1444 237.333 54.7024C237.857 54.1805 237.857 53.3245 237.339 52.8048L234.162 49.6389C233.909 49.3886 233.568 49.2516 233.212 49.2516C232.54 49.2516 232.237 49.664 231.793 50.1055C231.268 50.629 231.268 51.4862 231.793 52.0097ZM223.992 60.6533C223.91 60.5723 223.91 60.4343 223.992 60.3538L226.391 57.9623C226.472 57.8818 226.61 57.8818 226.692 57.9623L237.115 68.3492C237.155 68.3894 237.175 68.4442 237.175 68.4989H237.179C237.179 68.552 237.157 68.6062 237.115 68.6487L234.715 71.0396C234.672 71.0827 234.618 71.1039 234.565 71.1039V71.1006C234.51 71.1006 234.455 71.0799 234.415 71.0396L223.992 60.6533ZM265.084 57.9623C265.165 57.8818 265.304 57.8818 265.385 57.9623L267.784 60.3538C267.865 60.4343 267.865 60.5723 267.784 60.6533L257.361 71.0402C257.32 71.0804 257.266 71.1006 257.211 71.1006V71.1039C257.158 71.1039 257.103 71.0827 257.06 71.0402L254.66 68.6492C254.618 68.6062 254.596 68.552 254.596 68.4989H254.6C254.6 68.4442 254.62 68.39 254.66 68.3492L265.084 57.9623Z"
            fill="#0E88CB" />
    </g>
    <defs>
        <clipPath id="clip0_7827_8556">
            <rect width="217" height="290" fill="white" transform="translate(0 217) rotate(-90)" />
        </clipPath>
    </defs>
</svg>