<svg width="433" height="340" viewBox="0 0 433 340" fill="none" xmlns="http://www.w3.org/2000/svg">
    <path
        d="M265.04 170C265.04 191.049 243.307 208.114 216.5 208.114C189.693 208.114 167.96 191.049 167.96 170C167.96 148.948 189.693 131.885 216.5 131.885C243.307 131.885 265.04 148.948 265.04 170ZM157.061 170C157.061 195.777 183.673 216.673 216.5 216.673C249.328 216.673 275.94 195.777 275.94 170C275.94 144.223 249.328 123.327 216.5 123.327C183.673 123.327 157.061 144.223 157.061 170Z"
        fill="#286291" />
    <path
        d="M191.386 235.733C189.765 237.006 189.765 239.074 191.386 240.347C193.011 241.622 195.641 241.622 197.265 240.347C198.755 239.177 198.872 237.341 197.626 236.063L211.849 224.894V215.308H210.744V224.534L196.845 235.448C195.215 234.469 192.878 234.563 191.386 235.733ZM206.967 285.205V236.848L222.442 224.694V215.308H220.785V224.156L205.309 236.308V285.744L215.942 294.093V330.258C212.891 330.576 210.537 332.623 210.537 335.103C210.537 337.807 213.326 340 216.77 340C220.214 340 223.004 337.807 223.004 335.103C223.004 332.623 220.65 330.576 217.599 330.258V293.556L206.967 285.205ZM186.741 317.67C186.741 315.329 189.164 313.426 192.146 313.426C195.127 313.426 197.551 315.329 197.551 317.67C197.551 320.011 195.127 321.916 192.146 321.916C189.164 321.916 186.741 320.011 186.741 317.67ZM199.208 317.67C199.208 314.834 196.479 312.49 192.975 312.167V266.256L181.733 257.431V234.24L201.262 218.908V206.188C200.703 206.045 200.151 205.898 199.604 205.738V218.368L180.075 233.7V257.968L191.317 266.793V312.167C187.813 312.49 185.081 314.834 185.081 317.67C185.081 320.728 188.251 323.218 192.146 323.218C196.04 323.218 199.208 320.728 199.208 317.67ZM158.718 250.096C158.718 248.441 157.147 247.076 155.115 246.864V230.824L170.776 218.529L169.668 218.17L154.01 230.466V246.864C151.977 247.076 150.407 248.441 150.407 250.096C150.407 251.897 152.265 253.359 154.562 253.359C156.856 253.359 158.718 251.897 158.718 250.096ZM214.569 241.068V259.015C212.537 259.23 210.966 260.592 210.966 262.248C210.966 264.049 212.828 265.511 215.125 265.511C217.419 265.511 219.28 264.049 219.28 262.248C219.28 260.592 217.71 259.23 215.677 259.015V241.429L231.942 228.655V215.308H230.837V228.297L214.569 241.068ZM149.47 286.787L164.429 275.04V230.626L180.826 217.751V199.287H185.444C184.798 198.868 184.174 198.432 183.558 197.986H180.826V195.838C180.256 195.355 179.703 194.862 179.166 194.355V197.986H155.688L139.291 210.861H82.7278L67.7688 222.607C65.3247 221.139 61.8177 221.28 59.5807 223.034C57.1486 224.944 57.1486 228.047 59.5807 229.956C62.0159 231.869 65.9643 231.869 68.3994 229.956C70.6333 228.202 70.8105 225.446 68.9399 223.527L83.4154 212.163H139.979L156.373 199.287H179.166V217.211L162.771 230.086V274.501L148.296 285.867C145.852 284.398 142.345 284.537 140.108 286.291C137.676 288.204 137.676 291.304 140.108 293.216C142.543 295.126 146.491 295.126 148.926 293.216C151.16 291.46 151.337 288.706 149.47 286.787ZM288.992 65.655L276.979 75.0858V100.983L262.056 112.701L263.713 113.241L278.636 101.523V75.6258L290.163 66.5745C292.607 68.0434 296.114 67.9043 298.351 66.1501C300.783 64.238 300.783 61.1377 298.351 59.2256C295.916 57.3158 291.968 57.3158 289.532 59.2256C287.298 60.9821 287.121 63.7359 288.992 65.655ZM404.562 155.125C407.544 155.125 409.97 157.028 409.97 159.369C409.97 161.71 407.544 163.613 404.562 163.613C401.581 163.613 399.158 161.71 399.158 159.369C399.158 157.028 401.581 155.125 404.562 155.125ZM302.05 150.69L313.932 160.02H397.554C397.966 162.771 400.95 164.914 404.562 164.914C408.457 164.914 411.627 162.427 411.627 159.369C411.627 156.311 408.457 153.821 404.562 153.821C400.95 153.821 397.966 155.965 397.554 158.718H314.616L302.738 149.389H257.32C257.675 149.818 258.017 150.249 258.347 150.69H302.05ZM262.056 227.299L276.979 239.017V264.914L288.992 274.345C287.121 276.264 287.298 279.018 289.532 280.774C291.968 282.684 295.916 282.684 298.351 280.774C300.783 278.862 300.783 275.762 298.351 273.85C296.114 272.096 292.607 271.957 290.163 273.425L278.636 264.374V238.477L263.713 226.759L262.056 227.299ZM338.904 200.19L335.328 202.998H295.616L279.038 189.982H257.837C257.606 190.274 257.365 190.562 257.128 190.849H278.582L295.159 203.866H335.788L339.688 200.803C341.315 201.782 343.654 201.69 345.144 200.518C346.768 199.245 346.768 197.177 345.144 195.904C343.522 194.629 340.889 194.629 339.268 195.904C337.778 197.074 337.658 198.91 338.904 200.19ZM420.593 169.109H373.852L363.219 177.46H301.633L286.154 165.306H274.201V166.61H285.47L300.945 178.761H363.904L374.539 170.413H420.593C420.999 172.806 423.605 174.656 426.764 174.656C430.208 174.656 433 172.464 433 169.762C433 167.058 430.208 164.865 426.764 164.865C423.605 164.865 420.999 166.716 420.593 169.109ZM278.303 205.877L277.846 206.745L293.505 219.043H314.388C314.658 220.639 316.397 221.872 318.505 221.872C320.799 221.872 322.66 220.41 322.66 218.609C322.66 216.808 320.799 215.346 318.505 215.346C316.397 215.346 314.658 216.579 314.388 218.175H293.961L278.303 205.877ZM379.223 189.097C379.223 191.439 376.797 193.341 373.816 193.341C370.834 193.341 368.411 191.439 368.411 189.097C368.411 186.756 370.834 184.854 373.816 184.854C376.797 184.854 379.223 186.756 379.223 189.097ZM366.808 188.447H339.084L327.843 197.272H298.312L278.786 181.939H274.201V183.241H278.098L297.624 198.575H328.53L339.769 189.748H366.808C367.219 192.5 370.203 194.643 373.816 194.643C377.71 194.643 380.881 192.155 380.881 189.097C380.881 186.039 377.71 183.55 373.816 183.55C370.203 183.55 367.219 185.695 366.808 188.447ZM235.41 293.527C235.41 295.868 232.987 297.773 230.006 297.773C227.024 297.773 224.601 295.868 224.601 293.527C224.601 291.186 227.024 289.283 230.006 289.283C232.987 289.283 235.41 291.186 235.41 293.527ZM242.716 237.716V202.072C242.169 202.348 241.617 202.614 241.058 202.873V237.176L229.177 246.505V288.024C225.673 288.347 222.944 290.691 222.944 293.527C222.944 296.585 226.111 299.075 230.006 299.075C233.9 299.075 237.068 296.585 237.068 293.527C237.068 290.691 234.338 288.347 230.834 288.024V247.043L242.716 237.716ZM257.053 273.678C257.053 275.236 255.438 276.507 253.45 276.507C251.462 276.507 249.847 275.236 249.847 273.678C249.847 272.117 251.462 270.848 253.45 270.848C255.438 270.848 257.053 272.117 257.053 273.678ZM252.946 197.986V195.161C252.585 195.484 252.216 195.8 251.841 196.114V197.986H249.442C248.826 198.432 248.202 198.868 247.556 199.287H251.841V228.655L263.902 238.126V254.337L252.898 262.978V270.007C250.562 270.224 248.739 271.785 248.739 273.678C248.739 275.715 250.853 277.375 253.45 277.375C256.044 277.375 258.158 275.715 258.158 273.678C258.158 271.785 256.339 270.224 254.003 270.007V263.337L265.007 254.696V237.768L252.946 228.297V199.287H276.624L293.021 212.163H349.585L364.057 223.527C362.19 225.446 362.367 228.202 364.601 229.956C367.036 231.869 370.984 231.869 373.419 229.956C375.851 228.047 375.851 224.944 373.419 223.034C371.182 221.28 367.675 221.139 365.231 222.607L350.272 210.861H293.709L277.312 197.986H252.946ZM348.215 112.132L336.688 121.181H303.708L288.785 132.902L289.472 134.203L304.395 122.485H337.373L349.386 113.052C351.831 114.521 355.338 114.382 357.574 112.625C360.007 110.715 360.007 107.615 357.574 105.703C355.139 103.791 351.191 103.791 348.756 105.703C346.522 107.459 346.345 110.213 348.215 112.132ZM175.872 190.849C175.635 190.562 175.394 190.274 175.163 189.982H153.962L137.384 202.998H97.6718L94.0957 200.19C95.3418 198.91 95.2217 197.074 93.7324 195.904C92.111 194.629 89.4777 194.629 87.8563 195.904C86.2319 197.177 86.2319 199.245 87.8563 200.518C89.3456 201.69 91.6816 201.782 93.312 200.803L97.2124 203.866H137.841L154.418 190.849H175.872ZM348.537 138.131C350.521 138.131 352.14 139.399 352.14 140.96C352.14 142.521 350.521 143.789 348.537 143.789C346.549 143.789 344.934 142.521 344.934 140.96C344.934 139.399 346.549 138.131 348.537 138.131ZM249.847 66.3223C249.847 64.7638 251.462 63.493 253.45 63.493C255.438 63.493 257.053 64.7638 257.053 66.3223C257.053 67.8831 255.438 69.1515 253.45 69.1515C251.462 69.1515 249.847 67.8831 249.847 66.3223ZM252.946 141.354V111.703L265.007 102.232V85.3041L254.003 76.6632V69.9932C256.339 69.7763 258.158 68.2155 258.158 66.3223C258.158 64.2852 256.044 62.6254 253.45 62.6254C250.853 62.6254 248.739 64.2852 248.739 66.3223C248.739 68.2155 250.562 69.7763 252.898 69.9932V77.0215L263.902 85.6625V101.874L251.841 111.345V141.354H248.505C248.916 141.639 249.322 141.929 249.721 142.224H251.841V143.886C252.216 144.2 252.585 144.516 252.946 144.839V142.224H291.199L303.26 132.753H323.906L334.911 141.394H343.862C344.138 143.228 346.126 144.657 348.537 144.657C351.131 144.657 353.245 143 353.245 140.96C353.245 138.921 351.131 137.263 348.537 137.263C346.126 137.263 344.138 138.692 343.862 140.526H335.367L324.363 131.885H302.804L290.742 141.354H252.946ZM114.495 215.346C112.201 215.346 110.34 216.808 110.34 218.609C110.34 220.41 112.201 221.872 114.495 221.872C116.603 221.872 118.342 220.639 118.612 219.043H139.495L155.154 206.745L154.697 205.877L139.036 218.175H118.612C118.342 216.579 116.603 215.346 114.495 215.346ZM146.59 173.626L132.37 184.792C130.74 183.814 128.4 183.906 126.911 185.078C125.287 186.351 125.287 188.418 126.911 189.692C128.533 190.967 131.166 190.967 132.787 189.692C134.277 188.522 134.397 186.685 133.151 185.408L147.05 174.494H160.189V173.626H146.59ZM141.801 157.848L125.533 170.62H103.137C102.863 169.024 101.128 167.791 99.02 167.791C96.726 167.791 94.8644 169.253 94.8644 171.054C94.8644 172.855 96.726 174.317 99.02 174.317C101.128 174.317 102.863 173.084 103.137 171.488H125.992L142.258 158.716H160.189V157.848H141.801ZM174.442 232.123L191.02 219.106V202.44C190.645 202.26 190.278 202.072 189.912 201.883V218.748L173.338 231.765V263.667L177.238 266.73C175.992 268.01 176.109 269.844 177.598 271.014C179.223 272.289 181.853 272.289 183.477 271.014C185.099 269.74 185.099 267.673 183.477 266.4C181.988 265.23 179.649 265.136 178.019 266.114L174.442 263.306V232.123ZM183.477 73.6005C185.099 72.3273 185.099 70.2596 183.477 68.9865C181.853 67.7109 179.223 67.7109 177.598 68.9865C176.109 70.1559 175.992 71.9902 177.238 73.2704L173.338 76.3331V108.235L189.912 121.252V138.117C190.278 137.928 190.645 137.74 191.02 137.56V120.894L174.442 107.877V76.6938L178.019 73.8858C179.649 74.8642 181.988 74.7699 183.477 73.6005ZM210.744 124.418H211.849V115.106L197.626 103.937C198.872 102.659 198.755 100.823 197.265 99.6531C195.641 98.3776 193.011 98.3776 191.386 99.6531C189.765 100.926 189.765 102.994 191.386 104.267C192.878 105.437 195.215 105.531 196.845 104.552L210.744 115.466V124.418ZM291.199 157.848H274.201V158.716H290.742L307.008 171.488H329.866C330.137 173.084 331.872 174.317 333.98 174.317C336.274 174.317 338.136 172.855 338.136 171.054C338.136 169.253 336.274 167.791 333.98 167.791C331.872 167.791 330.137 169.024 329.866 170.62H307.467L291.199 157.848ZM215.677 98.571V80.9848C217.71 80.7703 219.28 79.4075 219.28 77.7524C219.28 75.9511 217.419 74.4893 215.125 74.4893C212.828 74.4893 210.966 75.9511 210.966 77.7524C210.966 79.4075 212.537 80.7703 214.569 80.9848V98.9317L230.837 111.703V132.607H231.942V111.345L215.677 98.571ZM274.201 173.626V174.494H285.95L299.849 185.408C298.603 186.685 298.723 188.522 300.213 189.692C301.834 190.967 304.467 190.967 306.089 189.692C307.713 188.418 307.713 186.351 306.089 185.078C304.599 183.906 302.26 183.814 300.63 184.792L286.41 173.626H274.201ZM144.215 132.902L129.292 121.181H96.3116L84.7846 112.132C86.6553 110.213 86.4781 107.459 84.2441 105.703C81.809 103.791 77.8606 103.791 75.4255 105.703C72.9934 107.615 72.9934 110.715 75.4255 112.625C77.6624 114.382 81.1695 114.521 83.6136 113.052L95.624 122.485H128.605L143.528 134.203L144.215 132.902ZM28.4377 163.613C25.4561 163.613 23.03 161.71 23.03 159.369C23.03 157.028 25.4561 155.125 28.4377 155.125C31.4193 155.125 33.8424 157.028 33.8424 159.369C33.8424 161.71 31.4193 163.613 28.4377 163.613ZM35.4458 158.718C35.0344 155.965 32.0498 153.821 28.4377 153.821C24.5433 153.821 21.3726 156.311 21.3726 159.369C21.3726 162.427 24.5433 164.914 28.4377 164.914C32.0498 164.914 35.0344 162.771 35.4458 160.02H119.068L130.95 150.69H174.653C174.983 150.249 175.328 149.818 175.68 149.389H130.262L118.384 158.718H35.4458ZM160.189 166.61V165.306H146.846L131.367 177.46H69.7806L59.1484 169.109H12.4068C12.0014 166.716 9.39516 164.865 6.23642 164.865C2.79242 164.865 0 167.058 0 169.762C0 172.464 2.79242 174.656 6.23642 174.656C9.39516 174.656 12.0014 172.806 12.4068 170.413H58.4608L69.096 178.761H132.055L147.53 166.61H160.189ZM53.7767 189.097C53.7767 186.756 56.2028 184.854 59.1844 184.854C62.166 184.854 64.5891 186.756 64.5891 189.097C64.5891 191.439 62.166 193.341 59.1844 193.341C56.2028 193.341 53.7767 191.439 53.7767 189.097ZM66.1925 189.748H93.228L104.47 198.575H135.376L154.902 183.241H160.189V181.939H154.214L134.688 197.272H105.154L93.9156 188.447H66.1925C65.7811 185.695 62.7965 183.55 59.1844 183.55C55.29 183.55 52.1193 186.039 52.1193 189.097C52.1193 192.155 55.29 194.643 59.1844 194.643C62.7965 194.643 65.7811 192.5 66.1925 189.748ZM192.146 18.0836C195.127 18.0836 197.551 19.9886 197.551 22.3298C197.551 24.671 195.127 26.5737 192.146 26.5737C189.164 26.5737 186.741 24.671 186.741 22.3298C186.741 19.9886 189.164 18.0836 192.146 18.0836ZM191.317 27.8327V73.2044L180.075 82.0316V106.3L199.604 121.632V134.262C200.151 134.102 200.703 133.955 201.262 133.812V121.092L181.733 105.76V82.5716L192.975 73.7443V27.8327C196.479 27.5097 199.208 25.1661 199.208 22.3298C199.208 19.2719 196.04 16.7821 192.146 16.7821C188.251 16.7821 185.081 19.2719 185.081 22.3298C185.081 25.1661 187.813 27.5097 191.317 27.8327ZM169.668 121.83L170.776 121.471L155.115 109.176V93.1364C157.147 92.9242 158.718 91.5591 158.718 89.904C158.718 88.1027 156.856 86.641 154.562 86.641C152.265 86.641 150.407 88.1027 150.407 89.904C150.407 91.5591 151.977 92.9242 154.01 93.1364V109.534L169.668 121.83ZM210.537 4.89695C210.537 7.37726 212.891 9.42375 215.942 9.74204V45.9045L205.309 54.2555V103.692L220.785 115.843V124.418H222.442V115.306L206.967 103.152V54.7954L217.599 46.4444V9.74204C220.65 9.42375 223.004 7.37726 223.004 4.89695C223.004 2.19267 220.214 0 216.77 0C213.326 0 210.537 2.19267 210.537 4.89695ZM235.41 46.4727C235.41 48.8139 232.987 50.7166 230.006 50.7166C227.024 50.7166 224.601 48.8139 224.601 46.4727C224.601 44.1315 227.024 42.2265 230.006 42.2265C232.987 42.2265 235.41 44.1315 235.41 46.4727ZM222.944 46.4727C222.944 49.3091 225.673 51.6526 229.177 51.9756V93.4948L241.058 102.824V137.127C241.617 137.386 242.169 137.652 242.716 137.928V102.284L230.834 92.9573V51.9756C234.338 51.6526 237.068 49.3091 237.068 46.4727C237.068 43.4148 233.9 40.9251 230.006 40.9251C226.111 40.9251 222.944 43.4148 222.944 46.4727ZM84.4663 143.789C82.4786 143.789 80.8602 142.521 80.8602 140.96C80.8602 139.399 82.4786 138.131 84.4663 138.131C86.4511 138.131 88.0695 139.399 88.0695 140.96C88.0695 142.521 86.4511 143.789 84.4663 143.789ZM141.801 142.224H179.166V145.643C179.703 145.138 180.256 144.645 180.826 144.162V142.224H183.279C183.678 141.929 184.084 141.639 184.495 141.354H180.826V122.249L164.429 109.374V64.9595L149.47 53.2134C151.337 51.2942 151.16 48.5404 148.926 46.784C146.491 44.8742 142.543 44.8742 140.108 46.784C137.676 48.696 137.676 51.7964 140.108 53.7085C142.345 55.4627 145.852 55.6018 148.296 54.1353L162.771 65.4994V109.914L179.166 122.787V141.354H142.258L130.196 131.885H108.637L97.6328 140.526H89.1384C88.8622 138.692 86.8744 137.263 84.4663 137.263C81.8691 137.263 79.7553 138.921 79.7553 140.96C79.7553 143 81.8691 144.657 84.4663 144.657C86.8744 144.657 88.8622 143.228 89.1384 141.394H98.0892L109.094 132.753H129.74L141.801 142.224Z"
        fill="#286291" />
    <path
        d="M197.66 180H194.27L202.1 159.9H206.75L214.58 180H211.07L205.79 166.56L204.5 162.81H204.26L202.94 166.56L197.66 180ZM210.8 174.78H198.14V171.87H210.8V174.78ZM225.138 180H220.848L213.228 159.9H216.858L222.918 176.37H223.158L229.158 159.9H232.758L225.138 180ZM237.387 180H234.147V159.9H237.387V180Z"
        fill="#286291" />
</svg>