<svg width="400" height="400" viewBox="0 0 400 400" fill="none" xmlns="http://www.w3.org/2000/svg">
    <path
        d="M174.425 268.052C130.781 266.764 66.9926 239.998 39.2066 206.414C22.0446 185.672 30.7586 172.048 53.2366 168.582C52.7286 167.222 52.3926 165.658 52.1126 164.16C45.2406 165.344 39.2146 167.51 34.3526 170.81C29.3366 174.214 28.5566 176.812 22.4666 188.178C13.7306 204.482 10.0546 208.57 12.7966 218.77C21.5326 251.288 100.985 296.652 160.781 297.35C163.267 287.938 167.997 278.04 174.425 268.052Z"
        fill="#38A1FF" />
    <path
        d="M85.3958 169.39C85.9058 169.472 87.4338 169.45 89.4298 169.532C91.5198 168.69 93.8378 167.734 96.4178 166.624C83.5118 163.85 71.1638 162.566 60.3398 163.224C60.7558 164.85 61.1278 166.43 61.2498 167.806C68.4038 167.478 76.5418 167.984 85.3958 169.39Z"
        fill="#38A1FF" />
    <path
        d="M167.381 194.256C169.063 196.872 170.849 199.68 172.545 202.36C184.921 210.522 195.483 219.32 202.807 227.754C203.825 226.812 205.001 225.778 206.359 224.62C197.361 214.046 183.525 203.53 167.379 194.258L167.381 194.256Z"
        fill="#38A1FF" />
    <path
        d="M73.1709 178.41C93.5389 169.788 95.4249 169.202 102.305 166.11C107.373 163.832 109.105 164.962 131.689 173.58C158.463 183.794 157.515 183.19 158.877 184.914C161.941 188.794 171.885 205.016 178.613 215.57C179.895 217.582 179.907 218.808 176.533 227.498C173.377 235.622 173.937 236.25 171.981 236.844C165.967 238.668 150.985 244.848 139.517 248.262C136.911 249.038 137.409 249.13 113.729 239.906C95.7489 232.902 90.5449 231.684 80.6569 226.548C79.9869 226.2 80.4049 226.684 72.6389 211.786C66.2129 199.458 65.3509 198.956 66.1829 196.188C66.7649 194.252 71.2829 178.96 73.1729 178.412L73.1709 178.41ZM75.7209 180.71C75.6089 181.904 75.9249 181.142 85.3969 202.36C89.4009 211.33 89.1969 211.386 90.5909 211.896C98.4309 214.768 129.943 226.416 138.625 229.822C142.629 231.392 140.371 231.656 175.501 217.1C171.961 210.88 167.157 204.77 156.541 187.39C155.589 185.834 156.537 186.79 132.485 177.826C105.711 167.848 107.369 167.436 105.567 168.252C99.7609 170.886 98.0169 171.448 75.7209 180.71ZM140.403 233.49C122.957 227.424 105.831 220.916 88.5469 214.626L84.2169 224.492L136.571 244.898L140.403 233.49ZM175.737 220.406C142.939 234.062 143.329 232.896 142.191 237.166C139.689 246.55 136.259 246.274 148.851 241.504C173.823 232.046 170.103 236.372 172.619 229.632C173.715 226.696 174.769 223.746 175.735 220.408L175.737 220.406ZM73.3809 184.482C71.6849 188.844 70.4829 193.042 69.0469 197.154C68.7869 197.902 69.1529 198.46 69.4829 199.054C73.8689 206.956 80.8449 221.726 81.4809 222.292C82.0249 221.944 81.6449 222.372 86.0989 213.248C86.9349 211.534 85.9629 212.028 78.1189 194.464C76.6649 191.208 75.0669 188.016 73.3809 184.482Z"
        fill="#191919" />
    <path
        d="M156.303 209.304C150.951 212.21 139.135 217.03 136.789 218.254C134.189 219.612 132.961 218.374 121.559 214.412C118.043 213.19 111.833 210.956 104.539 208.128C102.611 207.38 102.769 207.75 94.5574 190.686C93.2094 187.886 93.4014 187.46 96.3034 186.302C116.119 178.394 111.525 177.26 124.251 181.69C145.701 189.156 145.711 188.684 147.221 191.134C157.549 207.894 158.973 207.856 156.301 209.306L156.303 209.304ZM145.921 211.124C145.767 210.084 145.143 209.534 141.411 204.588C139.637 202.238 138.163 203.49 111.725 194.726C109.959 194.14 110.749 194.772 102.017 198.456C102.811 200.384 103.927 202.088 104.837 203.896C105.817 205.842 105.747 205.438 132.893 215.252C134.849 215.958 135.879 216.404 145.923 211.122L145.921 211.124ZM112.913 191.532C121.743 194.054 130.299 196.99 138.929 199.674C139.913 197.296 140.861 195.02 141.795 192.74C142.729 190.46 144.387 192.326 115.849 182.35L112.913 191.532ZM113.001 182.492C98.5314 188.392 103.831 186.298 97.9974 188.72C96.5114 189.338 97.5014 189.71 100.139 195.004C100.687 196.104 100.397 195.63 108.931 192.138C110.473 191.506 112.521 184.09 113.001 182.492ZM148.889 209.762L154.227 207.38L144.723 192.948C141.643 200.432 141.263 200.5 142.313 201.206C143.419 201.95 143.333 202.004 148.889 209.762Z"
        fill="#191919" />
    <path
        d="M123.556 105.098C126.59 30.912 230.156 -3.17011 264.75 51.542C276.38 69.936 289.256 87.452 276.846 118.072C257.396 166.058 191.304 186.386 156.258 161.61C137.256 148.176 123.1 116.256 123.558 105.1L123.556 105.098ZM141.954 136.694C171.102 164.972 243.192 151.038 263.954 95.256C275.13 65.23 256.628 34.464 222.958 30.086C154.848 21.234 100.726 96.698 141.954 136.694Z"
        fill="#38A1FF" />
    <path
        d="M162.053 376.91C156.865 377.384 154.453 373.882 152.959 368.512C152.243 365.938 150.307 368.212 143.329 367.858C141.299 367.754 141.875 369.53 141.123 373.098C139.449 381.036 132.289 379.32 123.235 378.5C120.573 378.26 112.027 377.886 108.687 376.59C102.687 374.264 106.013 368.942 104.595 367.82C103.853 367.234 100.369 366.96 97.9108 365.962C94.2748 364.484 94.5988 367.978 89.6988 369.934C84.7988 371.89 81.4908 368.884 77.7708 365.446C74.3708 362.306 69.7968 357.418 64.7188 350.726C61.1528 346.024 62.4248 341.432 66.3948 337.888C67.7928 336.638 68.3268 335.492 68.2528 333.656C67.7168 320.27 71.0168 321.222 67.6728 319.33C62.9808 316.678 60.0028 311.968 62.6048 302.692C65.6588 291.804 67.4868 285.692 75.0448 285.37C82.6028 285.05 88.8388 285.19 89.7328 292.268C90.0108 294.47 89.9088 296.686 89.2768 298.78C85.1148 312.584 85.7288 322.626 77.1308 321.894C73.3128 321.568 73.3548 321.48 73.0208 325.368C71.7048 340.65 73.0628 328.336 82.1668 336.19C97.5808 349.492 103.355 350.804 99.8168 359.248C98.6048 362.142 98.2568 361.428 105.325 363.238C106.049 363.424 106.213 362.89 106.385 362.37C109.253 353.646 109.557 351.826 115.879 351.872C122.201 351.918 128.941 353.068 135.527 352.978C140.015 352.916 142.797 355.914 142.857 360.4C142.899 363.642 142.899 363.634 146.127 363.234C151.561 362.56 151.617 363.456 151.343 360.81C150.511 352.764 149.625 351.83 168.683 346.438C170.257 345.992 172.827 345.726 173.225 347.478C174.279 352.112 154.507 352.866 155.189 357.586C155.751 361.478 154.145 362.264 159.039 361.656C162.537 361.22 163.817 361.002 164.199 362.366C164.779 364.438 160.343 365.274 158.073 365.99C156.713 366.418 156.601 366.556 156.977 367.88C157.685 370.378 159.635 372.954 163.253 372.558C168.479 371.984 184.425 367.124 186.455 363.812C188.253 360.88 191.963 366.086 187.425 368.68C184.099 370.582 166.255 377.44 162.053 376.91ZM117.805 356.002C117.787 356.174 115.477 356.086 115.305 356.072C112.847 355.874 112.481 357.536 110.989 362.362C109.755 366.356 120.115 362.278 119.861 366.348C119.797 367.384 119.015 367.732 118.157 367.858C109.757 369.096 109.081 366.678 109.267 370.98C109.337 372.588 110.327 373.576 112.481 373.758C136.881 375.81 137.183 376.652 137.481 369.94C137.617 366.884 137.127 368.088 133.831 366.754C131.619 365.858 132.367 363.656 134.301 363.418C137.757 362.994 138.291 364.184 138.459 361.606C138.845 355.656 134.943 357.426 128.849 356.98C125.165 356.71 121.487 356.338 117.807 356.004L117.805 356.002ZM74.7228 317.338C75.4808 317.942 78.9548 319.002 80.0328 316.552C81.4128 313.412 85.7988 296.532 85.6348 294.242C85.3908 290.814 85.3748 290.158 81.9228 289.782C76.6968 289.214 71.3748 289.016 69.9568 293.564C65.3988 308.178 64.0588 312.118 68.6468 315.512C71.2388 317.43 70.0308 314.904 72.7908 310.342C74.8348 306.964 76.7088 308.726 76.0568 311.676C75.6368 313.576 75.1648 315.466 74.7228 317.338ZM69.3528 341.654C63.8528 346.61 68.4488 349.224 71.9348 353.132C84.2348 366.914 86.1048 366.838 89.0468 364.722C92.9468 361.914 88.7448 362.942 84.7648 357.476C83.8868 356.27 84.4488 354.53 86.4688 355.372C91.8308 357.608 93.5208 360.696 94.6028 358.554C96.4228 354.946 95.9908 354.292 93.5848 352.092C77.5948 337.478 77.1868 337.11 74.4528 338.176C73.0348 338.728 72.9008 338.92 73.3848 340.34C74.9108 344.818 76.3428 345.794 76.3108 348.12C76.2788 350.494 74.3328 348.922 72.7108 347.192C71.2488 345.63 70.4868 343.638 69.3528 341.656V341.654Z"
        fill="#38A1FF" />
    <path
        d="M136.075 28.9341C140.733 29.5701 141.789 29.5841 143.507 30.4801C145.225 31.3761 144.519 33.2301 143.071 33.4201C140.237 33.7921 135.857 32.1901 135.513 33.6021C135.291 34.5181 135.369 35.4421 136.265 36.0221C137.249 36.6581 142.633 38.1281 147.465 38.6381C150.257 38.9321 151.919 39.0561 151.957 40.7141C151.989 42.0941 150.173 42.5261 149.217 42.4041C136.445 40.8001 132.139 39.7981 131.863 34.2061C131.757 32.0361 132.015 31.3601 111.941 33.0641C110.585 33.1801 110.385 33.3421 110.617 34.7921C112.089 43.9941 102.487 46.0541 81.7293 50.8681C72.7833 52.9441 74.7473 47.1461 72.3693 49.5681C69.6513 52.3361 67.3833 55.4201 65.5693 58.8541C65.0073 59.9181 64.9933 60.1461 68.4593 61.9841C76.9873 66.5101 68.2613 83.2861 63.2473 95.5581C61.8873 98.8881 59.7133 101.006 56.1273 100.69C51.6213 100.294 51.7653 99.5341 50.9293 103.408C50.4173 105.776 49.6613 110.538 49.2853 115.276C49.1413 117.096 50.8793 116.368 51.7853 116.274C60.2393 115.4 60.8973 120.844 64.2813 141.274C65.9913 151.604 68.9533 154.474 58.2993 157.272C56.2833 157.802 56.5253 157.338 58.1653 164.314C59.0013 167.872 59.7393 169.51 57.9753 170.022C54.3933 171.06 54.3213 159.416 53.0093 158.396C52.2433 157.8 50.8593 157.96 49.7433 157.866C41.8553 157.21 40.1833 151.716 37.1133 131.98C35.3893 120.898 35.6673 119.848 44.0013 117.696C46.4353 117.068 45.7793 117.696 46.5653 109.452C47.6133 98.4581 49.5093 99.3641 45.9793 97.8161C42.0433 96.0901 37.7893 94.9881 38.3253 89.0041C38.9313 82.2361 46.3853 69.1061 50.8473 61.3201C52.3393 58.7181 53.3453 57.4981 55.9613 57.5721C61.0793 57.7161 61.4533 59.8761 63.0073 56.9961C65.6613 52.0781 69.5933 46.9161 70.7973 45.6261C72.4733 43.8321 70.7513 43.4901 70.5973 37.8181C70.3793 29.8341 76.9653 27.3841 85.7913 25.3461C100.051 22.0521 107.395 20.8121 109.577 27.9801C109.999 29.3681 110.743 29.7221 112.057 29.5821C117.769 28.9801 123.525 29.2221 129.243 28.7781C130.199 28.7041 131.365 29.4501 132.049 28.5961C132.619 27.8841 132.709 26.7901 133.005 25.8601C134.607 20.8401 137.027 20.3841 147.831 21.0061C152.411 21.2701 163.077 22.1261 166.653 25.0001C170.853 28.3761 168.205 33.9261 166.259 33.3281C163.351 32.4341 166.955 28.2601 161.317 26.8301C155.679 25.4001 151.167 24.5621 145.031 24.2241C136.953 23.7801 136.605 24.3921 136.075 28.9341ZM49.3013 128.226C49.2813 129.016 49.5713 130.066 48.4133 130.252C46.2313 130.602 46.1953 124.73 46.1193 123.094C46.0193 120.952 45.7193 121.166 41.5993 122.48C37.0653 123.928 42.7873 145.404 43.9773 149.662C45.0493 153.504 47.6553 155.088 51.6553 154.776C53.9133 154.6 52.3653 152.662 53.0673 149.532C53.4193 147.958 54.8333 147.958 55.1573 149.504C56.0193 153.61 55.5933 154.534 57.6373 154.13C61.4913 153.37 62.6293 152.872 62.5613 151.44C62.4953 150.084 62.6393 148.676 62.3193 147.384C61.1753 142.768 60.5533 138.062 59.6773 133.402C56.9853 119.096 56.3013 120.068 54.0993 120.044C47.5273 119.972 49.5053 119.902 49.3013 128.226ZM65.1773 64.5201C62.7293 63.0941 63.3373 63.7821 60.6813 69.2261C59.7333 71.1681 58.1313 70.1781 58.5393 68.4181C59.9573 62.3101 61.4613 62.1241 57.1133 61.6541C56.0773 61.5421 55.4653 61.4501 54.8653 62.2581C51.0313 67.4241 52.8153 64.8541 47.8933 75.1161C39.8653 91.8521 40.3993 91.5281 47.7033 94.4481C49.8993 95.3261 49.1853 94.2861 50.6713 90.5881C51.9813 87.3281 52.5793 86.4181 53.8153 86.6901C57.3873 87.4801 51.2273 95.2881 53.3453 96.3881C56.4153 97.9821 58.7073 97.0341 59.9913 93.8241C68.6533 72.1861 71.4353 68.1661 65.1753 64.5181L65.1773 64.5201ZM101.003 34.0221C96.7533 34.0221 98.5093 31.6521 101.137 31.1041C105.855 30.1221 106.923 30.6081 106.279 28.8421C105.785 27.4861 104.807 26.7701 103.367 26.7421C95.9673 26.6061 84.6573 29.1961 77.8473 32.0941C74.0473 33.7101 74.1913 35.1501 74.6193 38.9821C75.1053 43.3401 75.2073 40.3341 82.2513 37.7781C83.8033 37.2161 84.9173 39.0601 83.6213 40.2261C82.2053 41.5001 75.9253 44.7921 76.6813 46.4641C77.4373 48.1361 77.4853 48.4701 89.6453 45.3401C104.323 41.5621 108.057 40.1601 107.371 34.8241C107.139 33.0181 106.511 33.4921 101.003 34.0221Z"
        fill="#38A1FF" />
    <path
        d="M349.144 66.1961C347.788 66.9941 347.166 72.3261 340.366 71.2681C336.246 70.6261 333.892 68.7441 321.056 64.1661C316.132 62.4101 314.962 61.5001 315.134 56.9941C315.222 54.6621 313.862 55.0861 309.304 54.9261C306.112 54.8141 311.478 63.9061 300.204 66.0921C294.198 67.2561 288.1 67.8201 281.958 67.6101C274.526 67.3581 275.266 60.7681 274.372 52.8061C273.408 44.2121 301.122 43.1641 302.024 43.3121C306.456 44.0421 306.278 47.2141 306.91 50.1441C307.542 53.0741 310.068 51.1201 314.97 52.0761C319.234 52.9081 313.678 35.3181 340.132 43.9281C348.526 46.6601 354.282 47.1601 353.106 54.5561C352.412 58.9181 350.19 59.8281 352.028 62.1841C354.94 65.9141 355.748 70.7501 356.138 75.3901C356.43 78.8461 358.042 76.8241 361.336 77.9081C368.676 80.3241 367.17 90.7981 365.076 98.2341C360.366 114.952 360.19 115.002 349.492 114.616C347.56 114.546 347.864 115.332 346.418 119.424C345.152 123.006 356.302 117.236 351.05 139.886C347.432 155.488 349.346 154.868 340.344 154.95C337.784 154.974 339.054 155.684 338.31 158.56C337.776 160.618 335.63 160.362 335.402 158.468C335.026 155.328 335.57 154.258 333.582 154.098C329.03 153.728 325.7 151.482 325.504 146.922C325.272 141.516 327.988 129.396 329.01 126.242C332.432 115.68 341.282 122.986 342.23 119.516C344.76 110.262 345.39 115.264 338.64 109.492C336.054 107.28 335.278 104.434 335.7 101.132C336.538 94.5781 339.216 85.1761 340.206 82.6961C341.806 78.6861 343.876 76.7921 349.57 76.8341C351.46 76.8481 351.46 76.9321 351.466 75.1201C351.474 71.9421 350.626 68.6361 349.148 66.1961H349.144ZM362.652 86.5321C362.826 81.2501 360.116 81.5901 357.088 81.3201C355.466 81.1761 356.048 82.6761 355.04 85.8301C353.862 89.5141 350.656 88.7561 350.896 84.9841C351.036 82.8101 351.978 81.2221 350.282 81.1141C345.01 80.7841 344.35 80.4081 340.388 97.7521C339.366 102.23 338.888 105.052 343.318 107.776C346.3 109.61 345.776 109.374 349.338 98.5281C349.97 96.6041 351.332 97.1101 351.856 98.5281C352.714 100.85 351.064 104.85 349.882 109.054C349.138 111.702 352.186 110.37 356.116 110.276C358.8 110.212 362.596 88.1961 362.652 86.5321ZM348.262 57.6261C349.786 53.4041 350.906 50.9401 346.58 49.4881C339.414 47.0801 331.808 44.5141 325.042 45.2381C322.492 45.5101 321.574 47.0081 320.262 50.5941C319.44 52.8381 320.462 52.1681 323.792 53.1021C325.664 53.6261 325.236 55.3181 323.556 55.3601C319.678 55.4561 319.166 55.1641 318.762 55.8661C317.954 57.2681 318.642 59.2861 320.15 60.0041C320.196 60.0261 339.928 67.5661 341.336 67.8541C344.736 68.5501 346.108 64.1281 346.246 62.1181C346.346 60.6601 345.02 60.2441 341.712 57.6821C339.45 55.9301 340.002 55.0381 341.182 54.8541C343.072 54.5581 344.112 55.4021 348.26 57.6281L348.262 57.6261ZM297.752 47.1001C295.336 46.9321 285.946 48.1621 280.05 51.2381C276.646 53.0141 277.636 57.3961 278.508 61.5501C278.936 63.5941 279.228 63.9521 281.388 64.0261C287.306 64.2281 302.954 64.5981 304.4 58.8561C305.636 53.9461 303.588 55.2581 295.152 56.5101C293.336 56.7801 292.778 55.2241 294.566 54.4661C300.428 51.9821 303.474 53.2861 303.424 51.5401C303.306 47.4941 301.302 47.1001 297.752 47.1001ZM342.278 150.604C345.418 150.672 344.754 151.528 347.1 139.81C348.332 133.656 350.296 124.518 345.308 125.156C343.496 125.388 344.058 129.708 342.224 132.09C340.848 133.878 339.34 131.964 339.614 130.18C340.4 125.052 340.942 124.828 337.608 124.718C335.792 124.658 334.584 124.574 333.952 126.176C332.288 130.398 330.728 138.736 330.124 144.032C329.64 148.282 329.59 149.054 334.5 149.866C335.898 150.098 336.024 150.01 336.306 148.626C336.826 146.08 337.24 142.578 338.786 142.732C340.574 142.908 339.74 145.848 339.552 147.34C339.154 150.512 339.186 150.536 342.278 150.604Z"
        fill="#38A1FF" />
    <path
        d="M167.887 135.31C163.391 126.374 158.991 119.014 143.065 93.4959C141.993 91.7779 142.527 91.2579 147.301 82.0599C165.229 47.5259 164.125 48.0399 167.149 47.3159C173.977 45.6799 185.055 44.1219 198.067 41.6359C217.507 37.9219 218.381 37.2459 220.977 40.5539C229.061 50.8559 232.519 57.8519 238.419 66.1899C243.801 73.7939 245.927 76.6879 247.969 81.2439C250.925 87.8399 251.891 88.1059 250.649 90.1019C246.797 96.2999 227.959 127.234 224.897 130.852C223.123 132.948 225.045 132.166 173.529 136.626C173.469 135.828 169.381 138.274 167.889 135.312L167.887 135.31ZM167.609 125.774C216.195 121.208 214.927 122.47 216.721 119.522C242.293 77.4919 243.473 79.5919 242.031 77.3259C238.833 72.2979 235.669 67.2499 232.207 62.3979C218.103 42.6279 218.499 40.7619 214.115 41.6959C177.071 49.5879 168.245 48.3339 166.769 51.2139C160.057 64.2999 153.311 77.3679 146.527 90.4179C145.399 92.5879 145.905 91.9319 154.689 106.424C166.739 126.304 165.991 126.318 167.611 125.776L167.609 125.774ZM244.841 81.3679C237.897 92.5119 236.981 94.3179 228.857 106.698C218.513 122.458 218.595 121.994 218.851 122.672C219.217 123.642 222.241 127.772 223.245 128.502C229.981 117.238 237.047 106.184 244.097 95.1239C249.239 87.0559 249.137 89.9999 244.841 81.3699V81.3679ZM167.289 129.23C169.695 133.842 169.513 134.278 171.037 134.046C175.719 133.336 209.057 130.766 218.189 130.018C221.143 129.776 219.427 129.422 217.459 125.908C215.905 123.13 217.315 123.766 167.289 129.23Z"
        fill="#191919" />
    <path
        d="M180.619 110.436C172.101 110.166 176.543 114.154 161.625 90.96C160.259 88.838 161.013 88.702 168.049 75.386C175.287 61.688 174.691 61.734 176.837 61.446C180.803 60.916 199.941 58.242 202.821 57.772C207.651 56.984 206.369 58.856 221.267 78.21C224.375 82.246 224.555 79.792 208.739 104.398C205.387 109.614 208.503 108.082 180.619 110.436ZM176.797 108.006C207.329 104.314 202.953 107.936 207.765 100.64C220.751 80.954 221.079 81.706 219.657 79.928C206.981 64.082 217.491 69.474 183.737 73.364C180.843 73.698 182.339 76.128 171.661 99.562C170.993 101.03 171.223 100.654 175.423 107.374C175.725 107.858 176.091 108.192 176.797 108.006ZM169.337 97.63C181.911 67.34 181.633 74.912 175.937 65.802C175.119 66.94 164.789 87.026 164.129 88.302C163.381 89.746 163.289 88.8 169.337 97.63ZM178.557 64.45C182.133 71.074 181.753 71.116 183.077 70.846C192.237 68.986 207.523 67.176 208.927 66.41C205.015 61.23 204.961 60.428 202.815 60.766C194.845 62.02 186.863 63.196 178.557 64.45Z"
        fill="#191919" />
    <path
        d="M385.97 206.344C373.336 185.508 368.802 181.87 364.232 175.144C349.374 153.284 308.668 163.418 267.646 187.57C271.442 187.364 275.504 187.164 279.376 186.982C327.904 162.308 372.646 158.476 361.472 200.064C348.18 249.544 265.366 320.234 203.036 331.178C157.858 339.11 157.754 302.03 191.618 259.674C192.014 259.18 192.916 257.542 194.212 255.466C194.706 251.476 195.046 248.762 195.334 246.298C174.322 269.826 160.648 294.522 162.252 314.796C162.838 322.186 165.124 324.588 173.526 337.942C185.576 357.096 187.698 363.472 200.198 366.732C247.432 379.05 373.968 296.658 386.926 221.614C387.882 216.072 388.274 210.144 385.97 206.344Z"
        fill="#38A1FF" />
    <path
        d="M193.82 278.12C196.978 251.254 197.486 248.904 198.362 239.716C199.008 232.952 201.256 231.792 224.076 212.998C251.132 190.716 249.916 191.358 252.572 190.952C258.55 190.042 281.812 189.278 297.104 188.518C300.022 188.372 301.326 189.098 308.526 197.948C315.252 206.216 316.26 206.002 315.708 208.442C314.006 215.94 311.516 235.606 308.206 249.856C307.454 253.094 307.852 252.624 283.722 272.212C265.396 287.088 260.952 291.88 249.512 299.288C248.736 299.79 249.502 299.638 228.972 298.88C211.98 298.252 210.926 298.866 208.488 296.306C206.778 294.512 193.258 280.462 193.82 278.12ZM197.796 276.814C198.994 277.654 198.382 276.854 226.67 279.62C238.63 280.79 238.562 281.042 239.95 279.87C247.754 273.28 279.196 246.82 288.062 239.654C292.154 236.346 291.068 238.906 296.846 192.758C288.094 192.758 278.688 194.176 253.792 194.942C251.562 195.01 253.15 194.584 229.072 214.73C202.27 237.154 202.832 235.14 202.61 237.556C201.894 245.322 201.44 247.514 197.798 276.816L197.796 276.814ZM293.032 239.98C276.026 254.854 258.756 269.128 241.612 283.694L249.48 294.266L302.842 250.956L293.032 239.98ZM300.502 194.506C295.178 237.634 294.176 236.516 298.022 240.306C306.48 248.644 304.118 252.118 306.666 235.852C311.722 203.584 314.066 210.156 308.422 203.402C305.964 200.462 303.466 197.558 300.502 194.506ZM200.394 281.586C204.008 286.026 207.742 289.842 211.24 293.854C211.876 294.584 212.694 294.528 213.526 294.536C224.582 294.656 244.498 296.172 245.488 295.846C245.446 295.056 245.666 295.722 238.67 285.47C237.354 283.542 237.29 284.87 213.876 282.59C209.532 282.168 205.174 281.936 200.394 281.586Z"
        fill="#191919" />
    <path
        d="M276.932 208.444C276.784 215.89 274.77 231.366 274.652 234.604C274.52 238.19 272.464 238.742 261.348 248.47C257.92 251.47 251.794 256.72 244.37 262.758C242.406 264.356 242.892 264.402 219.794 262.818C216 262.558 215.664 262.098 216.184 258.308C219.742 232.452 215.78 236.658 228.186 225.808C249.098 207.52 248.6 207.226 252.122 207.102C276.188 206.258 277.006 204.728 276.93 208.444H276.932ZM272.598 220.596C271.4 220.132 270.442 220.458 262.922 221.428C259.35 221.888 259.788 224.216 234.48 247.018C232.794 248.538 233.942 248.082 232.57 259.596C235.102 259.916 237.586 259.766 240.058 259.894C242.72 260.032 242.242 259.854 269.104 236.944C271.036 235.296 272.138 234.464 272.598 220.598V220.596ZM231.806 243.826C239.828 235.966 248.128 228.642 256.202 221.094C254.27 218.608 252.426 216.222 250.562 213.852C248.698 211.482 251.69 210.846 223.82 235.15L231.806 243.826ZM222.252 238.266C219.772 257.212 220.75 250.314 219.8 257.984C219.558 259.94 220.548 259.112 227.776 259.512C229.28 259.596 228.586 259.614 230.048 248.43C230.252 246.874 230.174 247.158 224.288 240.408C223.712 239.748 223.078 239.136 222.252 238.266ZM272.952 216.62L273.648 209.504L252.556 210.874C258.646 218.672 258.492 219.124 259.876 218.436C261.334 217.712 261.348 217.832 272.952 216.62Z"
        fill="#191919" />
</svg>