<svg width="400" height="400" viewBox="0 0 400 400" fill="none" xmlns="http://www.w3.org/2000/svg">
    <path
        d="M355.254 113.088C340.158 103.798 321.498 114.918 312.628 127.688C303.606 140.682 299.732 162.976 314.85 173.364C328.144 182.5 348.202 179.336 360.86 161.224C374.256 142.054 368.664 121.34 355.254 113.088ZM315.65 129.456C323.322 118.552 339.118 108.334 352.528 115.516C368.36 123.996 363.22 145.57 355.412 157.59C347.03 168.798 330.454 179.78 316.818 170.334C303.32 160.984 307.6 140.892 315.65 129.454V129.456Z"
        fill="#38A1FF" />
    <path
        d="M351.938 154.43C358.02 144.776 360.89 129.06 349.304 122.056C338.642 115.61 325.556 123.302 319.294 132.346C312.906 141.574 310.364 157.206 321.02 164.534C333.244 172.942 348.836 160.374 351.938 154.43ZM322.984 161.524C313.942 155.234 316.946 141.76 322.316 134.112C327.28 127.042 337.982 119.892 346.796 124.626C357.56 130.406 354 144.764 348.746 152.926C343.17 160.326 332.068 167.844 322.984 161.524Z"
        fill="#38A1FF" />
    <path
        d="M343.937 130.408C337.559 126.632 329.893 132.062 326.311 137.252C322.657 142.544 320.337 152.052 326.711 156.39C332.765 160.51 341.257 155.234 344.751 149.792C348.581 144.724 350.713 134.42 343.937 130.408ZM328.907 153.518C323.937 150.46 326.719 142.724 329.333 139.018C331.717 135.64 336.761 131.378 341.289 132.998C347.623 135.266 344.153 144.274 341.731 148.026C339.103 151.526 333.543 156.368 328.907 153.518Z"
        fill="#38A1FF" />
    <path
        d="M338.491 139.288C336.903 138.178 334.291 139.174 332.657 141.514C331.023 143.852 330.985 146.648 332.573 147.758C334.161 148.868 336.773 147.872 338.407 145.532C340.041 143.192 340.079 140.398 338.491 139.288Z"
        fill="#38A1FF" />
    <path
        d="M87.6609 128.496C87.5769 130.896 90.0629 138.644 85.4989 146.156C81.8289 152.02 75.4989 153.55 75.5989 166.284C75.3365 166.226 75.0677 166.2 74.7989 166.208C74.9389 163.568 74.8349 155.232 74.8509 152.584C77.9989 150.126 79.9209 144.634 77.9329 141.432C77.4849 140.706 76.5369 140.062 75.4649 140.108C71.9909 140.344 71.6909 147.228 71.5949 150.724C70.0699 151.261 68.4059 151.252 66.8869 150.698C66.6269 149.038 65.9629 145.384 65.2329 143.738C64.2469 141.512 62.6869 141.14 61.2889 142.068C60.7069 142.588 60.7529 142.514 60.3389 143.224C59.2169 145.684 60.4249 150.45 63.9449 152.84C64.8749 159.568 64.8709 161.76 66.1269 167.16C65.6109 167.226 65.1649 167.286 64.8249 167.34C64.3729 161.92 61.4689 157.132 57.2209 154.022C42.3189 144.322 47.6309 113.682 69.0129 115.424C73.3591 115.803 77.4783 117.53 80.7949 120.364C83.5389 122.68 84.8309 124.678 86.4349 126.932C88.9789 130.504 87.8389 125.096 85.4669 121.696C78.5929 111.246 64.9469 108.708 55.2109 115.28C44.0669 122.426 41.5089 142.382 50.1129 152.582C50.6589 153.21 51.1109 153.922 51.7449 154.476C53.8449 156.31 53.9929 156.464 54.2769 156.64C58.3949 159.18 60.7829 163.662 61.0209 167.814C61.3889 171.896 61.0789 177.76 63.2709 181.276C66.0749 186.056 73.8229 184.884 76.0889 183.404C76.4149 183.192 76.7629 183.02 77.0569 182.78C78.7809 180.948 78.0569 181.756 78.9689 180.102C81.3889 173.85 77.5329 165.226 80.8749 158.074C82.8009 153.954 87.6149 151.026 89.5429 145.702C93.3869 135.088 87.8229 125.952 87.6589 128.494L87.6609 128.496ZM67.3529 154.224C68.7769 154.46 70.1569 154.47 71.5929 154.144C71.7089 159.374 72.2149 163.104 72.9729 166.392C71.6429 166.532 69.7069 166.738 67.9869 166.938C68.0929 164.426 67.9509 159.282 67.3529 154.224ZM65.0449 170.96C65.5589 171.026 65.1349 171.036 74.1709 170.14C74.2389 170.134 75.0929 170.03 75.7349 169.87C75.7489 170.084 75.8569 171.836 75.8949 172.524C75.5705 172.454 75.2372 172.435 74.9069 172.468C74.5809 172.5 67.5489 173.218 65.2069 173.58C65.1411 172.708 65.0864 171.835 65.0429 170.962H65.0449V170.96ZM73.9229 180.228C73.7449 180.392 73.3809 180.39 73.1209 180.492C71.7589 180.86 70.8529 180.838 70.0389 180.854C67.5709 180.754 66.4469 180.006 65.7349 177.228C65.9369 177.228 74.6189 176.442 75.9189 176.144C75.7909 177.752 75.4249 179.644 73.9229 180.228Z"
        fill="#38A1FF" />
    <path
        d="M35.7883 315.292C35.4683 314.896 35.0443 314.348 34.8483 313.592C34.3963 311.854 35.2443 309.932 36.9483 309.494C37.3063 309.424 37.9123 309.364 38.4643 309.308C72.4423 305.876 132.022 296.62 145.962 294.854C146.984 294.724 146.088 294.568 193.122 312.568C193.226 312.632 193.348 312.668 193.446 312.732C194.804 313.62 194.462 315.8 193.262 316.276C193.026 316.432 191.93 316.602 191.04 316.774C84.1363 337.222 84.7783 336.96 83.9963 336.594C76.2663 332.97 30.7703 311.506 36.6863 316.312C40.5743 319.472 65.7022 331.324 82.2402 339.824C82.7882 340.106 83.6903 340.404 84.4603 340.442C85.5983 340.498 85.1163 342.84 193.612 320.168C196.716 319.52 198.246 316.722 198.146 314.154C198.064 312.042 196.66 309.834 194.616 309.048C146.61 290.614 147.942 290.946 146.43 290.964C142.168 291.018 45.3343 305.908 37.2743 307.236C33.7743 307.812 32.4323 311.348 33.4963 313.77C34.1283 315.208 35.2443 315.836 35.7743 315.914C36.3223 316.034 36.3263 315.818 35.7963 315.29L35.7883 315.292Z"
        fill="#191919" />
    <path
        d="M170.73 312.05C165.384 309.82 95.1782 326.04 89.2242 326.106C87.004 326.121 84.806 325.663 82.7762 324.764C80.6022 323.82 63.2282 316.46 62.0682 316.014C59.7642 315.128 53.5022 312.85 51.5862 312.544C50.6362 312.392 49.9962 312.53 50.3662 313.102C52.3262 316.118 78.3702 326.946 81.5202 328.326C84.8102 329.77 89.2262 330.312 93.4462 329.406C117.332 324.274 175.976 314.238 170.73 312.05Z"
        fill="#191919" />
    <path
        d="M143.253 261.75C142.16 262.668 141.053 263.57 139.933 264.456C142.945 277.988 142.813 277.844 142.609 278.936C142.175 281.236 140.345 283.222 137.459 283.592L28.4333 297.596C26.7213 297.51 24.9013 296.544 23.8033 294.778C23.1433 293.718 23.0213 292.652 22.7893 290.998C22.5773 289.494 11.7833 221.26 11.3533 219.35C10.6853 216.376 10.0613 214.706 9.94932 216.596C9.52132 223.918 19.2073 292.904 19.5893 294.338C20.4673 297.638 23.2573 300.358 26.7573 301.122C29.3513 301.688 26.8653 301.69 138.917 287.216C144.167 286.118 147.311 280.912 146.411 276.33C146.055 274.516 144.845 268.954 143.251 261.75H143.253Z"
        fill="#191919" />
    <path
        d="M10.2537 215.034C10.6617 211.868 12.6737 209.078 15.8617 208.314C16.9677 208.05 15.8657 208.194 122.236 204.856C123.501 204.91 124.713 205.379 125.685 206.19C126.657 207.001 127.336 208.109 127.616 209.344L129.434 217.502C130.526 216.437 131.6 215.353 132.656 214.252C131.22 207.848 131.17 206.948 129.854 205.088C128.152 202.684 125.478 201.24 122.866 201.046C121.194 200.922 120.696 201.014 16.3457 206.014C15.6927 206.14 15.0546 206.334 14.4417 206.592C10.4797 208.282 8.69566 212.842 9.73766 215.446C9.97366 216.032 10.1377 215.938 10.2537 215.034Z"
        fill="#191919" />
    <path
        d="M121.952 216.568C120.99 213.526 118.276 211.426 115.092 211.044C113.928 210.904 114.348 210.564 28.788 214.852C27.93 214.894 26.716 215.026 25.736 215.408C22.184 216.792 20.746 220.516 21.688 222.484C21.914 222.956 22.08 222.862 22.208 222.148C22.698 219.404 24.666 217.62 26.926 217.236C27.636 217.116 28.034 217.144 29.828 217.144C59.518 217.144 84.01 215.852 113.962 214.836C115.344 214.79 116.822 215.42 117.688 216.568C118.096 217.11 118.14 217.08 120.23 225.808L123.634 223.57L121.954 216.57L121.952 216.568Z"
        fill="#38A1FF" />
    <path
        d="M134.421 268.74L130.715 270.55C130.557 272.602 128.857 273.946 126.819 274.194C126.819 274.194 37.9408 284.94 37.5328 284.95C35.6908 284.992 33.9088 283.97 33.1988 282.26C32.5788 280.764 22.7428 214.518 21.8788 223.406C21.2928 229.452 28.2428 275.572 29.2848 281.974C30.0148 286.464 34.2388 289.244 38.8768 288.586C44.2188 287.828 127.631 277.952 128.089 277.858C132.553 276.938 135.335 272.728 134.421 268.742V268.74Z"
        fill="#38A1FF" />
    <path
        d="M75.07 211.166C75.531 211.166 75.973 210.983 76.299 210.657C76.6249 210.331 76.808 209.889 76.808 209.428C76.808 208.967 76.6249 208.525 76.299 208.199C75.973 207.873 75.531 207.69 75.07 207.69C74.6091 207.69 74.167 207.873 73.8411 208.199C73.5151 208.525 73.332 208.967 73.332 209.428C73.332 209.889 73.5151 210.331 73.8411 210.657C74.167 210.983 74.6091 211.166 75.07 211.166Z"
        fill="#191919" />
    <path
        d="M192.536 183.3C191.97 182.014 190.942 182.014 189.972 181.71L159.64 173.582C157.446 173.11 156.986 175.062 155.78 177.686C147.88 194.918 133.55 213.172 116.192 226.372C98.4521 239.898 77.8281 248.406 54.3261 251.3C53.6861 251.458 50.6181 251.668 46.1241 252.076C38.9601 252.598 30.1441 252.248 28.3961 252.248C26.8301 252.248 25.8901 253.282 25.9521 254.846C26.0721 255.946 29.0001 281.378 29.0001 281.378C30.0201 285.274 33.4301 288.204 38.1181 287.778C122.538 280.108 120.674 278.652 122.342 278.084C138.474 269.98 156.608 255.106 170.908 234.128C176.738 225.576 174.308 229.186 178.502 221.77C181.26 216.892 180.042 219.13 181.828 215.324C186.8 204.716 184.504 209.8 187.434 201.948C189.828 195.536 188.904 198.968 192.174 186.34C192.404 185.454 192.972 184.008 192.532 183.296V183.3H192.536ZM181.766 206.444C176.072 218.864 177.54 215.718 175.096 220.144C173.93 222.254 170.666 228.276 165.952 234.708C152.778 252.684 134.292 268.134 120.906 275.006C118.554 276.214 37.8741 284.434 37.6641 284.454C35.1881 284.68 32.8341 282.878 32.4281 280.354L29.9241 256.1C37.4641 256.266 36.2641 256.29 40.3421 256.152C42.2761 256.06 44.4501 256.092 46.8281 255.876C90.7961 253.052 126.838 230.536 150.046 195.52C184.392 207.07 181.89 206.106 181.766 206.444ZM188.518 185.348C185.512 196.392 186.178 194.26 183.046 202.93L151.998 192.49C155 187.733 157.67 182.774 159.99 177.65L160.018 177.634C190.116 185.684 188.594 185.15 188.516 185.35L188.518 185.348Z"
        fill="#38A1FF" />
    <path
        d="M163.152 183.528C161.718 182.876 159.956 183.668 159.212 185.298C158.472 186.926 159.036 188.776 160.468 189.428C161.902 190.08 163.664 189.288 164.406 187.658C165.146 186.03 164.586 184.178 163.152 183.528Z"
        fill="#38A1FF" />
    <path
        d="M177.395 166.21C178.469 165.104 177.189 159.622 170.707 156.518C166.343 154.432 164.341 155.472 163.357 154.078C161.491 151.475 159.174 149.226 156.517 147.438C154.275 145.958 152.491 145.222 152.117 145.102C150.681 144.642 147.787 144.206 148.041 145.684C148.411 147.824 155.967 149.842 160.367 156.456C163.131 160.1 167.017 157.388 172.239 162.134C174.727 164.394 176.295 167.342 177.395 166.21Z"
        fill="#38A1FF" />
    <path
        d="M191.395 179.478C194.269 177.746 194.561 154.678 185.575 141.348C183.955 138.636 180.743 139.022 177.653 139.668C173.569 140.524 170.991 141.854 170.445 142.088C168.967 142.846 164.673 145.436 166.245 146.226C167.223 146.718 169.103 145.916 176.313 143.86C176.959 143.734 178.353 143.01 181.765 142.976C182.185 142.972 182.293 143.228 182.643 143.782C191.397 157.6 188.797 175.626 190.425 178.996C190.639 179.436 191.003 179.714 191.395 179.476V179.478Z"
        fill="#38A1FF" />
    <path
        d="M161.657 137.88C160.175 135.592 152.117 127.044 151.189 126.448C150.205 125.816 148.981 125.372 148.385 126.378C148.283 126.552 148.22 126.745 148.198 126.945C148.176 127.144 148.197 127.347 148.259 127.538C148.585 128.628 149.133 129.534 149.851 130.282C158.259 139.042 158.671 140.826 160.431 141.968C163.011 143.642 163.719 140.606 161.659 137.884L161.657 137.882V137.88Z"
        fill="#38A1FF" />
    <path
        d="M168.395 133.812C166.513 129.904 160.235 120.512 159.585 119.886C159.163 119.477 158.675 119.142 158.141 118.896C157.201 118.466 156.315 119.302 156.459 120.362C156.608 121.49 157.014 122.569 157.645 123.516C165.163 134.9 164.969 136.26 166.561 137.78C168.859 139.97 170.047 137.24 168.395 133.812Z"
        fill="#38A1FF" />
    <path
        d="M175.316 130.578C174.256 128.058 167.84 118.23 167.026 117.478C166.619 117.095 166.148 116.789 165.634 116.572C164.726 116.19 163.834 117.022 163.95 118.032C164.078 119.164 164.458 120.152 165.03 121.012C172.05 131.544 171.796 132.892 173.386 134.38C175.63 136.478 176.862 133.618 175.314 130.576L175.316 130.578Z"
        fill="#38A1FF" />
    <path
        d="M183.637 132.02C182.681 129.74 177.189 121.438 176.557 120.896C176.188 120.577 175.76 120.334 175.297 120.182C174.461 119.902 173.555 120.712 173.591 121.612C173.631 122.618 173.923 123.476 174.409 124.204C180.207 132.894 180.163 134.352 181.537 135.464C183.613 137.15 184.977 134.66 183.635 132.02H183.637Z"
        fill="#38A1FF" />
    <path
        d="M364.488 315.694C367.716 314.308 367.428 308.76 363.666 307.54C360.364 306.47 322.794 300.746 310.478 298.998C251.418 290.614 253.666 290.522 251.292 291.474C243.064 294.774 205.554 308.89 204.542 309.524C200.75 311.908 201.112 317.834 205.11 319.692C205.914 320.12 205.392 318.51 314.062 340.214C315.282 340.458 316.528 340.286 317.506 339.822C377.428 311.45 381.752 305.542 316.136 336.408C315.824 336.556 315.466 336.712 314.94 336.622L206.678 316.21C205.406 315.548 205.294 313.242 206.878 312.608L253.18 294.876C253.662 294.752 363.694 309.742 363.48 309.712C364.754 310.244 365.382 311.998 365.082 313.31C364.846 314.336 364.246 315.032 363.924 315.382C363.62 315.758 363.666 315.952 364.488 315.69V315.694Z"
        fill="#191919" />
    <path
        d="M230.857 312.51C232.631 314.356 249.203 317.824 251.715 318.314C253.241 318.612 306.901 329.104 308.297 329.284C310.889 329.621 313.523 329.402 316.025 328.642C318.787 327.792 349.697 314.71 345.537 313.842C343.029 313.318 327.419 319.796 325.041 320.818C316.187 324.622 316.143 324.698 314.759 325.084C312.559 325.697 310.249 325.807 308.001 325.408C275.061 319.29 227.213 308.716 230.857 312.51Z"
        fill="#191919" />
    <path
        d="M270.324 218.602C271.66 212.678 272.572 208.708 272.668 208.47C273.068 207.492 273.727 206.642 274.575 206.01C275.422 205.379 276.426 204.991 277.478 204.888L383.318 208.234C385.978 208.61 387.914 210.322 388.85 212.42C389.412 213.68 389.536 214.822 389.648 215.388C389.986 217.122 391.616 212.484 388.458 208.818C387.448 207.67 386.147 206.815 384.692 206.344C383.006 205.796 384.584 206.026 277.61 201.018C275.499 201.108 273.476 201.89 271.855 203.244C270.233 204.599 269.102 206.449 268.638 208.51L267.098 215.446C268.156 216.515 269.232 217.567 270.324 218.602Z"
        fill="#191919" />
    <path
        d="M389.57 216.526C386.716 224.444 377.204 291.384 376.696 293.304C376.304 294.784 374.94 296.8 372.41 297.358C370.862 297.7 372.358 297.704 261.872 283.444C258.804 282.802 256.834 279.692 257.396 276.938C257.572 276.076 258.508 271.796 259.836 265.76C258.717 264.9 257.612 264.022 256.52 263.126L253.738 275.662C252.464 281.284 256.316 286.644 262.058 287.346C371.798 300.776 370.386 301.306 371.808 301.222C374.684 301.054 377.628 299.42 379.298 296.64C380.466 294.698 380.536 293.132 380.78 291.512C381.006 290.01 390.004 221.516 390.134 219.564C390.336 216.522 390.212 214.744 389.57 216.526Z"
        fill="#191919" />
    <path
        d="M376.717 217.12C375.84 216.232 374.748 215.586 373.547 215.244C368.375 213.8 293.427 211.216 286.113 210.994C283.567 210.916 280.895 212.072 279.245 214.256C278.467 215.288 278.541 215.228 276.527 223.88L279.557 226.794L281.725 217.714C282.269 216.03 283.899 214.752 286.371 214.848C291.103 215.03 372.475 217.116 373.567 217.424C375.005 217.855 376.216 218.835 376.935 220.152C377.433 221.09 377.573 221.974 377.693 222.424C378.079 223.866 379.515 219.976 376.717 217.12Z"
        fill="#38A1FF" />
    <path
        d="M377.64 223.328C375.45 228.434 370.34 261.428 366.906 281.378C366.532 283.546 364.512 285.158 361.582 284.754C352.742 283.532 272.82 274.242 271.976 273.872C271.423 273.677 270.917 273.366 270.494 272.96C270.07 272.554 269.737 272.063 269.518 271.518L265.554 269.078C264.936 273.44 268.082 277.42 272.73 277.954C272.73 277.954 361.48 288.552 362.396 288.578C365.868 288.674 369.078 286.486 370.156 283.58C371.296 280.506 377.914 231.858 378.264 225.794C378.404 223.36 378.244 221.924 377.642 223.33L377.64 223.328Z"
        fill="#38A1FF" />
    <path
        d="M324.929 207.69C324.468 207.69 324.026 207.873 323.7 208.199C323.375 208.525 323.191 208.967 323.191 209.428C323.191 209.889 323.375 210.331 323.7 210.657C324.026 210.983 324.468 211.166 324.929 211.166C325.39 211.166 325.832 210.983 326.158 210.657C326.484 210.331 326.667 209.889 326.667 209.428C326.667 208.967 326.484 208.525 326.158 208.199C325.832 207.873 325.39 207.69 324.929 207.69Z"
        fill="#191919" />
    <path
        d="M221.15 166.388C222.198 166.348 222.486 165.336 225.928 162.122C226.092 162.002 227.122 160.92 229.042 159.986C231.496 158.794 233.476 158.75 234.202 158.604C238.234 157.788 237.778 154.514 243.63 150.444C246.292 148.592 247.14 148.61 249.49 146.704C250.64 145.774 250.12 144.644 248.388 144.736C246.422 144.835 244.514 145.439 242.85 146.49C240.072 148.268 237.482 150.168 234.664 154.114C233.824 155.29 232.796 154.5 229.04 155.822C224.79 157.32 220.582 160.962 220.3 165.066C220.284 165.3 220.272 165.538 220.338 165.766C220.44 166.122 220.732 166.4 221.152 166.386H221.15V166.388Z"
        fill="#38A1FF" />
    <path
        d="M207.183 179.444C209.621 177.516 206.633 157.202 215.607 143.418C216.013 142.794 216.139 142.896 216.931 142.91C221.461 142.99 224.845 145.066 230.293 146.342C236.155 147.716 227.245 139.222 216.273 139.12C215.189 139.136 214.147 139.54 213.335 140.258C211.973 141.464 209.879 145.794 208.861 148.422C202.927 163.738 204.793 181.334 207.183 179.442V179.444Z"
        fill="#38A1FF" />
    <path
        d="M236.02 142.336C236.212 142.39 236.413 142.405 236.611 142.381C236.808 142.356 236.999 142.293 237.172 142.194C239.42 140.958 239 140.42 244.216 134.546C249.088 129.06 249.574 129.046 249.942 127.306C250.14 126.37 249.208 125.6 248.198 125.916C247.157 126.24 246.214 126.823 245.46 127.612C243.536 129.612 236.506 137.004 235.494 139.552C235.04 140.7 234.83 142.006 236.016 142.336H236.02Z"
        fill="#38A1FF" />
    <path
        d="M231.075 138.118C233.151 136.358 232.643 135.912 237.031 128.758C241.267 121.852 241.609 121.902 241.709 120.102C241.731 119.847 241.665 119.593 241.524 119.38C241.382 119.167 241.172 119.008 240.929 118.93C239.717 118.5 237.945 120.316 237.235 121.388C235.597 123.862 229.635 132.914 229.007 135.726C228.327 138.766 230.169 138.886 231.075 138.118Z"
        fill="#38A1FF" />
    <path
        d="M223.156 135.036C223.355 135.056 223.555 135.035 223.746 134.977C223.936 134.918 224.113 134.822 224.266 134.694C226.262 133.082 225.762 132.612 229.852 125.924C233.674 119.676 234.156 119.548 234.212 117.788C234.221 117.537 234.149 117.289 234.006 117.081C233.864 116.874 233.658 116.718 233.42 116.636C232.244 116.19 230.554 117.832 229.856 118.876C228.322 121.18 222.696 129.714 222.152 132.39C221.908 133.59 221.938 134.922 223.156 135.036Z"
        fill="#38A1FF" />
    <path
        d="M216.139 135.708C217.935 134.474 217.503 134.028 220.959 128.356C224.329 122.826 224.617 122.914 224.547 121.396C224.509 120.55 223.473 119.928 222.607 120.304C221.74 120.67 220.999 121.282 220.475 122.064C219.207 123.968 214.325 131.328 213.949 133.582C213.849 134.182 213.863 135.092 214.183 135.49C214.569 135.968 215.489 136.154 216.139 135.708Z"
        fill="#38A1FF" />
    <path
        d="M372.243 255.174C372.183 255.039 372.095 254.918 371.985 254.82C371.874 254.722 371.744 254.648 371.603 254.604C366.561 253.236 324.009 257.24 283.833 227.45C280.969 225.292 277.589 222.76 274.183 219.482C258.591 204.484 257.269 202.818 254.229 193.496C253.223 190.44 252.215 187.116 250.431 183.908C247.961 179.664 242.963 173.434 238.311 173.742C237.411 173.802 238.351 173.922 215.567 179.708C212.477 180.492 206.327 180.214 204.679 185.508C202.211 193.064 203.807 201.966 208.109 208.648C213.345 216.758 216.305 216.004 217.693 218.624C221.785 225.008 230.557 242.632 250.619 260.59C263.125 271.72 275.655 278.672 276.627 278.682C362.713 288.038 360.695 288.068 362.873 287.48C365.953 286.698 368.483 284.092 368.951 280.392C370.133 271.054 372.821 256.388 372.243 255.174ZM238.347 177.554C239.199 177.394 240.263 178.032 240.961 178.538C248.959 184.308 249.639 193.77 253.101 201.19C250.881 202.088 249.171 203.072 247.637 203.822C247.536 202.592 247.262 201.382 246.823 200.228C244.279 193.308 239.747 183.426 234.103 178.684C234.217 178.654 238.245 177.564 238.347 177.554ZM230.655 179.61C231.491 180.858 232.329 182.07 233.343 183.174C237.011 187.152 240.643 194.706 242.541 199.752C242.591 199.956 244.053 203.79 244.867 205.128C243.231 205.87 241.239 206.72 239.131 207.512C237.873 203.688 234.953 201.358 230.591 193.088C227.059 186.614 226.143 182.998 224.905 181.154L230.653 179.612L230.655 179.61ZM216.521 183.394C216.955 183.292 216.583 183.39 222.149 181.894C222.249 183.36 222.597 184.792 223.149 186.138C224.845 190.99 232.487 205.512 236.599 208.438C234.076 209.334 231.532 210.17 228.969 210.944C228.069 209.536 226.403 207.96 225.377 206.82C225.105 206.512 221.255 202.276 219.177 197.008C216.953 191.808 216.649 185.946 216.519 185.3C216.459 184.99 216.533 184.034 216.521 183.394ZM365.769 281.336C365.378 282.299 364.707 283.121 363.842 283.697C362.978 284.273 361.96 284.576 360.921 284.566L277.451 274.906C274.631 273.456 271.705 271.768 267.809 269.108C250.573 257.668 236.833 242.278 225.821 224.766C222.313 219.102 222.445 218.84 220.349 215.706C218.693 213.606 216.397 212.786 214.865 211.162C208.003 204.15 205.929 194.072 208.215 187.008C208.515 186.024 208.777 185.588 209.429 185.136C210.335 184.484 211.789 184.208 213.433 183.946C213.06 185.462 212.967 187.033 213.159 188.582C214.165 195.81 215.983 201.074 221.149 207.794C222.049 208.818 223.905 211.04 225.585 212.02C224.861 212.331 224.17 212.715 223.523 213.164C222.795 213.666 222.763 214.242 223.033 214.622C225.321 217.8 245.419 209.128 248.929 207.492C249.929 207.026 252.959 205.196 254.705 204.094C258.185 209.588 265.541 216.296 269.639 220.312C272.459 223.154 275.441 225.66 278.387 227.99C298.509 243.922 321.821 252.796 344.679 255.168C349.813 255.696 367.031 256.372 370.539 256.402C369.189 263.398 366.269 280.128 365.773 281.338L365.769 281.336Z"
        fill="#38A1FF" />
    <path
        d="M303.938 107.51C303.106 109 305.972 112.942 308.028 119.842C308.052 119.896 308.06 119.914 308.026 119.912C298.052 117.008 297.476 116.696 295.25 116.908C294.396 116.99 294.088 117.464 294.128 117.936C294.252 119.366 298.054 120.882 299.428 121.298L309.232 124.262C310.65 124.648 312.02 123.758 312.21 122.806C312.66 121.838 311.938 119.668 311.646 118.54C310.954 115.864 309.184 111.128 307.402 109.062C306.45 107.958 304.648 106.236 303.938 107.51Z"
        fill="#38A1FF" />
    <path
        d="M304.648 115.482C304.49 113.456 296.478 107.318 294.618 105.964C287.528 100.804 275.538 93.366 265.242 88.314C258.97 74.554 258.948 74.194 257.176 72.356C256.49 71.644 255.926 71.74 255.622 72.088C254.64 73.204 256.288 77.682 256.902 79.048L259.95 85.83C258.937 85.3752 257.92 84.9305 256.898 84.496C250.886 71.306 250.596 70.262 248.74 68.336C248.056 67.626 247.492 67.718 247.184 68.066C246.202 69.182 247.85 73.66 248.464 75.026L251.796 82.44C250.802 82.0635 249.803 81.7008 248.8 81.352C242.648 67.856 242.364 66.816 240.502 64.882C239.828 64.182 239.26 64.262 238.946 64.614C237.964 65.73 239.612 70.208 240.226 71.574L244.012 79.996C243.064 79.802 240.37 79.358 239.358 79.53C238.744 79.626 238.348 79.944 238.614 80.382C239.082 81.184 241.076 81.962 242.162 82.442C239.982 83.192 231.588 85.798 230.412 87.734C230 88.414 230.42 89.262 232.02 89.194C235.896 89.022 238.396 87.814 247.428 84.678C248.418 85.084 249.412 85.488 250.41 85.886C247.954 86.734 239.822 89.25 238.648 91.186C238.24 91.86 238.648 92.714 240.256 92.646C244.14 92.474 246.742 91.226 255.756 88.098C256.838 88.572 258.056 89.118 259.372 89.726C256.746 90.632 248.262 93.258 247.084 95.208C246.674 95.888 247.088 96.736 248.692 96.668C250.569 96.5762 252.423 96.2131 254.196 95.59L264.284 92.086C284.904 102.368 299.328 114.836 303.6 115.934C304.192 116.088 304.684 115.984 304.644 115.478L304.648 115.482Z"
        fill="#38A1FF" />
</svg>