<svg width="400" height="400" viewBox="0 0 400 400" fill="none" xmlns="http://www.w3.org/2000/svg">
    <path
        d="M335.933 151.512C335.561 161.912 328.133 184.128 328.133 184.128C328.133 184.128 354.075 187.812 368.435 179.272C384.083 169.982 348.265 152.58 335.933 151.512Z"
        fill="#38A1FF" />
    <path
        d="M239 307.226C240.44 298.204 241.936 285.18 243.856 274.77C243.856 274.77 267.292 277.118 278.714 282.938C281.598 284.378 285.44 286.46 286.616 289.45C288.11 293.186 287.576 296.762 281.918 300.18C277.854 302.634 259.6 311.762 239 307.226Z"
        fill="#38A1FF" />
    <path
        d="M236 76.78C235.252 73.47 233.225 72.082 230.183 70.908C221.899 67.56 213.182 65.4052 204.293 64.508C201.357 64.294 197.033 64.454 195.493 67.444C193.559 71.2696 192.415 75.4451 192.129 79.722C192.072 80.9748 192.27 82.2259 192.711 83.4001C193.151 84.5743 193.824 85.6471 194.69 86.554C196.56 88.21 199.87 88.69 202.164 89.438C202.364 89.504 218.524 94.652 223.25 95.416C225.758 95.842 228.694 96.43 230.938 94.882C233.98 92.746 234.938 88.796 235.538 85.326C236.253 82.5354 236.41 79.6313 236 76.78ZM227.778 92.686C227.722 92.8713 227.602 93.0306 227.439 93.1354C227.276 93.2402 227.081 93.2838 226.889 93.2583C226.697 93.2329 226.52 93.1401 226.39 92.9964C226.26 92.8528 226.185 92.6677 226.178 92.474C226.498 86.442 232.156 78.22 225.804 73.364C222.868 71.068 218.278 70.32 214.754 69.306C211.23 68.292 207.654 67.224 204.078 66.37C203.866 66.318 203.972 66.05 204.132 66.05C208.777 66.85 213.42 67.65 218.01 68.718C221.48 69.518 225.965 70.054 228.634 72.67C233.923 77.9 229.224 86.868 227.782 92.686H227.778Z"
        fill="#38A1FF" />
    <path
        d="M203.761 91.4599C202.811 94.2644 202.578 97.2619 203.081 100.18C203.584 103.098 204.809 105.844 206.643 108.168C209.843 112.278 216.043 115.802 221.377 114.466C221.529 114.416 221.661 114.32 221.754 114.19C221.848 114.061 221.898 113.905 221.898 113.746C221.898 113.586 221.848 113.431 221.754 113.302C221.661 113.172 221.529 113.076 221.377 113.026C216.359 111.798 211.929 110.944 208.299 106.886C206.562 104.813 205.329 102.364 204.699 99.7333C204.069 97.1025 204.059 94.3613 204.669 91.7259C204.691 91.665 204.701 91.6003 204.697 91.5357C204.693 91.4711 204.676 91.408 204.646 91.3502C204.617 91.2925 204.576 91.2414 204.526 91.2C204.477 91.1586 204.419 91.1279 204.357 91.1097C204.295 91.0915 204.23 91.0862 204.165 91.0942C204.101 91.1021 204.039 91.1232 203.983 91.156C203.927 91.1888 203.879 91.2327 203.841 91.285C203.803 91.3372 203.776 91.3968 203.761 91.4599Z"
        fill="#191919" />
    <path
        d="M218.657 107.528C221.941 108.82 227.411 108.222 229.119 104.698C229.182 104.582 229.21 104.45 229.201 104.318C229.192 104.186 229.145 104.06 229.067 103.953C228.988 103.847 228.881 103.765 228.758 103.718C228.635 103.67 228.501 103.658 228.371 103.684C225.771 104.402 224.171 106.246 218.817 106.246C218.069 106.246 218.011 107.272 218.657 107.528Z"
        fill="#191919" />
    <path
        d="M211.501 93.968C211.113 95.55 212.829 98.01 216.145 98.452C217.006 98.5468 217.868 98.2973 218.545 97.758C219.133 97.384 218.919 96.318 218.171 96.424C217.041 96.5429 215.899 96.3586 214.863 95.89C213.962 95.2791 213.137 94.562 212.407 93.754C212.342 93.686 212.261 93.6363 212.17 93.6096C212.08 93.5829 211.985 93.5802 211.893 93.6019C211.802 93.6235 211.717 93.6686 211.649 93.7329C211.58 93.7971 211.529 93.8781 211.501 93.968Z"
        fill="#191919" />
    <path
        d="M240.169 90.9261C241.823 89.1641 242.891 92.2061 243.051 93.1681C243.883 98.3521 239.735 98.7681 238.193 100.368C238.073 100.491 237.987 100.643 237.943 100.809C237.9 100.975 237.899 101.149 237.942 101.315C237.985 101.482 238.07 101.634 238.189 101.758C238.308 101.881 238.457 101.972 238.621 102.022C241.421 103.008 246.307 98.6961 245.561 93.5881C245.187 90.8661 241.877 87.0761 239.635 90.5461C239.589 90.617 239.572 90.703 239.588 90.7861C239.604 90.8692 239.651 90.9429 239.72 90.992C239.789 91.041 239.874 91.0615 239.958 91.0492C240.041 91.037 240.117 90.9928 240.169 90.9261Z"
        fill="#191919" />
    <path
        d="M192.445 72.9901C189.235 70.0101 180.599 71.5521 176.803 78.3281C173.485 84.1121 174.377 90.9481 177.235 96.7041C175.713 96.9522 174.271 97.5585 173.029 98.4732C171.787 99.3879 170.78 100.585 170.092 101.965C169.403 103.345 169.053 104.869 169.069 106.412C169.085 107.954 169.468 109.471 170.185 110.836C170.291 111.264 171.091 110.944 170.933 110.41C170.492 109.096 170.387 107.691 170.628 106.326C170.87 104.96 171.45 103.677 172.315 102.594C173.181 101.51 174.304 100.661 175.582 100.124C176.861 99.5875 178.254 99.3797 179.633 99.5201C179.899 99.5136 180.16 99.439 180.389 99.3033C180.618 99.1677 180.809 98.9755 180.942 98.7452C181.076 98.5149 181.149 98.2542 181.153 97.9879C181.157 97.7216 181.093 97.4586 180.967 97.2241C178.317 92.2441 176.367 86.4941 178.673 80.9961C179.628 78.5277 181.475 76.5082 183.849 75.3381C186.571 74.0581 188.815 74.9121 191.649 74.8581C191.862 74.8502 192.068 74.782 192.244 74.6613C192.419 74.5407 192.557 74.3726 192.64 74.1767C192.723 73.9808 192.749 73.7652 192.715 73.5551C192.68 73.345 192.587 73.149 192.445 72.9901Z"
        fill="#191919" />
    <path
        d="M276.2 136.4C275.366 131.521 272.643 127.167 268.62 124.282C274.384 118.358 275.56 108.856 272.836 101.168C269.636 92.1481 261.836 85.9021 253.566 81.684C253.537 76.2378 252.007 70.905 249.144 66.2719C246.281 61.6388 242.196 57.8846 237.338 55.4221C227.738 50.7241 213.738 51.7381 206.378 60.1181C206.058 60.4401 206.43 61.0261 206.858 60.7601C215.88 55.5821 226.396 53.2861 236.058 58.3041C240.412 60.6917 244.024 64.2311 246.5 68.5348C248.976 72.8385 250.22 77.7405 250.096 82.7041C250.094 82.9994 250.172 83.2899 250.322 83.5441C250.473 83.7982 250.69 84.0064 250.95 84.1461C273.128 93.6521 275.716 113.746 265.15 123.382C264.988 123.544 264.866 123.742 264.793 123.959C264.72 124.177 264.698 124.408 264.729 124.635C264.76 124.862 264.843 125.079 264.972 125.269C265.1 125.459 265.271 125.617 265.47 125.73C267.625 126.906 269.467 128.581 270.842 130.614C272.216 132.648 273.083 134.982 273.37 137.42C273.904 142.332 271.876 146.22 269.37 150.232C268.674 151.406 270.17 152.368 271.13 151.62C275.506 148.2 277.018 141.634 276.2 136.4Z"
        fill="#191919" />
    <path
        d="M252.871 178.844C253.507 184.174 255.429 186.354 257.889 200.09C259.241 206.69 259.796 213.429 259.543 220.162C259.24 226.409 258.091 232.586 256.127 238.524C254.779 242.284 250.669 248.68 255.007 256.524C255.167 256.775 255.411 256.961 255.695 257.05C255.979 257.139 256.285 257.125 256.56 257.01C256.834 256.895 257.059 256.686 257.195 256.421C257.331 256.156 257.368 255.852 257.301 255.562C255.758 251.875 255.644 247.745 256.981 243.978C260.485 235.87 262.301 227.134 262.319 218.302C262.011 208.369 260.415 198.518 257.569 188.996C256.756 185.399 255.408 181.945 253.569 178.748C253.299 178.524 252.817 178.578 252.871 178.844Z"
        fill="#191919" />
    <path
        d="M267.446 169.342C273.07 188.312 273.492 197.698 271.716 211.192C270.808 218.555 269.489 225.862 267.766 233.078C266.846 238.198 271.254 250.464 267.5 259.93C267.018 261.158 268.78 261.638 269.474 260.73C274.514 254.06 270.74 242.392 270.594 234.84C270.594 232.016 276.594 212.24 275.24 194.64C274.598 186.04 273.05 176.332 268.46 168.858C268.086 168.434 267.232 168.756 267.446 169.342Z"
        fill="#191919" />
    <path
        d="M264.297 247.224C264.297 249.52 264.351 251.824 264.243 254.164C263.9 257.044 263.366 259.898 262.643 262.706C262.537 263.24 263.177 263.72 263.605 263.294C267.129 259.494 267.075 251.602 265.153 247.012C264.937 246.584 264.297 246.852 264.297 247.224Z"
        fill="#191919" />
    <path
        d="M258.958 249.734C259.02 252.16 258.895 254.587 258.584 256.994C258.018 258.907 257.66 260.876 257.516 262.866C257.523 262.968 257.558 263.066 257.618 263.149C257.678 263.231 257.759 263.296 257.854 263.335C257.948 263.374 258.051 263.385 258.152 263.369C258.253 263.352 258.347 263.307 258.424 263.24C261.84 260.356 261.624 253.364 260.398 249.574C260.353 249.404 260.249 249.255 260.104 249.155C259.959 249.056 259.783 249.011 259.608 249.031C259.434 249.05 259.271 249.132 259.152 249.261C259.032 249.39 258.963 249.558 258.958 249.734Z"
        fill="#191919" />
    <path
        d="M182.356 117.082C174.88 116.746 167.711 114.011 161.912 109.282C155.968 104.191 151.675 97.4459 149.58 89.9059C145.416 75.2779 150.702 60.4379 158.282 47.8939C158.976 46.7739 157.32 45.8659 156.572 46.8799C147.124 59.5319 142.48 77.0399 147.658 92.3079C152.458 106.508 166.458 119.746 182.356 118.144C182.484 118.126 182.602 118.063 182.687 117.965C182.772 117.868 182.819 117.742 182.819 117.613C182.819 117.483 182.772 117.358 182.687 117.261C182.602 117.163 182.484 117.1 182.356 117.082Z"
        fill="#191919" />
    <path
        d="M174.135 138.862C167.846 136.272 161.967 132.784 156.679 128.506C151.459 123.961 147.069 118.542 143.707 112.492C137.522 102.112 135.252 89.8615 137.307 77.9539C137.895 74.1639 139.603 70.2679 139.763 66.4239C139.766 66.3003 139.74 66.1776 139.686 66.0664C139.631 65.9552 139.551 65.8588 139.451 65.7853C139.352 65.7119 139.236 65.6636 139.114 65.6445C138.991 65.6255 138.866 65.6363 138.749 65.6759C135.599 57.5999 144.235 51.0219 142.533 39.4119C142.479 38.8799 141.571 38.8799 141.465 39.4119C140.811 44.3741 139.722 49.269 138.209 54.0399C136.821 58.1499 135.949 62.6799 137.871 66.6299C135.897 69.9919 135.487 74.4839 134.899 78.2299C133.022 90.2911 135.44 102.629 141.733 113.088C148.671 125.25 160.095 135.82 173.599 140.142C173.766 140.197 173.946 140.187 174.106 140.114C174.265 140.041 174.391 139.911 174.459 139.75C174.526 139.588 174.531 139.407 174.471 139.242C174.411 139.078 174.291 138.942 174.135 138.862Z"
        fill="#191919" />
    <path
        d="M146.27 37.7581C146.246 39.8816 146.104 42.0023 145.844 44.1101C145.376 46.1532 145.037 48.2241 144.83 50.3101C144.837 50.4701 144.895 50.6237 144.995 50.7486C145.095 50.8736 145.233 50.9634 145.387 51.0051C145.542 51.0468 145.706 51.0381 145.855 50.9804C146.004 50.9227 146.132 50.8189 146.218 50.684C148.618 47.162 148.192 41.5561 147.338 37.6601C147.232 37.0101 146.278 37.1721 146.27 37.7581Z"
        fill="#191919" />
    <path
        d="M150.969 51.8501C151.922 49.5631 152.464 47.1256 152.569 44.6501C152.675 42.7281 153.209 39.3661 151.769 37.8701C151.712 37.8085 151.64 37.7614 151.561 37.7327C151.482 37.704 151.398 37.6946 151.314 37.7051C151.231 37.7157 151.151 37.7459 151.081 37.7934C151.012 37.8409 150.955 37.9042 150.915 37.9781C150.061 39.6321 150.863 42.0881 150.915 43.9041C151.093 46.4897 150.841 49.0871 150.169 51.5901C149.955 52.0101 150.757 52.3321 150.969 51.8501Z"
        fill="#191919" />
    <path
        d="M113.867 208.15C104.239 216.114 114.241 230.998 119.419 238.79C124.659 246.447 130.476 253.692 136.819 260.464C138.795 262.6 140.929 265.962 143.599 267.19C144.293 267.51 145.413 266.976 145.039 266.068C143.94 263.976 142.455 262.111 140.663 260.57C130.729 249.504 122.623 240.37 115.787 226.994C113.117 221.656 110.129 214.236 114.613 208.898C114.699 208.797 114.744 208.666 114.739 208.534C114.734 208.401 114.679 208.275 114.585 208.18C114.491 208.086 114.365 208.031 114.232 208.025C114.099 208.019 113.969 208.064 113.867 208.15Z"
        fill="#191919" />
    <path
        d="M165.329 231.532C163.073 229.562 150.729 226.132 146.549 225.408C145.871 223.028 144.662 220.833 143.015 218.986C142.899 218.877 142.753 218.804 142.596 218.776C142.438 218.747 142.276 218.766 142.129 218.828C141.982 218.89 141.857 218.994 141.767 219.126C141.678 219.259 141.629 219.414 141.627 219.574C142.002 221.762 142.819 223.85 144.027 225.712C152.169 243.062 151.971 243.95 154.863 248.712C154.905 248.811 154.985 248.89 155.086 248.93C155.186 248.97 155.298 248.968 155.397 248.926C155.496 248.884 155.574 248.804 155.615 248.703C155.655 248.603 155.653 248.491 155.611 248.392C154.461 243.216 151.151 235.628 147.347 227.192C151.887 229.27 162.039 233.098 164.747 232.918C165.381 232.866 165.869 232 165.329 231.532Z"
        fill="#191919" />
    <path
        d="M221.484 224.166C207.9 251.484 197.424 258.794 184.706 272.1C169.832 287.538 168.848 303.3 163.566 329.966C157.188 361.854 156.874 362.498 156.464 367.604C154.822 367.578 153.082 368.344 151.448 368.294C149.857 368.163 148.297 367.782 146.824 367.166C147.376 363.366 147.006 369.288 148.94 303.862C149.26 293.08 149.314 282.136 151.662 271.514C156.662 249.598 167.392 238.102 177.662 223.632C178.09 223.044 177.074 222.232 176.542 222.832C165.048 235.522 155.082 249.576 150.332 266.232C146.564 279.384 146.578 288.95 145.046 348.546C144.549 354.922 144.478 361.324 144.834 367.71C144.881 367.987 145.03 368.237 145.253 368.409C145.475 368.582 145.754 368.664 146.034 368.64C148.712 371.002 154.546 371.922 156.906 369.008C157.114 369.08 157.341 369.068 157.54 368.975C157.739 368.882 157.894 368.715 157.972 368.51C159.609 362.902 160.892 357.197 161.814 351.428C172.636 297.872 171.978 289.638 185.73 275.04C192.508 267.78 199.93 261.374 206.174 253.64C213.223 245.064 219.126 235.608 223.736 225.51C224.42 224 222.232 222.67 221.484 224.166Z"
        fill="#191919" />
    <path
        d="M144.295 368.88C141.621 366.268 121.447 384.788 120.273 388.524C127.639 391.568 136.821 389.486 144.027 386.07C151.233 382.654 155.611 378.168 157.907 370.482C155.773 371.73 153.289 372.249 150.833 371.96C148.377 371.671 146.082 370.59 144.295 368.88Z"
        fill="#191919" />
    <path
        d="M98.4939 61.8859C88.82 77.4219 80.7719 119.698 80.7719 119.698C69.6889 112.682 59.6445 104.147 50.9319 94.3419C46.9067 89.6542 44.4271 83.838 43.8319 77.6879C43.5119 64.4479 63.3699 61.3519 72.8179 60.6059C81.5398 60.1253 90.286 60.3393 98.9739 61.2459C98.7907 61.4408 98.6297 61.6554 98.4939 61.8859Z"
        fill="#38A1FF" />
    <path
        d="M55.0418 218.826C52.0658 216.408 46.2938 216.026 44.5798 219.466C44.4938 219.638 38.5998 227.016 46.2878 231.478C47.9792 232.389 49.9427 232.658 51.8169 232.236C53.691 231.814 55.3498 230.73 56.4878 229.182C57.5545 227.578 57.9964 225.638 57.7299 223.73C57.4635 221.821 56.5072 220.077 55.0418 218.826Z"
        fill="#191919" />
    <path
        d="M305.72 307.812C305.216 308.878 305.022 310.064 305.16 311.235C305.298 312.406 305.763 313.515 306.501 314.435C307.239 315.355 308.22 316.048 309.333 316.437C310.446 316.826 311.646 316.894 312.796 316.634C313.946 316.373 315 315.795 315.837 314.964C316.674 314.134 317.261 313.085 317.531 311.937C317.8 310.789 317.742 309.589 317.362 308.472C316.982 307.356 316.296 306.369 315.382 305.624C314.134 304.666 312.581 304.192 311.011 304.29C309.441 304.388 307.959 305.052 306.84 306.158L305.72 307.812Z"
        fill="#38A1FF" />
    <path
        d="M97.9629 41.068C94.9629 38.282 90.6329 36.692 86.4869 34.55C88.9133 31.7432 91.1591 28.7853 93.2109 25.694C93.5849 25 92.7829 24.04 92.0369 24.52C88.9083 26.9981 86.192 29.9561 83.9889 33.284C80.9229 31.754 77.7889 30.34 74.7409 28.79C73.8249 28.326 72.9789 29.698 73.9409 30.232C76.8329 31.936 79.6989 33.67 82.5789 35.346C80.7824 37.9227 79.298 40.7035 78.1569 43.63C77.9289 44.32 78.9569 44.964 79.4389 44.378C81.4049 41.964 83.1109 39.288 84.9289 36.696C89.5289 39.296 93.0769 41.896 96.9469 42.83C97.1687 42.8807 97.4009 42.8589 97.6095 42.7679C97.818 42.6768 97.9919 42.5213 98.1056 42.3242C98.2192 42.1271 98.2667 41.8987 98.241 41.6726C98.2153 41.4465 98.1178 41.2346 97.9629 41.068Z"
        fill="#191919" />
    <path
        d="M122.569 325.216C121.109 323.891 119.429 322.833 117.603 322.088C119.45 319.999 121.095 317.739 122.515 315.34C122.889 314.646 122.079 313.722 121.341 314.164C118.849 315.984 116.711 318.244 115.031 320.832C112.723 319.684 110.337 318.654 107.995 317.582C107.805 317.481 107.583 317.457 107.375 317.515C107.168 317.573 106.991 317.709 106.881 317.894C106.771 318.08 106.737 318.3 106.785 318.51C106.834 318.72 106.961 318.904 107.141 319.022C109.279 320.378 111.395 321.702 113.575 322.998C112.266 324.953 111.199 327.06 110.397 329.272C110.167 330.014 111.197 330.654 111.679 330.072C113.201 328.254 114.517 326.292 115.879 324.372C117.601 325.565 119.52 326.446 121.547 326.972C121.769 327.024 122.001 327.004 122.21 326.914C122.419 326.824 122.594 326.669 122.709 326.473C122.823 326.276 122.871 326.048 122.846 325.821C122.821 325.595 122.724 325.383 122.569 325.216Z"
        fill="#38A1FF" />
    <path
        d="M326.164 49.876C325.098 52.886 328.14 55.854 330.862 56.334C332.377 56.5598 333.921 56.1999 335.181 55.3276C336.44 54.4553 337.32 53.136 337.642 51.638C338.035 50.2081 337.867 48.6819 337.172 47.3717C336.477 46.0615 335.308 45.0664 333.904 44.59C331.504 43.79 327.338 44.324 326.966 47.366C326.965 47.4837 326.991 47.6001 327.042 47.7061C327.093 47.8121 327.168 47.9049 327.261 47.9772C327.354 48.0496 327.462 48.0995 327.577 48.1233C327.693 48.147 327.812 48.1438 327.926 48.114C329.474 47.634 330.594 46.62 332.358 46.992C336.484 47.896 335.07 53.876 331.61 53.666C329.368 53.558 328.14 51.69 327.392 49.822C327.342 49.6961 327.254 49.5888 327.141 49.5152C327.027 49.4415 326.894 49.4051 326.758 49.411C326.623 49.417 326.493 49.465 326.387 49.5483C326.28 49.6317 326.202 49.7462 326.164 49.876Z"
        fill="#191919" />
    <path
        d="M309.67 66.2C304.953 72.075 300.722 78.3236 297.018 84.884C305.447 84.1271 313.911 83.824 322.374 83.976C318.744 78.862 312.854 70.648 309.67 66.2Z"
        fill="#191919" />
    <path
        d="M182.621 16.032C186.039 19.556 190.421 21.476 193.821 24.032C194.155 19.3284 194.729 14.6449 195.541 10C192.399 11.548 185.861 14.546 182.621 16.032Z"
        fill="#38A1FF" />
    <path
        d="M49.6004 282.136C50.6684 277.336 49.8144 272.634 50.1344 268.364C46.0244 270.66 41.8064 272.742 37.4824 274.662C41.6843 276.88 45.7327 279.377 49.6004 282.136Z"
        fill="#38A1FF" />
    <path
        d="M342.399 281.922C340.731 280.182 339.399 280.134 333.493 275.834C336.207 273.472 340.425 270.75 340.797 267.564C340.796 267.435 340.764 267.309 340.706 267.194C340.648 267.079 340.564 266.979 340.461 266.902C340.358 266.825 340.239 266.772 340.112 266.748C339.986 266.724 339.855 266.73 339.731 266.764C337.681 267.106 337.661 268.24 331.249 274.132C328.554 272.006 325.985 269.725 323.557 267.298C322.861 266.604 321.891 267.626 322.489 268.366C324.608 271.013 326.934 273.488 329.445 275.766C327.313 277.672 325.141 279.546 322.969 281.446C322.275 282.034 323.289 283.314 324.143 282.78C326.695 281.181 329.145 279.426 331.481 277.526C334.357 279.938 337.931 283.142 341.281 283.902C341.532 283.964 341.795 283.942 342.032 283.84C342.269 283.738 342.466 283.561 342.593 283.337C342.72 283.112 342.769 282.852 342.734 282.597C342.699 282.341 342.582 282.104 342.399 281.922Z"
        fill="#191919" />
    <path
        d="M357.446 187.012C337.374 190 314.046 188.666 296.806 181.46C293.068 204.2 289.76 210.766 284.42 232.92C309.67 242.954 344.954 242.634 356.646 230.464C363.372 213.008 369.99 193.044 376.716 175.642C376.716 175.642 372.446 184.77 357.446 187.012ZM307.214 217.92C304.226 218.08 299.794 218.4 298.566 217.332C296.538 215.516 305.506 192.296 305.506 192.296C308.709 192.193 311.914 192.444 315.062 193.044C318.158 193.684 310.2 217.706 307.214 217.92Z"
        fill="#38A1FF" />
    <path
        d="M194.899 298.952C194.899 298.952 192.603 314.058 195.113 341.87L196.021 345.606C220.203 357.084 257.035 361.034 276.253 348.168C276.253 348.168 288.317 317.902 290.237 296.39C287.199 299 267.125 326.07 194.899 298.952ZM272.463 346.78C269.419 349.022 268.085 350.25 266.863 349.18C264.835 347.366 275.725 312.134 275.725 312.134C278.981 310.16 282.125 307.864 282.725 308.718C284.581 311.282 274.865 345.02 272.463 346.78Z"
        fill="#38A1FF" />
    <path
        d="M256.235 134.8C250.633 127.002 242.621 121.262 233.435 118.466C233.435 118.466 229.271 125.086 226.067 126.58C224.492 127.367 222.739 127.731 220.98 127.638C219.221 127.544 217.517 126.996 216.033 126.046C213.203 124.018 214.057 116.544 214.057 116.544C201.457 112.648 186.085 116.598 186.085 116.598C182.819 120.485 180.222 124.887 178.399 129.626C176.648 134.368 175.885 139.418 176.157 144.466C178.394 145.007 180.657 145.435 182.937 145.748C183.879 143.547 185.311 141.589 187.124 140.026C188.937 138.462 191.083 137.334 193.399 136.726C193.569 136.681 193.749 136.692 193.912 136.758C194.075 136.824 194.212 136.942 194.303 137.093C194.393 137.244 194.432 137.42 194.413 137.595C194.395 137.77 194.319 137.934 194.199 138.062C190.727 141.534 185.717 143.404 184.111 150.232C183.943 151.291 183.853 152.36 183.843 153.432C184.805 153.966 219.075 158.718 222.653 159.252L208.025 215.302C212.577 218.101 217.58 220.088 222.811 221.174C223.995 221.502 225.241 221.538 226.441 221.28C228.203 220.746 230.125 219.412 230.339 217.596C231.905 200.319 236.915 183.53 245.073 168.22C245.873 170.462 249.235 177.02 250.037 179.27C259.805 175.64 264.715 172.49 269.467 164.162C263.707 153.756 262.677 143.038 256.235 134.8Z"
        fill="#191919" />
    <path
        d="M121.236 142.278C93.6901 133.256 66.5201 119.698 47.3561 97.866C44.0979 94.3671 41.7972 90.0871 40.676 85.4394C39.5549 80.7918 39.6514 75.9335 40.9561 71.334C22.2721 99.334 19.2561 129.788 27.9301 153.968C41.0081 184.342 139.23 222.768 202.006 219.568L218.128 161.81C189.4 157.492 148.78 151.3 121.236 142.278ZM33.2621 147.83C28.2181 130.536 29.6621 107.188 38.2801 92.154C38.2281 98.932 43.8321 105.072 43.8321 105.072C40.7172 119.793 40.104 134.933 42.0181 149.858C42.3381 152.154 44.5801 161.816 44.5801 161.816C44.5801 161.816 34.9721 153.702 33.2621 147.83ZM89.2001 173.666C95.4001 175.534 101.2 178.844 107.296 180.98C123.408 186.452 121.27 185.306 123.096 186.264C123.262 186.363 123.396 186.507 123.482 186.68C123.567 186.854 123.601 187.048 123.579 187.24C123.556 187.432 123.479 187.613 123.355 187.762C123.232 187.91 123.068 188.02 122.884 188.078C116.724 188.976 97.3901 182.678 88.6121 174.788C88.1381 174.306 88.6181 173.452 89.2001 173.666ZM123 197.474C120.278 198.274 116.916 196.834 114.246 196.14C104.246 193.562 94.4001 190.522 86.6461 183.648C86.5563 183.543 86.5016 183.413 86.4899 183.276C86.4782 183.139 86.51 183.001 86.5808 182.883C86.6517 182.765 86.7579 182.672 86.8845 182.618C87.0111 182.563 87.1516 182.55 87.2861 182.58C96.4861 186.06 104.35 190.016 115.632 192.884C118.194 193.578 121.49 193.64 123.532 195.446C123.678 195.598 123.782 195.785 123.834 195.988C123.887 196.192 123.887 196.405 123.834 196.609C123.78 196.812 123.676 196.999 123.53 197.15C123.384 197.302 123.201 197.413 123 197.474ZM124.762 178.096C120.646 177.64 89.2921 167.838 89.5301 161.708C90.3012 154.2 91.7852 146.783 93.9621 139.556C98.3062 142.151 102.838 144.417 107.52 146.336C115.902 149.698 128.338 153.008 131.22 153.862C130.8 155.57 125.238 175.642 124.758 178.096H124.762ZM181.4 192.616C177.74 193.026 174.042 192.954 170.4 192.404C162.524 191.595 154.768 189.875 147.288 187.278C142.967 186.021 138.862 184.114 135.116 181.62C134.528 181.192 134.848 180.392 135.542 180.552C142.566 181.694 150.632 186.32 171.256 188.612C174.618 188.986 178.088 188.88 181.398 189.466C181.735 189.569 182.03 189.778 182.239 190.062C182.449 190.345 182.562 190.688 182.562 191.04C182.562 191.393 182.45 191.736 182.24 192.019C182.031 192.303 181.737 192.512 181.4 192.616ZM187.058 181.352C183.373 181.878 179.629 181.842 175.954 181.246C163.712 180.022 147.272 177.216 136.88 170.57C136.346 170.25 136.72 169.396 137.306 169.662C152.826 173.922 160.262 175.862 176.328 177.51C179.95 177.603 183.549 178.104 187.058 179.004C187.308 179.083 187.527 179.239 187.681 179.45C187.836 179.662 187.92 179.917 187.919 180.179C187.919 180.442 187.835 180.697 187.679 180.908C187.523 181.119 187.304 181.274 187.054 181.352H187.058ZM190.634 170.304C187.324 172.172 181.986 170.464 178.462 169.876C169.485 168.382 160.646 166.149 152.036 163.2C147.721 161.915 143.566 160.141 139.652 157.914C139.118 157.594 139.492 156.846 140.132 156.954C148.15 158.29 153.892 161.786 179.58 165.754C183.05 166.288 188.122 165.914 190.896 168.262C191.039 168.402 191.147 168.573 191.212 168.761C191.277 168.95 191.297 169.151 191.272 169.349C191.246 169.547 191.175 169.736 191.063 169.902C190.952 170.068 190.804 170.205 190.63 170.304H190.634Z"
        fill="#38A1FF" />
</svg>