<svg width="400" height="400" viewBox="0 0 400 400" fill="none" xmlns="http://www.w3.org/2000/svg">
    <path
        d="M49.2676 165.068C50.7896 170.452 64.0676 271.978 67.2916 284.618C75.4916 282.336 83.6756 280.054 91.8676 277.712C91.6336 271.568 80.6316 174.666 75.8336 160.798C72.3236 161.616 54.1256 164.6 49.2676 165.068Z"
        fill="#38A1FF" />
    <path
        d="M93.8008 176.83C100.341 175.143 107.019 174.046 113.755 173.554C116.211 181.102 124.521 255.242 126.511 266.888C119.197 269.052 111.881 271.276 104.567 273.442C104.041 269.11 96.0828 189.294 93.8008 176.83Z"
        fill="#38A1FF" />
    <path
        d="M131.484 189.704C134.284 189.354 147.752 187.704 151.554 187.304C152.14 192.16 158.694 251.846 160.508 259.336L139.09 263.9C137.218 260.158 132.478 200.062 131.484 189.704Z"
        fill="#38A1FF" />
    <path
        d="M168.175 210.478L186.081 209.19L187.835 251.322L172.563 255C171.509 250.034 168.115 219.08 168.175 210.478Z"
        fill="#38A1FF" />
    <path
        d="M112.057 39.2581V79.8701C112.057 79.1661 126.159 73.0221 126.277 72.7881C126.453 72.4381 125.219 71.9761 124.877 71.7361C122.033 69.7621 123.129 66.5561 126.277 66.7021C128.27 67.3435 130.176 68.2282 131.953 69.3361C132.829 69.8061 133.067 69.6941 134.001 69.3361C135.645 68.7061 143.363 65.2401 145.529 64.1861C143.115 57.1395 138.627 50.9877 132.653 46.5388C126.679 42.0898 119.499 39.5518 112.057 39.2581Z"
        fill="#38A1FF" />
    <path
        d="M103.98 55.2339L107.258 91.0459C110.886 89.4079 127.622 82.7939 127.798 82.8459C127.974 82.8979 128.09 83.5479 127.856 83.6059C127.606 83.6602 127.375 83.7821 127.189 83.9585C127.004 84.1348 126.87 84.3587 126.802 84.6059C126.724 85.1904 126.743 85.7838 126.86 86.3619C126.86 86.4799 125.632 88.0599 125.632 88.9379C125.655 89.8216 125.896 90.6859 126.334 91.4539C127.261 92.8977 128.554 94.0707 130.08 94.8539C131.934 95.7842 133.85 96.5861 135.814 97.2539C138.188 98.0493 140.724 98.2309 143.186 97.7819C143.281 101.697 142.583 105.591 141.135 109.23C139.688 112.869 137.519 116.178 134.76 118.958C123.438 130.34 103.4 131.782 89.5862 121.826C76.9402 112.704 72.9022 96.4859 76.2442 82.9699C77.9569 76.2851 81.435 70.1837 86.3145 65.3041C91.194 60.4246 97.2955 56.9465 103.98 55.2339Z"
        fill="#38A1FF" />
    <path
        d="M204.043 267.296C183.043 272.096 50.0274 307.848 44.5854 309.662C43.7094 304.22 29.7174 180.062 21.4714 158.632C21.4168 158.479 21.3058 158.352 21.161 158.278C21.0163 158.203 20.8486 158.187 20.6922 158.232C20.5357 158.276 20.4022 158.379 20.3189 158.519C20.2355 158.659 20.2085 158.825 20.2434 158.984C24.5834 179.286 40.5214 305.166 42.5974 311.476C42.8734 312.32 43.4214 312.238 43.9434 312.238C49.2674 311.238 191.125 273.222 204.277 268.526C205.149 268.214 204.799 267.124 204.043 267.296Z"
        fill="#191919" />
    <path
        d="M46.1656 332.718C66.7256 327.75 197.306 289.626 202.874 287.66C203.149 287.572 203.381 287.382 203.519 287.128C203.658 286.874 203.693 286.576 203.617 286.297C203.542 286.018 203.361 285.779 203.113 285.63C202.866 285.48 202.57 285.432 202.288 285.496C197.208 286.496 57.1096 327.452 45.8736 331.496C45.7855 331.507 45.7006 331.537 45.6247 331.583C45.5487 331.629 45.4833 331.69 45.4327 331.763C45.3822 331.836 45.3476 331.919 45.3312 332.006C45.3148 332.094 45.317 332.184 45.3376 332.27C45.3583 332.356 45.3969 332.437 45.451 332.508C45.5051 332.578 45.5734 332.637 45.6515 332.679C45.7297 332.721 45.8158 332.746 45.9044 332.753C45.993 332.76 46.082 332.748 46.1656 332.718Z"
        fill="#191919" />
    <path
        d="M55.3534 344.832C66.0434 343.07 177.115 313.91 182.217 311.886C182.493 311.799 182.724 311.608 182.863 311.354C183.001 311.1 183.037 310.803 182.961 310.523C182.885 310.244 182.705 310.005 182.457 309.856C182.209 309.706 181.914 309.658 181.631 309.722C176.259 310.778 65.3714 340.598 55.0014 343.602C54.8431 343.653 54.7107 343.763 54.6323 343.91C54.5539 344.056 54.5356 344.228 54.5813 344.388C54.6271 344.547 54.7333 344.683 54.8774 344.766C55.0215 344.849 55.1922 344.873 55.3534 344.832Z"
        fill="#191919" />
    <path
        d="M22.818 107.314C22.7554 107.111 22.642 106.928 22.4885 106.782C22.3351 106.636 22.1467 106.531 21.9414 106.478C21.7361 106.425 21.5207 106.426 21.3156 106.48C21.1106 106.533 20.9227 106.639 20.77 106.786C17.9915 108.904 14.655 110.165 11.17 110.414C10.584 110.464 9.93999 110.942 9.99999 111.586C10.5805 118.34 11.8949 125.011 13.92 131.48C14.0075 131.725 14.1795 131.93 14.4051 132.059C14.6307 132.187 14.8949 132.231 15.15 132.182C18.5472 131.77 21.885 130.965 25.096 129.782C25.2526 129.73 25.3831 129.62 25.4603 129.474C25.5375 129.328 25.5554 129.158 25.5102 128.999C25.4651 128.841 25.3604 128.705 25.218 128.622C25.0756 128.539 24.9065 128.514 24.746 128.552C21.704 128.974 18.66 129.664 15.618 130.132C14.041 124.407 12.9834 118.551 12.458 112.636C15.5228 112.307 18.468 111.265 21.058 109.594C21.818 111.818 24.352 122.462 25.27 125.452C25.628 126.62 27.548 126.452 27.494 125.158C27.246 119.134 24.906 112.822 22.818 107.314Z"
        fill="#191919" />
    <path
        d="M34.6409 64.538C34.5547 64.2524 34.3594 64.0124 34.0972 63.87C33.835 63.7277 33.5273 63.6947 33.2409 63.778C29.7449 64.388 26.2189 64.888 22.7669 65.708C22.4733 65.786 22.2224 65.977 22.0692 66.2393C21.9159 66.5016 21.8727 66.8139 21.9489 67.108C26.0689 86.92 29.7929 106.724 32.6569 126.736C32.7096 126.917 32.802 127.084 32.9275 127.225C33.053 127.366 33.2083 127.477 33.3822 127.55C33.556 127.623 33.744 127.656 33.9324 127.647C34.1207 127.638 34.3047 127.587 34.4709 127.498C37.0203 126.168 39.8066 125.352 42.6709 125.098C43.9569 124.92 43.6069 122.932 42.3789 122.874C39.7692 122.828 37.1846 123.39 34.8289 124.514C32.0102 105.439 28.5342 86.4813 24.4009 67.64C27.0929 67.054 29.8429 66.528 32.6009 66.06C36.0529 83.322 38.8469 100.824 43.4249 117.788C43.6469 118.61 44.7729 118.256 44.6549 117.436C42.0629 99.698 37.9409 82.168 34.6409 64.538Z"
        fill="#191919" />
    <path
        d="M64.3655 117.788C62.2875 102.576 59.3295 87.5119 56.2315 72.4959C56.185 72.3246 56.0999 72.1662 55.9826 72.033C55.8654 71.8998 55.7191 71.7952 55.5551 71.7274C55.3911 71.6596 55.2137 71.6303 55.0365 71.6419C54.8594 71.6534 54.6873 71.7054 54.5335 71.7939C51.4619 73.1363 48.2381 74.0994 44.9335 74.6619C44.7944 74.6991 44.6642 74.7636 44.5503 74.8518C44.4365 74.9399 44.3415 75.0499 44.2707 75.1752C44.1999 75.3006 44.1548 75.4388 44.1382 75.5818C44.1215 75.7247 44.1335 75.8696 44.1735 76.0079C47.0555 89.0519 48.5475 102.224 50.7275 115.388C50.8435 116.09 52.0135 115.916 51.9555 115.214C51.285 102.207 49.4652 89.2857 46.5175 76.5999C49.1281 76.0646 51.6917 75.3209 54.1835 74.3759C56.8755 88.7146 59.3915 103.071 61.7315 117.444C59.2307 118.594 56.565 119.344 53.8315 119.668C52.4855 119.898 52.9535 121.792 54.1255 121.892C57.5257 121.999 60.8769 121.06 63.7255 119.2C63.9688 119.064 64.1621 118.853 64.2772 118.599C64.3923 118.345 64.4233 118.061 64.3655 117.788Z"
        fill="#191919" />
    <path
        d="M369.294 291.816C365.842 291.464 352.616 292.216 349.516 292.342C349.829 286.276 349.731 280.195 349.222 274.142C349.065 273.699 348.781 273.312 348.404 273.03C345.557 272.175 342.516 272.203 339.685 273.112C336.854 274.021 334.365 275.767 332.546 278.12C330.92 280.433 329.776 283.05 329.183 285.815C328.59 288.58 328.56 291.435 329.094 294.212C331.414 307.734 347.226 315.148 359.346 308.958C362.449 307.409 365.069 305.043 366.926 302.115C368.782 299.186 369.804 295.807 369.88 292.34C369.88 292.224 369.352 291.816 369.294 291.816ZM356.538 308.082C352.837 309.335 348.846 309.459 345.074 308.438C341.302 307.417 337.919 305.297 335.354 302.348C328.654 294.412 330.626 281.614 337.286 277.01C340.33 274.906 343.486 275.138 346.886 275.314C346.418 281.34 347.12 287.66 347.178 293.63C347.182 293.94 347.307 294.235 347.526 294.454C347.745 294.673 348.041 294.797 348.35 294.8C352.032 294.516 365.494 293.8 368.538 293.278C368.025 296.586 366.644 299.699 364.536 302.299C362.428 304.899 359.668 306.895 356.538 308.082Z"
        fill="#191919" />
    <path
        d="M366.779 223.878C366.661 223.702 366.077 223.76 366.019 223.76C363.093 225.574 354.197 233.298 352.383 234.82C354.251 229.804 355.681 224.635 356.655 219.372C356.727 218.846 356.011 218.026 355.895 217.972C351.792 216.589 347.369 216.469 343.198 217.626C339.026 218.784 335.298 221.167 332.495 224.466C323.633 236.066 330.779 256.066 346.305 258.524C350.097 259.1 353.974 258.698 357.569 257.357C361.163 256.015 364.355 253.778 366.843 250.858C369.896 247.021 371.553 242.26 371.541 237.357C371.529 232.453 369.85 227.7 366.779 223.878ZM366.487 247.986C364.466 250.867 361.732 253.175 358.553 254.682C355.373 256.19 351.856 256.846 348.347 256.586C335.121 255.586 326.947 239.718 333.073 228.148C335.017 224.562 338.263 221.859 342.143 220.598C345.984 219.488 350.031 219.288 353.963 220.014C351.741 225.748 350.623 232.142 348.931 237.978C348.871 238.23 348.894 238.495 348.996 238.733C349.099 238.972 349.274 239.171 349.498 239.302C349.722 239.433 349.982 239.488 350.24 239.461C350.498 239.433 350.74 239.323 350.931 239.148C353.671 236.864 364.039 227.854 366.263 225.398C370.173 232.422 371.175 240.97 366.487 247.986Z"
        fill="#191919" />
    <path
        d="M388.779 177.474C387.375 175.369 385.268 173.831 382.835 173.135C380.402 172.439 377.801 172.63 375.495 173.674C373.389 170.456 317.331 98.6559 311.771 92.2739C311.947 92.2159 321.893 87.3019 317.271 77.8219C315.047 73.2579 307.291 71.2819 303.053 74.6019C302.757 74.8339 295.621 79.2259 298.079 87.0659C295.035 88.2959 283.099 94.7319 280.055 96.3119C278.417 92.6839 271.043 77.7419 268.761 74.0759C268.681 73.9509 268.559 73.8578 268.417 73.8126C268.275 73.7674 268.122 73.7729 267.984 73.8282C267.845 73.8835 267.731 73.9852 267.659 74.1157C267.588 74.2463 267.564 74.3976 267.591 74.5439C268.655 78.5939 276.555 94.3719 278.475 98.4779C278.553 98.6082 278.655 98.7219 278.776 98.8125C278.897 98.9032 279.035 98.969 279.182 99.0061C279.329 99.0433 279.482 99.0511 279.632 99.0291C279.781 99.0071 279.925 98.9557 280.055 98.8779C283.391 97.1819 296.323 90.9799 299.131 89.1659C300.429 90.8047 302.185 92.0195 304.176 92.655C306.167 93.2906 308.303 93.3181 310.309 92.7339C315.223 99.8159 370.697 172.134 373.623 175.302C371.511 176.673 370.001 178.8 369.403 181.247C368.805 183.694 369.163 186.276 370.405 188.468C373.155 192.856 379.361 193.868 383.805 191.744C388.959 189.302 391.749 182.514 388.779 177.474ZM300.537 87.2999C300.477 87.0659 298.079 80.0999 303.337 76.5919C303.513 76.6499 309.951 72.9039 314.573 78.1719C317.909 81.9719 315.461 88.0259 311.237 89.9919C309.422 90.8739 307.354 91.0875 305.397 90.5951C303.44 90.1027 301.719 88.9359 300.537 87.2999ZM382.693 189.7C379.069 191.404 373.927 190.514 371.927 186.774C369.889 182.974 371.985 178.934 374.853 176.3C375.027 176.358 382.113 172.96 386.087 177.88C389.251 181.8 386.911 187.722 382.693 189.704V189.7Z"
        fill="#191919" />
    <path
        d="M259.518 52.308C257.062 45.7526 254.148 39.3782 250.798 33.232C252.665 31.7417 253.959 29.651 254.461 27.315C254.962 24.9789 254.639 22.5413 253.548 20.416C250.948 16.038 243.568 13.878 239.33 17.198C239.034 17.43 228.914 22.172 235.584 31.944C232.658 34 200.474 60.618 197.666 63.484C195.981 62.0729 193.9 61.2189 191.71 61.0398C189.519 60.8607 187.327 61.3653 185.436 62.484C179.77 66.362 178.466 72.2 181.282 76.704C184.026 81.104 190.232 82.082 194.682 79.98C199.77 77.58 202.99 69.448 198.778 64.59C201.704 62.66 234.414 36.62 237.34 33.752C240.5 36.092 246.82 36.552 249.452 34.338C251.718 40.8305 254.416 47.164 257.528 53.296C257.689 53.4996 257.916 53.6415 258.17 53.6981C258.424 53.7546 258.689 53.7224 258.922 53.6068C259.155 53.4911 259.341 53.2991 259.45 53.0627C259.558 52.8264 259.582 52.56 259.518 52.308ZM193.518 77.938C189.894 79.642 184.752 78.752 182.752 75.012C180.714 71.212 182.81 67.172 185.678 64.538C185.854 64.596 192.252 61.648 196.912 66.118C200.55 69.612 197.728 75.956 193.51 77.938H193.518ZM247.4 32.646C244.47 33.982 238.886 34.094 236.634 29.72C234.668 25.904 236.692 21.88 239.56 19.246C239.734 19.304 246.418 15.784 250.794 20.826C254.144 24.68 251.67 30.702 247.4 32.646Z"
        fill="#191919" />
    <path
        d="M381.29 179.874C380.642 179.43 379.882 179.179 379.097 179.152C378.312 179.125 377.536 179.323 376.86 179.722C376.184 180.122 375.636 180.706 375.281 181.406C374.925 182.106 374.777 182.893 374.854 183.674C375.29 186.312 378.238 188.692 380.704 186.892C381.908 186.044 382.778 184.802 383.162 183.38C383.176 182.684 383.012 181.996 382.684 181.382C382.356 180.768 381.876 180.249 381.29 179.874Z"
        fill="#191919" />
    <path
        d="M310.309 79.6361C309.662 79.191 308.901 78.9401 308.116 78.9129C307.331 78.8857 306.555 79.0834 305.878 79.4826C305.202 79.8819 304.654 80.4661 304.298 81.1666C303.942 81.867 303.794 82.6544 303.871 83.4361C304.309 86.0761 307.257 88.4561 309.723 86.6561C310.938 85.8186 311.81 84.572 312.181 83.1441C312.216 82.4447 312.061 81.7488 311.731 81.131C311.401 80.5131 310.91 79.9964 310.309 79.6361Z"
        fill="#191919" />
    <path
        d="M246.587 22.2899C245.94 21.8448 245.179 21.5939 244.394 21.5667C243.609 21.5395 242.832 21.7372 242.156 22.1364C241.479 22.5357 240.931 23.1199 240.575 23.8204C240.22 24.5208 240.072 25.3082 240.149 26.0899C240.587 28.7299 243.535 31.1099 246.001 29.3099C247.205 28.4617 248.074 27.2194 248.459 25.7979C248.474 25.1018 248.309 24.4135 247.981 23.7992C247.653 23.1849 247.173 22.6652 246.587 22.2899Z"
        fill="#191919" />
    <path
        d="M192.633 68.634C191.986 68.1898 191.225 67.9396 190.44 67.9128C189.656 67.886 188.88 68.0838 188.204 68.4829C187.527 68.882 186.979 69.4658 186.623 70.1657C186.268 70.8656 186.119 71.6526 186.195 72.434C186.633 75.072 189.579 77.454 192.047 75.652C193.251 74.8047 194.121 73.563 194.505 72.142C194.52 71.4459 194.355 70.7578 194.027 70.1436C193.699 69.5293 193.219 69.0096 192.633 68.634Z"
        fill="#191919" />
    <path
        d="M369.41 129.55C365.81 126.008 349.91 113.244 345.946 110.35C344.83 109.536 343.904 111.222 344.6 112.106C347.672 116.004 364.274 128.81 368.826 130.596C369.412 130.832 369.824 129.956 369.41 129.55Z"
        fill="#191919" />
    <path
        d="M373.8 120.186C370.2 116.646 354.298 103.882 350.334 100.986C349.218 100.172 348.294 101.858 348.988 102.742C352.06 106.64 368.65 119.476 373.214 121.232C373.8 121.532 374.272 120.652 373.8 120.186Z"
        fill="#191919" />
    <path
        d="M379.067 113.164C375.467 109.624 359.565 96.86 355.603 93.964C354.485 93.15 353.561 94.836 354.257 95.72C357.327 99.618 373.929 112.424 378.483 114.21C379.069 114.448 379.481 113.572 379.067 113.164Z"
        fill="#191919" />
    <path
        d="M203.519 146.286C196.379 146.344 168.873 141.32 150.971 100.7C150.431 99.478 148.571 100.408 148.923 101.578C159.847 137.924 190.141 149.962 203.693 147.514C204.401 147.388 204.221 146.28 203.519 146.286Z"
        fill="#191919" />
    <path
        d="M327.688 190.524C327.169 187.696 325.918 185.053 324.06 182.858C322.66 181.562 313.006 181.968 310.192 182.272C309.55 182.342 309.258 183.372 310.016 183.502C312.188 183.874 321.896 183.902 322.364 184.204C323.534 184.848 325.418 190.64 325.524 191.46C326.434 198.46 323.242 204.802 321.018 211.18C315.84 211.664 310.699 212.485 305.628 213.638C305.104 213.818 304.926 214.754 305.628 214.866C311.164 214.933 316.692 214.443 322.13 213.404C323.8 212.972 329.302 196.836 327.688 190.524Z"
        fill="#191919" />
    <path
        d="M335.354 382.632C332.37 376.02 327.28 369.116 320.608 365.832C321.167 364.639 321.485 363.348 321.544 362.032C300.01 324.816 279.706 252.198 279.296 249.506C279.764 249.506 280.174 249.556 280.584 249.564C287.61 249.71 312.536 247.164 313.644 241.138C315.044 233.474 316.504 225.622 317.624 217.908C317.659 217.749 317.632 217.583 317.549 217.443C317.465 217.303 317.332 217.2 317.175 217.156C317.019 217.111 316.851 217.127 316.707 217.202C316.562 217.276 316.451 217.403 316.396 217.556C314.094 223.956 311.888 240.492 310.836 241.314C310.016 241.956 289.478 250.15 266.656 244.942C266.656 241.256 266.948 226.978 268.354 221.36C268.528 220.658 267.414 220.598 267.124 221.184C264.994 225.502 264.55 237.92 264.432 240.202C263.672 239.093 262.596 238.238 261.344 237.748C260.092 237.257 258.721 237.154 257.41 237.452C258.462 223.084 259.196 187.99 263.028 185.84C264.788 184.852 269.646 195.84 266.774 215.566C266.538 217.188 277.8 218.016 286.142 214.922C287.426 214.446 286.436 212.468 285.264 212.874C277.486 215.58 270.864 214.63 268.294 214.806C270.05 208.076 271.22 191.926 266.422 184.962C267.944 184.728 275.622 184.29 277.774 183.734C277.908 183.696 278.025 183.615 278.108 183.504C278.192 183.393 278.237 183.258 278.237 183.119C278.237 182.98 278.192 182.845 278.108 182.734C278.025 182.623 277.908 182.542 277.774 182.504C273.041 181.926 268.248 182.061 263.554 182.904C262.857 182.99 262.214 183.322 261.74 183.84C258.566 186.928 257.118 198.586 257.06 199.114C249.57 200.342 235.818 202.682 220.486 198.06C219.726 194.608 211.996 165.292 211.008 158.86C209.208 147.096 210.666 142.072 214.05 132.176C214.29 131.476 213.24 131.07 212.88 131.708C208.256 139.908 207.57 149.378 208.726 158.508C209.554 165.06 216.8 195.308 218.146 198.824C217.328 208.714 216.452 256.112 216.684 263.954C217.284 284.142 217.592 294.202 219.434 306.32C221.22 318.076 228.62 359.102 229.264 366.826C229.206 366.826 219.096 372.004 214.108 374.426C212.65 375.136 204.63 377.528 207.554 380.454C208.842 381.74 234.476 379.63 240.676 379.166C241.001 379.164 241.312 379.034 241.542 378.804C241.772 378.574 241.902 378.263 241.904 377.938C241.934 375.304 241.846 369.57 241.728 369.452C241.857 369.419 241.977 369.359 242.08 369.276C243.192 349.556 248.28 275.592 249.628 258.916C258.464 292.21 304.34 363.366 307.676 368.574C308.118 368.855 308.587 369.09 309.076 369.276C308.972 369.496 308.951 369.746 309.018 369.98C310.064 374.136 314.866 378.118 318.264 380.278C323.095 383.319 328.772 384.734 334.464 384.316C334.654 384.302 334.837 384.239 334.996 384.135C335.155 384.031 335.285 383.888 335.374 383.719C335.462 383.551 335.507 383.363 335.504 383.173C335.501 382.983 335.449 382.797 335.354 382.632ZM239.33 376.78C230.434 377.366 210.13 379.004 209.896 378.83C210.204 379.06 229.674 368.498 229.674 367.886C230.982 369.075 232.567 369.918 234.284 370.337C236.001 370.756 237.796 370.739 239.504 370.286C239.329 372.446 239.271 374.614 239.33 376.78ZM311.772 370.052C314.464 370.452 318.444 370.344 320.024 366.892C325.233 371.022 329.535 376.182 332.662 382.048C328.482 381.833 324.411 380.635 320.781 378.55C317.152 376.466 314.065 373.554 311.772 370.052Z"
        fill="#191919" />
    <path
        d="M261.333 144.472C260.751 144.056 259.933 144.64 260.333 145.232C262.967 149.114 265.775 152.78 268.291 156.702C264.255 161.968 262.369 176.776 263.201 179.874C263.547 181.162 265.267 180.754 265.425 179.58C265.625 178.12 266.127 164.952 269.463 158.516C275.841 166.474 288.287 203.316 289.299 205.796C289.727 206.842 291.617 206.906 291.523 205.504C291.357 202.982 276.693 155.4 261.333 144.472Z"
        fill="#191919" />
    <path
        d="M153.133 85.662C144.644 79.2461 135.686 73.4759 126.333 68.4C125.285 67.92 123.933 69.288 124.987 70.156C133.506 76.1521 142.421 81.5645 151.671 86.356C150.026 87.4547 148.139 88.1376 146.171 88.346C144.823 88.174 141.261 86.2519 140.553 86.5319C140.323 86.598 140.119 86.7357 139.971 86.9252C139.824 87.1146 139.741 87.346 139.733 87.586C139.971 89.986 145.291 90.852 147.047 90.746C149.213 90.614 153.133 89.048 153.309 86.474C153.336 86.3337 153.334 86.1896 153.304 86.0501C153.274 85.9106 153.216 85.7786 153.133 85.662Z"
        fill="#191919" />
    <path
        d="M137.919 84.024C136.67 82.1976 135.006 80.6937 133.063 79.636C132.85 79.5836 132.626 79.5938 132.418 79.6655C132.21 79.7371 132.027 79.8671 131.891 80.0399C131.755 80.2127 131.672 80.421 131.652 80.6398C131.631 80.8587 131.674 81.0789 131.775 81.274C133.303 82.8789 135.187 84.1018 137.275 84.844C137.377 84.8479 137.478 84.8276 137.57 84.7849C137.662 84.7422 137.743 84.6782 137.806 84.5982C137.869 84.5182 137.912 84.4245 137.932 84.3247C137.951 84.2248 137.947 84.1218 137.919 84.024Z"
        fill="#191919" />
    <path
        d="M136.047 87.828C134.805 85.9934 133.139 84.4843 131.191 83.428C130.977 83.3753 130.753 83.3854 130.545 83.4571C130.337 83.5288 130.154 83.659 130.018 83.8322C129.882 84.0053 129.799 84.214 129.778 84.4332C129.758 84.6524 129.801 84.8728 129.903 85.068C131.432 86.6717 133.316 87.8939 135.403 88.636C135.505 88.6439 135.607 88.6268 135.7 88.5861C135.794 88.5455 135.876 88.4825 135.94 88.4028C136.003 88.3231 136.046 88.229 136.065 88.1288C136.084 88.0286 136.078 87.9253 136.047 87.828Z"
        fill="#191919" />
    <path
        d="M145.527 92.6261C144.311 93.1632 143.035 93.5559 141.727 93.7961C140.615 93.7961 134.179 90.3961 131.127 88.6461C130.835 88.3541 130.079 87.7181 129.313 88.2461C127.913 89.1961 129.431 90.5881 129.841 90.9381C132.396 93.0729 135.394 94.6122 138.617 95.4441C141.017 96.1681 144.879 96.2061 146.283 93.6301C146.339 93.5131 146.361 93.3832 146.348 93.2545C146.334 93.1258 146.286 93.0032 146.209 92.8998C146.131 92.7964 146.026 92.7163 145.906 92.6681C145.786 92.6198 145.655 92.6053 145.527 92.6261Z"
        fill="#191919" />
    <path
        d="M245.943 70.33C245.717 69.684 245.119 68.682 244.245 68.986C242.777 69.494 242.323 71.956 243.543 72.672C243.873 72.8214 244.24 72.8679 244.597 72.8052C244.954 72.7425 245.283 72.5736 245.542 72.3206C245.802 72.0676 245.979 71.7422 246.05 71.3871C246.121 71.0319 246.084 70.6635 245.943 70.33Z"
        fill="#191919" />
    <path
        d="M289.769 213.754C288.657 216.856 283.769 221.328 282.689 222.708C282.507 222.902 282.4 223.154 282.386 223.419C282.373 223.685 282.454 223.946 282.616 224.157C282.778 224.368 283.01 224.515 283.27 224.57C283.53 224.626 283.801 224.588 284.035 224.462C285.849 223.644 291.665 215.99 290.939 213.93C290.909 213.807 290.842 213.696 290.749 213.61C290.655 213.525 290.538 213.469 290.413 213.45C290.288 213.432 290.16 213.45 290.045 213.504C289.93 213.558 289.834 213.645 289.769 213.754Z"
        fill="#191919" />
    <path
        d="M289.185 223.176C287.07 226.074 285.173 229.125 283.509 232.304C283.095 233.24 284.023 234.572 285.029 233.826C286.477 232.752 290.355 225.574 290.229 223.644C290.236 223.52 290.206 223.397 290.141 223.291C290.077 223.185 289.982 223.101 289.869 223.05C289.755 222.999 289.629 222.984 289.507 223.007C289.385 223.029 289.273 223.088 289.185 223.176Z"
        fill="#191919" />
    <path
        d="M292.929 224C291.034 227.261 289.315 230.621 287.779 234.066C287.301 235.232 288.889 235.818 289.653 235.178C291.053 234.002 294.305 226.286 294.099 224.352C294.099 224.215 294.055 224.081 293.973 223.971C293.892 223.861 293.777 223.781 293.645 223.741C293.514 223.702 293.373 223.706 293.245 223.752C293.116 223.799 293.005 223.886 292.929 224Z"
        fill="#191919" />
    <path
        d="M296.558 223.526C295.234 225.885 294.212 228.402 293.516 231.016C293.461 231.252 293.483 231.5 293.578 231.723C293.673 231.946 293.837 232.134 294.045 232.257C294.254 232.381 294.496 232.436 294.738 232.412C294.979 232.389 295.207 232.29 295.388 232.128C296.827 229.615 297.593 226.774 297.612 223.878C297.434 223.41 296.904 223.112 296.558 223.526Z"
        fill="#191919" />
    <path
        d="M299.718 222.648C298.502 224.931 297.615 227.374 297.084 229.906C296.976 230.96 298.326 231.266 299.016 230.724C300.028 229.924 301.416 223.936 300.712 222.766C300.668 222.677 300.602 222.601 300.521 222.544C300.439 222.487 300.345 222.451 300.247 222.44C300.148 222.428 300.049 222.441 299.956 222.477C299.864 222.514 299.782 222.572 299.718 222.648Z"
        fill="#191919" />
    <path
        d="M237.283 87.4759C238.917 88.9419 245.031 90.4759 247.113 85.9539C247.409 85.3119 246.423 84.5039 245.943 85.0179C244.92 85.9816 243.633 86.6189 242.247 86.8483C240.861 87.0777 239.437 86.8888 238.159 86.3059C237.467 85.9379 236.695 86.9499 237.283 87.4759Z"
        fill="#191919" />
    <path
        d="M238.333 72.146C237.807 73.546 235.945 78.746 236.285 79.81C236.451 80.1809 236.706 80.5048 237.028 80.7521C237.35 80.9994 237.729 81.1625 238.13 81.2264C238.531 81.2904 238.941 81.2532 239.324 81.1184C239.708 80.9835 240.051 80.7551 240.323 80.454C240.401 80.3699 240.456 80.2675 240.484 80.1563C240.512 80.0452 240.511 79.9288 240.482 79.818C240.453 79.7072 240.396 79.6055 240.318 79.5223C240.239 79.4391 240.14 79.3771 240.031 79.342C239.619 79.232 238.797 79.342 238.509 79.166C237.975 78.828 238.861 74.31 239.445 72.262C239.679 71.618 238.567 71.618 238.333 72.146Z"
        fill="#191919" />
    <path
        d="M243.6 66.878C244.418 67.06 247.4 68.634 248.224 68.752C248.385 68.7446 248.542 68.697 248.68 68.6135C248.818 68.5301 248.933 68.4135 249.014 68.2743C249.095 68.1352 249.14 67.9779 249.145 67.8168C249.15 67.6557 249.115 67.4959 249.042 67.352C248.106 65.714 245.474 65.51 243.776 65.48C243.613 65.4956 243.46 65.5663 243.342 65.6806C243.224 65.7948 243.149 65.9458 243.129 66.1085C243.108 66.2713 243.144 66.4362 243.229 66.576C243.315 66.7159 243.446 66.8224 243.6 66.878Z"
        fill="#191919" />
    <path
        d="M305.401 175.31C303.825 158.86 297.283 143.934 287.847 130.486C281.887 121.994 273.919 113.224 262.859 112.462C261.176 109.224 259.917 105.782 259.115 102.222C259.047 101.974 258.891 101.759 258.675 101.619C258.459 101.478 258.199 101.423 257.945 101.462C257.728 97.8789 258.267 94.2902 259.525 90.9281C260.52 91.2986 261.611 91.321 262.62 90.9915C263.63 90.6621 264.498 90.0003 265.083 89.1141C263.562 85.9255 263.17 82.3148 263.971 78.8741C265.083 74.8961 267.675 73.7281 268.243 70.1561C269.025 65.2441 264.897 57.6681 255.545 54.7561C253.495 54.1201 247.375 53.0441 244.017 47.8501C243.145 46.5021 241.449 44.2041 239.921 43.7541C235.141 42.3541 232.687 51.5941 232.957 54.2881C233.233 56.8623 234.249 59.3012 235.883 61.3101C232.255 67.9801 231.367 82.7881 232.255 87.1101C233.411 92.7301 237.289 96.5301 242.379 96.7641C241.825 99.6947 240.604 102.458 238.809 104.84C238.809 104.722 238.627 102.544 236.995 103.44C234.483 104.791 231.809 105.814 229.037 106.482C228.879 106.524 228.731 106.596 228.601 106.696C228.471 106.795 228.362 106.919 228.281 107.06C228.199 107.202 228.146 107.358 228.125 107.52C228.104 107.682 228.116 107.846 228.159 108.004C228.508 109.06 228.919 110.095 229.389 111.104C222.094 113.488 214.926 116.242 207.913 119.356C204.505 121.04 200.785 121.999 196.988 122.171C193.19 122.343 189.399 121.725 185.853 120.356C179.301 117.706 160.939 101.034 156.295 89.7001C156.215 89.5603 156.101 89.4441 155.962 89.3632C155.823 89.2823 155.665 89.2397 155.505 89.2397C155.344 89.2397 155.186 89.2823 155.047 89.3632C154.909 89.4441 154.794 89.5603 154.715 89.7001C153.677 91.9698 151.784 93.737 149.449 94.6161C149.295 94.6707 149.169 94.7817 149.094 94.9264C149.02 95.0712 149.003 95.2389 149.048 95.3953C149.093 95.5518 149.196 95.6853 149.336 95.7686C149.475 95.852 149.642 95.879 149.801 95.8441C152.106 95.3055 154.129 93.929 155.477 91.9821C162.439 106.202 178.293 119.732 184.851 122.47C191.884 125.321 199.747 125.342 206.795 122.528C210.547 121.024 230.027 112.756 230.085 112.528C230.485 113.346 230.901 114.168 231.371 114.984C231.47 115.142 231.603 115.276 231.76 115.376C231.917 115.477 232.095 115.54 232.28 115.563C232.466 115.586 232.653 115.567 232.83 115.507C233.007 115.448 233.169 115.35 233.303 115.22C234.759 113.924 236.703 112.528 238.159 110.948C237.869 113.512 237.735 116.092 237.759 118.672C229.799 140.44 233.759 166.072 237.465 174.614C237.747 175.262 238.925 175.258 238.811 174.438C234.611 156.238 234.671 137.313 238.987 119.14C240.441 117.142 241.659 114.981 242.615 112.702C243.375 115.044 244.415 117.302 245.189 119.49C245.257 119.752 245.408 119.984 245.619 120.153C245.83 120.321 246.091 120.417 246.361 120.426C252.236 120.322 257.912 118.284 262.511 114.626C271.417 116.995 279.218 122.396 284.571 129.898C289.672 137.226 294.098 145.002 297.795 153.13C307.341 172.964 301.879 203.92 301.131 207.784C300.237 212.404 293.105 211.028 290.531 210.124C289.885 209.896 289.367 210.988 290.063 211.294C291.717 212.022 298.611 213.694 301.533 211.88C302.949 211 307.115 193.26 305.401 175.31ZM232.659 112.58C232.004 111.265 231.418 109.918 230.903 108.542C232.882 107.964 234.803 107.2 236.639 106.26C236.755 107.314 238.159 108.25 238.219 108.308C236.221 109.534 234.357 110.965 232.659 112.58ZM241.553 108.952C241.437 109.068 240.501 111.586 240.033 112.696C240.047 111.359 239.913 110.025 239.633 108.718C239.691 108.66 240.033 107.84 239.281 107.84C239.4 107.682 239.469 107.491 239.48 107.293C239.49 107.095 239.442 106.898 239.341 106.728C242.395 104.151 244.36 100.513 244.841 96.5461C245.599 96.4229 246.344 96.2273 247.065 95.9621C247.705 95.7221 247.651 94.6841 246.889 94.7321C243.381 94.9541 234.857 95.1981 234.073 84.2581C233.847 80.2878 234.202 76.3057 235.127 72.4381C236.017 68.4621 238.053 61.0861 239.809 59.3881C243.724 59.1808 247.573 60.4574 250.588 62.9631C253.603 65.4688 255.562 69.0193 256.075 72.9061C256.997 72.8334 257.918 73.0623 258.7 73.5583C259.481 74.0542 260.08 74.7904 260.407 75.6561C260.517 76.2708 260.497 76.9016 260.349 77.5084C260.202 78.1151 259.929 78.6844 259.549 79.1799C259.169 79.6754 258.69 80.0863 258.143 80.3863C257.595 80.6862 256.991 80.8687 256.369 80.9221C256.543 82.2681 257.421 87.1841 257.655 88.0621C255.607 91.5141 255.433 99.8821 256.075 102.222C251.863 104.388 247.415 106.022 243.203 108.132C242.665 107.722 241.729 108.25 241.553 108.952ZM247.055 118.022C246.001 115.222 245.181 112.222 243.953 109.478C248.554 108.121 253.005 106.297 257.237 104.036C257.997 107.196 259.115 110.258 260.571 113.164C256.639 116.073 251.939 117.763 247.055 118.022Z"
        fill="#191919" />
</svg>