<svg width="400" height="400" viewBox="0 0 400 400" fill="none" xmlns="http://www.w3.org/2000/svg">
    <path
        d="M266.157 190.046C265.441 187.276 265.015 184.439 264.887 181.58C266.967 179.58 269.887 177.086 271.103 177C272.405 176.906 276.561 182.456 277.167 183.93C275.444 185.956 274.069 188.254 273.099 190.73C270.814 190.266 268.488 190.037 266.157 190.046ZM272.789 193.17C270.585 192.661 268.342 192.338 266.083 192.206C264.977 196.166 260.683 201.682 258.427 211.52C258.78 219.607 259.977 227.636 261.999 235.474C264.181 227.2 267.799 220.934 272.655 212.958C273.155 207.968 272.547 198.556 272.799 193.17H272.789ZM95.2631 188.498C95.2351 186.16 96.3711 179.984 96.2951 179.078C93.5671 176.36 89.6071 173.708 88.5631 173.678C87.1511 173.65 82.0671 182.838 81.2871 184.008C86.2691 187.448 88.4331 188.562 89.6131 190.064C91.3988 189.238 93.3072 188.709 95.2631 188.498ZM96.2951 254.59C96.5751 246.756 92.0091 201.79 90.3391 192.252C92.221 191.497 94.1985 191.006 96.2151 190.794C99.7411 196.976 112.829 220.794 116.655 264.156C112.979 262.826 99.6731 257.56 96.2951 254.6V254.59Z"
        fill="#38A1FF" />
    <path
        d="M107.828 114.3C107.796 114.021 107.657 113.766 107.44 113.588C107.224 113.41 106.947 113.322 106.667 113.343C106.388 113.364 106.127 113.493 105.94 113.702C105.753 113.911 105.654 114.184 105.664 114.464C106.068 120.462 106.14 126.478 105.882 132.484C105.682 138.356 105.428 151.32 99.5581 154.656C94.2241 157.688 80.4641 154.892 75.1881 152.768C74.9745 152.675 74.7333 152.669 74.5155 152.752C74.2977 152.834 74.1204 152.997 74.0211 153.208C73.9218 153.418 73.9084 153.659 73.9836 153.879C74.0588 154.1 74.2168 154.282 74.4241 154.388C77.8085 155.992 81.4193 157.067 85.1301 157.574C85.3161 160.15 85.0921 163.99 85.3641 165.308C85.4037 165.53 85.521 165.731 85.695 165.875C85.8691 166.019 86.0885 166.097 86.3144 166.094C86.5402 166.092 86.7578 166.009 86.9284 165.861C87.0991 165.713 87.2116 165.509 87.2461 165.286C87.5101 163.686 87.1841 160.036 87.2101 157.834C101.052 159.266 107.326 157.834 108.178 132.01C108.498 126.106 108.381 120.187 107.828 114.3ZM111.982 101.138C113.55 108.868 108.51 111.024 101.87 110.98C94.4941 110.928 87.1161 110.86 79.7401 110.896C77.9401 118.096 75.3401 120.934 70.4781 126.072C70.1881 126.378 69.6301 126.69 69.3361 126.364C67.1541 123.95 62.7501 124.262 61.5961 129.034C61.1804 130.877 61.4053 132.806 62.2335 134.504C63.0617 136.202 64.4439 137.567 66.1521 138.374C68.0341 139.484 66.5521 140.454 65.3101 139.91C64.6956 139.611 64.1167 139.244 63.5841 138.816C63.8181 143.888 63.8541 150.836 63.5481 155.734C63.4801 156.836 61.6701 156.652 61.6821 155.63C61.8184 150.43 61.6755 145.227 61.2541 140.042C54.4401 132.622 51.6021 120.842 51.8341 111.136C52.0461 102.188 57.2001 92.52 65.2801 101.458C68.2346 96.0596 73.0232 91.8967 78.7801 89.722C89.7421 85.444 109.2 87.476 111.982 101.138ZM104.424 103.31C105.424 105.31 107.596 103.098 106.646 100.606C104.07 93.854 92.3301 92.076 86.3101 93.904C85.1881 94.244 85.6241 95.85 86.7101 95.842C93.6801 95.78 101.056 96.482 104.424 103.31ZM99.2661 116.756C100.816 116.408 103.14 117.356 103.16 119.238C103.14 119.39 103.074 119.533 102.973 119.648C102.871 119.763 102.737 119.845 102.589 119.884C102.44 119.923 102.283 119.917 102.138 119.866C101.993 119.815 101.866 119.723 101.774 119.6C101.576 119.208 101.257 118.891 100.864 118.695C100.472 118.499 100.026 118.436 99.5941 118.514C99.3775 118.522 99.1653 118.452 98.996 118.316C98.8268 118.181 98.7119 117.989 98.6721 117.776C98.6324 117.563 98.6705 117.343 98.7795 117.156C98.8885 116.969 99.0612 116.827 99.2661 116.756ZM86.5561 117.806C88.1961 118.03 87.7841 119.792 86.5561 119.76C85.8943 119.759 85.2515 119.98 84.7309 120.389C84.2103 120.797 83.8423 121.369 83.6861 122.012C83.6303 122.222 83.5 122.404 83.3196 122.524C83.1393 122.645 82.9211 122.695 82.7061 122.667C82.4911 122.638 82.2938 122.532 82.1514 122.368C82.0089 122.205 81.9309 121.995 81.9321 121.778C81.9697 121.211 82.1197 120.658 82.3734 120.15C82.6272 119.642 82.9796 119.19 83.41 118.819C83.8405 118.449 84.3403 118.168 84.8805 117.993C85.4206 117.818 85.9902 117.753 86.5561 117.8V117.806ZM89.7081 125.622C89.8061 126.744 90.1661 128.9 88.9461 129.348C87.0821 130.034 86.5461 127.18 86.7241 125.994C87.0621 123.704 89.5261 123.584 89.7081 125.622ZM101.804 126.508C101.884 127.376 101.882 128.738 100.952 128.956C99.3521 129.332 98.9521 127.94 98.8641 126.568C98.7941 125.534 98.9981 124.008 100.306 123.948C101.726 123.886 101.71 125.51 101.8 126.508H101.804ZM99.4421 134.956C100.242 137.718 96.3581 138.356 93.9641 137.5C93.1481 137.21 93.5081 135.862 94.2301 135.786C95.1734 135.815 96.1177 135.789 97.0581 135.708C97.9061 135.518 97.4581 135.32 97.1281 134.396C96.4581 132.582 95.5281 130.442 95.0561 128.61C95.0116 128.406 95.0413 128.192 95.1401 128.007C95.2388 127.823 95.4001 127.68 95.5949 127.603C95.7897 127.527 96.0053 127.523 96.2031 127.591C96.4009 127.659 96.5678 127.796 96.6741 127.976C97.7567 130.236 98.6815 132.568 99.4421 134.956ZM92.0121 144.438C88.9401 148.438 81.5241 146.178 82.1241 138.76C84.5321 143.136 90.4381 144.17 92.0121 144.438ZM80.3321 137.674C80.9001 135.182 81.8101 135.448 83.2121 136.998C90.0861 144.598 96.2121 140.998 94.6121 144.262C94.0539 145.349 93.2382 146.282 92.2362 146.981C91.2341 147.68 90.0762 148.123 88.8636 148.271C87.6509 148.42 86.4204 148.269 85.2794 147.832C84.1384 147.396 83.1217 146.686 82.3181 145.766C81.4113 144.647 80.7631 143.341 80.4198 141.942C80.0765 140.543 80.0465 139.086 80.3321 137.674ZM191.71 197.674C182.844 187.54 174.016 183.24 161.57 178.968C157.948 188.704 147.258 205.716 139.032 212.808C138.272 213.464 137.002 212.396 137.686 211.608C146.678 201.842 153.968 190.637 159.25 178.458C160.05 176.774 160.05 176.702 161.974 177.016C173.192 178.854 185.072 186.694 192.598 194.87C194.152 196.56 194.092 197.006 193.198 198.958C185.772 215.298 175.798 234.908 165.398 249.206C159.546 257.254 153.74 263.354 139.422 266.34C138.232 266.588 137.852 264.36 139.118 264.166C152.006 262.166 158.738 255.18 165.828 244.492C182.766 218.978 191.09 197.68 191.71 197.68V197.674ZM154.33 312.258C144.914 312.934 139.84 311.642 131.27 307.83C125.556 305.286 115.92 300.198 109.87 300.216C108.986 300.216 108.536 301.782 109.47 301.982C117.122 303.614 123.968 307.486 131.892 310.848C138.312 313.572 147.804 316.658 154.654 314.248C155.562 313.938 155.692 312.264 154.33 312.264V312.258ZM161.868 310.344C155.356 312.1 142.504 308.572 137.306 305.06C136.392 304.444 137.358 303.148 138.276 303.506C150.308 308.204 155.124 308.472 161.676 308.474C161.887 308.51 162.081 308.613 162.227 308.77C162.374 308.926 162.465 309.126 162.487 309.339C162.508 309.552 162.46 309.766 162.348 309.949C162.236 310.131 162.068 310.272 161.868 310.35V310.344ZM166.64 306.052C159.196 307.026 147.938 303.924 141.712 299.768C140.834 299.182 141.698 297.808 142.626 298.198C152.34 302.288 156.348 302.868 166.626 304.06C166.883 304.07 167.127 304.178 167.307 304.363C167.486 304.548 167.587 304.795 167.589 305.052C167.591 305.31 167.493 305.558 167.316 305.746C167.14 305.933 166.897 306.045 166.64 306.058V306.052ZM167.24 300.986C159.543 299.973 152.167 297.268 145.64 293.064C144.852 292.464 145.224 291.052 146.302 291.35C150.102 292.398 160.942 297.724 167.754 298.87C168.74 298.876 168.506 301.128 167.234 301L167.24 300.986ZM145.18 285.922C141.324 285.122 133.61 288.444 130.486 290.5C129.829 291.105 129.064 291.58 128.23 291.9C127.314 292.076 127.11 290.914 127.63 289.934C133.43 278.808 149.896 280.934 157.106 272.232C157.766 271.432 156.688 270.232 155.846 270.888C149.332 275.914 144.586 276.466 137.392 279.364C133.228 281.04 126.614 285.008 125.13 289.844C124.576 291.644 124.974 293.956 127.33 294.2C129.45 294.422 131.176 292.646 132.882 291.664C136.593 289.229 140.902 287.86 145.338 287.706C147.726 287.652 145.768 285.922 145.18 285.922ZM115.24 267.59C117.69 268.308 118.558 269.456 117.44 271.36C113.262 278.518 109.672 290.76 107.068 304.92C106.668 307.12 106.136 306.802 104.352 306.62C88.4333 304.867 72.8682 300.732 58.1781 294.354C30.6801 282.626 11.2661 269.418 10.0801 237.104C9.12207 211.04 16.5841 179.366 42.0361 166.818C42.2912 166.684 42.5891 166.655 42.8649 166.739C43.1407 166.823 43.3722 167.013 43.509 167.267C43.6459 167.521 43.6769 167.818 43.5954 168.095C43.514 168.372 43.3266 168.605 43.0741 168.744C17.2941 182.724 10.1621 215.224 12.8001 242.308C15.6981 272.022 39.7761 284.942 65.0661 294.612C78.0211 299.45 91.4674 302.854 105.164 304.762C105.164 295.818 109.892 278.434 115.048 270.07C94.3207 264.065 74.989 254.012 58.1701 240.492C57.9773 240.335 57.8545 240.109 57.8288 239.862C57.8031 239.615 57.8766 239.368 58.0331 239.175C58.1895 238.982 58.4162 238.859 58.6632 238.834C58.9102 238.808 59.1573 238.881 59.3501 239.038C60.4941 239.914 61.6487 240.775 62.8141 241.62C60.9421 231.708 63.5261 212.444 68.5861 203.144C69.1861 202.046 70.8301 203.022 70.4501 204.088C64.7021 220.2 63.9361 226.488 64.8701 243.088C80.1796 254.001 97.2036 262.282 115.24 267.59ZM91.4501 294.518C90.769 294.58 90.1403 294.91 89.702 295.434C89.2637 295.959 89.0515 296.637 89.1121 297.318C89.2107 297.888 89.4774 298.416 89.8778 298.834C90.2783 299.252 90.7944 299.541 91.3601 299.664C91.7039 299.701 92.0517 299.665 92.3809 299.56C92.7102 299.454 93.0136 299.28 93.2716 299.05C93.5296 298.819 93.7364 298.538 93.8788 298.222C94.0211 297.907 94.0958 297.566 94.0981 297.22C94.1026 296.868 94.0375 296.519 93.9067 296.193C93.7759 295.867 93.5819 295.57 93.3358 295.318C93.0897 295.067 92.7964 294.867 92.4728 294.73C92.1492 294.593 91.8016 294.521 91.4501 294.518ZM125.22 313.622C126.752 313.278 127.42 315.258 125.974 315.556C92.3021 322.506 50.6041 319.974 22.3161 315.49C22.0768 315.438 21.8614 315.309 21.7036 315.122C21.5458 314.935 21.4545 314.701 21.4441 314.456C19.4441 302.656 17.3141 283.746 17.9441 271.958C17.9546 271.744 18.0471 271.541 18.2026 271.393C18.358 271.245 18.5644 271.163 18.7791 271.163C18.9937 271.163 19.2001 271.245 19.3556 271.393C19.511 271.541 19.6036 271.744 19.6141 271.958C19.3541 287.228 22.0961 300.278 23.1901 313.384C91.5341 322.056 126 313.622 125.22 313.622ZM92.8741 264.422C85.2401 271.06 80.3381 287.104 80.8341 296.678C80.8881 297.724 82.6041 297.698 82.6761 296.66C83.7681 280.938 88.9761 271.244 94.3921 265.888C95.2001 265.082 93.8381 263.582 92.8741 264.42V264.422ZM145.6 273.318C146.576 273.75 146.546 275.506 145.43 275.424C140.934 275.092 133.03 276.6 130.142 276.92C125.792 277.404 122.382 277.932 118.496 275.612C117.536 275.04 118.388 273.656 119.358 273.954C123.273 275.085 127.414 275.184 131.378 274.24C134.74 273.736 142.722 272.044 145.6 273.318ZM89.3661 169.132C85.3821 167.19 84.3821 168.318 82.0861 171.618C79.5342 175.475 77.4078 179.597 75.7441 183.912C63.1981 178.342 56.4501 172.87 46.4421 164.324C49.2781 162.578 52.0061 161.652 54.8621 160.148C55.0668 160.04 55.2263 159.862 55.3123 159.647C55.3983 159.432 55.4052 159.193 55.3318 158.974C55.2583 158.754 55.1093 158.567 54.9112 158.447C54.7131 158.327 54.4788 158.281 54.2501 158.318C51.0177 159.403 47.941 160.906 45.0981 162.788C43.9801 163.588 43.6801 164.058 44.6361 165.15C50.7881 172.18 65.7501 182.59 74.3121 185.69C76.6301 186.53 76.7721 186.384 77.9121 184.29C79.7781 180.844 80.8601 177.676 83.0081 174.352C85.1121 171.092 85.7561 169.552 89.0781 171.462C92.5656 173.183 95.5185 175.822 97.6201 179.094C98.2541 180.014 99.6841 179.054 99.2421 178.012C99.4621 178 96.6741 172.694 89.3661 169.132ZM82.0001 167.658C74.6233 165.854 67.6907 162.568 61.6241 158C60.7681 157.4 59.6421 158.718 60.4441 159.426C63.6961 162.3 76.2661 169.61 81.4741 169.38C82.3141 169.344 82.9701 167.938 82.0001 167.658ZM133.654 267.382C133.8 270.75 131.328 271.402 131.238 267.826C130.58 252.785 128.014 237.888 123.6 223.494C119.343 207.796 111.441 193.325 100.536 181.258C99.7701 180.388 100.936 179.058 101.782 179.918C111.75 189.976 121.148 206.34 125.854 222.818C129.92 237.379 132.534 252.306 133.658 267.382H133.654ZM208.8 151.104C208.867 150.865 209.024 150.661 209.239 150.536C209.453 150.411 209.708 150.375 209.949 150.435C210.19 150.496 210.398 150.648 210.528 150.86C210.658 151.072 210.701 151.326 210.646 151.568C209.584 160.122 205.266 166.066 200.74 172.932C197.231 178.426 192.985 183.413 188.12 187.752C187.288 188.502 186.16 187.188 186.822 186.352C191.504 180.466 194.464 178.172 198.464 171.752C204.17 162.62 204.888 161.88 208.8 151.104ZM206.072 140.086C206.089 139.837 206.013 139.591 205.858 139.396C205.703 139.201 205.48 139.07 205.234 139.03C204.988 138.991 204.736 139.044 204.527 139.181C204.318 139.317 204.168 139.527 204.106 139.768C202.068 147.818 198.561 155.423 193.762 162.2C193.641 162.412 193.599 162.66 193.645 162.9C193.691 163.14 193.821 163.355 194.011 163.508C194.202 163.66 194.441 163.74 194.685 163.732C194.929 163.724 195.162 163.629 195.342 163.464C199.518 159.032 206.738 146.734 206.08 140.086H206.072ZM196.778 136.314C194.746 144.304 191.652 151.985 187.578 159.152C187.062 160.116 188.524 160.908 189.178 160.116C194.338 153.238 197.613 145.132 198.676 136.6C198.708 136.352 198.641 136.102 198.491 135.902C198.34 135.703 198.118 135.57 197.871 135.533C197.624 135.496 197.372 135.556 197.169 135.702C196.967 135.848 196.829 136.068 196.786 136.314H196.778ZM188.14 135.242C186.241 144.046 183.479 152.641 179.892 160.902C179.452 161.984 181.126 162.702 181.726 161.744C184.892 156.678 190.392 142.022 190.116 135.586C190.074 134.462 188.4 134.074 188.148 135.242H188.14ZM172.084 149.892C172.65 148.97 174.348 149.432 173.952 150.544C170.02 161.572 170.398 165.344 169.552 176.214C169.466 177.326 167.928 176.996 167.764 176.096C166.468 169.028 168.332 156.03 172.092 149.892H172.084ZM185.108 202.104C184.238 203.214 183.268 202.726 182.4 202.136C182.107 201.868 181.9 201.517 181.809 201.131C181.717 200.744 181.743 200.338 181.885 199.967C182.027 199.595 182.277 199.275 182.603 199.047C182.929 198.82 183.316 198.696 183.714 198.691C184.111 198.686 184.501 198.801 184.832 199.021C185.164 199.241 185.421 199.555 185.572 199.923C185.722 200.291 185.758 200.696 185.676 201.085C185.593 201.474 185.395 201.829 185.108 202.104ZM180.962 208.742C181.402 209.542 180.272 210.868 179.622 210.218C174.14 204.736 162.06 197.89 156.6 194.6C155.698 194.056 156.492 192.68 157.428 193C161.948 194.558 178.69 204.6 180.97 208.742H180.962ZM140.268 219.488C140.724 220.554 139.05 221.688 138.424 220.758C133.132 213.231 126.604 206.654 119.116 201.306C118.194 200.642 119.332 199.372 120.244 199.978C125.38 203.4 137.848 213.816 140.276 219.488H140.268ZM292.4 148.862C292.65 148.753 292.932 148.744 293.189 148.834C293.447 148.925 293.66 149.11 293.786 149.351C293.913 149.593 293.944 149.873 293.872 150.137C293.8 150.4 293.632 150.626 293.4 150.77C287.672 154.327 281.029 156.131 274.288 155.96C274.247 158.599 273.527 161.182 272.198 163.462C272.052 163.582 271.874 163.657 271.686 163.678C271.498 163.699 271.308 163.665 271.139 163.58C270.97 163.496 270.829 163.364 270.733 163.201C270.637 163.038 270.59 162.851 270.598 162.662C271.491 160.454 272.031 158.118 272.198 155.742C268.523 155.246 265.052 153.758 262.159 151.438C259.267 149.117 257.061 146.052 255.78 142.572C252.248 132.932 255.212 122.252 258.892 113.114C258.962 112.884 259.12 112.691 259.331 112.577C259.543 112.462 259.791 112.436 260.022 112.504C260.252 112.572 260.447 112.728 260.563 112.938C260.679 113.149 260.708 113.397 260.642 113.628C258.869 118.982 257.587 124.487 256.812 130.074C255.884 141.674 260.944 151.788 273.212 152.984C279.71 153.61 286.362 151.344 292.4 148.862ZM268.376 163.2C269.247 166.276 270.589 169.199 272.356 171.864C283.227 168.771 293.749 164.565 303.756 159.312C305.484 158.454 305.778 158.338 307.492 159.272C310.443 160.977 313.149 163.075 315.534 165.51C315.76 165.71 315.9 165.99 315.923 166.291C315.946 166.592 315.85 166.89 315.657 167.122C315.464 167.353 315.188 167.501 314.888 167.533C314.588 167.565 314.287 167.478 314.05 167.292C311.567 164.883 308.85 162.728 305.94 160.858C295.993 166.584 285.287 170.877 274.14 173.61C276.569 175.633 278.883 177.791 281.072 180.072C284.942 183.792 284.826 184.424 290.212 182.194C296.426 179.772 302.189 176.324 307.262 171.994C308.204 171.164 309.328 172.566 308.492 173.47C304.204 178.096 295.448 182.978 289.492 185.118C285.34 186.608 283.748 186.034 280.71 183.082C279.094 181.514 272.91 175.066 271.684 174.228C268.294 175.767 265.009 177.527 261.85 179.498C260.186 180.378 259.66 178.64 261.1 177.548C263.993 175.709 267.023 174.095 270.164 172.722C268.714 170.302 267.55 167.721 266.696 165.032C264.536 166.968 262.666 169.207 261.146 171.678C261.023 171.851 260.841 171.975 260.635 172.027C260.428 172.079 260.21 172.056 260.019 171.961C259.828 171.867 259.677 171.708 259.593 171.512C259.509 171.317 259.497 171.097 259.56 170.894C260.909 168.004 262.863 165.439 265.29 163.37C265.628 163.368 267.382 160.616 268.376 163.2ZM310.96 103.238C309.378 102.808 309.244 101.638 310.898 100.638C314.13 98.688 312.944 94.372 309.91 92.67C308.224 91.88 306.362 91.5386 304.505 91.6788C302.648 91.8189 300.859 92.4359 299.31 93.47C297.806 94.628 296.846 93.528 296.83 92.324C296.805 89.401 295.737 86.583 293.818 84.378C291.899 82.1729 289.256 80.726 286.364 80.298C280.52 79.42 271.648 82.388 269.138 88.116C268.806 88.874 267.538 89.37 266.952 88.55C263.712 83.98 257.53 84.992 253.368 87.656C243.004 94.288 249.168 102.564 257.968 106.29C266.426 109.874 276.31 109.756 285.254 108.616C287.9 108.278 288.31 108.816 288.87 111.464C289.497 114.202 290.732 116.764 292.481 118.961C294.231 121.158 296.452 122.934 298.98 124.158C302.156 118.546 310.218 120.128 312.624 126.318C314.91 132.196 311.188 138.996 304.466 141.09C304.466 149.476 305.666 154.57 305.502 155.37C305.322 156.274 304.208 156.216 303.75 155.616C302.214 153.602 301.998 143.488 302.33 141.076C302.604 139.076 302.49 139.104 304.51 138.376C306.662 137.64 308.469 136.141 309.589 134.162C310.709 132.183 311.065 129.862 310.588 127.638C309.31 122.988 303.918 121.208 300.66 125.238C299.934 126.136 299.47 126.336 297.46 125.586C294.456 124.27 291.838 122.209 289.854 119.597C287.87 116.986 286.586 113.911 286.124 110.664C250.2 116.614 235.974 95.72 251.952 85.426C256.952 82.214 263.624 81.51 267.824 85.672C270.434 79.918 280.984 77.016 286.72 77.872C293.138 78.834 299.002 84.148 299.456 90.672C301.379 89.7154 303.508 89.2465 305.655 89.3065C307.802 89.3665 309.901 89.9535 311.768 91.016C315.462 93.486 316.768 98.806 313.226 102.002C321.3 104.24 324.814 114.576 323.734 123.75C323.243 128.382 321.568 132.809 318.871 136.607C316.174 140.404 312.545 143.444 308.334 145.434C306.934 146.058 305.822 143.98 307.222 143.312C310.993 141.577 314.264 138.915 316.727 135.575C319.191 132.234 320.769 128.323 321.312 124.208C322.248 116.384 319.436 105.542 310.96 103.238ZM284.33 138.328C284.686 136.246 287.232 137.214 286.656 139.288C285.246 144.376 276.696 143.584 273.496 142.888C272.35 142.642 272.596 140.888 273.766 141.074C276.342 141.516 283.718 141.884 284.33 138.328ZM277.3 117.63C277.93 117.253 278.638 117.025 279.37 116.964C280.101 116.903 280.837 117.011 281.521 117.28C282.204 117.548 282.817 117.97 283.312 118.512C283.807 119.054 284.171 119.703 284.376 120.408C284.732 122.008 283.278 122.744 282.618 121.388C282.198 120.543 281.501 119.869 280.644 119.476C279.786 119.083 278.82 118.996 277.906 119.23C277.138 119.302 276.328 118.182 277.3 117.63ZM267.9 117.166C268.668 118.078 267.526 118.986 266.34 118.566C265.62 118.28 264.827 118.23 264.077 118.424C263.327 118.618 262.658 119.045 262.166 119.644C262.015 119.806 261.811 119.909 261.59 119.935C261.37 119.961 261.148 119.907 260.963 119.785C260.778 119.662 260.643 119.478 260.581 119.265C260.519 119.053 260.534 118.825 260.624 118.622C261.6 116.432 265.982 114.886 267.908 117.166H267.9ZM265.32 124.986C265.536 126.27 264.794 127.696 263.586 127.694C262.048 127.694 261.828 126.472 261.89 125.484C261.824 125.028 261.942 124.565 262.217 124.196C262.493 123.826 262.904 123.582 263.36 123.516C263.816 123.45 264.279 123.568 264.648 123.843C265.018 124.119 265.262 124.53 265.328 124.986H265.32ZM278.594 123.764C279.492 124.03 279.724 125.424 279.612 126.164C279.412 127.448 278.494 128.65 277.144 128.196C276.66 127.983 276.276 127.595 276.068 127.109C275.861 126.623 275.847 126.076 276.028 125.58C276.426 124.364 277.57 123.458 278.6 123.764H278.594ZM273.256 134.352C274.478 134.88 273.712 136.752 272.478 136.484C270.976 136.146 269.648 136.74 268.142 136.54C265.292 136.162 264.674 134.06 265.656 131.664C266.531 129.349 267.769 127.189 269.324 125.264C269.936 124.77 270.766 125.502 270.628 126.172C270.428 127.146 269.312 128.548 267.93 131.972C267.304 133.528 266.946 134.446 269.078 134.322C270.455 133.989 271.892 134 273.264 134.352H273.256ZM250.366 283.286C239.674 284.524 242.338 307.978 246.496 315.514C241.896 321.642 221.228 320.556 216.156 318.028C214.654 283.716 218.904 258.44 226.756 225.336C226.831 225.094 226.808 224.833 226.692 224.608C226.576 224.383 226.376 224.213 226.135 224.135C225.895 224.056 225.633 224.075 225.407 224.187C225.18 224.3 225.007 224.497 224.924 224.736C218.106 243.072 214.51 270.268 213.758 289.736C202.252 294.18 190.495 297.941 178.546 301C176.346 292.778 164.776 272.554 157.302 268.632C184.766 254.594 203.754 241.452 215.968 218.064C228.636 193.806 244.944 175.314 258.89 168.962C255.078 179.862 253.2 225.162 259.706 240.762C254.757 254.47 251.62 268.765 250.374 283.286H250.366ZM238.236 220.85C239.682 216.996 241.594 213.335 243.93 209.946C241.273 206.414 239.38 202.367 238.372 198.064C238.234 197.076 239.7 196.488 240.082 197.48C241.206 201.041 242.886 204.401 245.062 207.436C246.484 209.338 246.324 209.74 245.292 211.61C243.099 215.645 241.162 219.814 239.492 224.092C244.318 234.784 247.25 238.388 254.016 246.742C254.816 247.742 253.826 249.08 252.93 248.268C246.614 241.834 241.558 234.274 238.022 225.98C236.858 222.884 237.054 223.8 238.244 220.85H238.236ZM286.56 281.4C287.672 281.74 287.382 283.51 286.196 283.652C281.218 284.252 276.874 277.452 271.726 277.574C267.726 277.666 264.842 282.554 260.172 282.774C259.921 282.789 259.674 282.707 259.483 282.545C259.291 282.382 259.169 282.152 259.144 281.902C259.118 281.652 259.19 281.402 259.344 281.203C259.498 281.005 259.723 280.874 259.972 280.838C264.248 279.982 266.73 275.56 271.88 274.856C276.096 274.286 282.626 280.2 286.56 281.4ZM268.96 318.582C263.528 318.832 253.71 319.26 250.298 314.266C249.656 313.33 248.352 314.404 248.734 315.332C251.316 321.606 262.362 321.424 267.974 321.244C276.608 321.009 285.124 319.182 293.094 315.854C294.674 315.182 293.474 312.878 291.912 313.49C284.588 316.428 276.833 318.149 268.954 318.586L268.96 318.582ZM261.688 311.136C254.764 313.758 246.254 312.234 246.046 306.5C246.006 305.42 247.746 305.12 247.93 306.186C248.946 312.018 258.424 308.878 261.062 309.074C262.058 309.078 262.822 310.708 261.682 311.14L261.688 311.136ZM260.398 301.136C256.23 300.936 249.868 303.03 247.432 297.402C246.91 296.202 245.372 296.928 245.574 298.202C246.4 303.392 252.358 304.964 260.734 303.402C261.906 303.188 261.508 301.134 260.4 301.134L260.398 301.136ZM261.598 292.846C260.758 292.536 255.528 293.082 253.434 292.596C252.008 292.266 249.116 290.868 250.004 288.818C250.122 288.575 250.141 288.296 250.055 288.04C249.97 287.784 249.788 287.571 249.547 287.448C249.307 287.325 249.028 287.3 248.77 287.38C248.512 287.46 248.296 287.638 248.168 287.876C246.232 290.78 249.096 293.76 251.754 294.614C255.021 295.342 258.407 295.362 261.682 294.672C261.846 294.578 261.98 294.44 262.071 294.275C262.162 294.109 262.206 293.922 262.197 293.733C262.189 293.544 262.129 293.362 262.023 293.205C261.918 293.048 261.772 292.923 261.6 292.844L261.598 292.846ZM318.49 168.96C368.876 177 395.73 255.006 388.972 281.616C383.43 303.452 327.642 324.654 299.476 322.052C295.754 320.628 289.826 291.074 290.188 278.386C308.2 274.562 330.11 268.144 342.856 254.146C343.656 253.256 342.522 251.894 341.58 252.724C338.753 255.209 335.756 257.496 332.612 259.566C330.802 252.476 323.824 240.184 319.412 234.932C319.346 234.83 319.261 234.742 319.162 234.673C319.062 234.605 318.95 234.556 318.831 234.53C318.713 234.505 318.591 234.503 318.472 234.525C318.353 234.546 318.239 234.591 318.137 234.657C318.035 234.723 317.947 234.808 317.879 234.907C317.81 235.007 317.761 235.119 317.735 235.238C317.71 235.356 317.708 235.478 317.73 235.597C317.751 235.716 317.796 235.83 317.862 235.932C323.662 245.638 327.19 250.806 330.29 261.044C315.904 269.862 301.936 273.032 287.308 276.644C281.328 274.94 276.432 270.412 273.858 270.11C264.436 269.006 260.798 277.776 254.904 278.426C258.512 238.38 279.486 194.188 318.488 168.958L318.49 168.96ZM320.656 193.384C313.07 196.768 305.812 200.843 298.972 205.556C300.59 210.322 303.864 216.454 305.41 220.494C306.118 222.342 305.682 223.124 304.21 224.294C289.616 235.836 276.283 248.888 264.434 263.234C263.654 264.17 262.45 262.876 263.124 261.898C272.962 247.614 290.644 231.586 303.338 221.93C300.996 217.379 299.021 212.649 297.432 207.784C296.384 204.506 296.42 205.028 299.044 202.956C306.022 197.787 313.653 193.563 321.738 190.394C322.119 186.489 321.901 182.548 321.094 178.708C320.894 177.836 322.432 177.264 322.872 178.148C324.359 181.773 324.751 185.754 324 189.6C323.476 192.4 323.348 192.27 320.654 193.382L320.656 193.384Z"
        fill="#191919" />
</svg>