<svg width="530" height="511" viewBox="0 0 530 511" fill="none" xmlns="http://www.w3.org/2000/svg">
    <path
        d="M133.957 185.319L133.957 184.912L133.726 184.912L142.367 170.613L166.221 171.379C166.155 171.643 166.145 171.921 166.194 172.194L142.817 171.442L134.305 185.53L133.957 185.319Z"
        fill="#0075AF" />
    <path
        d="M128.513 179.156L128.513 178.749L128.282 178.749L136.059 165.762L184.398 167.315C184.107 167.575 183.813 167.84 183.525 168.102L136.513 166.591L128.863 179.365L128.513 179.156Z"
        fill="#0075AF" />
    <path
        d="M166.423 172.819C166.308 172.619 166.232 172.408 166.194 172.194C166.144 171.921 166.155 171.643 166.22 171.38C166.344 170.886 166.659 170.442 167.134 170.168C168.062 169.632 169.249 169.95 169.785 170.878C170.321 171.806 170.003 172.993 169.075 173.529C168.146 174.065 166.959 173.747 166.423 172.819Z"
        fill="#0075AF" />
    <path
        d="M157.001 191.793C156.898 191.613 156.826 191.423 156.785 191.23L158.682 191.23L158.683 190.415L156.785 190.416C156.896 189.898 157.218 189.427 157.712 189.142C158.641 188.606 159.828 188.924 160.364 189.852C160.9 190.78 160.582 191.967 159.653 192.503C158.725 193.039 157.537 192.721 157.001 191.793Z"
        fill="#0075AF" />
    <path
        d="M53.3113 196.502L52.8408 195.687L54.5713 195.687L160.131 195.671C159.954 195.944 159.782 196.211 159.607 196.486L54.5711 196.502L53.3113 196.502Z"
        fill="#0075AF" />
    <path
        d="M80.9777 191.241L80.9779 190.426L82.8761 190.425L156.785 190.415L158.682 190.414L158.682 191.229L156.785 191.229L82.8751 191.24L80.9777 191.241Z"
        fill="#0075AF" />
    <path
        d="M47.0974 185.74L46.627 184.925L133.726 184.912L133.956 184.912L133.956 185.319L133.956 185.727L47.0974 185.74Z"
        fill="url(#paint0_linear_6882_3035)" />
    <path
        d="M43.5398 179.577L43.0693 178.762L128.283 178.749L128.514 178.749L128.514 179.156L128.514 179.564L43.5398 179.577Z"
        fill="#0075AF" />
    <g filter="url(#filter0_di_6882_3035)">
        <path
            d="M343.201 271.887L343.554 271.684L309.425 212.571L240.915 212.582L206.65 271.908L240.897 331.224L309.407 331.214L343.671 271.887L343.554 271.684L343.201 271.887L342.848 271.684L308.937 330.4L241.367 330.409L207.591 271.908L241.385 213.396L308.955 213.386L342.848 272.091L343.201 271.887L342.848 271.684L343.201 271.887Z"
            fill="url(#paint1_linear_6882_3035)" />
    </g>
    <g filter="url(#filter1_di_6882_3035)">
        <path
            d="M335.696 271.888L337.108 271.073L306.378 217.847L243.959 217.856L212.742 271.907L243.943 325.949L306.361 325.939L337.578 271.888L337.108 271.073L335.696 271.888L334.285 271.074L304.479 322.68L245.825 322.69L216.505 271.906L245.84 221.114L304.495 221.106L334.285 272.703L335.696 271.888L334.285 271.074L335.696 271.888Z"
            fill="url(#paint2_linear_6882_3035)" />
    </g>
    <path
        d="M214.529 232.198L188.779 231.37L180.02 245.866L180.717 246.287L189.23 232.2L214.504 233.012L214.529 232.198Z"
        fill="url(#paint3_linear_6882_3035)" />
    <path
        d="M224.973 227.885L182.473 226.519L174.578 239.705L175.276 240.122L182.926 227.348L224.947 228.699L224.973 227.885Z"
        fill="url(#paint4_linear_6882_3035)" />
    <path
        d="M215.487 234.286C214.559 234.822 213.372 234.503 212.836 233.575C212.3 232.647 212.619 231.461 213.547 230.925C214.475 230.389 215.662 230.706 216.198 231.635C216.733 232.562 216.416 233.75 215.487 234.286Z"
        fill="url(#paint5_linear_6882_3035)" />
    <path
        d="M225.93 229.972C225.001 230.508 223.814 230.19 223.279 229.262C222.743 228.334 223.061 227.147 223.99 226.611C224.918 226.075 226.105 226.394 226.64 227.321C227.176 228.249 226.858 229.436 225.93 229.972Z"
        fill="url(#paint6_linear_6882_3035)" />
    <path
        d="M206.066 253.259C205.138 253.795 203.951 253.478 203.415 252.549C202.88 251.622 203.198 250.435 204.126 249.899C205.055 249.363 206.242 249.68 206.778 250.608C207.314 251.536 206.995 252.723 206.066 253.259Z"
        fill="url(#paint7_linear_6882_3035)" />
    <path
        d="M128.362 253.272C127.434 253.808 126.246 253.489 125.71 252.562C125.174 251.633 125.493 250.447 126.421 249.911C127.35 249.375 128.536 249.692 129.072 250.621C129.608 251.549 129.29 252.735 128.362 253.272Z"
        fill="url(#paint8_linear_6882_3035)" />
    <path
        d="M100.056 258.532C99.1273 259.068 97.9408 258.75 97.4048 257.822C96.8692 256.894 97.1869 255.707 98.1156 255.171C99.0435 254.635 100.23 254.954 100.766 255.881C101.302 256.81 100.984 257.996 100.056 258.532Z"
        fill="url(#paint9_linear_6882_3035)" />
    <path d="M99.0871 257.259L215.36 257.242L215.36 256.427L99.0872 256.444" fill="url(#paint10_linear_6882_3035)" />
    <path d="M127.392 251.999L205.096 251.987L205.096 251.172L127.392 251.184" fill="url(#paint11_linear_6882_3035)" />
    <path d="M64.0969 246.501L180.369 246.484L180.37 245.669L64.097 245.686" fill="url(#paint12_linear_6882_3035)" />
    <path d="M58.6535 240.338L174.927 240.321L174.927 239.507L58.6536 239.523" fill="url(#paint13_linear_6882_3035)" />
    <path
        d="M214.673 311.455L189.393 312.042L181.015 297.88L180.314 298.295L188.934 312.868L214.692 312.27L214.673 311.455Z"
        fill="url(#paint14_linear_6882_3035)" />
    <path
        d="M225.076 315.862L183.043 316.838L175.515 303.996L174.812 304.408L182.582 317.664L225.094 316.676L225.076 315.862Z"
        fill="url(#paint15_linear_6882_3035)" />
    <path
        d="M215.669 310.191C214.746 309.647 213.556 309.954 213.011 310.878C212.466 311.801 212.774 312.99 213.697 313.534C214.621 314.079 215.811 313.772 216.354 312.849C216.899 311.925 216.593 310.736 215.669 310.191Z"
        fill="url(#paint16_linear_6882_3035)" />
    <path
        d="M226.071 314.597C225.148 314.052 223.958 314.36 223.413 315.283C222.868 316.206 223.175 317.396 224.098 317.94C225.022 318.485 226.212 318.178 226.757 317.254C227.301 316.33 226.994 315.141 226.071 314.597Z"
        fill="url(#paint17_linear_6882_3035)" />
    <path
        d="M206.431 291.134C205.507 290.59 204.318 290.897 203.772 291.82C203.228 292.744 203.535 293.933 204.458 294.477C205.382 295.022 206.572 294.714 207.116 293.792C207.661 292.868 207.354 291.678 206.431 291.134Z"
        fill="url(#paint18_linear_6882_3035)" />
    <path
        d="M128.729 290.429C127.805 289.885 126.615 290.192 126.071 291.116C125.526 292.038 125.832 293.228 126.757 293.773C127.68 294.317 128.869 294.01 129.415 293.086C129.959 292.163 129.652 290.974 128.729 290.429Z"
        fill="url(#paint19_linear_6882_3035)" />
    <path d="M99.4839 286.996L215.752 288.05L215.759 287.235L99.4912 286.181" fill="url(#paint20_linear_6882_3035)" />
    <path d="M127.739 292.509L205.439 293.213L205.447 292.399L127.746 291.694" fill="url(#paint21_linear_6882_3035)" />
    <path d="M64.3927 297.442L180.661 298.495L180.668 297.681L64.4006 296.627" fill="url(#paint22_linear_6882_3035)" />
    <path d="M58.8927 303.556L175.161 304.609L175.168 303.794L58.9006 302.741" fill="url(#paint23_linear_6882_3035)" />
    <path
        d="M335.786 311.645L361.536 312.472L370.295 297.977L369.598 297.555L361.085 311.643L335.811 310.83L335.786 311.645Z"
        fill="url(#paint24_linear_6882_3035)" />
    <path
        d="M325.343 315.959L367.843 317.324L375.739 304.139L375.039 303.721L367.39 316.496L325.37 315.145L325.343 315.959Z"
        fill="url(#paint25_linear_6882_3035)" />
    <path
        d="M334.828 309.557C335.756 309.021 336.943 309.339 337.479 310.267C338.015 311.195 337.697 312.382 336.768 312.918C335.84 313.454 334.653 313.136 334.117 312.208C333.581 311.28 333.899 310.093 334.828 309.557Z"
        fill="url(#paint26_linear_6882_3035)" />
    <path
        d="M324.386 313.872C325.315 313.336 326.501 313.653 327.037 314.582C327.573 315.509 327.255 316.696 326.327 317.233C325.398 317.769 324.211 317.45 323.675 316.523C323.139 315.594 323.457 314.408 324.386 313.872Z"
        fill="url(#paint27_linear_6882_3035)" />
    <path
        d="M344.249 290.582C345.177 290.046 346.365 290.364 346.9 291.292C347.437 292.221 347.118 293.408 346.19 293.944C345.261 294.48 344.074 294.163 343.538 293.234C343.002 292.306 343.32 291.118 344.249 290.582Z"
        fill="url(#paint28_linear_6882_3035)" />
    <path d="M451.23 286.583L334.957 286.601L334.957 287.416L451.23 287.398" fill="url(#paint29_linear_6882_3035)" />
    <path d="M422.924 291.844L345.219 291.856L345.219 292.67L422.924 292.659" fill="url(#paint30_linear_6882_3035)" />
    <path d="M486.219 297.341L369.947 297.358L369.946 298.173L486.219 298.156" fill="url(#paint31_linear_6882_3035)" />
    <path d="M491.662 303.505L375.389 303.522L375.389 304.337L491.662 304.319" fill="url(#paint32_linear_6882_3035)" />
    <path
        d="M335.641 232.386L360.922 231.799L369.299 245.962L370.001 245.547L361.38 230.974L335.623 231.572L335.641 232.386Z"
        fill="url(#paint33_linear_6882_3035)" />
    <path
        d="M325.241 227.982L367.272 227.005L374.8 239.846L375.503 239.435L367.733 226.18L325.222 227.168L325.241 227.982Z"
        fill="url(#paint34_linear_6882_3035)" />
    <path
        d="M334.646 233.652C335.568 234.196 336.758 233.889 337.303 232.966C337.847 232.042 337.54 230.853 336.617 230.308C335.694 229.764 334.504 230.071 333.959 230.995C333.415 231.918 333.722 233.108 334.646 233.652Z"
        fill="url(#paint35_linear_6882_3035)" />
    <path
        d="M324.246 229.246C325.169 229.791 326.359 229.484 326.903 228.56C327.448 227.637 327.142 226.447 326.217 225.902C325.295 225.359 324.105 225.666 323.56 226.589C323.015 227.512 323.322 228.703 324.246 229.246Z"
        fill="url(#paint36_linear_6882_3035)" />
    <path
        d="M275.885 206.962C276.809 207.507 277.999 207.199 278.543 206.275C279.088 205.353 278.781 204.163 277.858 203.618C276.935 203.074 275.744 203.381 275.2 204.304C274.655 205.228 274.962 206.418 275.885 206.962Z"
        fill="url(#paint37_linear_6882_3035)" />
    <path
        d="M343.885 252.71C344.809 253.254 345.999 252.946 346.543 252.023C347.087 251.1 346.781 249.91 345.858 249.366C344.935 248.822 343.745 249.129 343.2 250.052C342.655 250.976 342.962 252.165 343.885 252.71Z"
        fill="url(#paint38_linear_6882_3035)" />
    <path d="M450.831 256.848L334.564 255.794L334.556 256.608L450.823 257.662" fill="url(#paint39_linear_6882_3035)" />
    <path d="M422.577 251.334L344.875 250.631L344.867 251.445L422.569 252.149" fill="url(#paint40_linear_6882_3035)" />
    <path d="M485.921 246.402L369.653 245.348L369.646 246.163L485.913 247.216" fill="url(#paint41_linear_6882_3035)" />
    <path d="M491.424 240.287L375.155 239.233L375.148 240.049L491.416 241.102" fill="url(#paint42_linear_6882_3035)" />
    <path d="M300.84 204.856L248.394 204.864L248.394 205.678L300.84 205.671" fill="url(#paint43_linear_6882_3035)" />
    <path
        d="M274.404 339.713C275.327 340.257 276.517 339.95 277.061 339.026C277.607 338.103 277.3 336.914 276.376 336.369C275.453 335.825 274.263 336.132 273.719 337.055C273.174 337.978 273.48 339.168 274.404 339.713Z"
        fill="url(#paint44_linear_6882_3035)" />
    <path d="M299.36 337.608L246.913 337.615L246.913 338.43L299.359 338.423" fill="url(#paint45_linear_6882_3035)" />
    <path
        d="M279.361 353.964L365.499 351.51L388.693 322.582L502.797 322.81L502.805 319.551L387.132 319.321L363.9 348.295L279.269 350.706L279.361 353.964Z"
        fill="url(#paint46_linear_6882_3035)" />
    <path
        d="M276.153 356.211L275.339 354.8C274.757 355.135 274.112 355.2 273.511 355.041C272.911 354.878 272.385 354.499 272.049 353.919C271.714 353.339 271.65 352.694 271.808 352.092C271.972 351.493 272.351 350.966 272.931 350.63C273.512 350.296 274.157 350.231 274.758 350.39C275.358 350.552 275.885 350.931 276.22 351.511C276.555 352.092 276.62 352.737 276.46 353.338C276.298 353.938 275.918 354.465 275.339 354.8L276.153 356.211L276.968 357.622C279.679 356.056 280.606 352.592 279.043 349.881C277.477 347.171 274.013 346.244 271.302 347.808C268.59 349.375 267.663 352.839 269.226 355.549C270.791 358.259 274.255 359.187 276.968 357.622L276.153 356.211Z"
        fill="url(#paint47_linear_6882_3035)" />
    <path
        d="M271.48 190.791L185.342 193.244L162.148 222.171L48.0443 221.944L48.0372 225.203L163.71 225.433L186.941 196.459L271.572 194.049L271.48 190.791Z"
        fill="url(#paint48_linear_6882_3035)" />
    <path
        d="M274.689 188.543L275.504 189.954C276.085 189.619 276.73 189.553 277.331 189.713C277.931 189.875 278.458 190.255 278.793 190.834C279.127 191.415 279.192 192.06 279.033 192.661C278.87 193.261 278.491 193.787 277.911 194.123C277.33 194.458 276.685 194.523 276.084 194.364C275.484 194.201 274.957 193.822 274.622 193.243C274.287 192.662 274.222 192.016 274.381 191.415C274.544 190.815 274.924 190.29 275.504 189.954L274.689 188.543L273.875 187.132C271.164 188.698 270.235 192.161 271.799 194.872C273.365 197.582 276.828 198.509 279.541 196.945C282.251 195.378 283.179 191.916 281.616 189.204C280.05 186.495 276.587 185.567 273.875 187.132L274.689 188.543Z"
        fill="url(#paint49_linear_6882_3035)" />
    <path
        d="M305.739 195.713C303.954 192.621 305.015 188.665 308.109 186.878C311.203 185.092 315.16 186.151 316.945 189.244C318.731 192.337 317.67 196.294 314.576 198.08C311.482 199.866 307.525 198.807 305.739 195.713ZM315.166 199.101C315.24 199.058 315.312 199.011 315.385 198.966L315.907 199.685L316.786 199.047L316.264 198.329C316.397 198.218 316.524 198.104 316.648 197.986L317.306 198.578L318.033 197.772L317.375 197.179C317.48 197.042 317.582 196.904 317.678 196.762L318.445 197.205L318.987 196.264L318.221 195.823C318.296 195.667 318.363 195.51 318.428 195.351L319.272 195.625L319.608 194.593L318.763 194.318C318.805 194.151 318.841 193.984 318.871 193.814L319.753 193.908L319.868 192.828L318.985 192.735C318.991 192.563 318.992 192.392 318.987 192.22L319.867 192.128L319.754 191.049L318.874 191.14C318.844 190.972 318.807 190.804 318.766 190.637L319.609 190.363L319.273 189.331L318.429 189.605C318.365 189.447 318.295 189.29 318.219 189.135L318.989 188.691L318.446 187.751L317.676 188.195C317.58 188.052 317.48 187.912 317.375 187.778L318.034 187.185L317.308 186.378L316.649 186.971C316.525 186.852 316.398 186.735 316.267 186.625L316.787 185.91L315.909 185.272L315.389 185.988C315.243 185.898 315.093 185.812 314.942 185.732L315.303 184.922L314.311 184.481L313.95 185.29C313.789 185.232 313.625 185.18 313.46 185.133L313.645 184.264L312.583 184.038L312.398 184.907C312.228 184.883 312.058 184.863 311.886 184.851L311.886 183.965L310.801 183.965L310.801 184.85C310.63 184.862 310.459 184.882 310.288 184.905L310.104 184.039L309.043 184.265L309.226 185.131C309.062 185.178 308.899 185.232 308.737 185.291L308.376 184.481L307.384 184.922L307.745 185.734C307.67 185.774 307.594 185.814 307.52 185.857C307.445 185.901 307.372 185.946 307.299 185.991L306.777 185.273L305.899 185.911L306.421 186.628C306.288 186.74 306.16 186.854 306.037 186.972L305.379 186.38L304.652 187.187L305.31 187.779C305.205 187.915 305.103 188.053 305.007 188.196L304.24 187.753L303.697 188.693L304.465 189.136C304.389 189.29 304.321 189.448 304.257 189.607L303.413 189.333L303.077 190.366L303.922 190.64C303.88 190.806 303.843 190.974 303.813 191.143L302.931 191.051L302.818 192.131L303.7 192.222C303.693 192.394 303.693 192.566 303.699 192.737L302.818 192.83L302.931 193.91L303.81 193.817C303.84 193.986 303.878 194.154 303.919 194.321L303.076 194.594L303.412 195.627L304.255 195.353C304.319 195.511 304.39 195.667 304.465 195.822L303.696 196.266L304.239 197.207L305.008 196.763C305.105 196.905 305.205 197.045 305.31 197.179L304.651 197.773L305.377 198.58L306.036 197.987C306.159 198.106 306.286 198.222 306.417 198.332L305.898 199.048L306.776 199.686L307.296 198.969C307.442 199.061 307.591 199.145 307.743 199.226L307.382 200.036L308.374 200.478L308.734 199.666C308.896 199.725 309.06 199.778 309.225 199.825L309.04 200.694L310.102 200.919L310.287 200.051C310.457 200.075 310.627 200.095 310.799 200.107L310.798 200.992L311.884 200.992L311.884 200.107C312.055 200.095 312.225 200.076 312.397 200.053L312.581 200.919L313.642 200.693L313.459 199.828C313.623 199.779 313.785 199.725 313.948 199.666L314.309 200.477L315.3 200.035L314.939 199.224C315.015 199.183 315.091 199.144 315.166 199.101Z"
        fill="url(#paint50_linear_6882_3035)" />
    <path
        d="M219.956 332.39C218.92 330.595 219.536 328.298 221.332 327.261C223.128 326.224 225.425 326.839 226.462 328.634C227.499 330.43 226.882 332.727 225.086 333.764C223.29 334.801 220.993 334.186 219.956 332.39ZM225.428 334.356L225.556 334.278L225.859 334.696L226.369 334.325L226.066 333.908C226.143 333.843 226.218 333.777 226.289 333.709L226.671 334.053L227.093 333.584L226.711 333.241C226.773 333.162 226.832 333.081 226.887 332.999L227.332 333.255L227.648 332.709L227.202 332.453C227.245 332.363 227.285 332.272 227.323 332.179L227.813 332.338L228.008 331.739L227.517 331.58C227.541 331.483 227.562 331.385 227.58 331.288L228.092 331.341L228.158 330.715L227.646 330.661C227.65 330.561 227.65 330.463 227.647 330.362L228.158 330.308L228.093 329.681L227.582 329.735C227.564 329.637 227.543 329.54 227.518 329.443L228.008 329.283L227.813 328.685L227.323 328.844C227.287 328.753 227.245 328.661 227.201 328.57L227.648 328.312L227.333 327.767L226.886 328.025C226.83 327.943 226.772 327.862 226.711 327.784L227.094 327.439L226.672 326.97L226.29 327.315C226.218 327.246 226.144 327.178 226.068 327.114L226.37 326.698L225.86 326.328L225.558 326.744C225.473 326.692 225.387 326.642 225.299 326.596L225.508 326.125L224.933 325.869L224.723 326.339C224.629 326.305 224.534 326.275 224.438 326.247L224.546 325.743L223.929 325.612L223.822 326.116C223.723 326.103 223.624 326.091 223.525 326.084L223.525 325.569L222.895 325.569L222.895 326.084C222.796 326.091 222.697 326.102 222.597 326.115L222.491 325.612L221.874 325.744L221.981 326.246C221.886 326.274 221.791 326.305 221.696 326.339L221.488 325.87L220.911 326.126L221.12 326.596L220.99 326.668L220.862 326.745L220.559 326.329L220.049 326.7L220.351 327.116C220.275 327.18 220.2 327.247 220.129 327.315L219.748 326.971L219.325 327.44L219.707 327.784C219.646 327.863 219.587 327.943 219.531 328.026L219.086 327.768L218.771 328.314L219.217 328.571C219.172 328.661 219.133 328.753 219.096 328.845L218.605 328.686L218.411 329.285L218.901 329.444C218.877 329.541 218.856 329.638 218.838 329.737L218.327 329.683L218.26 330.31L218.772 330.364C218.768 330.463 218.768 330.563 218.772 330.662L218.26 330.716L218.326 331.342L218.836 331.289C218.853 331.387 218.876 331.485 218.9 331.582L218.41 331.74L218.605 332.34L219.095 332.181C219.132 332.273 219.173 332.364 219.216 332.453L218.77 332.711L219.085 333.256L219.531 332.999C219.588 333.082 219.646 333.164 219.707 333.241L219.324 333.586L219.746 334.053L220.128 333.709C220.201 333.78 220.273 333.847 220.35 333.911L220.048 334.326L220.558 334.696L220.86 334.28C220.945 334.334 221.031 334.383 221.12 334.429L220.91 334.899L221.486 335.156L221.696 334.686C221.789 334.718 221.884 334.749 221.98 334.777L221.873 335.281L222.489 335.412L222.596 334.908C222.695 334.922 222.794 334.933 222.894 334.94L222.893 335.454L223.524 335.454L223.524 334.941C223.623 334.934 223.722 334.923 223.821 334.909L223.927 335.412L224.545 335.28L224.437 334.778C224.532 334.75 224.627 334.718 224.721 334.685L224.931 335.155L225.507 334.899L225.297 334.427L225.428 334.356Z"
        fill="url(#paint51_linear_6882_3035)" />
    <path
        d="M382.544 226.746C381.616 225.139 382.167 223.083 383.775 222.154C385.384 221.225 387.44 221.777 388.368 223.384C389.296 224.991 388.746 227.048 387.137 227.977C385.528 228.905 383.472 228.354 382.544 226.746ZM387.334 230.159L387.261 229.746C387.221 229.516 387.339 229.291 387.547 229.185C387.621 229.148 387.694 229.109 387.766 229.067C387.835 229.027 387.903 228.986 387.969 228.943L388.552 229.525C388.755 229.729 389.086 229.729 389.289 229.525L389.917 228.898C390.12 228.695 390.121 228.364 389.916 228.159L389.619 227.862C389.455 227.698 389.422 227.447 389.532 227.243L389.577 227.155C389.682 226.947 389.907 226.83 390.136 226.87L390.551 226.942C390.835 226.993 391.106 226.804 391.155 226.519L391.309 225.647C391.36 225.363 391.17 225.091 390.886 225.042L390.473 224.969C390.245 224.929 390.073 224.744 390.046 224.516C390.026 224.346 389.996 224.178 389.957 224.01C389.904 223.785 390.003 223.554 390.202 223.439L390.566 223.229C390.816 223.085 390.902 222.766 390.758 222.516L390.315 221.749C390.171 221.499 389.851 221.414 389.602 221.558L389.239 221.767C389.037 221.884 388.786 221.849 388.616 221.691L388.543 221.623C388.37 221.468 388.315 221.221 388.413 221.01L388.59 220.63C388.711 220.369 388.599 220.059 388.337 219.937L387.534 219.563C387.273 219.441 386.962 219.554 386.841 219.815L386.663 220.197C386.564 220.408 386.339 220.524 386.108 220.491L386.011 220.478C385.781 220.45 385.593 220.279 385.553 220.051L385.479 219.636C385.43 219.352 385.159 219.163 384.874 219.213L384.002 219.367C383.718 219.417 383.528 219.688 383.579 219.973L383.651 220.385C383.692 220.616 383.573 220.84 383.365 220.945C383.291 220.982 383.218 221.022 383.145 221.064C383.077 221.103 383.009 221.144 382.943 221.187L382.361 220.606C382.157 220.402 381.826 220.402 381.623 220.605L380.996 221.232C380.792 221.436 380.792 221.767 380.996 221.971L381.293 222.268C381.457 222.432 381.49 222.683 381.381 222.889L381.335 222.975C381.23 223.183 381.005 223.301 380.776 223.26L380.362 223.188C380.078 223.139 379.807 223.328 379.757 223.612L379.603 224.484C379.553 224.768 379.742 225.039 380.027 225.089L380.441 225.162C380.667 225.202 380.839 225.386 380.866 225.614C380.886 225.784 380.916 225.953 380.956 226.121C381.008 226.345 380.909 226.576 380.709 226.692L380.346 226.902C380.096 227.046 380.01 227.365 380.155 227.615L380.597 228.382C380.742 228.632 381.061 228.717 381.311 228.573L381.674 228.363C381.875 228.247 382.126 228.281 382.297 228.44L382.369 228.507C382.542 228.662 382.598 228.91 382.499 229.12L382.323 229.499C382.201 229.761 382.314 230.072 382.575 230.194L383.377 230.568C383.639 230.689 383.951 230.576 384.072 230.315L384.25 229.934C384.348 229.724 384.573 229.606 384.803 229.64L384.902 229.652C385.132 229.681 385.319 229.851 385.36 230.08L385.433 230.494C385.482 230.778 385.754 230.968 386.038 230.918L386.91 230.763C387.194 230.713 387.384 230.443 387.334 230.159Z"
        fill="url(#paint52_linear_6882_3035)" />
    <path
        d="M172.39 272.702C171.462 271.095 172.014 269.039 173.622 268.11C175.231 267.182 177.287 267.733 178.215 269.34C179.143 270.948 178.592 273.004 176.984 273.932C175.375 274.861 173.319 274.311 172.39 272.702ZM177.181 276.115L177.108 275.702C177.068 275.472 177.186 275.247 177.395 275.141C177.468 275.105 177.541 275.065 177.613 275.023C177.683 274.983 177.75 274.942 177.816 274.899L178.398 275.481C178.603 275.685 178.933 275.685 179.137 275.481L179.763 274.854C179.967 274.651 179.967 274.32 179.763 274.117L179.466 273.819C179.302 273.654 179.269 273.403 179.378 273.199L179.424 273.11C179.529 272.903 179.754 272.785 179.983 272.826L180.397 272.899C180.681 272.949 180.953 272.759 181.002 272.475L181.156 271.602C181.206 271.319 181.017 271.047 180.732 270.998L180.319 270.925C180.092 270.885 179.92 270.7 179.893 270.472C179.872 270.303 179.843 270.134 179.804 269.966C179.751 269.742 179.85 269.51 180.049 269.395L180.414 269.185C180.663 269.041 180.749 268.721 180.605 268.471L180.162 267.705C180.018 267.455 179.698 267.37 179.449 267.514L179.085 267.723C178.884 267.84 178.632 267.805 178.463 267.646L178.39 267.579C178.217 267.424 178.162 267.177 178.259 266.966L178.436 266.586C178.559 266.326 178.445 266.015 178.184 265.893L177.381 265.518C177.12 265.397 176.809 265.51 176.687 265.772L176.51 266.152C176.411 266.364 176.186 266.479 175.955 266.447L175.858 266.434C175.627 266.406 175.44 266.235 175.399 266.007L175.326 265.592C175.277 265.309 175.006 265.119 174.722 265.169L173.849 265.323C173.565 265.373 173.375 265.645 173.425 265.929L173.498 266.341C173.539 266.571 173.42 266.796 173.212 266.901C173.138 266.938 173.065 266.978 172.993 267.019C172.924 267.059 172.856 267.1 172.789 267.143L172.208 266.562C172.004 266.358 171.673 266.358 171.469 266.562L170.843 267.188C170.639 267.392 170.639 267.723 170.842 267.927L171.14 268.224C171.304 268.388 171.336 268.639 171.227 268.845L171.182 268.931C171.077 269.14 170.852 269.258 170.623 269.217L170.209 269.144C169.925 269.094 169.654 269.284 169.604 269.568L169.45 270.44C169.399 270.724 169.589 270.995 169.873 271.045L170.287 271.118C170.513 271.158 170.686 271.341 170.713 271.571C170.733 271.74 170.763 271.909 170.803 272.076C170.855 272.3 170.756 272.532 170.557 272.647L170.193 272.857C169.943 273.002 169.857 273.321 170.001 273.571L170.444 274.338C170.588 274.588 170.908 274.673 171.158 274.529L171.52 274.32C171.722 274.203 171.974 274.236 172.144 274.396L172.216 274.463C172.39 274.618 172.445 274.865 172.346 275.076L172.169 275.455C172.047 275.717 172.16 276.028 172.421 276.15L173.225 276.524C173.486 276.646 173.797 276.532 173.919 276.272L174.097 275.89C174.195 275.68 174.421 275.563 174.651 275.596L174.748 275.609C174.979 275.636 175.166 275.807 175.207 276.036L175.279 276.45C175.329 276.734 175.601 276.924 175.885 276.873L176.757 276.719C177.041 276.67 177.231 276.399 177.181 276.115Z"
        fill="url(#paint53_linear_6882_3035)" />
    <path
        d="M241.101 347.584C240.527 346.589 240.868 345.317 241.863 344.742C242.858 344.167 244.131 344.508 244.706 345.503C245.28 346.498 244.939 347.77 243.944 348.345C242.948 348.92 241.676 348.579 241.101 347.584ZM244.065 349.695L244.02 349.44C243.995 349.297 244.069 349.159 244.198 349.093L244.333 349.02L244.458 348.943L244.819 349.303C244.945 349.43 245.149 349.429 245.276 349.303L245.664 348.915C245.79 348.789 245.79 348.585 245.663 348.458L245.48 348.274C245.378 348.173 245.358 348.017 245.426 347.891L245.454 347.836C245.519 347.708 245.658 347.636 245.8 347.66L246.055 347.705C246.231 347.736 246.4 347.619 246.43 347.443L246.526 346.903C246.557 346.727 246.439 346.56 246.263 346.529L246.007 346.484C245.867 346.459 245.761 346.346 245.744 346.203C245.732 346.098 245.712 345.994 245.689 345.89C245.656 345.752 245.718 345.608 245.84 345.538L246.066 345.407C246.221 345.318 246.273 345.121 246.184 344.966L245.91 344.491C245.821 344.337 245.623 344.283 245.469 344.373L245.243 344.503C245.119 344.574 244.964 344.554 244.859 344.454L244.814 344.414C244.707 344.318 244.672 344.165 244.733 344.034L244.842 343.799C244.918 343.638 244.848 343.445 244.686 343.37L244.19 343.138C244.028 343.063 243.836 343.133 243.76 343.295L243.65 343.53C243.589 343.661 243.45 343.733 243.307 343.713L243.247 343.704C243.104 343.687 242.988 343.582 242.963 343.44L242.918 343.184C242.887 343.008 242.719 342.891 242.544 342.921L242.004 343.018C241.828 343.049 241.71 343.215 241.741 343.391L241.787 343.647C241.812 343.789 241.738 343.928 241.609 343.994L241.474 344.067L241.349 344.144L240.988 343.784C240.862 343.657 240.657 343.657 240.531 343.784L240.143 344.172C240.017 344.297 240.017 344.502 240.143 344.628L240.327 344.812C240.428 344.915 240.449 345.069 240.381 345.196L240.353 345.25C240.288 345.379 240.148 345.452 240.007 345.427L239.751 345.382C239.576 345.351 239.408 345.468 239.377 345.643L239.281 346.184C239.25 346.359 239.367 346.527 239.543 346.558L239.799 346.604C239.939 346.628 240.047 346.742 240.063 346.884C240.076 346.988 240.094 347.093 240.118 347.196C240.151 347.335 240.09 347.478 239.966 347.549L239.741 347.679C239.586 347.769 239.533 347.967 239.622 348.121L239.897 348.596C239.986 348.751 240.184 348.804 240.338 348.714L240.563 348.585C240.688 348.513 240.843 348.533 240.949 348.632L240.993 348.673C241.1 348.769 241.134 348.923 241.074 349.053L240.964 349.287C240.888 349.45 240.958 349.641 241.12 349.717L241.618 349.949C241.778 350.024 241.971 349.954 242.046 349.792L242.157 349.557C242.217 349.426 242.357 349.354 242.5 349.374L242.561 349.382C242.703 349.4 242.819 349.505 242.843 349.647L242.889 349.903C242.92 350.079 243.087 350.197 243.263 350.166L243.803 350.07C243.979 350.039 244.096 349.871 244.065 349.695Z"
        fill="url(#paint54_linear_6882_3035)" />
    <path
        d="M247.788 265H246.06V254.28H247.788V265ZM253.724 265H246.588V263.432H253.724V265ZM253.484 260.392H246.588V258.824H253.484V260.392ZM253.724 255.832H246.588V254.28H253.724V255.832ZM262.623 265H260.895V260.376C260.895 259.672 260.762 259.165 260.495 258.856C260.229 258.536 259.727 258.376 258.991 258.376C258.522 258.376 258.138 258.445 257.839 258.584C257.541 258.712 257.317 258.925 257.167 259.224C257.018 259.512 256.943 259.907 256.943 260.408H256.639L256.495 258.536H256.879C256.997 258.248 257.173 257.981 257.407 257.736C257.642 257.491 257.941 257.288 258.303 257.128C258.677 256.968 259.119 256.888 259.631 256.888C260.325 256.888 260.89 257.021 261.327 257.288C261.765 257.555 262.09 257.923 262.303 258.392C262.517 258.861 262.623 259.4 262.623 260.008V265ZM256.943 265H255.215V257.048H256.799V259.432L256.943 259.512V265ZM267.512 265C266.637 265 265.965 264.813 265.496 264.44C265.037 264.067 264.808 263.437 264.808 262.552V257.224L265.208 255.08H266.536V262.472C266.536 262.888 266.637 263.155 266.84 263.272C267.053 263.379 267.432 263.432 267.976 263.432H268.936V264.856C268.776 264.899 268.568 264.936 268.312 264.968C268.056 264.989 267.789 265 267.512 265ZM268.936 258.488H263.48V257.048H268.936V258.488ZM271.849 265H270.121V257H271.705V259.224L271.849 259.304V265ZM271.849 259.816H271.449V258.264H271.785C271.945 257.891 272.207 257.571 272.569 257.304C272.943 257.027 273.423 256.888 274.009 256.888C274.575 256.888 275.023 257.011 275.353 257.256C275.695 257.501 275.94 257.827 276.089 258.232C276.239 258.637 276.313 259.091 276.313 259.592V260.12H274.585V259.8C274.585 259.267 274.495 258.893 274.313 258.68C274.132 258.467 273.791 258.36 273.289 258.36C272.767 258.36 272.393 258.472 272.169 258.696C271.956 258.909 271.849 259.283 271.849 259.816ZM281.066 265.16C280.256 265.16 279.552 264.989 278.954 264.648C278.357 264.296 277.898 263.811 277.578 263.192C277.258 262.563 277.098 261.837 277.098 261.016C277.098 260.195 277.258 259.475 277.578 258.856C277.898 258.237 278.357 257.757 278.954 257.416C279.552 257.064 280.256 256.888 281.066 256.888C281.877 256.888 282.57 257.064 283.146 257.416C283.733 257.757 284.181 258.237 284.49 258.856C284.81 259.475 284.97 260.195 284.97 261.016C284.97 261.837 284.81 262.563 284.49 263.192C284.181 263.811 283.733 264.296 283.146 264.648C282.57 264.989 281.877 265.16 281.066 265.16ZM281.066 263.624C281.898 263.624 282.48 263.416 282.81 263C283.141 262.573 283.306 261.912 283.306 261.016C283.306 260.12 283.141 259.464 282.81 259.048C282.48 258.632 281.898 258.424 281.066 258.424C280.224 258.424 279.637 258.632 279.306 259.048C278.976 259.464 278.81 260.12 278.81 261.016C278.81 261.912 278.976 262.573 279.306 263C279.637 263.416 280.224 263.624 281.066 263.624ZM290.614 265.16C289.899 265.16 289.318 265.021 288.87 264.744C288.433 264.456 288.129 264.131 287.958 263.768H287.526L287.606 261.736H287.91C287.91 262.173 287.99 262.536 288.15 262.824C288.321 263.112 288.571 263.331 288.902 263.48C289.233 263.619 289.627 263.688 290.086 263.688C290.459 263.688 290.785 263.64 291.062 263.544C291.339 263.448 291.563 263.299 291.734 263.096C291.915 262.893 292.043 262.621 292.118 262.28C292.203 261.928 292.246 261.507 292.246 261.016C292.246 260.525 292.203 260.115 292.118 259.784C292.043 259.443 291.915 259.165 291.734 258.952C291.563 258.739 291.339 258.589 291.062 258.504C290.795 258.408 290.47 258.36 290.086 258.36C289.627 258.36 289.233 258.435 288.902 258.584C288.571 258.723 288.321 258.936 288.15 259.224C287.99 259.501 287.91 259.864 287.91 260.312H287.606L287.526 258.36H287.846C288.038 257.901 288.353 257.544 288.79 257.288C289.238 257.021 289.809 256.888 290.502 256.888C291.622 256.888 292.481 257.261 293.078 258.008C293.675 258.755 293.974 259.757 293.974 261.016C293.974 262.275 293.686 263.283 293.11 264.04C292.534 264.787 291.702 265.16 290.614 265.16ZM287.91 267.768H286.198V257.048H287.766V258.936L287.91 259.144V267.768ZM296.294 267.72C296.081 267.72 295.862 267.704 295.638 267.672C295.414 267.651 295.233 267.619 295.094 267.576V266.168H296.198C296.529 266.168 296.774 266.12 296.934 266.024C297.094 265.939 297.243 265.752 297.382 265.464L297.878 264.344L297.734 264.904L294.294 257.048H296.198L297.798 260.904L298.518 262.632H298.662L299.302 260.904L300.758 257.048H302.678L298.902 265.928C298.71 266.408 298.491 266.776 298.246 267.032C298.001 267.288 297.718 267.464 297.398 267.56C297.089 267.667 296.721 267.72 296.294 267.72ZM244.093 289H242.285L246.461 278.28H248.941L253.117 289H251.245L248.429 281.832L247.741 279.832H247.613L246.909 281.832L244.093 289ZM251.101 286.216H244.349V284.664H251.101V286.216ZM257.016 289.16C255.886 289.16 255.016 288.787 254.408 288.04C253.811 287.283 253.512 286.275 253.512 285.016C253.512 283.757 253.806 282.755 254.392 282.008C254.99 281.261 255.832 280.888 256.92 280.888C257.624 280.888 258.19 281.032 258.616 281.32C259.054 281.597 259.358 281.917 259.528 282.28H259.96L259.88 284.312H259.576C259.576 283.864 259.491 283.496 259.32 283.208C259.15 282.92 258.904 282.707 258.584 282.568C258.264 282.429 257.87 282.36 257.4 282.36C257.016 282.36 256.686 282.408 256.408 282.504C256.142 282.6 255.918 282.749 255.736 282.952C255.566 283.155 255.438 283.427 255.352 283.768C255.278 284.109 255.24 284.525 255.24 285.016C255.24 285.496 255.278 285.912 255.352 286.264C255.438 286.605 255.566 286.883 255.736 287.096C255.918 287.299 256.147 287.448 256.424 287.544C256.702 287.64 257.027 287.688 257.4 287.688C257.87 287.688 258.264 287.619 258.584 287.48C258.904 287.331 259.15 287.112 259.32 286.824C259.491 286.536 259.576 286.173 259.576 285.736H259.88L259.96 287.688H259.64C259.459 288.147 259.144 288.509 258.696 288.776C258.259 289.032 257.699 289.16 257.016 289.16ZM261.304 289H259.704V287.112L259.576 286.904V278.28H261.304V289ZM267.503 289H265.311L262.127 281.048H264.047L266.367 287.352H266.479L268.815 281.048H270.687L267.503 289ZM273.058 280.04H271.346L271.33 278.28H273.058V280.04ZM273.074 289H271.346V281H273.074V289ZM277.958 289.16C276.795 289.16 275.915 288.931 275.318 288.472C274.72 288.003 274.422 287.283 274.422 286.312V286.28H276.086V286.568C276.086 286.845 276.139 287.075 276.246 287.256C276.363 287.427 276.555 287.555 276.822 287.64C277.099 287.715 277.488 287.752 277.99 287.752C278.416 287.752 278.736 287.72 278.95 287.656C279.174 287.581 279.323 287.48 279.398 287.352C279.472 287.224 279.51 287.064 279.51 286.872C279.51 286.552 279.398 286.328 279.174 286.2C278.95 286.061 278.55 285.939 277.974 285.832L276.726 285.624C276.256 285.528 275.846 285.395 275.494 285.224C275.152 285.043 274.886 284.797 274.694 284.488C274.512 284.168 274.422 283.768 274.422 283.288C274.422 282.573 274.704 281.997 275.27 281.56C275.835 281.112 276.635 280.888 277.67 280.888C278.299 280.888 278.859 280.989 279.35 281.192C279.84 281.395 280.23 281.699 280.518 282.104C280.806 282.509 280.95 283.016 280.95 283.624V283.768H279.302V283.576C279.302 283.32 279.259 283.101 279.174 282.92C279.088 282.728 278.928 282.579 278.694 282.472C278.459 282.365 278.102 282.312 277.622 282.312C276.992 282.312 276.576 282.392 276.374 282.552C276.171 282.712 276.07 282.947 276.07 283.256C276.07 283.565 276.16 283.784 276.342 283.912C276.534 284.029 276.907 284.147 277.462 284.264L278.822 284.52C279.334 284.616 279.76 284.76 280.102 284.952C280.443 285.144 280.699 285.395 280.87 285.704C281.051 286.013 281.142 286.381 281.142 286.808C281.142 287.555 280.859 288.136 280.294 288.552C279.739 288.957 278.96 289.16 277.958 289.16ZM286.184 289.16C285.373 289.16 284.669 288.989 284.072 288.648C283.474 288.296 283.016 287.811 282.696 287.192C282.376 286.563 282.215 285.837 282.215 285.016C282.215 284.195 282.376 283.475 282.696 282.856C283.016 282.237 283.474 281.757 284.072 281.416C284.669 281.064 285.373 280.888 286.184 280.888C286.994 280.888 287.688 281.064 288.264 281.416C288.85 281.757 289.298 282.237 289.608 282.856C289.928 283.475 290.088 284.195 290.088 285.016C290.088 285.837 289.928 286.563 289.608 287.192C289.298 287.811 288.85 288.296 288.264 288.648C287.688 288.989 286.994 289.16 286.184 289.16ZM286.184 287.624C287.016 287.624 287.597 287.416 287.928 287C288.258 286.573 288.424 285.912 288.424 285.016C288.424 284.12 288.258 283.464 287.928 283.048C287.597 282.632 287.016 282.424 286.184 282.424C285.341 282.424 284.754 282.632 284.424 283.048C284.093 283.464 283.928 284.12 283.928 285.016C283.928 285.912 284.093 286.573 284.424 287C284.754 287.416 285.341 287.624 286.184 287.624ZM293.107 289H291.379V281H292.963V283.224L293.107 283.304V289ZM293.107 283.816H292.707V282.264H293.043C293.203 281.891 293.465 281.571 293.827 281.304C294.201 281.027 294.681 280.888 295.267 280.888C295.833 280.888 296.281 281.011 296.611 281.256C296.953 281.501 297.198 281.827 297.347 282.232C297.497 282.637 297.571 283.091 297.571 283.592V284.12H295.843V283.8C295.843 283.267 295.753 282.893 295.571 282.68C295.39 282.467 295.049 282.36 294.547 282.36C294.025 282.36 293.651 282.472 293.427 282.696C293.214 282.909 293.107 283.283 293.107 283.816ZM302.13 289.16C300.967 289.16 300.087 288.931 299.49 288.472C298.892 288.003 298.594 287.283 298.594 286.312V286.28H300.258V286.568C300.258 286.845 300.311 287.075 300.418 287.256C300.535 287.427 300.727 287.555 300.994 287.64C301.271 287.715 301.66 287.752 302.161 287.752C302.588 287.752 302.908 287.72 303.122 287.656C303.346 287.581 303.495 287.48 303.57 287.352C303.644 287.224 303.682 287.064 303.682 286.872C303.682 286.552 303.57 286.328 303.346 286.2C303.122 286.061 302.722 285.939 302.146 285.832L300.898 285.624C300.428 285.528 300.018 285.395 299.666 285.224C299.324 285.043 299.058 284.797 298.866 284.488C298.684 284.168 298.594 283.768 298.594 283.288C298.594 282.573 298.876 281.997 299.442 281.56C300.007 281.112 300.807 280.888 301.842 280.888C302.471 280.888 303.031 280.989 303.522 281.192C304.012 281.395 304.402 281.699 304.69 282.104C304.978 282.509 305.122 283.016 305.122 283.624V283.768H303.474V283.576C303.474 283.32 303.431 283.101 303.346 282.92C303.26 282.728 303.1 282.579 302.866 282.472C302.631 282.365 302.274 282.312 301.794 282.312C301.164 282.312 300.748 282.392 300.546 282.552C300.343 282.712 300.242 282.947 300.242 283.256C300.242 283.565 300.332 283.784 300.514 283.912C300.706 284.029 301.079 284.147 301.634 284.264L302.994 284.52C303.506 284.616 303.932 284.76 304.274 284.952C304.615 285.144 304.871 285.395 305.042 285.704C305.223 286.013 305.314 286.381 305.314 286.808C305.314 287.555 305.031 288.136 304.466 288.552C303.911 288.957 303.132 289.16 302.13 289.16Z"
        fill="#286291" />
    <defs>
        <filter id="filter0_di_6882_3035" x="191.65" y="197.571" width="167.021" height="148.654"
            filterUnits="userSpaceOnUse" color-interpolation-filters="sRGB">
            <feFlood flood-opacity="0" result="BackgroundImageFix" />
            <feColorMatrix in="SourceAlpha" type="matrix" values="0 0 0 0 0 0 0 0 0 0 0 0 0 0 0 0 0 0 127 0"
                result="hardAlpha" />
            <feOffset />
            <feGaussianBlur stdDeviation="7.5" />
            <feColorMatrix type="matrix" values="0 0 0 0 0.509804 0 0 0 0 0.843137 0 0 0 0 0.968627 0 0 0 1 0" />
            <feBlend mode="normal" in2="BackgroundImageFix" result="effect1_dropShadow_6882_3035" />
            <feBlend mode="normal" in="SourceGraphic" in2="effect1_dropShadow_6882_3035" result="shape" />
            <feColorMatrix in="SourceAlpha" type="matrix" values="0 0 0 0 0 0 0 0 0 0 0 0 0 0 0 0 0 0 127 0"
                result="hardAlpha" />
            <feOffset dy="4" />
            <feGaussianBlur stdDeviation="5" />
            <feComposite in2="hardAlpha" operator="arithmetic" k2="-1" k3="1" />
            <feColorMatrix type="matrix" values="0 0 0 0 0.509804 0 0 0 0 0.843137 0 0 0 0 0.968627 0 0 0 0.5 0" />
            <feBlend mode="normal" in2="shape" result="effect2_innerShadow_6882_3035" />
        </filter>
        <filter id="filter1_di_6882_3035" x="197.742" y="202.847" width="154.836" height="138.102"
            filterUnits="userSpaceOnUse" color-interpolation-filters="sRGB">
            <feFlood flood-opacity="0" result="BackgroundImageFix" />
            <feColorMatrix in="SourceAlpha" type="matrix" values="0 0 0 0 0 0 0 0 0 0 0 0 0 0 0 0 0 0 127 0"
                result="hardAlpha" />
            <feOffset />
            <feGaussianBlur stdDeviation="7.5" />
            <feColorMatrix type="matrix" values="0 0 0 0 0.509804 0 0 0 0 0.843137 0 0 0 0 0.968627 0 0 0 1 0" />
            <feBlend mode="normal" in2="BackgroundImageFix" result="effect1_dropShadow_6882_3035" />
            <feBlend mode="normal" in="SourceGraphic" in2="effect1_dropShadow_6882_3035" result="shape" />
            <feColorMatrix in="SourceAlpha" type="matrix" values="0 0 0 0 0 0 0 0 0 0 0 0 0 0 0 0 0 0 127 0"
                result="hardAlpha" />
            <feOffset dy="4" />
            <feGaussianBlur stdDeviation="5" />
            <feComposite in2="hardAlpha" operator="arithmetic" k2="-1" k3="1" />
            <feColorMatrix type="matrix" values="0 0 0 0 0.509804 0 0 0 0 0.843137 0 0 0 0 0.968627 0 0 0 0.5 0" />
            <feBlend mode="normal" in2="shape" result="effect2_innerShadow_6882_3035" />
        </filter>
        <linearGradient id="paint0_linear_6882_3035" x1="301.776" y1="-218.174" x2="238.156" y2="148.984"
            gradientUnits="userSpaceOnUse">
            <stop stop-color="#0B6699" />
            <stop offset="0.334905" stop-color="#0B6699" />
            <stop offset="0.707645" stop-color="#0B6699" />
            <stop offset="1" stop-color="#0B6699" />
        </linearGradient>
        <linearGradient id="paint1_linear_6882_3035" x1="223.774" y1="301.566" x2="326.548" y2="242.229"
            gradientUnits="userSpaceOnUse">
            <stop stop-color="#079BFD" />
            <stop offset="1" stop-color="#12AAFF" />
        </linearGradient>
        <linearGradient id="paint2_linear_6882_3035" x1="228.342" y1="298.928" x2="321.978" y2="244.867"
            gradientUnits="userSpaceOnUse">
            <stop stop-color="#12AAFF" />
            <stop offset="1" stop-color="#B2D2FF" />
        </linearGradient>
        <linearGradient id="paint3_linear_6882_3035" x1="179.504" y1="244.972" x2="211.304" y2="226.612"
            gradientUnits="userSpaceOnUse">
            <stop stop-color="#12AAFF" />
            <stop offset="1" stop-color="#12AAFF" />
        </linearGradient>
        <linearGradient id="paint4_linear_6882_3035" x1="176.623" y1="243.247" x2="219.538" y2="218.471"
            gradientUnits="userSpaceOnUse">
            <stop stop-color="#12AAFF" />
            <stop offset="1" stop-color="#12AAFF" />
        </linearGradient>
        <linearGradient id="paint5_linear_6882_3035" x1="212.836" y1="233.575" x2="216.198" y2="231.635"
            gradientUnits="userSpaceOnUse">
            <stop stop-color="#12AAFF" />
            <stop offset="1" stop-color="#12AAFF" />
        </linearGradient>
        <linearGradient id="paint6_linear_6882_3035" x1="223.279" y1="229.262" x2="226.64" y2="227.321"
            gradientUnits="userSpaceOnUse">
            <stop stop-color="#12AAFF" />
            <stop offset="1" stop-color="#12AAFF" />
        </linearGradient>
        <linearGradient id="paint7_linear_6882_3035" x1="203.415" y1="252.55" x2="206.778" y2="250.608"
            gradientUnits="userSpaceOnUse">
            <stop stop-color="#12AAFF" />
            <stop offset="1" stop-color="#12AAFF" />
        </linearGradient>
        <linearGradient id="paint8_linear_6882_3035" x1="125.71" y1="252.562" x2="129.072" y2="250.621"
            gradientUnits="userSpaceOnUse">
            <stop stop-color="#12AAFF" />
            <stop offset="1" stop-color="#12AAFF" />
        </linearGradient>
        <linearGradient id="paint9_linear_6882_3035" x1="97.4048" y1="257.822" x2="100.766" y2="255.881"
            gradientUnits="userSpaceOnUse">
            <stop stop-color="#12AAFF" />
            <stop offset="1" stop-color="#12AAFF" />
        </linearGradient>
        <linearGradient id="paint10_linear_6882_3035" x1="113.441" y1="282.121" x2="201.006" y2="231.565"
            gradientUnits="userSpaceOnUse">
            <stop stop-color="#12AAFF" />
            <stop offset="1" stop-color="#12AAFF" />
        </linearGradient>
        <linearGradient id="paint11_linear_6882_3035" x1="136.926" y1="268.512" x2="195.562" y2="234.658"
            gradientUnits="userSpaceOnUse">
            <stop stop-color="#12AAFF" />
            <stop offset="1" stop-color="#12AAFF" />
        </linearGradient>
        <linearGradient id="paint12_linear_6882_3035" x1="78.4509" y1="271.363" x2="166.016" y2="220.807"
            gradientUnits="userSpaceOnUse">
            <stop stop-color="#12AAFF" />
            <stop offset="1" stop-color="#12AAFF" />
        </linearGradient>
        <linearGradient id="paint13_linear_6882_3035" x1="73.0077" y1="265.2" x2="160.573" y2="214.645"
            gradientUnits="userSpaceOnUse">
            <stop stop-color="#12AAFF" />
            <stop offset="1" stop-color="#12AAFF" />
        </linearGradient>
        <linearGradient id="paint14_linear_6882_3035" x1="187.635" y1="310.975" x2="207.705" y2="299.387"
            gradientUnits="userSpaceOnUse">
            <stop stop-color="#12AAFF" />
            <stop offset="1" stop-color="#12AAFF" />
        </linearGradient>
        <linearGradient id="paint15_linear_6882_3035" x1="183.752" y1="319.893" x2="216.49" y2="300.991"
            gradientUnits="userSpaceOnUse">
            <stop stop-color="#12AAFF" />
            <stop offset="1" stop-color="#12AAFF" />
        </linearGradient>
        <linearGradient id="paint16_linear_6882_3035" x1="213.002" y1="312.834" x2="216.365" y2="310.892"
            gradientUnits="userSpaceOnUse">
            <stop stop-color="#12AAFF" />
            <stop offset="1" stop-color="#12AAFF" />
        </linearGradient>
        <linearGradient id="paint17_linear_6882_3035" x1="223.403" y1="317.239" x2="226.766" y2="315.298"
            gradientUnits="userSpaceOnUse">
            <stop stop-color="#12AAFF" />
            <stop offset="1" stop-color="#12AAFF" />
        </linearGradient>
        <linearGradient id="paint18_linear_6882_3035" x1="203.763" y1="293.776" x2="207.126" y2="291.835"
            gradientUnits="userSpaceOnUse">
            <stop stop-color="#12AAFF" />
            <stop offset="1" stop-color="#12AAFF" />
        </linearGradient>
        <linearGradient id="paint19_linear_6882_3035" x1="126.061" y1="293.072" x2="129.424" y2="291.13"
            gradientUnits="userSpaceOnUse">
            <stop stop-color="#12AAFF" />
            <stop offset="1" stop-color="#12AAFF" />
        </linearGradient>
        <linearGradient id="paint20_linear_6882_3035" x1="114.07" y1="312.26" x2="201.173" y2="261.971"
            gradientUnits="userSpaceOnUse">
            <stop stop-color="#12AAFF" />
            <stop offset="1" stop-color="#12AAFF" />
        </linearGradient>
        <linearGradient id="paint21_linear_6882_3035" x1="137.428" y1="309.292" x2="195.757" y2="275.615"
            gradientUnits="userSpaceOnUse">
            <stop stop-color="#12AAFF" />
            <stop offset="1" stop-color="#12AAFF" />
        </linearGradient>
        <linearGradient id="paint22_linear_6882_3035" x1="78.9789" y1="322.706" x2="166.082" y2="272.417"
            gradientUnits="userSpaceOnUse">
            <stop stop-color="#12AAFF" />
            <stop offset="1" stop-color="#12AAFF" />
        </linearGradient>
        <linearGradient id="paint23_linear_6882_3035" x1="73.4788" y1="328.82" x2="160.582" y2="278.53"
            gradientUnits="userSpaceOnUse">
            <stop stop-color="#12AAFF" />
            <stop offset="1" stop-color="#12AAFF" />
        </linearGradient>
        <linearGradient id="paint24_linear_6882_3035" x1="339.011" y1="317.23" x2="370.811" y2="298.87"
            gradientUnits="userSpaceOnUse">
            <stop stop-color="#12AAFF" />
            <stop offset="1" stop-color="#12AAFF" />
        </linearGradient>
        <linearGradient id="paint25_linear_6882_3035" x1="330.778" y1="325.373" x2="373.693" y2="300.596"
            gradientUnits="userSpaceOnUse">
            <stop stop-color="#12AAFF" />
            <stop offset="1" stop-color="#12AAFF" />
        </linearGradient>
        <linearGradient id="paint26_linear_6882_3035" x1="334.117" y1="312.208" x2="337.479" y2="310.267"
            gradientUnits="userSpaceOnUse">
            <stop stop-color="#12AAFF" />
            <stop offset="1" stop-color="#12AAFF" />
        </linearGradient>
        <linearGradient id="paint27_linear_6882_3035" x1="323.675" y1="316.523" x2="327.037" y2="314.582"
            gradientUnits="userSpaceOnUse">
            <stop stop-color="#12AAFF" />
            <stop offset="1" stop-color="#12AAFF" />
        </linearGradient>
        <linearGradient id="paint28_linear_6882_3035" x1="343.538" y1="293.234" x2="346.901" y2="291.293"
            gradientUnits="userSpaceOnUse">
            <stop stop-color="#12AAFF" />
            <stop offset="1" stop-color="#12AAFF" />
        </linearGradient>
        <linearGradient id="paint29_linear_6882_3035" x1="349.311" y1="312.278" x2="436.877" y2="261.722"
            gradientUnits="userSpaceOnUse">
            <stop stop-color="#12AAFF" />
            <stop offset="1" stop-color="#12AAFF" />
        </linearGradient>
        <linearGradient id="paint30_linear_6882_3035" x1="354.753" y1="309.184" x2="413.39" y2="275.331"
            gradientUnits="userSpaceOnUse">
            <stop stop-color="#12AAFF" />
            <stop offset="1" stop-color="#12AAFF" />
        </linearGradient>
        <linearGradient id="paint31_linear_6882_3035" x1="384.3" y1="323.035" x2="471.865" y2="272.479"
            gradientUnits="userSpaceOnUse">
            <stop stop-color="#12AAFF" />
            <stop offset="1" stop-color="#12AAFF" />
        </linearGradient>
        <linearGradient id="paint32_linear_6882_3035" x1="389.743" y1="329.198" x2="477.308" y2="278.643"
            gradientUnits="userSpaceOnUse">
            <stop stop-color="#12AAFF" />
            <stop offset="1" stop-color="#12AAFF" />
        </linearGradient>
        <linearGradient id="paint33_linear_6882_3035" x1="342.609" y1="244.455" x2="362.68" y2="232.867"
            gradientUnits="userSpaceOnUse">
            <stop stop-color="#12AAFF" />
            <stop offset="1" stop-color="#12AAFF" />
        </linearGradient>
        <linearGradient id="paint34_linear_6882_3035" x1="333.826" y1="242.851" x2="366.563" y2="223.95"
            gradientUnits="userSpaceOnUse">
            <stop stop-color="#12AAFF" />
            <stop offset="1" stop-color="#12AAFF" />
        </linearGradient>
        <linearGradient id="paint35_linear_6882_3035" x1="333.95" y1="232.951" x2="337.312" y2="231.01"
            gradientUnits="userSpaceOnUse">
            <stop stop-color="#12AAFF" />
            <stop offset="1" stop-color="#12AAFF" />
        </linearGradient>
        <linearGradient id="paint36_linear_6882_3035" x1="323.55" y1="228.545" x2="326.913" y2="226.604"
            gradientUnits="userSpaceOnUse">
            <stop stop-color="#12AAFF" />
            <stop offset="1" stop-color="#12AAFF" />
        </linearGradient>
        <linearGradient id="paint37_linear_6882_3035" x1="275.19" y1="206.261" x2="278.553" y2="204.319"
            gradientUnits="userSpaceOnUse">
            <stop stop-color="#12AAFF" />
            <stop offset="1" stop-color="#12AAFF" />
        </linearGradient>
        <linearGradient id="paint38_linear_6882_3035" x1="343.19" y1="252.008" x2="346.553" y2="250.067"
            gradientUnits="userSpaceOnUse">
            <stop stop-color="#12AAFF" />
            <stop offset="1" stop-color="#12AAFF" />
        </linearGradient>
        <linearGradient id="paint39_linear_6882_3035" x1="349.142" y1="281.872" x2="436.245" y2="231.584"
            gradientUnits="userSpaceOnUse">
            <stop stop-color="#12AAFF" />
            <stop offset="1" stop-color="#12AAFF" />
        </linearGradient>
        <linearGradient id="paint40_linear_6882_3035" x1="354.557" y1="268.228" x2="412.887" y2="234.551"
            gradientUnits="userSpaceOnUse">
            <stop stop-color="#12AAFF" />
            <stop offset="1" stop-color="#12AAFF" />
        </linearGradient>
        <linearGradient id="paint41_linear_6882_3035" x1="384.232" y1="271.426" x2="471.335" y2="221.138"
            gradientUnits="userSpaceOnUse">
            <stop stop-color="#12AAFF" />
            <stop offset="1" stop-color="#12AAFF" />
        </linearGradient>
        <linearGradient id="paint42_linear_6882_3035" x1="389.734" y1="265.312" x2="476.837" y2="215.023"
            gradientUnits="userSpaceOnUse">
            <stop stop-color="#12AAFF" />
            <stop offset="1" stop-color="#12AAFF" />
        </linearGradient>
        <linearGradient id="paint43_linear_6882_3035" x1="254.772" y1="216.725" x2="294.462" y2="193.81"
            gradientUnits="userSpaceOnUse">
            <stop stop-color="#12AAFF" />
            <stop offset="1" stop-color="#12AAFF" />
        </linearGradient>
        <linearGradient id="paint44_linear_6882_3035" x1="273.709" y1="339.012" x2="277.071" y2="337.07"
            gradientUnits="userSpaceOnUse">
            <stop stop-color="#12AAFF" />
            <stop offset="1" stop-color="#12AAFF" />
        </linearGradient>
        <linearGradient id="paint45_linear_6882_3035" x1="253.291" y1="349.477" x2="292.982" y2="326.561"
            gradientUnits="userSpaceOnUse">
            <stop stop-color="#12AAFF" />
            <stop offset="1" stop-color="#12AAFF" />
        </linearGradient>
        <linearGradient id="paint46_linear_6882_3035" x1="299.829" y1="389.415" x2="482.313" y2="284.058"
            gradientUnits="userSpaceOnUse">
            <stop stop-color="#12AAFF" />
            <stop offset="1" stop-color="#12AAFF" />
        </linearGradient>
        <linearGradient id="paint47_linear_6882_3035" x1="269.227" y1="355.549" x2="279.043" y2="349.881"
            gradientUnits="userSpaceOnUse">
            <stop stop-color="#12AAFF" />
            <stop offset="1" stop-color="#12AAFF" />
        </linearGradient>
        <linearGradient id="paint48_linear_6882_3035" x1="68.5293" y1="260.696" x2="251.012" y2="155.34"
            gradientUnits="userSpaceOnUse">
            <stop stop-color="#12AAFF" />
            <stop offset="1" stop-color="#12AAFF" />
        </linearGradient>
        <linearGradient id="paint49_linear_6882_3035" x1="271.799" y1="194.872" x2="281.616" y2="189.204"
            gradientUnits="userSpaceOnUse">
            <stop stop-color="#12AAFF" />
            <stop offset="1" stop-color="#12AAFF" />
        </linearGradient>
        <linearGradient id="paint50_linear_6882_3035" x1="303.968" y1="196.737" x2="318.717" y2="188.221"
            gradientUnits="userSpaceOnUse">
            <stop stop-color="#12AAFF" />
            <stop offset="1" stop-color="#12AAFF" />
        </linearGradient>
        <linearGradient id="paint51_linear_6882_3035" x1="218.928" y1="332.984" x2="227.491" y2="328.04"
            gradientUnits="userSpaceOnUse">
            <stop stop-color="#12AAFF" />
            <stop offset="1" stop-color="#12AAFF" />
        </linearGradient>
        <linearGradient id="paint52_linear_6882_3035" x1="380.376" y1="227.998" x2="390.536" y2="222.132"
            gradientUnits="userSpaceOnUse">
            <stop stop-color="#12AAFF" />
            <stop offset="1" stop-color="#12AAFF" />
        </linearGradient>
        <linearGradient id="paint53_linear_6882_3035" x1="170.223" y1="273.955" x2="180.384" y2="268.088"
            gradientUnits="userSpaceOnUse">
            <stop stop-color="#12AAFF" />
            <stop offset="1" stop-color="#12AAFF" />
        </linearGradient>
        <linearGradient id="paint54_linear_6882_3035" x1="239.759" y1="348.359" x2="246.047" y2="344.729"
            gradientUnits="userSpaceOnUse">
            <stop stop-color="#12AAFF" />
            <stop offset="1" stop-color="#12AAFF" />
        </linearGradient>
    </defs>
</svg>