<svg width="566" height="214" viewBox="0 0 566 214" fill="none" xmlns="http://www.w3.org/2000/svg">
    <path
        d="M267.362 115.163C265.842 115.163 264.546 114.827 263.474 114.155C262.418 113.483 261.61 112.531 261.05 111.299C260.49 110.051 260.21 108.579 260.21 106.883C260.21 105.203 260.514 103.747 261.122 102.515C261.746 101.267 262.626 100.307 263.762 99.6349C264.914 98.9469 266.282 98.6029 267.866 98.6029C269.306 98.6029 270.538 98.8509 271.562 99.3469C272.586 99.8269 273.378 100.515 273.938 101.411C274.498 102.291 274.778 103.355 274.778 104.603V104.771H272.042V104.603C272.042 103.371 271.706 102.483 271.034 101.939C270.378 101.379 269.282 101.099 267.746 101.099C266.626 101.099 265.706 101.291 264.986 101.675C264.282 102.059 263.77 102.675 263.45 103.523C263.13 104.371 262.97 105.491 262.97 106.883C262.97 108.275 263.138 109.395 263.474 110.243C263.81 111.075 264.346 111.683 265.082 112.067C265.834 112.451 266.794 112.643 267.962 112.643C268.954 112.643 269.77 112.539 270.41 112.331C271.05 112.123 271.53 111.771 271.85 111.275C272.17 110.779 272.33 110.115 272.33 109.283V108.539H274.826V108.899L272.666 112.403H272.33C272.138 112.899 271.818 113.355 271.37 113.771C270.938 114.187 270.386 114.523 269.714 114.779C269.058 115.035 268.274 115.163 267.362 115.163ZM274.826 114.923H272.45V110.843L272.33 110.603V107.123H274.826V114.923ZM274.826 108.899H267.29V106.667H274.826V108.899ZM284.528 115.163C282.976 115.163 281.632 114.827 280.496 114.155C279.376 113.467 278.512 112.507 277.904 111.275C277.312 110.027 277.016 108.563 277.016 106.883C277.016 105.203 277.312 103.747 277.904 102.515C278.512 101.267 279.376 100.307 280.496 99.6349C281.632 98.9469 282.976 98.6029 284.528 98.6029C285.984 98.6029 287.224 98.8589 288.248 99.3709C289.272 99.8829 290.064 100.603 290.624 101.531C291.184 102.459 291.464 103.571 291.464 104.867V105.011H288.728V104.867C288.728 103.555 288.392 102.603 287.72 102.011C287.064 101.403 285.976 101.099 284.456 101.099C283.352 101.099 282.456 101.291 281.768 101.675C281.08 102.059 280.576 102.675 280.256 103.523C279.936 104.371 279.776 105.491 279.776 106.883C279.776 108.259 279.936 109.379 280.256 110.243C280.576 111.091 281.08 111.707 281.768 112.091C282.456 112.459 283.352 112.643 284.456 112.643C285.976 112.643 287.064 112.347 287.72 111.755C288.392 111.163 288.728 110.211 288.728 108.899V108.755H291.464V108.899C291.464 110.179 291.184 111.291 290.624 112.235C290.064 113.163 289.272 113.883 288.248 114.395C287.224 114.907 285.984 115.163 284.528 115.163ZM300.368 109.739H294.512V107.411H300.68C301.736 107.411 302.488 107.179 302.936 106.715C303.4 106.251 303.632 105.443 303.632 104.291C303.632 103.139 303.4 102.331 302.936 101.867C302.488 101.403 301.736 101.171 300.68 101.171H294.512V98.8429H300.368C301.488 98.8429 302.488 99.0589 303.368 99.4909C304.248 99.9229 304.936 100.547 305.432 101.363C305.944 102.163 306.2 103.139 306.2 104.291C306.2 105.443 305.944 106.427 305.432 107.243C304.936 108.059 304.248 108.683 303.368 109.115C302.488 109.531 301.488 109.739 300.368 109.739ZM296.12 114.923H293.528V98.8429H296.12V114.923Z"
        fill="#0F83C4" />
    <path
        d="M133.394 10.1336L136.859 16.1395H100.251L96.7861 10.1336H90.1052V11.0831H86.8182V7.66472H90.1052V8.61428H134.272L166.324 64.1515H181.276L146.198 3.3917H105.283V4.34126H101.995V0.922852H105.283V1.87241H147.076L183.02 64.1515H213.707V65.6708H165.885H165.446L133.394 10.1336ZM93.0362 56.9942H89.7611L90.9003 58.9645L89.7611 60.9349H93.0362L94.1754 58.9645L93.0362 56.9942ZM99.634 56.9942H96.3589L97.4981 58.9645L96.3589 60.9349H99.634L100.773 58.9645L99.634 56.9942ZM95.7893 56.3295H100.026L101.545 58.9645L100.026 61.5996H95.2197L96.7386 58.9645L95.2197 56.3295H95.7893ZM106.244 56.9942H102.969L104.108 58.9645L102.969 60.9349H106.244L107.383 58.9645L106.244 56.9942ZM102.387 56.3295H106.623L108.142 58.9645L106.623 61.5996H101.817L103.336 58.9645L101.817 56.3295H102.387ZM89.1796 56.3295H93.416L94.9349 58.9645L93.416 61.5996H88.61L90.1289 58.9645L88.61 56.3295H89.1796ZM72.9581 56.9942H69.6829L70.8221 58.9645L69.6829 60.9349H72.9581L74.0973 58.9645L72.9581 56.9942ZM79.5559 56.9942H76.2807L77.4199 58.9645L76.2807 60.9349H79.5559L80.695 58.9645L79.5559 56.9942ZM75.7111 56.3295H79.9475L81.4664 58.9645L79.9475 61.5996H75.1415L76.6604 58.9645L75.1415 56.3295H75.7111ZM86.1655 56.9942H82.8904L84.0295 58.9645L82.8904 60.9349H86.1655L87.3047 58.9645L86.1655 56.9942ZM82.3089 56.3295H86.5452L88.0642 58.9645L86.5452 61.5996H81.7393L83.2582 58.9645L81.7393 56.3295H82.3089ZM69.1014 56.3295H73.3378L74.8567 58.9645L73.3378 61.5996H68.5319L70.0508 58.9645L68.5319 56.3295H69.1014ZM433.024 10.1336L429.559 16.1395H466.179L469.644 10.1336H476.325V11.0831H479.612V7.66472H476.325V8.61428H432.158L400.095 64.1515H385.143L420.22 3.3917H461.136V4.34126H464.423V0.922852H461.136V1.87241H419.342L383.398 64.1515H352.712V65.6708H400.534H400.973L433.024 10.1336ZM473.382 56.9942H476.658L475.518 58.9645L476.658 60.9349H473.382L472.243 58.9645L473.382 56.9942ZM466.785 56.9942H470.06L468.921 58.9645L470.06 60.9349H466.785L465.645 58.9645L466.785 56.9942ZM470.629 56.3295H466.393L464.874 58.9645L466.393 61.5996H471.199L469.68 58.9645L471.199 56.3295H470.629ZM460.175 56.9942H463.45L462.311 58.9645L463.45 60.9349H460.175L459.036 58.9645L460.175 56.9942ZM464.031 56.3295H459.795L458.276 58.9645L459.795 61.5996H464.601L463.082 58.9645L464.601 56.3295H464.031ZM477.239 56.3295H473.003L471.484 58.9645L473.003 61.5996H477.82L476.301 58.9645L477.82 56.3295H477.239ZM493.46 56.9942H496.736L495.596 58.9645L496.736 60.9349H493.46L492.321 58.9645L493.46 56.9942ZM486.863 56.9942H490.138L488.999 58.9645L490.138 60.9349H486.863L485.723 58.9645L486.863 56.9942ZM490.707 56.3295H486.471L484.952 58.9645L486.471 61.5996H491.277L489.758 58.9645L491.277 56.3295H490.707ZM480.253 56.9942H483.528L482.389 58.9645L483.528 60.9349H480.253L479.114 58.9645L480.253 56.9942ZM484.11 56.3295H479.873L478.354 58.9645L479.873 61.5996H484.679L483.16 58.9645L484.679 56.3295H484.11ZM497.317 56.3295H493.081L491.562 58.9645L493.081 61.5996H497.887L496.368 58.9645L497.887 56.3295H497.317ZM410.703 87.5462H352.7V86.0269H410.264L443.941 27.6766H511.688V26.7271H514.974V30.1455H511.688V29.1959H444.808L443.68 31.1544H511.687V30.2048H514.974V33.6232H511.687V32.6737H442.814L411.142 87.5462L410.703 87.5462ZM133.394 203.867L136.859 197.861H100.251L96.7861 203.867H90.1052V202.917H86.8182V206.336H90.1052V205.386H134.272L166.324 149.849H181.276L146.198 210.609H105.283V209.659H101.995V213.078H105.283V212.128H147.076L183.02 149.849H213.707V148.33H165.885H165.446L133.394 203.867ZM118.181 169.695L119.76 166.965H103.087L101.509 169.695H72.0325V168.745H68.7455V172.164H72.0325V171.214H119.06L155.252 108.52L151.787 114.526H188.408L191.873 108.52H213.375V107V105.481H191.873L188.408 99.475H151.787L155.252 105.481L119.06 42.7864H72.0325V41.8369H68.7455V45.2553H72.0325V44.3057H101.509L103.087 47.0357H119.748L118.17 44.3057L153.484 105.481H134.593L111.156 64.8637H3.705V63.9141H0.417969V67.3325H3.705V66.3829H110.278L129.027 98.8697H103.621L89.6068 74.5966H30.4284V73.6471H27.1414V77.0655H30.4284V76.1159H88.7287L102.743 100.389H103.182H129.906L133.715 107L129.906 113.612H103.182H102.743L88.7287 137.885H30.4284V136.935H27.1414V140.353H30.4284V139.404H89.6068L103.621 115.131H129.027L110.278 147.618H3.705V146.668H0.417969V150.086H3.705V149.137H111.145L134.581 108.52H153.472L118.181 169.695ZM93.0362 157.006H89.7611L90.9003 155.036L89.7611 153.066H93.0362L94.1754 155.036L93.0362 157.006ZM99.634 157.006H96.3589L97.4981 155.036L96.3589 153.066H99.634L100.773 155.036L99.634 157.006ZM95.7893 157.671H100.026L101.545 155.036L100.026 152.401H95.2197L96.7386 155.036L95.2197 157.671H95.7893ZM106.244 157.006H102.969L104.108 155.036L102.969 153.066H106.244L107.383 155.036L106.244 157.006ZM102.387 157.671H106.623L108.142 155.036L106.623 152.401H101.817L103.336 155.036L101.817 157.671H102.387ZM89.1796 157.671H93.416L94.9349 155.036L93.416 152.401H88.61L90.1289 155.036L88.61 157.671H89.1796ZM72.9581 157.006H69.6829L70.8221 155.036L69.6829 153.066H72.9581L74.0973 155.036L72.9581 157.006ZM79.5559 157.006H76.2807L77.4199 155.036L76.2807 153.066H79.5559L80.695 155.036L79.5559 157.006ZM75.7111 157.671H79.9475L81.4664 155.036L79.9475 152.401H75.1415L76.6604 155.036L75.1415 157.671H75.7111ZM86.1655 157.006H82.8904L84.0295 155.036L82.8904 153.066H86.1655L87.3047 155.036L86.1655 157.006ZM82.3089 157.671H86.5452L88.0642 155.036L86.5452 152.401H81.7393L83.2582 155.036L81.7393 157.671H82.3089ZM69.1014 157.671H73.3378L74.8567 155.036L73.3378 152.401H68.5319L70.0508 155.036L68.5319 157.671H69.1014ZM433.024 203.867L429.559 197.861H466.179L469.644 203.867H476.325V202.917H479.612V206.336H476.325V205.386H432.158L400.095 149.849H385.143L420.22 210.609H461.136V209.659H464.423V213.078H461.136V212.128H419.342L383.398 149.849H352.712V148.33H400.534H400.973L433.024 203.867ZM448.237 169.695L446.659 166.965H463.32L464.898 169.695H494.374V168.745H497.661V172.164H494.374V171.214H447.347L411.154 108.52L414.619 114.526H378.023L374.558 108.52H353.056V107V105.481H374.558L378.023 99.475H414.643L411.178 105.481L447.371 42.7864H494.398V41.8369H497.685V45.2553H494.398V44.3057H464.921L463.343 47.0357H446.683L448.261 44.3057L412.946 105.481H431.838L455.274 64.8637H562.714V63.9141H566.001V67.3325H562.714V66.3829H456.14L437.391 98.8697H462.797L476.812 74.5966H535.99V73.6471H539.277V77.0655H535.99V76.1159H477.69L463.675 100.389H463.236H436.513L432.692 107L436.513 113.612H463.236H463.675L477.69 137.885H535.99V136.935H539.277V140.353H535.99V139.404H476.812L462.797 115.131H437.391L456.14 147.618H562.714V146.668H566.001V150.086H562.714V149.137H455.274L431.838 108.52H412.946L448.237 169.695ZM473.382 157.006H476.658L475.518 155.036L476.658 153.066H473.382L472.243 155.036L473.382 157.006ZM466.785 157.006H470.06L468.921 155.036L470.06 153.066H466.785L465.645 155.036L466.785 157.006ZM470.629 157.671H466.393L464.874 155.036L466.393 152.401H471.199L469.68 155.036L471.199 157.671H470.629ZM460.175 157.006H463.45L462.311 155.036L463.45 153.066H460.175L459.036 155.036L460.175 157.006ZM464.031 157.671H459.795L458.276 155.036L459.795 152.401H464.601L463.082 155.036L464.601 157.671H464.031ZM477.239 157.671H473.003L471.484 155.036L473.003 152.401H477.82L476.301 155.036L477.82 157.671H477.239ZM493.46 157.006H496.736L495.596 155.036L496.736 153.066H493.46L492.321 155.036L493.46 157.006ZM486.863 157.006H490.138L488.999 155.036L490.138 153.066H486.863L485.723 155.036L486.863 157.006ZM490.707 157.671H486.471L484.952 155.036L486.471 152.401H491.277L489.758 155.036L491.277 157.671H490.707ZM480.253 157.006H483.528L482.389 155.036L483.528 153.066H480.253L479.114 155.036L480.253 157.006ZM484.11 157.671H479.873L478.354 155.036L479.873 152.401H484.679L483.16 155.036L484.679 157.671H484.11ZM497.317 157.671H493.081L491.562 155.036L493.081 152.401H497.887L496.368 155.036L497.887 157.671H497.317ZM410.703 126.454H352.7V127.974H410.264L443.941 186.324H511.688V187.273H514.974V183.855H511.688V184.805H444.808L443.68 182.846H511.687V183.796H514.974V180.377H511.687V181.327H442.814L411.142 126.454L410.703 126.454ZM155.715 126.454H213.719V127.974H156.154L122.477 186.324H54.7192V187.273H51.4322V183.855H54.7192V184.805H121.599L122.726 182.846H54.7192V183.796H51.4322V180.377H54.7192V181.327H123.604L155.276 126.454L155.715 126.454ZM299.3 66.739C297.58 66.0387 295.812 65.4571 294.008 64.9824L292.702 70.0506C294.281 70.4661 295.823 70.9764 297.342 71.5937L299.3 66.739ZM308.971 72.199C307.476 71.0832 305.934 70.0743 304.308 69.1604L301.757 73.7301C303.181 74.5373 304.545 75.4275 305.862 76.4126L308.971 72.199ZM316.946 79.926C315.783 78.4779 314.537 77.1011 313.208 75.8073L309.577 79.5699C310.751 80.7213 311.843 81.9201 312.876 83.202L316.946 79.926ZM322.713 89.4216C321.965 87.7243 321.099 86.0744 320.138 84.4839L315.664 87.202C316.507 88.6026 317.278 90.0506 317.931 91.5462L322.713 89.4216ZM325.869 100.068C325.573 98.2287 325.169 96.4364 324.635 94.6441L319.616 96.1397C320.079 97.7183 320.435 99.297 320.696 100.923L325.869 100.068ZM326.225 111.19C326.403 109.339 326.451 107.499 326.403 105.635L321.17 105.801C321.218 107.439 321.17 109.066 321.016 110.704L326.225 111.19ZM323.757 122.015C324.398 120.27 324.932 118.49 325.335 116.674L320.233 115.523C319.865 117.113 319.402 118.68 318.844 120.211L323.757 122.015ZM318.607 131.855C319.675 130.324 320.624 128.757 321.491 127.107L316.851 124.698C316.091 126.158 315.249 127.534 314.3 128.888L318.607 131.855ZM311.131 140.08C312.543 138.87 313.872 137.588 315.13 136.211L311.262 132.686C310.146 133.896 308.995 135.024 307.737 136.092L311.131 140.08ZM301.828 146.146C303.465 145.386 305.186 144.389 306.681 143.404L303.798 139.036C302.481 139.902 300.973 140.769 299.549 141.434L301.828 146.146ZM291.29 149.635C293.118 149.279 294.898 148.816 296.666 148.235L295.016 143.261C293.45 143.772 291.884 144.187 290.27 144.496L291.29 149.635ZM280.195 150.336C282.058 150.454 283.886 150.454 285.761 150.336L285.428 145.113C283.791 145.208 282.177 145.208 280.527 145.113L280.195 150.336ZM269.29 148.211C271.058 148.805 272.85 149.267 274.677 149.623L275.662 144.484C274.06 144.175 272.482 143.76 270.939 143.238L269.29 148.211ZM259.298 143.38C260.853 144.401 262.467 145.303 264.14 146.122L266.406 141.41C264.935 140.686 263.523 139.891 262.146 139L259.298 143.38ZM250.849 136.164C252.083 137.54 253.448 138.846 254.848 140.045L258.23 136.045C257.008 135.012 255.798 133.825 254.73 132.638L250.849 136.164ZM244.501 127.06C245.367 128.71 246.316 130.288 247.384 131.819L251.668 128.816C250.731 127.463 249.888 126.074 249.129 124.626L244.501 127.06ZM240.668 116.626C241.083 118.431 241.605 120.235 242.246 121.968L247.147 120.14C246.577 118.632 246.126 117.018 245.77 115.451L240.668 116.626ZM239.624 105.564C239.564 107.428 239.624 109.267 239.79 111.119L244.999 110.62C244.845 108.982 244.797 107.368 244.845 105.718L239.624 105.564ZM241.392 94.5967C240.869 96.4127 240.454 98.1575 240.146 100.033L245.308 100.852C245.58 99.2139 245.937 97.6827 246.399 96.0922L241.392 94.5967ZM245.913 84.4364C244.94 86.0269 244.085 87.6649 243.326 89.3622L248.108 91.4869C248.785 89.9913 249.532 88.5551 250.386 87.1545L245.913 84.4364ZM252.843 75.7717C251.514 77.0655 250.256 78.4305 249.105 79.8785L253.199 83.1308C254.231 81.8489 255.323 80.6501 256.498 79.5106L252.843 75.7717ZM261.743 69.1367C260.117 70.0506 258.574 71.0595 257.079 72.1634L260.212 76.3533C261.529 75.38 262.894 74.4898 264.318 73.6827L261.743 69.1367ZM272.055 64.9705C270.263 65.4334 268.483 66.0269 266.762 66.7153L268.744 71.558C270.251 70.9408 271.817 70.4304 273.384 70.0269L272.055 64.9705ZM320.719 78.7984C318.061 75.2376 314.952 72.104 311.404 69.4215L310.621 70.4661C314.074 73.0892 317.088 76.1159 319.687 79.5937L320.719 78.7984ZM327.519 91.653C326.083 87.475 324.042 83.4987 321.503 79.8785L320.435 80.6382C322.903 84.1634 324.896 88.021 326.285 92.0922L327.519 91.653ZM330.082 105.968C329.975 101.505 329.251 97.1842 327.934 92.9231L326.688 93.3148C327.982 97.4453 328.682 101.671 328.777 106.003L330.082 105.968ZM328.148 120.377C329.418 116.116 330.058 111.736 330.094 107.297L328.789 107.285C328.753 111.606 328.124 115.855 326.89 120.009L328.148 120.377ZM321.93 133.517C324.41 129.873 326.392 125.837 327.756 121.647L326.51 121.244C325.181 125.315 323.259 129.255 320.85 132.793L321.93 133.517ZM311.986 144.128C315.403 141.469 318.666 138.134 321.17 134.609L320.102 133.849C317.563 137.35 314.596 140.437 311.179 143.095L311.986 144.128ZM299.277 151.19C303.584 149.588 307.192 147.594 310.918 144.923L310.134 143.867C306.93 146.348 302.611 148.543 298.814 149.956L299.277 151.19ZM285.025 154.063C289.415 153.885 293.865 153.042 298.031 151.629L297.603 150.395C293.557 151.76 289.237 152.579 284.966 152.757L285.025 154.063ZM270.583 152.425C274.737 153.576 279.388 154.205 283.708 154.098L283.684 152.793C279.448 152.876 275.021 152.294 270.939 151.167L270.583 152.425ZM257.316 146.478C261.066 148.899 265.03 150.751 269.302 152.057L269.681 150.799C265.54 149.54 261.66 147.724 258.017 145.374L257.316 146.478ZM246.506 136.757C249.318 140.199 252.558 143.214 256.213 145.742L256.949 144.662C253.389 142.193 250.256 139.285 247.515 135.926L246.506 136.757ZM239.184 124.199C240.798 128.318 242.994 132.199 245.687 135.712L246.72 134.917C244.097 131.511 241.961 127.724 240.395 123.724L239.184 124.199ZM236.016 110.003C236.313 114.454 237.215 118.751 238.71 122.953L239.944 122.514C238.484 118.431 237.606 114.253 237.321 109.92L236.016 110.003ZM237.345 95.5225C236.265 99.8311 235.779 104.235 235.945 108.674L237.25 108.626C237.096 104.306 237.559 100.033 238.615 95.843L237.345 95.5225ZM243.017 82.1337C240.668 85.9201 238.912 89.9557 237.689 94.2406L238.947 94.5967C240.134 90.4305 241.843 86.5017 244.133 82.8222L243.017 82.1337ZM252.511 71.1189C249.117 73.9913 246.198 77.3147 243.741 81.018L244.833 81.742C247.218 78.1456 250.066 74.9171 253.365 72.1159L252.511 71.1189ZM264.899 63.5343C260.782 65.2672 257.008 67.4868 253.519 70.2761L254.338 71.2969C257.756 68.5788 261.375 66.4304 265.398 64.7331L264.899 63.5343ZM279.02 60.0684C274.642 60.4363 270.227 61.4571 266.133 63.0358L266.608 64.2583C270.571 62.7272 274.891 61.7183 279.139 61.3741L279.02 60.0684ZM293.521 61.101C289.226 60.1159 284.74 59.7242 280.338 59.9853L280.421 61.291C284.74 61.0536 289 61.4097 293.225 62.3829L293.521 61.101ZM310.324 68.6381C306.669 66.0506 302.801 64.0565 298.576 62.561L298.149 63.7954C302.255 65.2553 306.017 67.1782 309.577 69.7064L310.324 68.6381L298.576 62.561C297.33 62.1337 296.073 61.7301 294.803 61.4096L294.483 62.6797C295.729 63.0239 296.927 63.3681 298.149 63.7954L310.324 68.6381ZM230.13 118.336C229.739 116.496 229.43 114.609 229.228 112.698C229.027 110.763 228.92 108.864 228.92 106.988C228.92 92.0447 234.972 78.5254 244.762 68.7331C254.552 58.9408 268.068 52.8874 283.008 52.8874C284.206 52.8874 285.452 52.9348 286.734 53.0179C287.968 53.101 289.202 53.2316 290.448 53.4096L289.736 58.5847C288.632 58.4304 287.517 58.3117 286.389 58.2405C285.31 58.1693 284.182 58.1337 283.019 58.1337C269.527 58.1337 257.316 63.6055 248.476 72.4482C239.635 81.291 234.165 93.5047 234.165 107C234.165 108.757 234.26 110.478 234.426 112.152V112.163C234.604 113.849 234.877 115.558 235.245 117.255L230.13 118.336ZM283.008 168.745C265.967 168.745 250.529 161.837 239.362 150.656C228.196 139.487 221.29 124.045 221.29 107C221.29 103.404 221.61 99.8192 222.227 96.294C222.844 92.7688 223.782 89.291 225.004 85.9082L226.843 86.5729C225.657 89.837 224.755 93.2079 224.15 96.6263C223.544 100.045 223.248 103.511 223.248 107C223.248 123.511 229.94 138.454 240.751 149.267C251.561 160.08 266.501 166.775 283.008 166.775V168.745ZM273.704 45.9675C275.235 45.7301 276.789 45.5521 278.344 45.4334C279.91 45.3147 281.465 45.2553 283.008 45.2553C300.048 45.2553 315.486 52.1634 326.653 63.3325C337.819 74.5017 344.737 89.9438 344.737 106.988C344.737 109.006 344.63 111.036 344.429 113.077C344.227 115.119 343.93 117.125 343.539 119.107L341.616 118.727C342.008 116.781 342.293 114.834 342.494 112.899C342.684 110.965 342.779 108.994 342.779 107.012C342.779 90.5017 336.086 75.558 325.276 64.745C314.466 53.9319 299.526 47.2375 283.019 47.2375C281.5 47.2375 279.993 47.2969 278.498 47.4037C277.003 47.5224 275.496 47.6885 274.001 47.9141L273.704 45.9675ZM306.539 83.4631C300.523 77.4453 292.204 73.7183 283.008 73.7183C273.823 73.7183 265.504 77.4453 259.476 83.4631C253.46 89.4809 249.734 97.8014 249.734 107C249.734 116.187 253.46 124.508 259.476 130.537C265.493 136.555 273.811 140.282 283.008 140.282C292.192 140.282 300.511 136.555 306.539 130.537C312.555 124.52 316.281 116.199 316.281 107C316.281 97.8133 312.555 89.4928 306.539 83.4631ZM283.008 73.0655C292.37 73.0655 300.855 76.8637 307.002 83.0002C313.137 89.1367 316.934 97.6234 316.934 107C316.934 116.365 313.137 124.852 307.002 131C300.867 137.137 292.382 140.935 283.008 140.935C273.645 140.935 265.16 137.137 259.013 131C252.878 124.864 249.081 116.377 249.081 107C249.081 97.6352 252.878 89.1486 259.013 83.0002C265.16 76.8637 273.645 73.0655 283.008 73.0655ZM336.087 96.5907C336.419 98.2643 336.668 99.9973 336.834 101.778C337.012 103.57 337.095 105.315 337.095 107C337.095 121.944 331.043 135.463 321.253 145.256C311.463 155.048 297.947 161.101 283.008 161.101C281.595 161.101 280.16 161.042 278.712 160.923C277.335 160.816 275.911 160.638 274.44 160.401L275.259 155.25C276.493 155.451 277.774 155.606 279.115 155.713C280.397 155.819 281.69 155.867 283.008 155.867C296.5 155.867 308.71 150.395 317.551 141.552C326.392 132.71 331.862 120.496 331.862 107C331.862 105.362 331.791 103.784 331.637 102.264C331.494 100.745 331.257 99.1783 330.948 97.5878L336.087 96.5907ZM323.033 66.9764C312.793 56.7331 298.648 50.3948 283.019 50.3948C267.391 50.3948 253.246 56.7331 243.005 66.9764C232.765 77.2198 226.428 91.3682 226.428 107C226.428 122.632 232.765 136.781 243.005 147.024C253.246 157.267 267.391 163.606 283.019 163.606C298.648 163.606 312.793 157.267 323.033 147.024C333.274 136.781 339.611 122.632 339.611 107C339.599 91.3682 333.274 77.2198 323.033 66.9764ZM283.008 49.742C298.814 49.742 313.125 56.1515 323.484 66.5135C333.844 76.8756 340.252 91.1901 340.252 107C340.252 122.81 333.844 137.125 323.484 147.487C313.125 157.849 298.814 164.259 283.008 164.259C267.201 164.259 252.89 157.849 242.531 147.487C232.171 137.125 225.763 122.81 225.763 107C225.763 91.1901 232.171 76.8755 242.531 66.5135C252.89 56.1515 267.201 49.742 283.008 49.742ZM216.496 99.6649C218.525 81.291 227.793 65.4809 241.154 54.7746C254.516 44.0684 271.972 38.4541 290.329 40.4719C294.198 40.8992 298.019 41.6589 301.757 42.7508C305.495 43.8428 309.126 45.2553 312.615 46.9764L311.748 48.733C308.354 47.0594 304.818 45.6826 301.211 44.6262C297.592 43.5698 293.889 42.8339 290.116 42.4066C272.292 40.4363 255.347 45.8844 242.377 56.282C229.406 66.6797 220.4 82.0269 218.43 99.8667L216.496 99.6649ZM349.864 104.223C349.935 105.908 349.935 107.594 349.887 109.279C349.828 110.977 349.709 112.662 349.519 114.336C347.49 132.71 338.223 148.52 324.861 159.226C311.499 169.932 294.043 175.546 275.686 173.529C273.502 173.291 271.331 172.935 269.171 172.484C267 172.021 264.875 171.463 262.787 170.799L263.38 168.923C265.433 169.576 267.498 170.122 269.575 170.561C271.663 171 273.775 171.345 275.899 171.582C293.723 173.552 310.668 168.104 323.639 157.707C336.609 147.309 345.615 131.962 347.585 114.122C347.763 112.484 347.882 110.846 347.941 109.22C348.001 107.582 347.989 105.944 347.917 104.306L349.864 104.223ZM288.561 63.926C286.71 63.6886 284.871 63.5818 283.008 63.5699V68.8043C284.645 68.8162 286.271 68.9111 287.897 69.1129L288.561 63.926L283.008 63.5699C281.156 63.5818 279.353 63.6886 277.525 63.9141L278.19 69.101C279.804 68.8993 281.394 68.8043 283.019 68.8043L288.561 63.926ZM155.715 87.5462H213.719V86.0269H156.154L122.477 27.6766H54.7192V26.7271H51.4322V30.1455H54.7192V29.1959H121.599L122.726 31.1544H54.7192V30.2048H51.4322V33.6232H54.7192V32.6737H123.604L155.276 87.5462L155.715 87.5462Z"
        fill="#12AAFF" />
</svg>