<svg width="78" height="78" viewBox="0 0 78 78" fill="none" xmlns="http://www.w3.org/2000/svg">
    <rect x="0.5" y="0.5" width="77" height="77" rx="38.5" stroke="#CBECFF" />
    <rect x="12.5" y="12.5" width="53" height="53" rx="26.5" stroke="#12AAFF" />
    <path
        d="M44.625 38.9999C44.625 40.4918 44.0324 41.9225 42.9775 42.9774C41.9226 44.0323 40.4918 44.6249 39 44.6249C37.5082 44.6249 36.0774 44.0323 35.0225 42.9774C33.9676 41.9225 33.375 40.4918 33.375 38.9999C33.375 37.5081 33.9676 36.0773 35.0225 35.0224C36.0774 33.9676 37.5082 33.3749 39 33.3749C40.4918 33.3749 41.9226 33.9676 42.9775 35.0224C44.0324 36.0773 44.625 37.5081 44.625 38.9999ZM44.625 38.9999C44.625 41.0712 45.8838 42.7499 47.4375 42.7499C48.9913 42.7499 50.25 41.0712 50.25 38.9999C50.25 36.3972 49.3475 33.875 47.6963 31.863C46.0451 29.8511 43.7474 28.4739 41.1947 27.9662C38.6419 27.4584 35.9921 27.8515 33.6967 29.0784C31.4013 30.3054 29.6023 32.2903 28.6063 34.6949C27.6103 37.0995 27.4789 39.7751 28.2344 42.2658C28.99 44.7565 30.5858 46.9081 32.7499 48.3541C34.914 49.8001 37.5126 50.451 40.1028 50.1958C42.693 49.9407 45.1146 48.7954 46.955 46.9549M44.625 38.9999V34.3124"
        stroke="#12AAFF" stroke-width="1.5" stroke-linecap="round" stroke-linejoin="round" />
</svg>