<svg width="81" height="78" viewBox="0 0 81 78" fill="none" xmlns="http://www.w3.org/2000/svg">
    <rect x="0.5" y="0.5" width="79.5" height="77" rx="38.5" stroke="#CBECFF"/>
    <rect x="12.5" y="12.5" width="55.5" height="53" rx="26.5" stroke="#12AAFF"/>
    <path d="M54 33.185C55.4733 33.6583 56.5 35.065 56.5 36.68V43.8233C56.5 45.7167 55.0883 47.3233 53.2 47.4783C52.6333 47.5233 52.0667 47.565 51.5 47.5983V52.75L46.5 47.75C44.2433 47.75 42.01 47.6583 39.8 47.4783C39.3189 47.4394 38.8509 47.3022 38.425 47.075M54 33.185C53.7425 33.1021 53.4763 33.049 53.2067 33.0267C48.7432 32.6561 44.2568 32.6561 39.7933 33.0267C37.9083 33.1833 36.5 34.7883 36.5 36.68V43.8233C36.5 45.2183 37.2667 46.4567 38.425 47.075M54 33.185V30.0617C54 27.36 52.08 25.0183 49.4 24.67C45.9514 24.223 42.4775 23.9992 39 24C35.475 24 32.0033 24.2283 28.6 24.67C25.92 25.0183 24 27.36 24 30.0617V40.4383C24 43.14 25.92 45.4817 28.6 45.83C29.5617 45.955 30.5283 46.0633 31.5 46.1533V54L38.425 47.075" stroke="#12AAFF" stroke-width="1.5" stroke-linecap="round" stroke-linejoin="round"/>
    </svg>
    