<svg width="78" height="78" viewBox="0 0 78 78" fill="none" xmlns="http://www.w3.org/2000/svg">
    <rect x="0.5" y="0.5" width="77" height="77" rx="38.5" stroke="#CBECFF" />
    <rect x="12.5" y="12.5" width="53" height="53" rx="26.5" stroke="#12AAFF" />
    <path fill-rule="evenodd" clip-rule="evenodd"
        d="M52.8896 29.618C53.287 27.6808 51.3843 26.0709 49.5396 26.7836L26.9281 35.5199C24.8682 36.3158 24.7764 39.1964 26.7815 40.1218L31.7056 42.3945L34.0481 50.5931C34.1698 51.019 34.5077 51.3488 34.9365 51.4599C35.3652 51.5709 35.8207 51.4469 36.1339 51.1336L39.7423 47.5253L44.7969 51.3163C46.2641 52.4166 48.3774 51.6151 48.7459 49.8185L52.8896 29.618ZM27.8291 37.8519L50.4406 29.1156L46.2969 49.3163L40.375 44.8748C39.8774 44.5015 39.181 44.551 38.7411 44.9909L37.1956 46.5364L37.66 43.9825L46.7589 34.8837C47.2018 34.4409 47.2485 33.7387 46.8684 33.241C46.4883 32.7434 45.7986 32.6038 45.2549 32.9145L32.6891 40.0949L27.8291 37.8519ZM34.2212 42.0988L34.9792 44.7518L35.2702 43.1511C35.3157 42.901 35.4364 42.6706 35.6162 42.4909L38.391 39.7161L34.2212 42.0988Z"
        fill="#12AAFF" />
</svg>