<svg width="567" height="421" viewBox="0 0 567 421" fill="none" xmlns="http://www.w3.org/2000/svg">
    <circle cx="284" cy="210.471" r="201" fill="url(#paint0_radial_7776_8725)" />
    <circle cx="284" cy="210.471" r="142" stroke="#0070BA" stroke-width="4" />
    <path
        d="M365.671 128.8C381.824 144.953 392.824 165.533 397.281 187.938C401.737 210.343 399.45 233.566 390.708 254.671C381.966 275.776 367.162 293.815 348.168 306.506C329.175 319.197 306.844 325.971 284 325.971C261.156 325.971 238.826 319.197 219.832 306.506C200.838 293.815 186.034 275.776 177.292 254.671C168.55 233.566 166.263 210.343 170.719 187.938C175.176 165.534 186.176 144.953 202.329 128.8"
        stroke="#0070BA" stroke-dasharray="6 3" />
    <path
        d="M206.363 125.633C227.443 106.343 254.949 95.5909 283.522 95.4722C312.096 95.3535 339.69 105.876 360.929 124.991"
        stroke="url(#paint1_linear_7776_8725)" stroke-width="2" />
    <path
        d="M349.407 275.879C336.471 288.815 319.989 297.625 302.046 301.194C284.103 304.763 265.504 302.931 248.602 295.93C231.7 288.929 217.253 277.073 207.089 261.861C196.925 246.65 191.5 228.766 191.5 210.471C191.5 192.176 196.925 174.293 207.089 159.081C217.253 143.869 231.7 132.013 248.602 125.012C265.504 118.011 284.103 116.179 302.046 119.749C319.989 123.318 336.471 132.127 349.407 145.064"
        stroke="#0070BA" stroke-dasharray="6 3" />
    <path
        d="M351.871 148.362C367.303 165.226 375.904 187.23 375.999 210.089C376.094 232.948 367.676 255.023 352.384 272.014"
        stroke="url(#paint2_linear_7776_8725)" stroke-width="2" />
    <path
        d="M218.8 183.653C224.104 170.758 233.113 159.725 244.688 151.949C256.262 144.174 269.883 140.006 283.826 139.971C297.77 139.937 311.41 144.038 323.023 151.756C334.636 159.474 343.699 170.462 349.067 183.331C354.435 196.2 355.866 210.372 353.179 224.054C350.493 237.737 343.809 250.315 333.974 260.199C324.139 270.083 311.593 276.828 297.925 279.582C284.256 282.336 270.077 280.975 257.182 275.671"
        stroke="#0070BA" stroke-dasharray="6 3" />
    <path
        d="M254.531 273.966C238.755 266.644 226.269 253.711 219.507 237.687C212.745 221.662 212.191 203.695 217.952 187.284"
        stroke="url(#paint3_linear_7776_8725)" stroke-width="2" />
    <path
        d="M277.894 257.748C268.544 256.54 259.762 252.587 252.658 246.388C245.554 240.189 240.448 232.023 237.986 222.922C235.523 213.822 235.814 204.195 238.823 195.26C241.831 186.325 247.422 178.482 254.888 172.725C262.353 166.967 271.358 163.552 280.765 162.912C290.171 162.272 299.556 164.436 307.732 169.13C315.909 173.824 322.51 180.837 326.701 189.282C330.891 197.728 332.484 207.226 331.276 216.577"
        stroke="#0070BA" stroke-dasharray="6 3" />
    <path
        d="M330.467 218.578C328.453 230.124 322.213 240.506 312.962 247.702C303.711 254.898 292.113 258.392 280.427 257.505"
        stroke="url(#paint4_linear_7776_8725)" stroke-width="2" />
    <circle cx="283.5" cy="66.9712" r="8" fill="#0070BA" stroke="white" stroke-width="3" />
    <circle cx="354.5" cy="210.971" r="8" fill="#0070BA" stroke="#CDEBFF" stroke-width="3" />
    <circle cx="186.5" cy="313.971" r="8" fill="#0070BA" stroke="#CDEBFF" stroke-width="3" />
    <rect x="284" y="9.47119" width="132" height="25" fill="url(#paint5_linear_7776_8725)" />
    <path d="M284 10.4712V61.4712" stroke="#0B6699" stroke-width="2" />
    <rect x="355" y="152.471" width="168" height="25" fill="url(#paint6_linear_7776_8725)" />
    <path d="M355 153.471V204.471" stroke="#0B6699" stroke-width="2" />
    <rect x="187" y="255.471" width="176" height="25" fill="url(#paint7_linear_7776_8725)" />
    <path d="M187 256.471V307.471" stroke="#0B6699" stroke-width="2" />
    <path
        d="M294.774 25.4712H293.276V17.4492H290.084V16.0912H297.966V17.4492H294.774V25.4712ZM299.746 25.4712H298.234V18.4712H299.62V19.5772H299.69C299.97 18.9332 300.614 18.3732 301.636 18.3732C303.092 18.3732 303.652 19.4372 303.652 20.7392V21.2012H302.14V20.9212C302.14 19.9972 301.874 19.6612 300.992 19.6612C300.082 19.6612 299.746 20.0112 299.746 20.9352V25.4712ZM306.359 25.6112C305.113 25.6112 304.147 24.9672 304.147 23.7492C304.147 22.6012 304.987 21.9992 306.471 21.7892L308.907 21.4252V21.0472C308.907 20.0112 308.431 19.7032 307.339 19.7032C306.233 19.7032 305.799 20.0532 305.799 20.9772V21.1872H304.343V21.0472C304.343 19.4932 305.561 18.3732 307.423 18.3732C309.369 18.3732 310.349 19.5492 310.349 21.2432V25.4712H308.949V24.3792H308.879C308.473 25.0372 307.675 25.6112 306.359 25.6112ZM305.617 23.6372C305.617 24.1832 305.967 24.4072 306.849 24.4072C307.829 24.4072 308.907 24.0152 308.907 22.6152V22.4892L306.695 22.8252C305.897 22.9372 305.617 23.1192 305.617 23.6372ZM313.309 25.4712H311.797V18.5132H313.183V19.8152H313.239C313.561 19.0732 314.303 18.3732 315.661 18.3732C317.467 18.3732 318.279 19.5212 318.279 21.1032V25.4712H316.767V21.4392C316.767 20.1932 316.375 19.6752 315.101 19.6752C313.869 19.6752 313.309 20.1512 313.309 21.4532V25.4712ZM322.611 25.6112C320.581 25.6112 319.517 24.8132 319.517 23.1192V23.0912H320.973V23.3432C320.973 24.0992 321.309 24.3792 322.639 24.3792C323.759 24.3792 323.969 24.1272 323.969 23.6092C323.969 23.0492 323.633 22.8812 322.611 22.6992L321.533 22.5172C320.287 22.2932 319.503 21.7332 319.503 20.4732C319.503 19.2132 320.539 18.3732 322.359 18.3732C323.997 18.3732 325.229 19.1852 325.229 20.7672V20.8932H323.787V20.7252C323.787 20.0812 323.563 19.6192 322.317 19.6192C321.211 19.6192 320.945 19.9132 320.945 20.4452C320.945 20.9772 321.197 21.1312 322.177 21.3272L323.353 21.5512C324.697 21.8172 325.397 22.4192 325.397 23.5672C325.397 24.8552 324.375 25.6112 322.611 25.6112ZM328.018 27.8932H326.52V18.5132H327.892V19.6612H327.962C328.284 18.8492 329.082 18.3732 330.286 18.3732C332.246 18.3732 333.324 19.7872 333.324 21.9992C333.324 24.1972 332.274 25.6112 330.384 25.6112C329.138 25.6112 328.368 25.0372 328.06 24.3932H328.018V27.8932ZM328.018 22.6152C328.018 23.7772 328.69 24.3232 329.922 24.3232C331.252 24.3232 331.812 23.7072 331.812 21.9992C331.812 20.2772 331.266 19.6612 329.922 19.6612C328.69 19.6612 328.018 20.2072 328.018 21.3692V22.6152ZM336.478 25.6112C335.232 25.6112 334.266 24.9672 334.266 23.7492C334.266 22.6012 335.106 21.9992 336.59 21.7892L339.026 21.4252V21.0472C339.026 20.0112 338.55 19.7032 337.458 19.7032C336.352 19.7032 335.918 20.0532 335.918 20.9772V21.1872H334.462V21.0472C334.462 19.4932 335.68 18.3732 337.542 18.3732C339.488 18.3732 340.468 19.5492 340.468 21.2432V25.4712H339.068V24.3792H338.998C338.592 25.0372 337.794 25.6112 336.478 25.6112ZM335.736 23.6372C335.736 24.1832 336.086 24.4072 336.968 24.4072C337.948 24.4072 339.026 24.0152 339.026 22.6152V22.4892L336.814 22.8252C336.016 22.9372 335.736 23.1192 335.736 23.6372ZM343.428 25.4712H341.916V18.4712H343.302V19.5772H343.372C343.652 18.9332 344.296 18.3732 345.318 18.3732C346.774 18.3732 347.334 19.4372 347.334 20.7392V21.2012H345.822V20.9212C345.822 19.9972 345.556 19.6612 344.674 19.6612C343.764 19.6612 343.428 20.0112 343.428 20.9352V25.4712ZM351.395 25.6112C349.099 25.6112 348.021 24.1552 348.021 21.9852C348.021 19.8292 349.309 18.3732 351.381 18.3732C353.257 18.3732 354.573 19.4932 354.573 21.3972C354.573 21.7612 354.531 22.1392 354.489 22.3492H349.435C349.491 23.6232 349.953 24.2672 351.409 24.2672C352.571 24.2672 353.019 23.8752 353.019 23.2452V23.1332H354.517V23.2592C354.517 24.6872 353.271 25.6112 351.395 25.6112ZM351.353 19.6472C350.037 19.6472 349.533 20.2632 349.449 21.3412H353.131C353.187 20.1512 352.543 19.6472 351.353 19.6472ZM357.291 25.4712H355.779V18.5132H357.165V19.8152H357.221C357.543 19.0732 358.285 18.3732 359.643 18.3732C361.449 18.3732 362.261 19.5212 362.261 21.1032V25.4712H360.749V21.4392C360.749 20.1932 360.357 19.6752 359.083 19.6752C357.851 19.6752 357.291 20.1512 357.291 21.4532V25.4712ZM366.803 25.6252C364.633 25.6252 363.401 24.1552 363.401 21.9992C363.401 19.8292 364.675 18.3732 366.859 18.3732C368.693 18.3732 369.953 19.5072 369.953 21.1732V21.2992H368.455V21.2152C368.455 20.1932 367.923 19.7312 366.761 19.7312C365.417 19.7312 364.899 20.4872 364.899 21.9992C364.899 23.5112 365.417 24.2532 366.761 24.2532C367.923 24.2532 368.455 23.8052 368.455 22.7832V22.6992H369.953V22.8252C369.953 24.4772 368.679 25.6252 366.803 25.6252ZM371.912 27.8512C371.534 27.8512 371.1 27.7952 370.862 27.7252V26.4932H371.814C372.416 26.4932 372.626 26.3952 372.85 25.8772L373.116 25.2892L370.162 18.5132H371.828L373.228 21.8872L373.858 23.3992H373.97L374.544 21.8872L375.818 18.5132H377.484L374.194 26.2972C373.676 27.5292 373.004 27.8512 371.912 27.8512Z"
        fill="white" />
    <path
        d="M363.296 168.471H361.784V159.091H365.816C367.888 159.091 369.19 160.113 369.19 161.891C369.19 163.445 368.238 164.383 366.586 164.467V164.579C367.272 164.803 367.678 165.223 368.028 165.867L369.428 168.471H367.678L366.348 166.049C365.914 165.237 365.522 164.859 364.402 164.859H363.296V168.471ZM363.296 160.449V163.613H365.998C367.216 163.613 367.678 163.165 367.678 162.031C367.678 160.925 367.216 160.449 365.998 160.449H363.296ZM373.176 168.611C370.88 168.611 369.802 167.155 369.802 164.985C369.802 162.829 371.09 161.373 373.162 161.373C375.038 161.373 376.354 162.493 376.354 164.397C376.354 164.761 376.312 165.139 376.27 165.349H371.216C371.272 166.623 371.734 167.267 373.19 167.267C374.352 167.267 374.8 166.875 374.8 166.245V166.133H376.298V166.259C376.298 167.687 375.052 168.611 373.176 168.611ZM373.134 162.647C371.818 162.647 371.314 163.263 371.23 164.341H374.912C374.968 163.151 374.324 162.647 373.134 162.647ZM380.555 168.611C378.525 168.611 377.461 167.813 377.461 166.119V166.091H378.917V166.343C378.917 167.099 379.253 167.379 380.583 167.379C381.703 167.379 381.913 167.127 381.913 166.609C381.913 166.049 381.577 165.881 380.555 165.699L379.477 165.517C378.231 165.293 377.447 164.733 377.447 163.473C377.447 162.213 378.483 161.373 380.303 161.373C381.941 161.373 383.173 162.185 383.173 163.767V163.893H381.731V163.725C381.731 163.081 381.507 162.619 380.261 162.619C379.155 162.619 378.889 162.913 378.889 163.445C378.889 163.977 379.141 164.131 380.121 164.327L381.297 164.551C382.641 164.817 383.341 165.419 383.341 166.567C383.341 167.855 382.319 168.611 380.555 168.611ZM387.752 168.611C385.61 168.611 384.28 167.155 384.28 164.985C384.28 162.829 385.61 161.373 387.752 161.373C389.88 161.373 391.168 162.829 391.168 164.985C391.168 167.155 389.88 168.611 387.752 168.611ZM387.752 167.267C389.208 167.267 389.712 166.553 389.712 164.985C389.712 163.431 389.208 162.717 387.752 162.717C386.282 162.717 385.764 163.431 385.764 164.985C385.764 166.553 386.282 167.267 387.752 167.267ZM394.889 168.611C393.069 168.611 392.257 167.393 392.257 165.811V161.513H393.769V165.545C393.769 166.791 394.245 167.309 395.449 167.309C396.611 167.309 397.269 166.805 397.269 165.433V161.513H398.781V168.471H397.381V167.085H397.325C396.989 167.883 396.247 168.611 394.889 168.611ZM401.781 168.471H400.269V161.471H401.655V162.577H401.725C402.005 161.933 402.649 161.373 403.671 161.373C405.127 161.373 405.687 162.437 405.687 163.739V164.201H404.175V163.921C404.175 162.997 403.909 162.661 403.027 162.661C402.117 162.661 401.781 163.011 401.781 163.935V168.471ZM409.776 168.625C407.606 168.625 406.374 167.155 406.374 164.999C406.374 162.829 407.648 161.373 409.832 161.373C411.666 161.373 412.926 162.507 412.926 164.173V164.299H411.428V164.215C411.428 163.193 410.896 162.731 409.734 162.731C408.39 162.731 407.872 163.487 407.872 164.999C407.872 166.511 408.39 167.253 409.734 167.253C410.896 167.253 411.428 166.805 411.428 165.783V165.699H412.926V165.825C412.926 167.477 411.652 168.625 409.776 168.625ZM417.227 168.611C414.931 168.611 413.853 167.155 413.853 164.985C413.853 162.829 415.141 161.373 417.213 161.373C419.089 161.373 420.405 162.493 420.405 164.397C420.405 164.761 420.363 165.139 420.321 165.349H415.267C415.323 166.623 415.785 167.267 417.241 167.267C418.403 167.267 418.851 166.875 418.851 166.245V166.133H420.349V166.259C420.349 167.687 419.103 168.611 417.227 168.611ZM417.185 162.647C415.869 162.647 415.365 163.263 415.281 164.341H418.963C419.019 163.151 418.375 162.647 417.185 162.647ZM425.284 168.471H423.702L427.356 159.091H429.526L433.18 168.471H431.542L430.59 166.035H426.236L425.284 168.471ZM427.748 162.199L426.768 164.677H430.058L429.078 162.199L428.476 160.463H428.364L427.748 162.199ZM435.455 168.471H433.943V159.091H435.455V168.471ZM438.504 168.471H436.992V159.091H438.504V168.471ZM443.123 168.611C440.981 168.611 439.651 167.155 439.651 164.985C439.651 162.829 440.981 161.373 443.123 161.373C445.251 161.373 446.539 162.829 446.539 164.985C446.539 167.155 445.251 168.611 443.123 168.611ZM443.123 167.267C444.579 167.267 445.083 166.553 445.083 164.985C445.083 163.431 444.579 162.717 443.123 162.717C441.653 162.717 441.135 163.431 441.135 164.985C441.135 166.553 441.653 167.267 443.123 167.267ZM450.86 168.625C448.69 168.625 447.458 167.155 447.458 164.999C447.458 162.829 448.732 161.373 450.916 161.373C452.75 161.373 454.01 162.507 454.01 164.173V164.299H452.512V164.215C452.512 163.193 451.98 162.731 450.818 162.731C449.474 162.731 448.956 163.487 448.956 164.999C448.956 166.511 449.474 167.253 450.818 167.253C451.98 167.253 452.512 166.805 452.512 165.783V165.699H454.01V165.825C454.01 167.477 452.736 168.625 450.86 168.625ZM457.107 168.611C455.861 168.611 454.895 167.967 454.895 166.749C454.895 165.601 455.735 164.999 457.219 164.789L459.655 164.425V164.047C459.655 163.011 459.179 162.703 458.087 162.703C456.981 162.703 456.547 163.053 456.547 163.977V164.187H455.091V164.047C455.091 162.493 456.309 161.373 458.171 161.373C460.117 161.373 461.097 162.549 461.097 164.243V168.471H459.697V167.379H459.627C459.221 168.037 458.423 168.611 457.107 168.611ZM456.365 166.637C456.365 167.183 456.715 167.407 457.597 167.407C458.577 167.407 459.655 167.015 459.655 165.615V165.489L457.443 165.825C456.645 165.937 456.365 166.119 456.365 166.637ZM465.375 168.471C463.821 168.471 463.009 167.897 463.009 166.329V162.773H461.847V161.513H463.037L463.359 159.791H464.521V161.513H466.621V162.773H464.521V166.259C464.521 166.987 464.829 167.113 465.767 167.113H466.621V168.345C466.327 168.415 465.851 168.471 465.375 168.471ZM469.017 160.631H467.519L467.505 159.091H469.017V160.631ZM469.031 168.471H467.519V161.471H469.031V168.471ZM473.543 168.611C471.401 168.611 470.071 167.155 470.071 164.985C470.071 162.829 471.401 161.373 473.543 161.373C475.671 161.373 476.959 162.829 476.959 164.985C476.959 167.155 475.671 168.611 473.543 168.611ZM473.543 167.267C474.999 167.267 475.503 166.553 475.503 164.985C475.503 163.431 474.999 162.717 473.543 162.717C472.073 162.717 471.555 163.431 471.555 164.985C471.555 166.553 472.073 167.267 473.543 167.267ZM479.602 168.471H478.09V161.513H479.476V162.815H479.532C479.854 162.073 480.596 161.373 481.954 161.373C483.76 161.373 484.572 162.521 484.572 164.103V168.471H483.06V164.439C483.06 163.193 482.668 162.675 481.394 162.675C480.162 162.675 479.602 163.151 479.602 164.453V168.471Z"
        fill="white" />
    <path
        d="M194.886 271.611C192.156 271.611 190.504 269.707 190.504 266.781C190.504 263.855 192.156 261.951 194.886 261.951C197.406 261.951 198.932 263.351 198.932 265.605V265.689H197.322V265.605C197.322 264.065 196.608 263.407 194.844 263.407C192.898 263.407 192.114 264.345 192.114 266.781C192.114 269.217 192.898 270.155 194.844 270.155C196.608 270.155 197.322 269.497 197.322 267.957V267.873H198.932V267.957C198.932 270.211 197.406 271.611 194.886 271.611ZM203.368 271.611C201.226 271.611 199.896 270.155 199.896 267.985C199.896 265.829 201.226 264.373 203.368 264.373C205.496 264.373 206.784 265.829 206.784 267.985C206.784 270.155 205.496 271.611 203.368 271.611ZM203.368 270.267C204.824 270.267 205.328 269.553 205.328 267.985C205.328 266.431 204.824 265.717 203.368 265.717C201.898 265.717 201.38 266.431 201.38 267.985C201.38 269.553 201.898 270.267 203.368 270.267ZM209.426 271.471H207.914V264.513H209.3V265.815H209.356C209.678 265.073 210.406 264.373 211.736 264.373C212.954 264.373 213.71 264.933 214.046 265.815H214.088C214.41 265.087 215.124 264.373 216.496 264.373C218.288 264.373 219.086 265.521 219.086 267.103V271.471H217.574V267.439C217.574 266.193 217.196 265.675 215.936 265.675C214.788 265.675 214.256 266.151 214.256 267.425V271.471H212.744V267.439C212.744 266.193 212.366 265.675 211.106 265.675C209.958 265.675 209.426 266.151 209.426 267.411V271.471ZM222.045 271.471H220.533V264.513H221.919V265.815H221.975C222.297 265.073 223.025 264.373 224.355 264.373C225.573 264.373 226.329 264.933 226.665 265.815H226.707C227.029 265.087 227.743 264.373 229.115 264.373C230.907 264.373 231.705 265.521 231.705 267.103V271.471H230.193V267.439C230.193 266.193 229.815 265.675 228.555 265.675C227.407 265.675 226.875 266.151 226.875 267.425V271.471H225.363V267.439C225.363 266.193 224.985 265.675 223.725 265.675C222.577 265.675 222.045 266.151 222.045 267.411V271.471ZM235.742 271.611C233.922 271.611 233.11 270.393 233.11 268.811V264.513H234.622V268.545C234.622 269.791 235.098 270.309 236.302 270.309C237.464 270.309 238.122 269.805 238.122 268.433V264.513H239.634V271.471H238.234V270.085H238.178C237.842 270.883 237.1 271.611 235.742 271.611ZM242.635 271.471H241.123V264.513H242.509V265.815H242.565C242.887 265.073 243.629 264.373 244.987 264.373C246.793 264.373 247.605 265.521 247.605 267.103V271.471H246.093V267.439C246.093 266.193 245.701 265.675 244.427 265.675C243.195 265.675 242.635 266.151 242.635 267.453V271.471ZM250.467 263.631H248.969L248.955 262.091H250.467V263.631ZM250.481 271.471H248.969V264.471H250.481V271.471ZM254.726 271.471C253.172 271.471 252.36 270.897 252.36 269.329V265.773H251.198V264.513H252.388L252.71 262.791H253.872V264.513H255.972V265.773H253.872V269.259C253.872 269.987 254.18 270.113 255.118 270.113H255.972V271.345C255.678 271.415 255.202 271.471 254.726 271.471ZM257.94 273.851C257.562 273.851 257.128 273.795 256.89 273.725V272.493H257.842C258.444 272.493 258.654 272.395 258.878 271.877L259.144 271.289L256.19 264.513H257.856L259.256 267.887L259.886 269.399H259.998L260.572 267.887L261.846 264.513H263.512L260.222 272.297C259.704 273.529 259.032 273.851 257.94 273.851ZM273.779 271.471H267.073V262.091H273.779V263.449H268.585V266.067H273.569V267.439H268.585V270.113H273.779V271.471ZM276.596 271.471H275.084V264.513H276.47V265.815H276.526C276.848 265.073 277.59 264.373 278.948 264.373C280.754 264.373 281.566 265.521 281.566 267.103V271.471H280.054V267.439C280.054 266.193 279.662 265.675 278.388 265.675C277.156 265.675 276.596 266.151 276.596 267.453V271.471ZM285.688 270.813C283.77 270.813 282.706 269.553 282.706 267.593C282.706 265.633 283.784 264.373 285.744 264.373C286.864 264.373 287.732 264.849 288.068 265.661H288.124V264.513H289.51V270.967C289.51 273.025 288.306 273.991 286.276 273.991C284.302 273.991 283.07 273.053 283.07 271.373H284.568C284.568 272.325 284.918 272.647 286.318 272.647C287.676 272.647 288.012 272.255 288.012 270.967V269.581H287.956C287.634 270.253 286.822 270.813 285.688 270.813ZM284.218 267.593C284.218 269.021 284.806 269.525 286.122 269.525C287.256 269.525 288.012 268.979 288.012 267.803V267.369C288.012 266.207 287.256 265.661 286.094 265.661C284.792 265.661 284.218 266.165 284.218 267.593ZM292.902 271.611C291.656 271.611 290.69 270.967 290.69 269.749C290.69 268.601 291.53 267.999 293.014 267.789L295.45 267.425V267.047C295.45 266.011 294.974 265.703 293.882 265.703C292.776 265.703 292.342 266.053 292.342 266.977V267.187H290.886V267.047C290.886 265.493 292.104 264.373 293.966 264.373C295.912 264.373 296.892 265.549 296.892 267.243V271.471H295.492V270.379H295.422C295.016 271.037 294.218 271.611 292.902 271.611ZM292.16 269.637C292.16 270.183 292.51 270.407 293.392 270.407C294.372 270.407 295.45 270.015 295.45 268.615V268.489L293.238 268.825C292.44 268.937 292.16 269.119 292.16 269.637ZM301.014 270.813C299.096 270.813 298.032 269.553 298.032 267.593C298.032 265.633 299.11 264.373 301.07 264.373C302.19 264.373 303.058 264.849 303.394 265.661H303.45V264.513H304.836V270.967C304.836 273.025 303.632 273.991 301.602 273.991C299.628 273.991 298.396 273.053 298.396 271.373H299.894C299.894 272.325 300.244 272.647 301.644 272.647C303.002 272.647 303.338 272.255 303.338 270.967V269.581H303.282C302.96 270.253 302.148 270.813 301.014 270.813ZM299.544 267.593C299.544 269.021 300.132 269.525 301.448 269.525C302.582 269.525 303.338 268.979 303.338 267.803V267.369C303.338 266.207 302.582 265.661 301.42 265.661C300.118 265.661 299.544 266.165 299.544 267.593ZM309.35 271.611C307.054 271.611 305.976 270.155 305.976 267.985C305.976 265.829 307.264 264.373 309.336 264.373C311.212 264.373 312.528 265.493 312.528 267.397C312.528 267.761 312.486 268.139 312.444 268.349H307.39C307.446 269.623 307.908 270.267 309.364 270.267C310.526 270.267 310.974 269.875 310.974 269.245V269.133H312.472V269.259C312.472 270.687 311.226 271.611 309.35 271.611ZM309.308 265.647C307.992 265.647 307.488 266.263 307.404 267.341H311.086C311.142 266.151 310.498 265.647 309.308 265.647ZM315.246 271.471H313.734V264.513H315.12V265.815H315.176C315.498 265.073 316.226 264.373 317.556 264.373C318.774 264.373 319.53 264.933 319.866 265.815H319.908C320.23 265.087 320.944 264.373 322.316 264.373C324.108 264.373 324.906 265.521 324.906 267.103V271.471H323.394V267.439C323.394 266.193 323.016 265.675 321.756 265.675C320.608 265.675 320.076 266.151 320.076 267.425V271.471H318.564V267.439C318.564 266.193 318.186 265.675 316.926 265.675C315.778 265.675 315.246 266.151 315.246 267.411V271.471ZM329.42 271.611C327.124 271.611 326.046 270.155 326.046 267.985C326.046 265.829 327.334 264.373 329.406 264.373C331.282 264.373 332.598 265.493 332.598 267.397C332.598 267.761 332.556 268.139 332.514 268.349H327.46C327.516 269.623 327.978 270.267 329.434 270.267C330.596 270.267 331.044 269.875 331.044 269.245V269.133H332.542V269.259C332.542 270.687 331.296 271.611 329.42 271.611ZM329.378 265.647C328.062 265.647 327.558 266.263 327.474 267.341H331.156C331.212 266.151 330.568 265.647 329.378 265.647ZM335.317 271.471H333.805V264.513H335.191V265.815H335.247C335.569 265.073 336.311 264.373 337.669 264.373C339.475 264.373 340.287 265.521 340.287 267.103V271.471H338.775V267.439C338.775 266.193 338.383 265.675 337.109 265.675C335.877 265.675 335.317 266.151 335.317 267.453V271.471ZM344.564 271.471C343.01 271.471 342.198 270.897 342.198 269.329V265.773H341.036V264.513H342.226L342.548 262.791H343.71V264.513H345.81V265.773H343.71V269.259C343.71 269.987 344.018 270.113 344.956 270.113H345.81V271.345C345.516 271.415 345.04 271.471 344.564 271.471Z"
        fill="white" />
    <path
        d="M266.895 210.471H265.313L268.967 201.091H271.137L274.791 210.471H273.153L272.201 208.035H267.847L266.895 210.471ZM269.359 204.199L268.379 206.677H271.669L270.689 204.199L270.087 202.463H269.975L269.359 204.199ZM278.75 210.471H275.418V201.091H278.75C281.648 201.091 283.496 202.883 283.496 205.781C283.496 208.679 281.648 210.471 278.75 210.471ZM278.75 202.449H276.93V209.113H278.75C280.99 209.113 281.886 208.189 281.886 205.781C281.886 203.373 280.99 202.449 278.75 202.449ZM286.172 210.471H284.66V201.091H288.65C290.61 201.091 292.052 202.253 292.052 204.269C292.052 206.285 290.61 207.447 288.65 207.447H286.172V210.471ZM288.832 202.449H286.172V206.089H288.832C290.064 206.089 290.554 205.613 290.554 204.269C290.554 202.925 290.064 202.449 288.832 202.449ZM297.266 210.611C294.536 210.611 292.884 208.707 292.884 205.781C292.884 202.855 294.536 200.951 297.266 200.951C299.786 200.951 301.312 202.351 301.312 204.605V204.689H299.702V204.605C299.702 203.065 298.988 202.407 297.224 202.407C295.278 202.407 294.494 203.345 294.494 205.781C294.494 208.217 295.278 209.155 297.224 209.155C298.988 209.155 299.702 208.497 299.702 206.957V206.873H301.312V206.957C301.312 209.211 299.786 210.611 297.266 210.611ZM263.334 219.333C264.255 219.333 264.927 219.516 265.35 219.884C265.777 220.252 265.99 220.775 265.99 221.452C265.99 221.758 265.941 222.049 265.844 222.326C265.746 222.599 265.586 222.842 265.365 223.053C265.147 223.262 264.859 223.428 264.501 223.551C264.143 223.672 263.703 223.732 263.182 223.732H262.367V226.471H261.366V219.333H263.334ZM263.256 220.172H262.367V222.887H263.075C263.488 222.887 263.835 222.842 264.115 222.75C264.395 222.656 264.607 222.506 264.75 222.301C264.893 222.096 264.965 221.826 264.965 221.491C264.965 221.048 264.826 220.718 264.55 220.5C264.273 220.281 263.842 220.172 263.256 220.172ZM274.572 226.471H273.571V223.175H270.051V226.471H269.05V219.333H270.051V222.311H273.571V219.333H274.572V226.471ZM282.545 226.471L281.754 224.347H278.956L278.174 226.471H277.134L279.859 219.303H280.884L283.594 226.471H282.545ZM281.475 223.478L280.723 221.374C280.7 221.302 280.665 221.194 280.616 221.051C280.57 220.908 280.523 220.76 280.474 220.607C280.429 220.454 280.391 220.327 280.362 220.226C280.329 220.36 280.292 220.501 280.25 220.651C280.207 220.797 280.165 220.936 280.123 221.066C280.084 221.193 280.051 221.295 280.025 221.374L279.263 223.478H281.475ZM290.243 224.552C290.243 224.975 290.137 225.338 289.926 225.641C289.717 225.941 289.423 226.17 289.042 226.33C288.661 226.489 288.209 226.569 287.685 226.569C287.421 226.569 287.169 226.554 286.928 226.525C286.69 226.499 286.469 226.46 286.264 226.408C286.059 226.356 285.873 226.291 285.707 226.212V225.265C285.977 225.376 286.29 225.48 286.645 225.578C286.999 225.672 287.366 225.719 287.743 225.719C288.072 225.719 288.347 225.675 288.568 225.587C288.793 225.496 288.962 225.369 289.076 225.207C289.19 225.044 289.247 224.848 289.247 224.621C289.247 224.393 289.192 224.202 289.081 224.049C288.97 223.893 288.795 223.75 288.554 223.62C288.316 223.489 288.004 223.351 287.616 223.205C287.346 223.107 287.1 222.996 286.879 222.873C286.658 222.746 286.465 222.601 286.303 222.438C286.143 222.275 286.02 222.085 285.932 221.867C285.844 221.645 285.8 221.391 285.8 221.105C285.8 220.711 285.896 220.374 286.088 220.094C286.283 219.814 286.555 219.601 286.903 219.455C287.252 219.305 287.655 219.23 288.114 219.23C288.492 219.23 288.843 219.267 289.169 219.342C289.498 219.417 289.81 219.52 290.106 219.65L289.789 220.48C289.512 220.366 289.234 220.273 288.954 220.202C288.674 220.13 288.384 220.094 288.085 220.094C287.808 220.094 287.574 220.135 287.382 220.216C287.193 220.298 287.048 220.413 286.947 220.563C286.85 220.713 286.801 220.89 286.801 221.095C286.801 221.326 286.853 221.518 286.957 221.671C287.061 221.824 287.226 221.963 287.45 222.086C287.675 222.21 287.968 222.342 288.329 222.482C288.736 222.638 289.081 222.804 289.364 222.98C289.651 223.156 289.869 223.367 290.019 223.615C290.168 223.862 290.243 224.175 290.243 224.552ZM297.263 226.471H293.254V219.333H297.263V220.192H294.255V222.316H297.082V223.166H294.255V225.607H297.263V226.471ZM304.618 226.471V219.333H305.619V226.471H304.618Z"
        fill="#0075AF" />
    <defs>
        <radialGradient id="paint0_radial_7776_8725" cx="0" cy="0" r="1" gradientUnits="userSpaceOnUse"
            gradientTransform="translate(284 210.471) rotate(90) scale(201)">
            <stop offset="0.444" stop-color="#079BFD" stop-opacity="0.2" />
            <stop offset="1" stop-color="white" stop-opacity="0" />
        </radialGradient>
        <linearGradient id="paint1_linear_7776_8725" x1="202.5" y1="127.471" x2="360.5" y2="121.971"
            gradientUnits="userSpaceOnUse">
            <stop stop-color="#70C6FF" />
            <stop offset="1" stop-color="white" />
        </linearGradient>
        <linearGradient id="paint2_linear_7776_8725" x1="350.543" y1="145.131" x2="354.953" y2="271.803"
            gradientUnits="userSpaceOnUse">
            <stop stop-color="#70C6FF" />
            <stop offset="1" stop-color="white" />
        </linearGradient>
        <linearGradient id="paint3_linear_7776_8725" x1="256.317" y1="276.067" x2="215.981" y2="188.109"
            gradientUnits="userSpaceOnUse">
            <stop stop-color="#70C6FF" />
            <stop offset="1" stop-color="white" />
        </linearGradient>
        <linearGradient id="paint4_linear_7776_8725" x1="331.847" y1="217.094" x2="281.289" y2="258.972"
            gradientUnits="userSpaceOnUse">
            <stop stop-color="#70C6FF" />
            <stop offset="1" stop-color="white" />
        </linearGradient>
        <linearGradient id="paint5_linear_7776_8725" x1="284" y1="21.9712" x2="416" y2="21.9712"
            gradientUnits="userSpaceOnUse">
            <stop offset="0.805" stop-color="#0B6699" />
            <stop offset="1" stop-color="#0B6699" stop-opacity="0" />
        </linearGradient>
        <linearGradient id="paint6_linear_7776_8725" x1="355" y1="164.971" x2="523" y2="164.971"
            gradientUnits="userSpaceOnUse">
            <stop offset="0.805" stop-color="#0B6699" />
            <stop offset="1" stop-color="#0B6699" stop-opacity="0" />
        </linearGradient>
        <linearGradient id="paint7_linear_7776_8725" x1="187" y1="267.971" x2="363" y2="267.971"
            gradientUnits="userSpaceOnUse">
            <stop offset="0.805" stop-color="#0B6699" />
            <stop offset="1" stop-color="#0B6699" stop-opacity="0" />
        </linearGradient>
    </defs>
</svg>