<svg width="490" height="421" viewBox="0 0 490 421" fill="none" xmlns="http://www.w3.org/2000/svg">
    <path d="M79.0392 150.626L115.728 129.444L152.416 150.626V192.991L115.728 214.173L79.0392 192.991V150.626Z"
        fill="url(#paint0_linear_7760_9205)" fill-opacity="0.1" />
    <path d="M79.0392 150.626L115.728 129.444L152.416 150.626V192.991L115.728 214.173L79.0392 192.991V150.626Z"
        stroke="url(#paint1_linear_7760_9205)" stroke-width="0.813954" />
    <path d="M79.0392 150.626L115.728 129.444L152.416 150.626V192.991L115.728 214.173L79.0392 192.991V150.626Z"
        stroke="#84D3FF" stroke-width="0.813954" />
    <path d="M116.613 214.878L153.302 193.696L189.991 214.878V257.242L153.302 278.424L116.613 257.242V214.878Z"
        fill="url(#paint2_linear_7760_9205)" fill-opacity="0.1" />
    <path d="M116.613 214.878L153.302 193.696L189.991 214.878V257.242L153.302 278.424L116.613 257.242V214.878Z"
        stroke="url(#paint3_linear_7760_9205)" stroke-width="0.813954" />
    <path d="M116.613 214.878L153.302 193.696L189.991 214.878V257.242L153.302 278.424L116.613 257.242V214.878Z"
        stroke="#84D3FF" stroke-width="0.813954" />
    <path d="M152.684 150.626L189.372 129.444L226.061 150.626V192.991L189.372 214.173L152.684 192.991V150.626Z"
        fill="url(#paint4_linear_7760_9205)" fill-opacity="0.1" />
    <path d="M152.684 150.626L189.372 129.444L226.061 150.626V192.991L189.372 214.173L152.684 192.991V150.626Z"
        stroke="url(#paint5_linear_7760_9205)" stroke-width="0.813954" />
    <path d="M152.684 150.626L189.372 129.444L226.061 150.626V192.991L189.372 214.173L152.684 192.991V150.626Z"
        stroke="#84D3FF" stroke-width="0.813954" />
    <path d="M116.613 86.3748L153.302 65.1926L189.991 86.3748V128.739L153.302 149.921L116.613 128.739V86.3748Z"
        fill="url(#paint6_linear_7760_9205)" fill-opacity="0.1" />
    <path d="M116.613 86.3748L153.302 65.1926L189.991 86.3748V128.739L153.302 149.921L116.613 128.739V86.3748Z"
        stroke="url(#paint7_linear_7760_9205)" stroke-width="0.813954" />
    <path d="M116.613 86.3748L153.302 65.1926L189.991 86.3748V128.739L153.302 149.921L116.613 128.739V86.3748Z"
        stroke="#84D3FF" stroke-width="0.813954" />
    <path d="M190.634 87.1887L227.323 66.0066L264.011 87.1887V129.553L227.323 150.735L190.634 129.553V87.1887Z"
        fill="url(#paint8_linear_7760_9205)" fill-opacity="0.1" />
    <path d="M190.634 87.1887L227.323 66.0066L264.011 87.1887V129.553L227.323 150.735L190.634 129.553V87.1887Z"
        stroke="url(#paint9_linear_7760_9205)" stroke-width="0.813954" />
    <path d="M190.634 87.1887L227.323 66.0066L264.011 87.1887V129.553L227.323 150.735L190.634 129.553V87.1887Z"
        stroke="#84D3FF" stroke-width="0.813954" />
    <path d="M227.08 150.626L263.769 129.444L300.457 150.626V192.991L263.769 214.173L227.08 192.991V150.626Z"
        fill="url(#paint10_linear_7760_9205)" fill-opacity="0.1" />
    <path d="M227.08 150.626L263.769 129.444L300.457 150.626V192.991L263.769 214.173L227.08 192.991V150.626Z"
        stroke="url(#paint11_linear_7760_9205)" stroke-width="0.813954" />
    <path d="M227.08 150.626L263.769 129.444L300.457 150.626V192.991L263.769 214.173L227.08 192.991V150.626Z"
        stroke="#84D3FF" stroke-width="0.813954" />
    <path d="M190.634 214.064L227.323 192.882L264.011 214.064V256.428L227.323 277.61L190.634 256.428V214.064Z"
        fill="url(#paint12_linear_7760_9205)" fill-opacity="0.1" />
    <path d="M190.634 214.064L227.323 192.882L264.011 214.064V256.428L227.323 277.61L190.634 256.428V214.064Z"
        stroke="url(#paint13_linear_7760_9205)" stroke-width="0.813954" />
    <path d="M190.634 214.064L227.323 192.882L264.011 214.064V256.428L227.323 277.61L190.634 256.428V214.064Z"
        stroke="#84D3FF" stroke-width="0.813954" />
    <path d="M264.278 214.878L300.967 193.696L337.656 214.878V257.242L300.967 278.424L264.278 257.242V214.878Z"
        fill="url(#paint14_linear_7760_9205)" fill-opacity="0.1" />
    <path d="M264.278 214.878L300.967 193.696L337.656 214.878V257.242L300.967 278.424L264.278 257.242V214.878Z"
        stroke="url(#paint15_linear_7760_9205)" stroke-width="0.813954" />
    <path d="M264.278 214.878L300.967 193.696L337.656 214.878V257.242L300.967 278.424L264.278 257.242V214.878Z"
        stroke="#84D3FF" stroke-width="0.813954" />
    <path d="M300.725 150.626L337.414 129.444L374.103 150.626V192.991L337.414 214.173L300.725 192.991V150.626Z"
        fill="url(#paint16_linear_7760_9205)" fill-opacity="0.1" />
    <path d="M300.725 150.626L337.414 129.444L374.103 150.626V192.991L337.414 214.173L300.725 192.991V150.626Z"
        stroke="url(#paint17_linear_7760_9205)" stroke-width="0.813954" />
    <path d="M300.725 150.626L337.414 129.444L374.103 150.626V192.991L337.414 214.173L300.725 192.991V150.626Z"
        stroke="#84D3FF" stroke-width="0.813954" />
    <path d="M264.278 86.3748L300.967 65.1926L337.656 86.3748V128.739L300.967 149.921L264.278 128.739V86.3748Z"
        fill="url(#paint18_linear_7760_9205)" fill-opacity="0.1" />
    <path d="M264.278 86.3748L300.967 65.1926L337.656 86.3748V128.739L300.967 149.921L264.278 128.739V86.3748Z"
        stroke="url(#paint19_linear_7760_9205)" stroke-width="0.813954" />
    <path d="M264.278 86.3748L300.967 65.1926L337.656 86.3748V128.739L300.967 149.921L264.278 128.739V86.3748Z"
        stroke="#84D3FF" stroke-width="0.813954" />
    <path d="M301.101 22.1233L337.79 0.941127L374.478 22.1233V64.4877L337.79 85.6699L301.101 64.4877V22.1233Z"
        fill="url(#paint20_linear_7760_9205)" fill-opacity="0.1" />
    <path d="M301.101 22.1233L337.79 0.941127L374.478 22.1233V64.4877L337.79 85.6699L301.101 64.4877V22.1233Z"
        stroke="url(#paint21_linear_7760_9205)" stroke-width="0.813954" />
    <path d="M301.101 22.1233L337.79 0.941127L374.478 22.1233V64.4877L337.79 85.6699L301.101 64.4877V22.1233Z"
        stroke="#84D3FF" stroke-width="0.813954" />
    <path d="M375.122 22.1233L411.81 0.941127L448.499 22.1233V64.4877L411.81 85.6699L375.122 64.4877V22.1233Z"
        fill="url(#paint22_linear_7760_9205)" fill-opacity="0.1" />
    <path d="M375.122 22.1233L411.81 0.941127L448.499 22.1233V64.4877L411.81 85.6699L375.122 64.4877V22.1233Z"
        stroke="url(#paint23_linear_7760_9205)" stroke-width="0.813954" />
    <path d="M375.122 22.1233L411.81 0.941127L448.499 22.1233V64.4877L411.81 85.6699L375.122 64.4877V22.1233Z"
        stroke="#84D3FF" stroke-width="0.813954" />
    <path d="M227.08 278.315L263.769 257.133L300.457 278.315V320.68L263.769 341.862L227.08 320.68V278.315Z"
        fill="url(#paint24_linear_7760_9205)" fill-opacity="0.1" />
    <path d="M227.08 278.315L263.769 257.133L300.457 278.315V320.68L263.769 341.862L227.08 320.68V278.315Z"
        stroke="url(#paint25_linear_7760_9205)" stroke-width="0.813954" />
    <path d="M227.08 278.315L263.769 257.133L300.457 278.315V320.68L263.769 341.862L227.08 320.68V278.315Z"
        stroke="#84D3FF" stroke-width="0.813954" />
    <path d="M300.725 279.129L337.414 257.947L374.103 279.129V321.494L337.414 342.676L300.725 321.494V279.129Z"
        fill="url(#paint26_linear_7760_9205)" fill-opacity="0.1" />
    <path d="M300.725 279.129L337.414 257.947L374.103 279.129V321.494L337.414 342.676L300.725 321.494V279.129Z"
        stroke="url(#paint27_linear_7760_9205)" stroke-width="0.813954" />
    <path d="M300.725 279.129L337.414 257.947L374.103 279.129V321.494L337.414 342.676L300.725 321.494V279.129Z"
        stroke="#84D3FF" stroke-width="0.813954" />
    <path d="M374.746 279.129L411.435 257.947L448.124 279.129V321.494L411.435 342.676L374.746 321.494V279.129Z"
        fill="url(#paint28_linear_7760_9205)" fill-opacity="0.1" />
    <path d="M374.746 279.129L411.435 257.947L448.124 279.129V321.494L411.435 342.676L374.746 321.494V279.129Z"
        stroke="url(#paint29_linear_7760_9205)" stroke-width="0.813954" />
    <path d="M374.746 279.129L411.435 257.947L448.124 279.129V321.494L411.435 342.676L374.746 321.494V279.129Z"
        stroke="#84D3FF" stroke-width="0.813954" />
    <path d="M80.5422 279.129L117.231 257.947L153.919 279.129V321.494L117.231 342.676L80.5422 321.494V279.129Z"
        fill="url(#paint30_linear_7760_9205)" fill-opacity="0.1" />
    <path d="M80.5422 279.129L117.231 257.947L153.919 279.129V321.494L117.231 342.676L80.5422 321.494V279.129Z"
        stroke="url(#paint31_linear_7760_9205)" stroke-width="0.813954" />
    <path d="M80.5422 279.129L117.231 257.947L153.919 279.129V321.494L117.231 342.676L80.5422 321.494V279.129Z"
        stroke="#84D3FF" stroke-width="0.813954" />
    <path d="M6.14569 279.129L42.8343 257.947L79.5229 279.129V321.494L42.8343 342.676L6.14569 321.494V279.129Z"
        fill="url(#paint32_linear_7760_9205)" fill-opacity="0.1" />
    <path d="M6.14569 279.129L42.8343 257.947L79.5229 279.129V321.494L42.8343 342.676L6.14569 321.494V279.129Z"
        stroke="url(#paint33_linear_7760_9205)" stroke-width="0.813954" />
    <path d="M6.14569 279.129L42.8343 257.947L79.5229 279.129V321.494L42.8343 342.676L6.14569 321.494V279.129Z"
        stroke="#84D3FF" stroke-width="0.813954" />
    <path d="M264.535 90.8201V121.75" stroke="#84D3FF" stroke-width="1.62791" />
    <path d="M264.535 90.8201V121.75" stroke="#0B527A" stroke-width="1.62791" />
    <path d="M226.279 157.564V188.494" stroke="#84D3FF" stroke-width="1.62791" />
    <path d="M226.279 157.564V188.494" stroke="#0B527A" stroke-width="1.62791" />
    <path d="M300.349 155.936V186.867" stroke="#84D3FF" stroke-width="1.62791" />
    <path d="M300.349 155.936V186.867" stroke="#0B527A" stroke-width="1.62791" />
    <path d="M337.791 222.68V253.611" stroke="#84D3FF" stroke-width="1.62791" />
    <path d="M337.791 222.68V253.611" stroke="#0B527A" stroke-width="1.62791" />
    <path d="M220.397 147.014L226.686 143.383L232.976 147.014V154.277L226.686 157.908L220.397 154.277V147.014Z"
        fill="url(#paint34_linear_7760_9205)" stroke="url(#paint35_linear_7760_9205)" stroke-width="0.813954" />
    <path d="M257.838 125.038L264.128 121.406L270.418 125.038V132.3L264.128 135.931L257.838 132.3V125.038Z"
        fill="url(#paint36_linear_7760_9205)" stroke="url(#paint37_linear_7760_9205)" stroke-width="0.813954" />
    <path d="M294.466 190.154L300.756 186.522L307.046 190.154V197.416L300.756 201.048L294.466 197.416V190.154Z"
        fill="url(#paint38_linear_7760_9205)" stroke="url(#paint39_linear_7760_9205)" stroke-width="0.813954" />
    <path d="M294.466 147.014L300.756 143.383L307.046 147.014V154.277L300.756 157.908L294.466 154.277V147.014Z"
        fill="url(#paint40_linear_7760_9205)" stroke="url(#paint41_linear_7760_9205)" stroke-width="0.813954" />
    <path d="M220.397 190.154L226.686 186.522L232.976 190.154V197.416L226.686 201.048L220.397 197.416V190.154Z"
        fill="url(#paint42_linear_7760_9205)" stroke="url(#paint43_linear_7760_9205)" stroke-width="0.813954" />
    <path d="M257.838 211.317L264.128 207.685L270.418 211.317V218.579L264.128 222.211L257.838 218.579V211.317Z"
        fill="url(#paint44_linear_7760_9205)" stroke="url(#paint45_linear_7760_9205)" stroke-width="0.813954" />
    <path d="M331.094 254.456L337.384 250.825L343.674 254.456V261.719L337.384 265.35L331.094 261.719V254.456Z"
        fill="url(#paint46_linear_7760_9205)" stroke="url(#paint47_linear_7760_9205)" stroke-width="0.813954" />
    <path d="M331.094 211.317L337.384 207.685L343.674 211.317V218.579L337.384 222.211L331.094 218.579V211.317Z"
        fill="url(#paint48_linear_7760_9205)" stroke="url(#paint49_linear_7760_9205)" stroke-width="0.813954" />
    <path d="M183.769 79.4562L190.058 75.8249L196.348 79.4562V86.7188L190.058 90.3502L183.769 86.7188V79.4562Z"
        fill="url(#paint50_linear_7760_9205)" stroke="url(#paint51_linear_7760_9205)" stroke-width="0.813954" />
    <path d="M183.769 125.038L190.058 121.406L196.348 125.038V132.3L190.058 135.931L183.769 132.3V125.038Z"
        fill="url(#paint52_linear_7760_9205)" stroke="url(#paint53_linear_7760_9205)" stroke-width="0.813954" />
    <path d="M257.838 82.7121L264.128 79.0808L270.418 82.7121V89.9747L264.128 93.606L257.838 89.9747V82.7121Z"
        fill="url(#paint54_linear_7760_9205)" stroke="url(#paint55_linear_7760_9205)" stroke-width="0.813954" />
    <path d="M220.582 146.983L196.163 133.146" stroke="#0092E4" stroke-width="1.62791" />
    <path d="M220.582 146.983L196.163 133.146" stroke="#0B527A" stroke-width="1.62791" />
    <path d="M258.023 133.146L233.605 146.983" stroke="#0092E4" stroke-width="1.62791" />
    <path d="M258.023 133.146L233.605 146.983" stroke="#0B527A" stroke-width="1.62791" />
    <path d="M258.023 211.285L233.605 197.448" stroke="#0092E4" stroke-width="1.62791" />
    <path d="M258.023 211.285L233.605 197.448" stroke="#0B527A" stroke-width="1.62791" />
    <path d="M331.279 210.471L306.861 196.634" stroke="#0092E4" stroke-width="1.62791" />
    <path d="M331.279 210.471L306.861 196.634" stroke="#0B527A" stroke-width="1.62791" />
    <path d="M294.651 146.983L270.233 133.146" stroke="#0092E4" stroke-width="1.62791" />
    <path d="M294.651 146.983L270.233 133.146" stroke="#0B527A" stroke-width="1.62791" />
    <path d="M294.651 196.634L270.233 210.471" stroke="#0092E4" stroke-width="1.62791" />
    <path d="M294.651 196.634L270.233 210.471" stroke="#0B527A" stroke-width="1.62791" />
    <path d="M362.064 171.026L421.221 136.871L480.378 171.026V239.335L421.221 273.49L362.064 239.335V171.026Z"
        fill="url(#paint56_linear_7760_9205)" fill-opacity="0.3" />
    <path d="M362.064 171.026L421.221 136.871L480.378 171.026V239.335L421.221 273.49L362.064 239.335V171.026Z"
        stroke="url(#paint57_linear_7760_9205)" stroke-width="0.813954" />
    <path d="M362.064 171.026L421.221 136.871L480.378 171.026V239.335L421.221 273.49L362.064 239.335V171.026Z"
        stroke="#0092E4" stroke-width="0.813954" />
    <path
        d="M380.914 210.169C377.739 210.169 375.818 207.955 375.818 204.553C375.818 201.15 377.739 198.936 380.914 198.936C383.844 198.936 385.618 200.564 385.618 203.185V203.283H383.746V203.185C383.746 201.394 382.916 200.629 380.865 200.629C378.602 200.629 377.691 201.72 377.691 204.553C377.691 207.385 378.602 208.476 380.865 208.476C382.916 208.476 383.746 207.711 383.746 205.92V205.822H385.618V205.92C385.618 208.541 383.844 210.169 380.914 210.169ZM390.776 210.169C388.285 210.169 386.739 208.476 386.739 205.953C386.739 203.446 388.285 201.753 390.776 201.753C393.251 201.753 394.748 203.446 394.748 205.953C394.748 208.476 393.251 210.169 390.776 210.169ZM390.776 208.606C392.469 208.606 393.055 207.776 393.055 205.953C393.055 204.146 392.469 203.315 390.776 203.315C389.067 203.315 388.465 204.146 388.465 205.953C388.465 207.776 389.067 208.606 390.776 208.606ZM397.837 210.006H396.078V199.099H397.837V210.006ZM401.382 210.006H399.624V199.099H401.382V210.006ZM405.24 210.169C403.791 210.169 402.667 209.42 402.667 208.004C402.667 206.669 403.644 205.969 405.37 205.725L408.202 205.301V204.862C408.202 203.657 407.649 203.299 406.379 203.299C405.093 203.299 404.588 203.706 404.588 204.781V205.025H402.895V204.862C402.895 203.055 404.312 201.753 406.477 201.753C408.74 201.753 409.879 203.12 409.879 205.09V210.006H408.251V208.736H408.17C407.698 209.501 406.77 210.169 405.24 210.169ZM404.377 207.874C404.377 208.508 404.784 208.769 405.809 208.769C406.949 208.769 408.202 208.313 408.202 206.685V206.539L405.63 206.929C404.702 207.06 404.377 207.271 404.377 207.874ZM413.174 210.006H411.563V199.099H413.321V203.201H413.353C413.711 202.469 414.639 201.753 416.072 201.753C418.302 201.753 419.474 203.397 419.474 205.953C419.474 208.525 418.237 210.169 415.974 210.169C414.574 210.169 413.63 209.615 413.239 208.671H413.174V210.006ZM413.321 206.685C413.321 208.036 414.102 208.671 415.518 208.671C417.081 208.671 417.732 207.955 417.732 205.953C417.732 203.967 417.065 203.25 415.518 203.25C414.102 203.25 413.321 203.885 413.321 205.236V206.685ZM424.59 210.169C422.099 210.169 420.553 208.476 420.553 205.953C420.553 203.446 422.099 201.753 424.59 201.753C427.065 201.753 428.562 203.446 428.562 205.953C428.562 208.476 427.065 210.169 424.59 210.169ZM424.59 208.606C426.283 208.606 426.869 207.776 426.869 205.953C426.869 204.146 426.283 203.315 424.59 203.315C422.881 203.315 422.279 204.146 422.279 205.953C422.279 207.776 422.881 208.606 424.59 208.606ZM431.635 210.006H429.877V201.867H431.488V203.153H431.57C431.895 202.404 432.644 201.753 433.832 201.753C435.525 201.753 436.177 202.99 436.177 204.504V205.041H434.418V204.715C434.418 203.641 434.109 203.25 433.084 203.25C432.025 203.25 431.635 203.657 431.635 204.732V210.006ZM439.324 210.169C437.875 210.169 436.752 209.42 436.752 208.004C436.752 206.669 437.729 205.969 439.454 205.725L442.287 205.301V204.862C442.287 203.657 441.733 203.299 440.463 203.299C439.177 203.299 438.673 203.706 438.673 204.781V205.025H436.98V204.862C436.98 203.055 438.396 201.753 440.561 201.753C442.824 201.753 443.963 203.12 443.963 205.09V210.006H442.336V208.736H442.254C441.782 209.501 440.854 210.169 439.324 210.169ZM438.461 207.874C438.461 208.508 438.868 208.769 439.894 208.769C441.033 208.769 442.287 208.313 442.287 206.685V206.539L439.715 206.929C438.787 207.06 438.461 207.271 438.461 207.874ZM448.938 210.006C447.131 210.006 446.186 209.339 446.186 207.515V203.381H444.835V201.915H446.219L446.593 199.913H447.945V201.915H450.386V203.381H447.945V207.434C447.945 208.281 448.303 208.427 449.393 208.427H450.386V209.86C450.045 209.941 449.491 210.006 448.938 210.006ZM453.173 200.89H451.431L451.415 199.099H453.173V200.89ZM453.189 210.006H451.431V201.867H453.189V210.006ZM458.436 210.169C455.945 210.169 454.399 208.476 454.399 205.953C454.399 203.446 455.945 201.753 458.436 201.753C460.91 201.753 462.408 203.446 462.408 205.953C462.408 208.476 460.91 210.169 458.436 210.169ZM458.436 208.606C460.129 208.606 460.715 207.776 460.715 205.953C460.715 204.146 460.129 203.315 458.436 203.315C456.727 203.315 456.124 204.146 456.124 205.953C456.124 207.776 456.727 208.606 458.436 208.606ZM465.481 210.006H463.722V201.915H465.334V203.429H465.399C465.774 202.567 466.636 201.753 468.215 201.753C470.315 201.753 471.26 203.087 471.26 204.927V210.006H469.501V205.318C469.501 203.869 469.046 203.267 467.564 203.267C466.132 203.267 465.481 203.82 465.481 205.334V210.006Z"
        fill="#001F2E" />
    <path d="M165.087 317.538L224.244 283.383L283.402 317.538V385.847L224.244 420.001L165.087 385.847V317.538Z"
        fill="url(#paint58_linear_7760_9205)" fill-opacity="0.3" />
    <path d="M165.087 317.538L224.244 283.383L283.402 317.538V385.847L224.244 420.001L165.087 385.847V317.538Z"
        stroke="url(#paint59_linear_7760_9205)" stroke-width="0.813954" />
    <path d="M165.087 317.538L224.244 283.383L283.402 317.538V385.847L224.244 420.001L165.087 385.847V317.538Z"
        stroke="#0092E4" stroke-width="0.813954" />
    <path
        d="M186.494 355.053C183.352 355.053 181.984 353.604 181.984 351.504V351.227H183.71V351.406C183.71 352.757 184.28 353.441 186.559 353.441C188.17 353.441 188.756 353.002 188.756 351.992C188.756 350.999 188.431 350.641 186.754 350.299L184.898 349.925C183.026 349.567 182.017 348.655 182.017 346.929C182.017 345.318 183.27 343.82 186.087 343.82C189.098 343.82 190.303 345.513 190.303 347.45V347.646H188.577V347.467C188.577 346.132 187.991 345.432 186.038 345.432C184.426 345.432 183.775 345.888 183.775 346.848C183.775 347.841 184.215 348.118 185.712 348.443L187.568 348.834C189.619 349.257 190.515 350.283 190.515 351.927C190.515 353.636 189.277 355.053 186.494 355.053ZM194.869 355.053C192.753 355.053 191.809 353.636 191.809 351.797V346.799H193.567V351.488C193.567 352.936 194.121 353.539 195.521 353.539C196.872 353.539 197.637 352.953 197.637 351.357V346.799H199.395V354.89H197.767V353.278H197.702C197.311 354.206 196.448 355.053 194.869 355.053ZM204.481 355.053C202.12 355.053 200.883 354.125 200.883 352.155V352.122H202.576V352.415C202.576 353.295 202.967 353.62 204.513 353.62C205.816 353.62 206.06 353.327 206.06 352.725C206.06 352.074 205.669 351.878 204.481 351.667L203.227 351.455C201.778 351.195 200.867 350.543 200.867 349.078C200.867 347.613 202.071 346.636 204.188 346.636C206.092 346.636 207.525 347.581 207.525 349.42V349.567H205.848V349.371C205.848 348.622 205.588 348.085 204.139 348.085C202.853 348.085 202.543 348.427 202.543 349.046C202.543 349.664 202.836 349.843 203.976 350.071L205.343 350.332C206.906 350.641 207.72 351.341 207.72 352.676C207.72 354.174 206.532 355.053 204.481 355.053ZM212.429 354.89C210.622 354.89 209.678 354.222 209.678 352.399V348.264H208.327V346.799H209.71L210.085 344.797H211.436V346.799H213.878V348.264H211.436V352.318C211.436 353.164 211.794 353.311 212.885 353.311H213.878V354.743C213.536 354.825 212.983 354.89 212.429 354.89ZM217.25 355.053C215.801 355.053 214.678 354.304 214.678 352.888C214.678 351.553 215.655 350.853 217.381 350.608L220.213 350.185V349.746C220.213 348.541 219.66 348.183 218.39 348.183C217.104 348.183 216.599 348.59 216.599 349.664V349.908H214.906V349.746C214.906 347.939 216.322 346.636 218.488 346.636C220.75 346.636 221.89 348.004 221.89 349.974V354.89H220.262V353.62H220.181C219.708 354.385 218.781 355.053 217.25 355.053ZM216.388 352.757C216.388 353.392 216.795 353.653 217.82 353.653C218.96 353.653 220.213 353.197 220.213 351.569V351.422L217.641 351.813C216.713 351.943 216.388 352.155 216.388 352.757ZM225.218 345.774H223.476L223.459 343.983H225.218V345.774ZM225.234 354.89H223.476V346.75H225.234V354.89ZM228.606 354.89H226.848V346.799H228.46V348.313H228.525C228.899 347.45 229.762 346.636 231.341 346.636C233.441 346.636 234.385 347.971 234.385 349.811V354.89H232.627V350.202C232.627 348.753 232.171 348.15 230.69 348.15C229.258 348.15 228.606 348.704 228.606 350.218V354.89ZM238.251 355.053C236.802 355.053 235.679 354.304 235.679 352.888C235.679 351.553 236.656 350.853 238.381 350.608L241.214 350.185V349.746C241.214 348.541 240.66 348.183 239.391 348.183C238.104 348.183 237.6 348.59 237.6 349.664V349.908H235.907V349.746C235.907 347.939 237.323 346.636 239.488 346.636C241.751 346.636 242.891 348.004 242.891 349.974V354.89H241.263V353.62H241.181C240.709 354.385 239.781 355.053 238.251 355.053ZM237.388 352.757C237.388 353.392 237.795 353.653 238.821 353.653C239.96 353.653 241.214 353.197 241.214 351.569V351.422L238.642 351.813C237.714 351.943 237.388 352.155 237.388 352.757ZM246.186 354.89H244.574V343.983H246.332V348.085H246.365C246.723 347.353 247.651 346.636 249.083 346.636C251.314 346.636 252.486 348.281 252.486 350.836C252.486 353.408 251.248 355.053 248.986 355.053C247.586 355.053 246.641 354.499 246.251 353.555H246.186V354.89ZM246.332 351.569C246.332 352.92 247.114 353.555 248.53 353.555C250.093 353.555 250.744 352.839 250.744 350.836C250.744 348.85 250.076 348.134 248.53 348.134C247.114 348.134 246.332 348.769 246.332 350.12V351.569ZM255.584 354.89H253.826V343.983H255.584V354.89ZM260.842 355.053C258.172 355.053 256.919 353.36 256.919 350.836C256.919 348.329 258.416 346.636 260.826 346.636C263.007 346.636 264.537 347.939 264.537 350.153C264.537 350.576 264.489 351.015 264.44 351.26H258.563C258.628 352.741 259.165 353.49 260.858 353.49C262.209 353.49 262.73 353.034 262.73 352.302V352.171H264.472V352.318C264.472 353.978 263.023 355.053 260.842 355.053ZM260.793 348.118C259.263 348.118 258.677 348.834 258.579 350.088H262.861C262.926 348.704 262.177 348.118 260.793 348.118ZM202.178 375.053C199.085 375.053 197.327 372.904 197.327 369.436C197.327 366.034 199.28 363.82 202.52 363.82C205.434 363.82 207.208 365.383 207.208 367.89V368.004H205.352V367.89C205.352 366.246 204.522 365.513 202.438 365.513C200.143 365.513 199.199 366.604 199.199 369.436C199.199 372.269 200.176 373.36 202.585 373.36C204.587 373.36 205.532 372.774 205.532 371.064V370.804H202.129V369.29H207.225V374.89H205.613V373.181H205.548C205.141 374.174 204.001 375.053 202.178 375.053ZM210.746 374.89H208.987V366.75H210.599V368.036H210.68C211.006 367.288 211.755 366.636 212.943 366.636C214.636 366.636 215.287 367.874 215.287 369.388V369.925H213.529V369.599C213.529 368.525 213.22 368.134 212.194 368.134C211.136 368.134 210.746 368.541 210.746 369.615V374.89ZM220.123 375.053C217.632 375.053 216.086 373.36 216.086 370.836C216.086 368.329 217.632 366.636 220.123 366.636C222.598 366.636 224.095 368.329 224.095 370.836C224.095 373.36 222.598 375.053 220.123 375.053ZM220.123 373.49C221.816 373.49 222.402 372.66 222.402 370.836C222.402 369.029 221.816 368.199 220.123 368.199C218.414 368.199 217.812 369.029 217.812 370.836C217.812 372.66 218.414 373.49 220.123 373.49ZM228.69 374.89H226.394L224.392 366.799H226.297L227.225 371.292L227.55 373.425H227.68L228.218 371.292L229.634 366.799H231.913L233.345 371.308L233.85 373.425H233.98L234.306 371.308L235.25 366.799H237.073L235.071 374.89H232.792L231.343 370.381L230.806 368.346H230.676L230.155 370.381L228.69 374.89ZM241.498 374.89C239.691 374.89 238.747 374.222 238.747 372.399V368.264H237.395V366.799H238.779L239.154 364.797H240.505V366.799H242.947V368.264H240.505V372.318C240.505 373.164 240.863 373.311 241.954 373.311H242.947V374.743C242.605 374.825 242.051 374.89 241.498 374.89ZM245.959 374.89H244.2V363.983H245.959V368.15H246.024C246.398 367.418 247.261 366.636 248.726 366.636C250.842 366.636 251.738 368.02 251.738 369.795V374.89H249.979V370.202C249.979 368.753 249.524 368.15 248.042 368.15C246.61 368.15 245.959 368.704 245.959 370.234V374.89Z"
        fill="#001F2E" />
    <path d="M10.4356 72.5376L69.593 38.383L128.75 72.5376V140.847L69.593 175.001L10.4356 140.847V72.5376Z"
        fill="url(#paint60_linear_7760_9205)" fill-opacity="0.3" />
    <path d="M10.4356 72.5376L69.593 38.383L128.75 72.5376V140.847L69.593 175.001L10.4356 140.847V72.5376Z"
        stroke="url(#paint61_linear_7760_9205)" stroke-width="0.813954" />
    <path d="M10.4356 72.5376L69.593 38.383L128.75 72.5376V140.847L69.593 175.001L10.4356 140.847V72.5376Z"
        stroke="#0092E4" stroke-width="0.813954" />
    <path
        d="M30.1316 109.89H22.3339V98.9829H30.1316V100.562H24.0921V103.606H29.8874V105.202H24.0921V108.311H30.1316V109.89ZM33.4069 109.89H31.6488V101.799H33.2604V103.313H33.3255C33.6999 102.45 34.5464 101.636 36.0929 101.636C37.5092 101.636 38.3883 102.288 38.779 103.313H38.8278C39.2022 102.467 40.0325 101.636 41.6278 101.636C43.7115 101.636 44.6395 102.971 44.6395 104.811V109.89H42.8813V105.202C42.8813 103.753 42.4418 103.15 40.9767 103.15C39.6418 103.15 39.0232 103.704 39.0232 105.185V109.89H37.265V105.202C37.265 103.753 36.8255 103.15 35.3604 103.15C34.0255 103.15 33.4069 103.704 33.4069 105.169V109.89ZM47.9989 112.706H46.2571V101.799H47.8524V103.134H47.9338C48.3082 102.19 49.2361 101.636 50.6361 101.636C52.9152 101.636 54.1687 103.281 54.1687 105.853C54.1687 108.408 52.9478 110.053 50.7501 110.053C49.3012 110.053 48.4059 109.385 48.0478 108.636H47.9989V112.706ZM47.9989 106.569C47.9989 107.92 48.7803 108.555 50.2129 108.555C51.7594 108.555 52.4105 107.839 52.4105 105.853C52.4105 103.85 51.7757 103.134 50.2129 103.134C48.7803 103.134 47.9989 103.769 47.9989 105.12V106.569ZM59.3498 110.053C56.8591 110.053 55.3125 108.36 55.3125 105.836C55.3125 103.329 56.8591 101.636 59.3498 101.636C61.8242 101.636 63.3218 103.329 63.3218 105.836C63.3218 108.36 61.8242 110.053 59.3498 110.053ZM59.3498 108.49C61.0428 108.49 61.6288 107.66 61.6288 105.836C61.6288 104.029 61.0428 103.199 59.3498 103.199C57.6404 103.199 57.0381 104.029 57.0381 105.836C57.0381 107.66 57.6404 108.49 59.3498 108.49ZM67.9162 109.89H65.6209L63.6186 101.799H65.5232L66.4511 106.292L66.7767 108.425H66.9069L67.4441 106.292L68.8604 101.799H71.1395L72.572 106.308L73.0767 108.425H73.2069L73.5325 106.308L74.4767 101.799H76.3L74.2976 109.89H72.0186L70.5697 105.381L70.0325 103.346H69.9023L69.3813 105.381L67.9162 109.89ZM80.4908 110.053C77.821 110.053 76.5675 108.36 76.5675 105.836C76.5675 103.329 78.0652 101.636 80.4745 101.636C82.6559 101.636 84.1861 102.939 84.1861 105.153C84.1861 105.576 84.1373 106.015 84.0885 106.26H78.2117C78.2768 107.741 78.8141 108.49 80.5071 108.49C81.8582 108.49 82.3792 108.034 82.3792 107.302V107.171H84.121V107.318C84.121 108.978 82.6722 110.053 80.4908 110.053ZM80.442 103.118C78.9117 103.118 78.3257 103.834 78.228 105.088H82.5094C82.5745 103.704 81.8257 103.118 80.442 103.118ZM87.3472 109.89H85.5891V101.75H87.2007V103.036H87.2821C87.6077 102.288 88.3565 101.636 89.5449 101.636C91.2379 101.636 91.8891 102.874 91.8891 104.388V104.925H90.1309V104.599C90.1309 103.525 89.8216 103.134 88.796 103.134C87.7379 103.134 87.3472 103.541 87.3472 104.615V109.89ZM94.562 100.774H92.8202L92.8039 98.9829H94.562V100.774ZM94.5783 109.89H92.8202V101.75H94.5783V109.89ZM97.9509 109.89H96.1927V101.799H97.8044V103.313H97.8695C98.2439 102.45 99.1067 101.636 100.686 101.636C102.786 101.636 103.73 102.971 103.73 104.811V109.89H101.972V105.202C101.972 103.753 101.516 103.15 100.035 103.15C98.602 103.15 97.9509 103.704 97.9509 105.218V109.89ZM108.523 109.125C106.293 109.125 105.056 107.66 105.056 105.381C105.056 103.102 106.309 101.636 108.588 101.636C109.891 101.636 110.9 102.19 111.291 103.134H111.356V101.799H112.968V109.304C112.968 111.697 111.568 112.82 109.207 112.82C106.912 112.82 105.479 111.729 105.479 109.776H107.221C107.221 110.883 107.628 111.257 109.256 111.257C110.835 111.257 111.226 110.802 111.226 109.304V107.692H111.161C110.786 108.474 109.842 109.125 108.523 109.125ZM106.814 105.381C106.814 107.041 107.498 107.627 109.028 107.627C110.347 107.627 111.226 106.992 111.226 105.625V105.12C111.226 103.769 110.347 103.134 108.995 103.134C107.481 103.134 106.814 103.72 106.814 105.381ZM32.024 130.053C28.8496 130.053 26.9287 127.839 26.9287 124.436C26.9287 121.034 28.8496 118.82 32.024 118.82C34.9542 118.82 36.7287 120.448 36.7287 123.069V123.167H34.8566V123.069C34.8566 121.278 34.0263 120.513 31.9752 120.513C29.7124 120.513 28.8007 121.604 28.8007 124.436C28.8007 127.269 29.7124 128.36 31.9752 128.36C34.0263 128.36 34.8566 127.595 34.8566 125.804V125.706H36.7287V125.804C36.7287 128.425 34.9542 130.053 32.024 130.053ZM41.8863 130.053C39.3956 130.053 37.8491 128.36 37.8491 125.836C37.8491 123.329 39.3956 121.636 41.8863 121.636C44.3607 121.636 45.8584 123.329 45.8584 125.836C45.8584 128.36 44.3607 130.053 41.8863 130.053ZM41.8863 128.49C43.5793 128.49 44.1654 127.66 44.1654 125.836C44.1654 124.029 43.5793 123.199 41.8863 123.199C40.177 123.199 39.5747 124.029 39.5747 125.836C39.5747 127.66 40.177 128.49 41.8863 128.49ZM48.9308 129.89H47.1727V121.799H48.7843V123.313H48.8494C49.2239 122.45 50.0704 121.636 51.6169 121.636C53.0332 121.636 53.9122 122.288 54.3029 123.313H54.3518C54.7262 122.467 55.5564 121.636 57.1518 121.636C59.2355 121.636 60.1634 122.971 60.1634 124.811V129.89H58.4053V125.202C58.4053 123.753 57.9657 123.15 56.5006 123.15C55.1657 123.15 54.5471 123.704 54.5471 125.185V129.89H52.789V125.202C52.789 123.753 52.3494 123.15 50.8843 123.15C49.5494 123.15 48.9308 123.704 48.9308 125.169V129.89ZM63.6043 129.89H61.8461V121.799H63.4577V123.313H63.5229C63.8973 122.45 64.7438 121.636 66.2903 121.636C67.7066 121.636 68.5856 122.288 68.9763 123.313H69.0252C69.3996 122.467 70.2298 121.636 71.8252 121.636C73.9089 121.636 74.8368 122.971 74.8368 124.811V129.89H73.0787V125.202C73.0787 123.753 72.6391 123.15 71.174 123.15C69.8391 123.15 69.2205 123.704 69.2205 125.185V129.89H67.4624V125.202C67.4624 123.753 67.0229 123.15 65.5577 123.15C64.2229 123.15 63.6043 123.704 63.6043 125.169V129.89ZM79.5312 130.053C77.4149 130.053 76.4707 128.636 76.4707 126.797V121.799H78.2288V126.488C78.2288 127.936 78.7823 128.539 80.1823 128.539C81.5335 128.539 82.2986 127.953 82.2986 126.357V121.799H84.0567V129.89H82.4288V128.278H82.3637C81.973 129.206 81.1102 130.053 79.5312 130.053ZM87.5459 129.89H85.7878V121.799H87.3994V123.313H87.4645C87.839 122.45 88.7017 121.636 90.2808 121.636C92.3808 121.636 93.325 122.971 93.325 124.811V129.89H91.5669V125.202C91.5669 123.753 91.111 123.15 89.6297 123.15C88.1971 123.15 87.5459 123.704 87.5459 125.218V129.89ZM96.6525 120.774H94.9107L94.8944 118.983H96.6525V120.774ZM96.6688 129.89H94.9107V121.75H96.6688V129.89ZM101.606 129.89C99.7987 129.89 98.8545 129.222 98.8545 127.399V123.264H97.5034V121.799H98.8871L99.2615 119.797H100.613V121.799H103.055V123.264H100.613V127.318C100.613 128.164 100.971 128.311 102.062 128.311H103.055V129.743C102.713 129.825 102.159 129.89 101.606 129.89ZM105.342 132.657C104.903 132.657 104.398 132.592 104.121 132.511V131.078H105.228C105.928 131.078 106.173 130.964 106.433 130.362L106.742 129.678L103.307 121.799H105.245L106.873 125.722L107.605 127.481H107.735L108.403 125.722L109.884 121.799H111.821L107.996 130.85C107.394 132.283 106.612 132.657 105.342 132.657Z"
        fill="#001F2E" />
    <defs>
        <linearGradient id="paint0_linear_7760_9205" x1="115.728" y1="128.974" x2="115.728" y2="214.643"
            gradientUnits="userSpaceOnUse">
            <stop stop-color="#12AAFF" />
            <stop offset="1" stop-color="#0B6699" />
        </linearGradient>
        <linearGradient id="paint1_linear_7760_9205" x1="115.728" y1="128.974" x2="115.728" y2="214.643"
            gradientUnits="userSpaceOnUse">
            <stop stop-color="#B2D2FF" />
            <stop offset="1" stop-color="#0070BA" />
        </linearGradient>
        <linearGradient id="paint2_linear_7760_9205" x1="153.302" y1="193.226" x2="153.302" y2="278.894"
            gradientUnits="userSpaceOnUse">
            <stop stop-color="#12AAFF" />
            <stop offset="1" stop-color="#0B6699" />
        </linearGradient>
        <linearGradient id="paint3_linear_7760_9205" x1="153.302" y1="193.226" x2="153.302" y2="278.894"
            gradientUnits="userSpaceOnUse">
            <stop stop-color="#B2D2FF" />
            <stop offset="1" stop-color="#0070BA" />
        </linearGradient>
        <linearGradient id="paint4_linear_7760_9205" x1="189.372" y1="128.974" x2="189.372" y2="214.643"
            gradientUnits="userSpaceOnUse">
            <stop stop-color="#12AAFF" />
            <stop offset="1" stop-color="#0B6699" />
        </linearGradient>
        <linearGradient id="paint5_linear_7760_9205" x1="189.372" y1="128.974" x2="189.372" y2="214.643"
            gradientUnits="userSpaceOnUse">
            <stop stop-color="#B2D2FF" />
            <stop offset="1" stop-color="#0070BA" />
        </linearGradient>
        <linearGradient id="paint6_linear_7760_9205" x1="153.302" y1="64.7227" x2="153.302" y2="150.391"
            gradientUnits="userSpaceOnUse">
            <stop stop-color="#12AAFF" />
            <stop offset="1" stop-color="#0B6699" />
        </linearGradient>
        <linearGradient id="paint7_linear_7760_9205" x1="153.302" y1="64.7227" x2="153.302" y2="150.391"
            gradientUnits="userSpaceOnUse">
            <stop stop-color="#B2D2FF" />
            <stop offset="1" stop-color="#0070BA" />
        </linearGradient>
        <linearGradient id="paint8_linear_7760_9205" x1="227.323" y1="65.5366" x2="227.323" y2="151.205"
            gradientUnits="userSpaceOnUse">
            <stop stop-color="#12AAFF" />
            <stop offset="1" stop-color="#0B6699" />
        </linearGradient>
        <linearGradient id="paint9_linear_7760_9205" x1="227.323" y1="65.5366" x2="227.323" y2="151.205"
            gradientUnits="userSpaceOnUse">
            <stop stop-color="#B2D2FF" />
            <stop offset="1" stop-color="#0070BA" />
        </linearGradient>
        <linearGradient id="paint10_linear_7760_9205" x1="263.769" y1="128.974" x2="263.769" y2="214.643"
            gradientUnits="userSpaceOnUse">
            <stop stop-color="#12AAFF" />
            <stop offset="1" stop-color="#0B6699" />
        </linearGradient>
        <linearGradient id="paint11_linear_7760_9205" x1="263.769" y1="128.974" x2="263.769" y2="214.643"
            gradientUnits="userSpaceOnUse">
            <stop stop-color="#B2D2FF" />
            <stop offset="1" stop-color="#0070BA" />
        </linearGradient>
        <linearGradient id="paint12_linear_7760_9205" x1="227.323" y1="192.412" x2="227.323" y2="278.08"
            gradientUnits="userSpaceOnUse">
            <stop stop-color="#12AAFF" />
            <stop offset="1" stop-color="#0B6699" />
        </linearGradient>
        <linearGradient id="paint13_linear_7760_9205" x1="227.323" y1="192.412" x2="227.323" y2="278.08"
            gradientUnits="userSpaceOnUse">
            <stop stop-color="#B2D2FF" />
            <stop offset="1" stop-color="#0070BA" />
        </linearGradient>
        <linearGradient id="paint14_linear_7760_9205" x1="300.967" y1="193.226" x2="300.967" y2="278.894"
            gradientUnits="userSpaceOnUse">
            <stop stop-color="#12AAFF" />
            <stop offset="1" stop-color="#0B6699" />
        </linearGradient>
        <linearGradient id="paint15_linear_7760_9205" x1="300.967" y1="193.226" x2="300.967" y2="278.894"
            gradientUnits="userSpaceOnUse">
            <stop stop-color="#B2D2FF" />
            <stop offset="1" stop-color="#0070BA" />
        </linearGradient>
        <linearGradient id="paint16_linear_7760_9205" x1="337.414" y1="128.974" x2="337.414" y2="214.643"
            gradientUnits="userSpaceOnUse">
            <stop stop-color="#12AAFF" />
            <stop offset="1" stop-color="#0B6699" />
        </linearGradient>
        <linearGradient id="paint17_linear_7760_9205" x1="337.414" y1="128.974" x2="337.414" y2="214.643"
            gradientUnits="userSpaceOnUse">
            <stop stop-color="#B2D2FF" />
            <stop offset="1" stop-color="#0070BA" />
        </linearGradient>
        <linearGradient id="paint18_linear_7760_9205" x1="300.967" y1="64.7227" x2="300.967" y2="150.391"
            gradientUnits="userSpaceOnUse">
            <stop stop-color="#12AAFF" />
            <stop offset="1" stop-color="#0B6699" />
        </linearGradient>
        <linearGradient id="paint19_linear_7760_9205" x1="300.967" y1="64.7227" x2="300.967" y2="150.391"
            gradientUnits="userSpaceOnUse">
            <stop stop-color="#B2D2FF" />
            <stop offset="1" stop-color="#0070BA" />
        </linearGradient>
        <linearGradient id="paint20_linear_7760_9205" x1="337.79" y1="0.471191" x2="337.79" y2="86.1398"
            gradientUnits="userSpaceOnUse">
            <stop stop-color="#12AAFF" />
            <stop offset="1" stop-color="#0B6699" />
        </linearGradient>
        <linearGradient id="paint21_linear_7760_9205" x1="337.79" y1="0.471191" x2="337.79" y2="86.1398"
            gradientUnits="userSpaceOnUse">
            <stop stop-color="#B2D2FF" />
            <stop offset="1" stop-color="#0070BA" />
        </linearGradient>
        <linearGradient id="paint22_linear_7760_9205" x1="411.81" y1="0.471191" x2="411.81" y2="86.1398"
            gradientUnits="userSpaceOnUse">
            <stop stop-color="#12AAFF" />
            <stop offset="1" stop-color="#0B6699" />
        </linearGradient>
        <linearGradient id="paint23_linear_7760_9205" x1="411.81" y1="0.471191" x2="411.81" y2="86.1398"
            gradientUnits="userSpaceOnUse">
            <stop stop-color="#B2D2FF" />
            <stop offset="1" stop-color="#0070BA" />
        </linearGradient>
        <linearGradient id="paint24_linear_7760_9205" x1="263.769" y1="256.663" x2="263.769" y2="342.332"
            gradientUnits="userSpaceOnUse">
            <stop stop-color="#12AAFF" />
            <stop offset="1" stop-color="#0B6699" />
        </linearGradient>
        <linearGradient id="paint25_linear_7760_9205" x1="263.769" y1="256.663" x2="263.769" y2="342.332"
            gradientUnits="userSpaceOnUse">
            <stop stop-color="#B2D2FF" />
            <stop offset="1" stop-color="#0070BA" />
        </linearGradient>
        <linearGradient id="paint26_linear_7760_9205" x1="337.414" y1="257.477" x2="337.414" y2="343.146"
            gradientUnits="userSpaceOnUse">
            <stop stop-color="#12AAFF" />
            <stop offset="1" stop-color="#0B6699" />
        </linearGradient>
        <linearGradient id="paint27_linear_7760_9205" x1="337.414" y1="257.477" x2="337.414" y2="343.146"
            gradientUnits="userSpaceOnUse">
            <stop stop-color="#B2D2FF" />
            <stop offset="1" stop-color="#0070BA" />
        </linearGradient>
        <linearGradient id="paint28_linear_7760_9205" x1="411.435" y1="257.477" x2="411.435" y2="343.146"
            gradientUnits="userSpaceOnUse">
            <stop stop-color="#12AAFF" />
            <stop offset="1" stop-color="#0B6699" />
        </linearGradient>
        <linearGradient id="paint29_linear_7760_9205" x1="411.435" y1="257.477" x2="411.435" y2="343.146"
            gradientUnits="userSpaceOnUse">
            <stop stop-color="#B2D2FF" />
            <stop offset="1" stop-color="#0070BA" />
        </linearGradient>
        <linearGradient id="paint30_linear_7760_9205" x1="117.231" y1="257.477" x2="117.231" y2="343.146"
            gradientUnits="userSpaceOnUse">
            <stop stop-color="#12AAFF" />
            <stop offset="1" stop-color="#0B6699" />
        </linearGradient>
        <linearGradient id="paint31_linear_7760_9205" x1="117.231" y1="257.477" x2="117.231" y2="343.146"
            gradientUnits="userSpaceOnUse">
            <stop stop-color="#B2D2FF" />
            <stop offset="1" stop-color="#0070BA" />
        </linearGradient>
        <linearGradient id="paint32_linear_7760_9205" x1="42.8343" y1="257.477" x2="42.8343" y2="343.146"
            gradientUnits="userSpaceOnUse">
            <stop stop-color="#12AAFF" />
            <stop offset="1" stop-color="#0B6699" />
        </linearGradient>
        <linearGradient id="paint33_linear_7760_9205" x1="42.8343" y1="257.477" x2="42.8343" y2="343.146"
            gradientUnits="userSpaceOnUse">
            <stop stop-color="#B2D2FF" />
            <stop offset="1" stop-color="#0070BA" />
        </linearGradient>
        <linearGradient id="paint34_linear_7760_9205" x1="226.686" y1="142.913" x2="226.686" y2="158.378"
            gradientUnits="userSpaceOnUse">
            <stop stop-color="#0075AF" />
            <stop offset="1" stop-color="#003149" />
        </linearGradient>
        <linearGradient id="paint35_linear_7760_9205" x1="226.686" y1="142.913" x2="226.686" y2="158.378"
            gradientUnits="userSpaceOnUse">
            <stop stop-color="white" />
            <stop offset="1" stop-color="#999999" />
        </linearGradient>
        <linearGradient id="paint36_linear_7760_9205" x1="264.128" y1="120.936" x2="264.128" y2="136.401"
            gradientUnits="userSpaceOnUse">
            <stop stop-color="#0075AF" />
            <stop offset="1" stop-color="#003149" />
        </linearGradient>
        <linearGradient id="paint37_linear_7760_9205" x1="264.128" y1="120.936" x2="264.128" y2="136.401"
            gradientUnits="userSpaceOnUse">
            <stop stop-color="white" />
            <stop offset="1" stop-color="#999999" />
        </linearGradient>
        <linearGradient id="paint38_linear_7760_9205" x1="300.756" y1="186.052" x2="300.756" y2="201.518"
            gradientUnits="userSpaceOnUse">
            <stop stop-color="#0075AF" />
            <stop offset="1" stop-color="#003149" />
        </linearGradient>
        <linearGradient id="paint39_linear_7760_9205" x1="300.756" y1="186.052" x2="300.756" y2="201.518"
            gradientUnits="userSpaceOnUse">
            <stop stop-color="white" />
            <stop offset="1" stop-color="#999999" />
        </linearGradient>
        <linearGradient id="paint40_linear_7760_9205" x1="300.756" y1="142.913" x2="300.756" y2="158.378"
            gradientUnits="userSpaceOnUse">
            <stop stop-color="#0075AF" />
            <stop offset="1" stop-color="#003149" />
        </linearGradient>
        <linearGradient id="paint41_linear_7760_9205" x1="300.756" y1="142.913" x2="300.756" y2="158.378"
            gradientUnits="userSpaceOnUse">
            <stop stop-color="white" />
            <stop offset="1" stop-color="#999999" />
        </linearGradient>
        <linearGradient id="paint42_linear_7760_9205" x1="226.686" y1="186.052" x2="226.686" y2="201.518"
            gradientUnits="userSpaceOnUse">
            <stop stop-color="#0075AF" />
            <stop offset="1" stop-color="#003149" />
        </linearGradient>
        <linearGradient id="paint43_linear_7760_9205" x1="226.686" y1="186.052" x2="226.686" y2="201.518"
            gradientUnits="userSpaceOnUse">
            <stop stop-color="white" />
            <stop offset="1" stop-color="#999999" />
        </linearGradient>
        <linearGradient id="paint44_linear_7760_9205" x1="264.128" y1="207.215" x2="264.128" y2="222.68"
            gradientUnits="userSpaceOnUse">
            <stop stop-color="#0075AF" />
            <stop offset="1" stop-color="#003149" />
        </linearGradient>
        <linearGradient id="paint45_linear_7760_9205" x1="264.128" y1="207.215" x2="264.128" y2="222.68"
            gradientUnits="userSpaceOnUse">
            <stop stop-color="white" />
            <stop offset="1" stop-color="#999999" />
        </linearGradient>
        <linearGradient id="paint46_linear_7760_9205" x1="337.384" y1="250.355" x2="337.384" y2="265.82"
            gradientUnits="userSpaceOnUse">
            <stop stop-color="#0075AF" />
            <stop offset="1" stop-color="#003149" />
        </linearGradient>
        <linearGradient id="paint47_linear_7760_9205" x1="337.384" y1="250.355" x2="337.384" y2="265.82"
            gradientUnits="userSpaceOnUse">
            <stop stop-color="white" />
            <stop offset="1" stop-color="#999999" />
        </linearGradient>
        <linearGradient id="paint48_linear_7760_9205" x1="337.384" y1="207.215" x2="337.384" y2="222.68"
            gradientUnits="userSpaceOnUse">
            <stop stop-color="#0075AF" />
            <stop offset="1" stop-color="#003149" />
        </linearGradient>
        <linearGradient id="paint49_linear_7760_9205" x1="337.384" y1="207.215" x2="337.384" y2="222.68"
            gradientUnits="userSpaceOnUse">
            <stop stop-color="white" />
            <stop offset="1" stop-color="#999999" />
        </linearGradient>
        <linearGradient id="paint50_linear_7760_9205" x1="190.058" y1="75.355" x2="190.058" y2="90.8201"
            gradientUnits="userSpaceOnUse">
            <stop stop-color="#0075AF" />
            <stop offset="1" stop-color="#003149" />
        </linearGradient>
        <linearGradient id="paint51_linear_7760_9205" x1="190.058" y1="75.355" x2="190.058" y2="90.8201"
            gradientUnits="userSpaceOnUse">
            <stop stop-color="white" />
            <stop offset="1" stop-color="#999999" />
        </linearGradient>
        <linearGradient id="paint52_linear_7760_9205" x1="190.058" y1="120.936" x2="190.058" y2="136.401"
            gradientUnits="userSpaceOnUse">
            <stop stop-color="#0075AF" />
            <stop offset="1" stop-color="#003149" />
        </linearGradient>
        <linearGradient id="paint53_linear_7760_9205" x1="190.058" y1="120.936" x2="190.058" y2="136.401"
            gradientUnits="userSpaceOnUse">
            <stop stop-color="white" />
            <stop offset="1" stop-color="#999999" />
        </linearGradient>
        <linearGradient id="paint54_linear_7760_9205" x1="264.128" y1="78.6108" x2="264.128" y2="94.076"
            gradientUnits="userSpaceOnUse">
            <stop stop-color="#0075AF" />
            <stop offset="1" stop-color="#003149" />
        </linearGradient>
        <linearGradient id="paint55_linear_7760_9205" x1="264.128" y1="78.6108" x2="264.128" y2="94.076"
            gradientUnits="userSpaceOnUse">
            <stop stop-color="white" />
            <stop offset="1" stop-color="#999999" />
        </linearGradient>
        <linearGradient id="paint56_linear_7760_9205" x1="421.221" y1="136.401" x2="421.221" y2="273.96"
            gradientUnits="userSpaceOnUse">
            <stop stop-color="#12AAFF" />
            <stop offset="1" stop-color="#0B6699" />
        </linearGradient>
        <linearGradient id="paint57_linear_7760_9205" x1="421.221" y1="136.401" x2="421.221" y2="273.96"
            gradientUnits="userSpaceOnUse">
            <stop stop-color="#0099E5" />
            <stop offset="1" stop-color="#0075C3" />
        </linearGradient>
        <linearGradient id="paint58_linear_7760_9205" x1="224.244" y1="282.913" x2="224.244" y2="420.471"
            gradientUnits="userSpaceOnUse">
            <stop stop-color="#12AAFF" />
            <stop offset="1" stop-color="#0B6699" />
        </linearGradient>
        <linearGradient id="paint59_linear_7760_9205" x1="224.244" y1="282.913" x2="224.244" y2="420.471"
            gradientUnits="userSpaceOnUse">
            <stop stop-color="#0099E5" />
            <stop offset="1" stop-color="#0075C3" />
        </linearGradient>
        <linearGradient id="paint60_linear_7760_9205" x1="69.593" y1="37.9131" x2="69.593" y2="175.471"
            gradientUnits="userSpaceOnUse">
            <stop stop-color="#12AAFF" />
            <stop offset="1" stop-color="#0B6699" />
        </linearGradient>
        <linearGradient id="paint61_linear_7760_9205" x1="69.593" y1="37.9131" x2="69.593" y2="175.471"
            gradientUnits="userSpaceOnUse">
            <stop stop-color="#0099E5" />
            <stop offset="1" stop-color="#0075C3" />
        </linearGradient>
    </defs>
</svg>