<svg width="524" height="314" viewBox="0 0 524 314" fill="none" xmlns="http://www.w3.org/2000/svg">
    <g opacity="0.7">
        <rect x="0.42409" y="0.273623" width="275.441" height="82.5719" rx="7.53393"
            transform="matrix(0.999986 -0.00533541 0.40728 0.913303 93.6395 124.848)"
            fill="url(#paint0_linear_7760_8821)" fill-opacity="0.8" />
        <rect x="0.42409" y="0.273623" width="275.441" height="82.5719" rx="7.53393"
            transform="matrix(0.999986 -0.00533541 0.40728 0.913303 93.6395 124.848)"
            stroke="url(#paint1_linear_7760_8821)" stroke-width="0.602715" />
    </g>
    <g opacity="0.5">
        <rect x="0.42409" y="0.273623" width="275.441" height="82.5719" rx="7.53393"
            transform="matrix(0.999986 -0.00533541 0.40728 0.913303 91.9652 131.263)"
            fill="url(#paint2_linear_7760_8821)" fill-opacity="0.8" />
        <rect x="0.42409" y="0.273623" width="275.441" height="82.5719" rx="7.53393"
            transform="matrix(0.999986 -0.00533541 0.40728 0.913303 91.9652 131.263)"
            stroke="url(#paint3_linear_7760_8821)" stroke-width="0.602715" />
    </g>
    <g opacity="0.2">
        <rect x="0.40898" y="0.279607" width="299.997" height="102.685" rx="7.53393"
            transform="matrix(0.999981 -0.00622253 0.357147 0.934048 78.1814 121.205)"
            stroke="url(#paint4_linear_7760_8821)" stroke-width="0.602715" />
    </g>
    <g opacity="0.2">
        <rect x="0.40898" y="0.279607" width="314.162" height="114.839" rx="7.53393"
            transform="matrix(0.999981 -0.00622253 0.357147 0.934048 68.9309 115.572)"
            stroke="url(#paint5_linear_7760_8821)" stroke-width="0.602715" />
    </g>
    <g opacity="0.2">
        <rect x="0.40898" y="0.279607" width="329.387" height="134.378" rx="7.53393"
            transform="matrix(0.999981 -0.00622253 0.357147 0.934049 57.824 106.494)"
            stroke="url(#paint6_linear_7760_8821)" stroke-width="0.602715" />
    </g>
    <rect x="0.42409" y="0.273623" width="275.441" height="83.3547" rx="7.53393"
        transform="matrix(0.999986 -0.00533541 0.40728 0.913303 97.4442 110.268)" fill="url(#paint7_linear_7760_8821)"
        fill-opacity="0.8" />
    <rect x="0.42409" y="0.273623" width="275.441" height="83.3547" rx="7.53393"
        transform="matrix(0.999986 -0.00533541 0.40728 0.913303 97.4442 110.268)" stroke="url(#paint8_linear_7760_8821)"
        stroke-width="0.602715" />
    <path
        d="M183.919 143.177L181.467 143.19L181.21 129.883L184.573 129.865L196.157 143.112L193.618 143.125L185.84 134.268L183.803 131.796L183.629 131.797L183.779 134.279L183.919 143.177ZM191.885 139.678L182.729 139.727L181.871 137.805L191.028 137.756L191.885 139.678ZM199.682 143.093L197.339 143.106L192.921 133.197L195.069 133.186L196.297 135.94L196.536 136.038L199.682 143.093ZM196.819 136.673L196.277 136.675L195.42 134.753L195.875 134.751C195.886 134.287 196.064 133.889 196.408 133.556C196.761 133.21 197.336 133.035 198.131 133.03C198.898 133.026 199.573 133.175 200.157 133.477C200.755 133.778 201.268 134.179 201.694 134.68C202.12 135.181 202.472 135.742 202.749 136.363L203.041 137.017L200.697 137.029L200.521 136.633C200.226 135.972 199.897 135.511 199.533 135.248C199.169 134.985 198.648 134.855 197.968 134.859C197.259 134.863 196.815 135.004 196.635 135.283C196.463 135.549 196.525 136.012 196.819 136.673ZM213.203 143.22C212.262 143.225 211.418 143.07 210.669 142.756C209.914 142.429 209.273 141.983 208.744 141.416L208.31 141.418L207.363 139L207.775 138.998C208.016 139.539 208.325 139.988 208.701 140.344C209.092 140.699 209.545 140.968 210.062 141.151C210.587 141.32 211.16 141.403 211.782 141.4C212.303 141.397 212.717 141.335 213.026 141.214C213.349 141.093 213.578 140.907 213.712 140.654C213.84 140.389 213.86 140.045 213.773 139.621C213.694 139.185 213.522 138.669 213.257 138.075C212.986 137.467 212.699 136.952 212.394 136.53C212.104 136.108 211.781 135.772 211.423 135.522C211.079 135.272 210.693 135.089 210.264 134.972C209.835 134.855 209.36 134.798 208.839 134.801C208.217 134.804 207.72 134.893 207.349 135.067C206.991 135.241 206.776 135.507 206.704 135.865C206.646 136.223 206.741 136.679 206.988 137.234L206.576 137.236L205.341 134.76L205.949 134.757C205.98 134.306 206.22 133.901 206.668 133.541C207.125 133.168 207.824 132.979 208.764 132.974C210.254 132.966 211.588 133.422 212.767 134.343C213.961 135.263 214.905 136.503 215.6 138.062C216.296 139.621 216.447 140.872 216.056 141.814C215.672 142.743 214.721 143.212 213.203 143.22ZM209.382 143.041L207.234 143.053L201.313 129.776L203.657 129.763L208.42 140.444L208.34 140.703L209.382 143.041ZM216.809 131.878L214.487 131.89L213.493 129.711L215.837 129.698L216.809 131.878ZM221.779 142.975L219.436 142.988L215.017 133.079L217.361 133.067L221.779 142.975ZM228.359 142.94C227.173 142.946 226.159 142.72 225.316 142.261C224.488 141.802 223.829 141.024 223.34 139.928L220.398 133.329L219.756 130.67L221.557 130.661L225.64 139.816C225.869 140.331 226.154 140.661 226.494 140.805C226.842 140.935 227.385 140.999 228.123 140.995L229.424 140.988L230.211 142.751C230.018 142.805 229.756 142.853 229.427 142.895C229.091 142.923 228.735 142.938 228.359 142.94ZM226.694 134.864L219.295 134.904L218.5 133.12L225.898 133.081L226.694 134.864ZM234.241 142.909L231.898 142.921L227.48 133.013L229.628 133.001L230.856 135.756L231.095 135.854L234.241 142.909ZM231.378 136.488L230.836 136.491L229.979 134.569L230.434 134.566C230.445 134.103 230.623 133.705 230.967 133.372C231.32 133.026 231.895 132.85 232.69 132.846C233.457 132.842 234.132 132.991 234.716 133.292C235.314 133.594 235.827 133.995 236.253 134.496C236.68 134.997 237.031 135.558 237.308 136.178L237.6 136.832L235.256 136.845L235.08 136.449C234.785 135.788 234.456 135.326 234.092 135.063C233.728 134.8 233.207 134.671 232.527 134.674C231.818 134.678 231.374 134.82 231.194 135.099C231.022 135.364 231.084 135.828 231.378 136.488ZM245.853 143.045C244.928 143.05 244.084 142.883 243.324 142.542C242.557 142.189 241.897 141.716 241.342 141.123C240.782 140.517 240.337 139.844 240.007 139.104L237.294 133.02L239.637 133.008L242.173 138.695C242.568 139.58 243.056 140.22 243.638 140.614C244.22 141.008 244.974 141.203 245.899 141.198C246.507 141.195 246.982 141.106 247.325 140.932C247.662 140.745 247.854 140.459 247.9 140.075C247.94 139.677 247.819 139.161 247.536 138.527L248.143 138.524L249.186 140.862L248.665 140.865C248.671 141.236 248.582 141.587 248.396 141.919C248.225 142.251 247.934 142.524 247.522 142.739C247.118 142.939 246.562 143.042 245.853 143.045ZM251.797 142.815L249.627 142.827L248.31 139.874L248.093 139.776L245.062 132.979L247.405 132.966L251.797 142.815ZM271.419 142.71L269.075 142.723L266.521 136.996C266.133 136.124 265.672 135.497 265.139 135.116C264.616 134.722 263.862 134.527 262.878 134.532C261.996 134.537 261.423 134.732 261.16 135.118C260.905 135.49 260.978 136.125 261.379 137.023L260.985 137.065L259.755 134.748L260.102 134.746C260.123 134.401 260.217 134.076 260.385 133.771C260.562 133.452 260.852 133.192 261.256 132.992C261.659 132.791 262.215 132.689 262.924 132.685C263.864 132.68 264.697 132.841 265.423 133.168C266.164 133.495 266.801 133.949 267.335 134.528C267.883 135.108 268.326 135.775 268.661 136.528L271.419 142.71ZM256.447 142.79L254.104 142.803L249.712 132.954L251.86 132.942L253.177 135.895L253.416 135.993L256.447 142.79ZM263.933 142.75L261.59 142.763L259.036 137.036C258.647 136.164 258.186 135.537 257.654 135.156C257.13 134.762 256.376 134.567 255.393 134.572C254.51 134.577 253.934 134.765 253.666 135.138C253.411 135.51 253.484 136.145 253.885 137.043L253.499 137.105L252.27 134.788L252.79 134.785C252.79 134.427 252.875 134.096 253.043 133.79C253.226 133.485 253.519 133.232 253.922 133.031C254.326 132.83 254.867 132.728 255.547 132.724C256.458 132.719 257.27 132.88 257.981 133.208C258.707 133.535 259.337 133.988 259.871 134.568C260.405 135.148 260.84 135.815 261.176 136.568L263.933 142.75ZM282.98 142.649L278.575 142.672L277.709 140.73L282.114 140.707C283.271 140.7 284.136 140.544 284.71 140.236C285.297 139.928 285.597 139.43 285.609 138.741C285.63 138.039 285.386 137.12 284.88 135.984C284.373 134.848 283.8 133.937 283.161 133.252C282.531 132.554 281.786 132.054 280.927 131.754C280.077 131.441 279.074 131.288 277.916 131.294L273.512 131.317L272.655 129.395L277.059 129.372C278.563 129.364 279.986 129.627 281.327 130.163C282.676 130.686 283.869 131.441 284.904 132.428C285.938 133.416 286.762 134.597 287.375 135.971C287.988 137.345 288.218 138.529 288.067 139.523C287.916 140.517 287.404 141.288 286.532 141.835C285.668 142.369 284.484 142.641 282.98 142.649ZM280.159 142.664L277.816 142.676L271.895 129.399L274.238 129.387L280.159 142.664ZM292.851 142.596L290.399 142.609L290.142 129.302L293.505 129.284L305.089 142.531L302.55 142.544L294.772 133.687L292.735 131.215L292.561 131.216L292.711 133.698L292.851 142.596ZM300.817 139.097L291.661 139.146L290.804 137.224L299.96 137.175L300.817 139.097ZM312.125 142.692C310.751 142.699 309.427 142.428 308.152 141.879C306.886 141.316 305.744 140.528 304.727 139.513C303.717 138.486 302.904 137.278 302.285 135.891C301.666 134.504 301.405 133.3 301.501 132.28C301.606 131.247 302.041 130.45 302.806 129.89C303.579 129.316 304.653 129.026 306.027 129.018C307.416 129.011 308.743 129.289 310.009 129.851C311.269 130.401 312.404 131.189 313.413 132.217C314.416 133.231 315.227 134.432 315.846 135.819C316.464 137.206 316.729 138.416 316.639 139.45C316.543 140.47 316.115 141.267 315.356 141.84C314.591 142.401 313.514 142.684 312.125 142.692ZM311.197 140.611C312.21 140.606 312.959 140.449 313.446 140.142C313.926 139.822 314.155 139.311 314.132 138.609C314.124 137.907 313.863 136.982 313.351 135.832C312.832 134.67 312.268 133.746 311.658 133.06C311.056 132.362 310.374 131.856 309.61 131.542C308.847 131.228 307.959 131.074 306.947 131.079C305.948 131.085 305.202 131.248 304.707 131.568C304.212 131.888 303.968 132.4 303.977 133.101C303.994 133.79 304.262 134.715 304.78 135.878C305.293 137.027 305.85 137.951 306.451 138.65C307.067 139.349 307.764 139.855 308.542 140.168C309.314 140.469 310.199 140.616 311.197 140.611ZM143.522 161.074L138.228 161.102L137.371 159.18L142.947 159.15C143.902 159.145 144.496 158.95 144.73 158.564C144.979 158.179 144.891 157.511 144.467 156.56C144.043 155.608 143.536 154.942 142.945 154.561C142.369 154.18 141.604 153.992 140.649 153.998L135.073 154.027L134.216 152.105L139.51 152.077C140.523 152.071 141.506 152.245 142.461 152.597C143.416 152.95 144.267 153.462 145.016 154.133C145.774 154.791 146.365 155.596 146.789 156.547C147.213 157.498 147.344 158.312 147.181 158.988C147.033 159.664 146.641 160.183 146.005 160.544C145.362 160.892 144.535 161.068 143.522 161.074ZM141.591 165.375L139.247 165.387L133.326 152.11L135.67 152.097L141.591 165.375ZM154.599 165.305L152.256 165.318L147.837 155.409L149.985 155.398L151.214 158.152L151.453 158.25L154.599 165.305ZM151.736 158.885L151.193 158.887L150.336 156.965L150.792 156.963C150.803 156.499 150.98 156.101 151.325 155.768C151.678 155.422 152.252 155.247 153.048 155.242C153.814 155.238 154.49 155.387 155.074 155.689C155.672 155.99 156.184 156.391 156.611 156.892C157.037 157.393 157.389 157.954 157.666 158.575L157.957 159.229L155.614 159.241L155.437 158.845C155.143 158.184 154.814 157.723 154.45 157.46C154.086 157.197 153.564 157.067 152.884 157.071C152.176 157.075 151.731 157.216 151.551 157.495C151.38 157.761 151.441 158.224 151.736 158.885ZM167.186 165.437C166.087 165.442 165.038 165.236 164.039 164.818C163.035 164.386 162.145 163.788 161.369 163.024C160.588 162.247 159.97 161.35 159.517 160.333C159.063 159.316 158.882 158.423 158.974 157.654C159.067 156.886 159.424 156.288 160.045 155.861C160.661 155.42 161.518 155.197 162.618 155.191C163.717 155.186 164.754 155.398 165.73 155.83C166.714 156.249 167.587 156.84 168.348 157.604C169.123 158.368 169.738 159.259 170.192 160.276C170.645 161.293 170.829 162.193 170.743 162.974C170.665 163.743 170.325 164.347 169.724 164.787C169.132 165.214 168.286 165.431 167.186 165.437ZM166.338 163.534C167.466 163.528 168.14 163.266 168.358 162.749C168.571 162.218 168.43 161.398 167.935 160.288C167.44 159.178 166.854 158.367 166.176 157.854C165.497 157.341 164.594 157.088 163.466 157.094C162.323 157.1 161.642 157.362 161.424 157.879C161.205 158.397 161.343 159.211 161.838 160.32C162.333 161.43 162.923 162.248 163.607 162.774C164.285 163.287 165.195 163.54 166.338 163.534ZM179.186 165.392C178.057 165.398 177.005 165.186 176.03 164.754C175.054 164.322 174.186 163.724 173.425 162.96C172.678 162.196 172.078 161.305 171.624 160.288C171.171 159.271 170.983 158.378 171.06 157.609C171.147 156.828 171.494 156.223 172.101 155.796C172.702 155.356 173.566 155.133 174.695 155.127C175.649 155.122 176.562 155.283 177.433 155.609C178.303 155.935 179.066 156.395 179.722 156.987C180.392 157.58 180.904 158.272 181.257 159.065L181.337 159.243L179.015 159.255L178.962 159.137C178.638 158.41 178.185 157.883 177.604 157.555C177.032 157.213 176.297 157.045 175.4 157.05C174.359 157.056 173.734 157.33 173.528 157.874C173.329 158.405 173.466 159.199 173.937 160.256C174.414 161.326 174.991 162.131 175.666 162.67C176.35 163.196 177.213 163.456 178.254 163.451C179.151 163.446 179.736 163.277 180.008 162.945C180.289 162.599 180.27 162.069 179.952 161.356L179.899 161.237L182.221 161.225L182.3 161.403C182.642 162.169 182.746 162.857 182.612 163.467C182.472 164.064 182.109 164.536 181.525 164.883C180.949 165.217 180.169 165.387 179.186 165.392ZM189.837 165.316C188.911 165.321 188.068 165.153 187.307 164.813C186.54 164.459 185.88 163.986 185.325 163.393C184.765 162.787 184.32 162.114 183.99 161.374L181.277 155.29L183.62 155.278L186.157 160.965C186.551 161.85 187.04 162.49 187.621 162.884C188.203 163.278 188.957 163.473 189.883 163.468C190.49 163.465 190.965 163.376 191.308 163.202C191.645 163.015 191.837 162.729 191.883 162.345C191.923 161.948 191.802 161.432 191.519 160.798L192.127 160.794L193.169 163.133L192.649 163.136C192.655 163.506 192.565 163.858 192.379 164.19C192.208 164.522 191.917 164.795 191.505 165.009C191.101 165.21 190.545 165.312 189.837 165.316ZM195.78 165.085L193.61 165.097L192.294 162.144L192.076 162.046L189.045 155.249L191.388 155.237L195.78 165.085ZM200.431 165.061L198.087 165.073L193.669 155.165L195.817 155.153L197.045 157.908L197.285 158.006L200.431 165.061ZM197.567 158.64L197.025 158.643L196.168 156.721L196.623 156.718C196.634 156.255 196.812 155.856 197.156 155.524C197.509 155.177 198.084 155.002 198.879 154.998C199.646 154.994 200.321 155.143 200.905 155.444C201.504 155.745 202.016 156.147 202.442 156.647C202.869 157.148 203.22 157.709 203.497 158.33L203.789 158.984L201.446 158.997L201.269 158.6C200.974 157.94 200.645 157.478 200.281 157.215C199.918 156.952 199.396 156.823 198.716 156.826C198.007 156.83 197.563 156.971 197.383 157.251C197.211 157.516 197.273 157.979 197.567 158.64ZM212.866 165.193C211.694 165.199 210.624 164.993 209.654 164.574C208.679 164.143 207.832 163.545 207.114 162.78C206.39 162.003 205.802 161.106 205.348 160.088C204.894 159.071 204.707 158.178 204.784 157.41C204.877 156.641 205.219 156.043 205.812 155.616C206.398 155.176 207.227 154.953 208.297 154.948C209.266 154.942 210.196 155.11 211.087 155.449C211.987 155.775 212.78 156.255 213.468 156.887C214.17 157.518 214.722 158.284 215.123 159.182C215.24 159.446 215.341 159.704 215.424 159.955C215.515 160.193 215.582 160.391 215.624 160.55L206.684 160.598L206.048 159.171L213.078 159.133L212.928 159.333C212.715 158.725 212.421 158.23 212.048 157.848C211.689 157.466 211.252 157.183 210.735 157C210.233 156.818 209.664 156.728 209.027 156.732C207.885 156.738 207.221 157.006 207.038 157.537C206.848 158.054 206.956 158.769 207.363 159.68L207.628 160.275C207.923 160.935 208.26 161.496 208.639 161.958C209.028 162.406 209.496 162.741 210.045 162.963C210.593 163.185 211.258 163.295 212.039 163.29C212.951 163.285 213.535 163.15 213.794 162.884C214.052 162.617 214.084 162.266 213.889 161.83L213.819 161.672L216.14 161.659L216.22 161.838C216.52 162.512 216.58 163.101 216.399 163.605C216.212 164.096 215.819 164.482 215.219 164.763C214.634 165.044 213.85 165.188 212.866 165.193ZM236.887 164.866L234.544 164.879L231.99 159.152C231.601 158.28 231.141 157.653 230.608 157.272C230.084 156.877 229.331 156.683 228.347 156.688C227.465 156.693 226.892 156.888 226.629 157.273C226.374 157.645 226.447 158.281 226.848 159.179L226.453 159.221L225.224 156.903L225.571 156.901C225.592 156.557 225.686 156.232 225.854 155.927C226.031 155.608 226.321 155.348 226.725 155.147C227.128 154.947 227.684 154.844 228.393 154.84C229.333 154.835 230.166 154.997 230.892 155.324C231.632 155.651 232.27 156.104 232.804 156.684C233.352 157.264 233.794 157.93 234.13 158.683L236.887 164.866ZM221.916 164.946L219.573 164.958L215.181 155.11L217.329 155.098L218.646 158.051L218.885 158.149L221.916 164.946ZM229.402 164.906L227.058 164.918L224.505 159.191C224.116 158.32 223.655 157.693 223.123 157.312C222.599 156.917 221.845 156.723 220.861 156.728C219.979 156.733 219.403 156.921 219.134 157.293C218.88 157.666 218.953 158.301 219.353 159.199L218.968 159.261L217.738 156.943L218.259 156.94C218.259 156.583 218.343 156.251 218.512 155.946C218.694 155.64 218.987 155.387 219.391 155.186C219.794 154.986 220.336 154.883 221.016 154.88C221.927 154.875 222.738 155.036 223.45 155.363C224.176 155.691 224.806 156.144 225.34 156.724C225.874 157.304 226.309 157.97 226.645 158.723L229.402 164.906ZM243.971 165.027C242.8 165.033 241.729 164.827 240.759 164.408C239.784 163.977 238.937 163.379 238.219 162.614C237.496 161.837 236.907 160.94 236.453 159.922C236 158.905 235.812 158.012 235.89 157.244C235.982 156.475 236.324 155.877 236.917 155.45C237.504 155.01 238.332 154.787 239.403 154.782C240.372 154.777 241.302 154.944 242.193 155.283C243.092 155.61 243.886 156.089 244.574 156.721C245.276 157.353 245.827 158.118 246.228 159.016C246.346 159.28 246.446 159.538 246.529 159.789C246.621 160.027 246.687 160.225 246.729 160.384L237.79 160.432L237.153 159.005L244.183 158.967L244.033 159.167C243.82 158.559 243.527 158.064 243.153 157.682C242.795 157.3 242.357 157.017 241.84 156.835C241.338 156.652 240.769 156.562 240.133 156.566C238.99 156.572 238.327 156.84 238.143 157.371C237.953 157.888 238.062 158.603 238.468 159.514L238.733 160.109C239.028 160.769 239.365 161.33 239.745 161.792C240.133 162.24 240.602 162.575 241.15 162.797C241.699 163.02 242.364 163.129 243.145 163.124C244.056 163.12 244.641 162.984 244.899 162.718C245.157 162.452 245.189 162.1 244.995 161.664L244.924 161.506L247.246 161.494L247.325 161.672C247.626 162.346 247.685 162.935 247.504 163.439C247.317 163.93 246.924 164.316 246.324 164.597C245.739 164.878 244.955 165.022 243.971 165.027ZM260.724 164.739L258.381 164.751L255.827 159.024C255.438 158.152 254.977 157.526 254.445 157.145C253.906 156.75 253.138 156.556 252.14 156.561C251.504 156.564 251.021 156.653 250.693 156.827C250.359 156.988 250.173 157.254 250.135 157.625C250.092 157.982 250.208 158.472 250.485 159.093L250.073 159.095L248.844 156.777L249.364 156.775C249.365 156.417 249.456 156.085 249.639 155.78C249.821 155.474 250.114 155.221 250.518 155.02C250.936 154.819 251.492 154.717 252.186 154.713C253.126 154.708 253.967 154.87 254.707 155.197C255.447 155.524 256.092 155.977 256.64 156.557C257.189 157.137 257.631 157.803 257.967 158.556L260.724 164.739ZM253.021 164.78L250.678 164.792L246.286 154.944L248.434 154.932L249.751 157.885L249.99 157.983L253.021 164.78ZM267.354 164.703C266.167 164.71 265.153 164.483 264.31 164.025C263.482 163.565 262.824 162.788 262.335 161.691L259.392 155.092L258.75 152.434L260.551 152.424L264.634 161.58C264.864 162.095 265.148 162.424 265.488 162.568C265.836 162.699 266.379 162.762 267.117 162.758L268.419 162.751L269.205 164.515C269.012 164.569 268.75 164.617 268.421 164.658C268.085 164.686 267.73 164.701 267.354 164.703ZM265.688 156.628L258.289 156.667L257.494 154.884L264.893 154.844L265.688 156.628ZM281.493 164.827C280.089 164.834 278.751 164.563 277.476 164.014C276.21 163.451 275.076 162.663 274.072 161.648C273.078 160.621 272.271 159.413 271.653 158.026C271.034 156.639 270.765 155.435 270.847 154.415C270.937 153.382 271.365 152.585 272.13 152.025C272.904 151.451 273.992 151.161 275.395 151.153C276.711 151.146 277.927 151.352 279.041 151.769C280.155 152.187 281.136 152.778 281.984 153.541C282.832 154.305 283.495 155.222 283.972 156.292L284.025 156.411L281.552 156.424L281.499 156.305C281.015 155.222 280.361 154.437 279.536 153.952C278.719 153.453 277.623 153.207 276.249 153.215C275.251 153.22 274.512 153.383 274.031 153.703C273.55 154.023 273.322 154.535 273.344 155.236C273.367 155.938 273.635 156.864 274.148 158.013C274.654 159.149 275.211 160.073 275.819 160.785C276.42 161.484 277.103 161.99 277.866 162.303C278.624 162.604 279.502 162.752 280.5 162.746C281.874 162.739 282.748 162.489 283.123 161.997C283.513 161.505 283.466 160.718 282.983 159.634L282.93 159.515L285.404 159.502L285.457 159.621C285.928 160.678 286.084 161.598 285.926 162.38C285.761 163.149 285.31 163.747 284.573 164.175C283.836 164.602 282.809 164.82 281.493 164.827ZM294.637 164.757C293.538 164.762 292.489 164.556 291.491 164.138C290.486 163.706 289.596 163.108 288.82 162.344C288.039 161.567 287.421 160.67 286.968 159.653C286.514 158.636 286.333 157.743 286.426 156.974C286.518 156.205 286.875 155.608 287.496 155.181C288.112 154.74 288.969 154.517 290.069 154.511C291.168 154.506 292.206 154.718 293.181 155.15C294.165 155.569 295.038 156.16 295.799 156.924C296.575 157.688 297.189 158.579 297.643 159.596C298.097 160.613 298.28 161.513 298.194 162.294C298.116 163.063 297.777 163.667 297.175 164.107C296.583 164.534 295.737 164.751 294.637 164.757ZM293.789 162.854C294.917 162.848 295.591 162.586 295.81 162.069C296.022 161.538 295.881 160.718 295.386 159.608C294.891 158.498 294.305 157.687 293.627 157.174C292.949 156.661 292.045 156.408 290.917 156.414C289.774 156.42 289.094 156.682 288.875 157.199C288.656 157.717 288.794 158.531 289.289 159.64C289.784 160.75 290.374 161.568 291.058 162.094C291.736 162.607 292.646 162.86 293.789 162.854ZM318.91 164.428L316.566 164.441L314.012 158.714C313.623 157.842 313.163 157.215 312.63 156.834C312.106 156.44 311.353 156.245 310.369 156.25C309.487 156.255 308.914 156.45 308.651 156.836C308.396 157.208 308.469 157.843 308.87 158.741L308.475 158.783L307.246 156.466L307.593 156.464C307.614 156.119 307.708 155.794 307.876 155.489C308.053 155.17 308.343 154.91 308.747 154.71C309.15 154.509 309.706 154.407 310.415 154.403C311.355 154.398 312.188 154.559 312.914 154.886C313.655 155.213 314.292 155.667 314.826 156.246C315.374 156.826 315.817 157.493 316.152 158.246L318.91 164.428ZM303.938 164.508L301.595 164.521L297.203 154.672L299.351 154.66L300.668 157.613L300.907 157.711L303.938 164.508ZM311.424 164.468L309.081 164.481L306.527 158.754C306.138 157.882 305.677 157.255 305.145 156.874C304.621 156.48 303.867 156.285 302.883 156.29C302.001 156.295 301.425 156.484 301.156 156.856C300.902 157.228 300.975 157.863 301.376 158.761L300.99 158.823L299.761 156.506L300.281 156.503C300.281 156.145 300.366 155.814 300.534 155.508C300.717 155.203 301.01 154.95 301.413 154.749C301.817 154.548 302.358 154.446 303.038 154.442C303.949 154.437 304.761 154.599 305.472 154.926C306.198 155.253 306.828 155.706 307.362 156.286C307.896 156.866 308.331 157.533 308.667 158.286L311.424 164.468ZM338.467 164.324L336.124 164.337L333.57 158.61C333.181 157.738 332.72 157.111 332.188 156.73C331.664 156.335 330.91 156.141 329.926 156.146C329.044 156.151 328.471 156.346 328.208 156.731C327.954 157.103 328.027 157.739 328.427 158.637L328.033 158.679L326.804 156.361L327.151 156.359C327.171 156.015 327.265 155.69 327.434 155.385C327.611 155.066 327.901 154.806 328.304 154.605C328.708 154.405 329.264 154.302 329.972 154.298C330.913 154.293 331.746 154.455 332.472 154.782C333.212 155.109 333.849 155.562 334.383 156.142C334.932 156.722 335.374 157.388 335.71 158.141L338.467 164.324ZM323.496 164.404L321.152 164.416L316.76 154.568L318.908 154.556L320.225 157.509L320.465 157.607L323.496 164.404ZM330.981 164.364L328.638 164.377L326.084 158.65C325.695 157.778 325.235 157.151 324.702 156.77C324.178 156.375 323.424 156.181 322.441 156.186C321.558 156.191 320.983 156.379 320.714 156.751C320.459 157.124 320.532 157.759 320.933 158.657L320.547 158.719L319.318 156.401L319.839 156.399C319.839 156.041 319.923 155.709 320.091 155.404C320.274 155.098 320.567 154.845 320.97 154.644C321.374 154.444 321.916 154.341 322.595 154.338C323.507 154.333 324.318 154.494 325.029 154.821C325.755 155.149 326.385 155.602 326.919 156.182C327.453 156.762 327.888 157.428 328.224 158.181L330.981 164.364ZM337.952 153.203L335.631 153.216L334.637 151.036L336.98 151.023L337.952 153.203ZM342.923 164.3L340.58 164.313L336.161 154.404L338.504 154.392L342.923 164.3ZM349.503 164.265C348.317 164.272 347.302 164.045 346.46 163.586C345.632 163.127 344.973 162.349 344.484 161.253L341.541 154.654L340.9 151.996L342.7 151.986L346.783 161.141C347.013 161.656 347.298 161.986 347.637 162.13C347.985 162.26 348.528 162.324 349.266 162.32L350.568 162.313L351.354 164.077C351.161 164.131 350.9 164.178 350.57 164.22C350.235 164.248 349.879 164.263 349.503 164.265ZM347.837 156.19L340.439 156.229L339.643 154.446L347.042 154.406L347.837 156.19ZM357.004 164.225C355.818 164.231 354.803 164.005 353.961 163.546C353.132 163.087 352.474 162.309 351.985 161.213L349.042 154.614L348.4 151.956L350.201 151.946L354.284 161.101C354.514 161.616 354.798 161.946 355.138 162.09C355.486 162.22 356.029 162.284 356.767 162.28L358.069 162.273L358.855 164.037C358.662 164.091 358.4 164.138 358.071 164.18C357.736 164.208 357.38 164.223 357.004 164.225ZM355.338 156.15L347.939 156.189L347.144 154.405L354.543 154.366L355.338 156.15ZM365.023 164.381C363.852 164.387 362.781 164.181 361.811 163.763C360.836 163.331 359.989 162.733 359.272 161.968C358.548 161.191 357.959 160.294 357.506 159.276C357.052 158.259 356.864 157.366 356.942 156.598C357.034 155.829 357.376 155.232 357.969 154.805C358.556 154.364 359.384 154.142 360.455 154.136C361.424 154.131 362.354 154.298 363.245 154.637C364.144 154.964 364.938 155.443 365.626 156.075C366.328 156.707 366.879 157.472 367.28 158.37C367.398 158.634 367.498 158.892 367.581 159.143C367.673 159.381 367.739 159.579 367.781 159.738L358.842 159.786L358.206 158.359L365.236 158.321L365.085 158.521C364.872 157.913 364.579 157.418 364.206 157.036C363.847 156.654 363.409 156.371 362.893 156.189C362.391 156.006 361.821 155.916 361.185 155.92C360.042 155.926 359.379 156.194 359.195 156.725C359.005 157.242 359.114 157.957 359.52 158.868L359.785 159.463C360.08 160.123 360.417 160.684 360.797 161.146C361.185 161.594 361.654 161.929 362.202 162.151C362.751 162.374 363.416 162.483 364.197 162.479C365.108 162.474 365.693 162.338 365.951 162.072C366.209 161.806 366.241 161.455 366.047 161.019L365.976 160.86L368.298 160.848L368.377 161.026C368.678 161.7 368.737 162.289 368.556 162.793C368.369 163.284 367.976 163.67 367.376 163.951C366.791 164.233 366.007 164.376 365.023 164.381ZM376.72 164.319C375.548 164.325 374.477 164.119 373.508 163.7C372.532 163.268 371.686 162.67 370.968 161.906C370.244 161.129 369.655 160.231 369.202 159.214C368.748 158.197 368.56 157.304 368.638 156.535C368.73 155.767 369.073 155.169 369.665 154.742C370.252 154.302 371.081 154.079 372.151 154.073C373.12 154.068 374.05 154.235 374.941 154.575C375.84 154.901 376.634 155.38 377.322 156.012C378.024 156.644 378.576 157.409 378.976 158.308C379.094 158.572 379.194 158.83 379.277 159.081C379.369 159.319 379.436 159.517 379.478 159.676L370.538 159.723L369.902 158.297L376.932 158.259L376.782 158.458C376.568 157.85 376.275 157.355 375.902 156.973C375.543 156.591 375.105 156.309 374.589 156.126C374.087 155.944 373.518 155.854 372.881 155.857C371.738 155.863 371.075 156.132 370.891 156.662C370.702 157.18 370.81 157.894 371.217 158.806L371.482 159.4C371.776 160.061 372.113 160.622 372.493 161.084C372.882 161.532 373.35 161.867 373.899 162.089C374.447 162.311 375.112 162.42 375.893 162.416C376.804 162.411 377.389 162.276 377.647 162.009C377.906 161.743 377.938 161.392 377.743 160.956L377.672 160.798L379.994 160.785L380.074 160.964C380.374 161.637 380.434 162.226 380.253 162.731C380.066 163.221 379.672 163.608 379.073 163.889C378.488 164.17 377.703 164.313 376.72 164.319Z"
        fill="#F4F4F5" fill-opacity="0.8" />
    <rect x="0.42409" y="0.273623" width="119.94" height="51.3547" rx="7.53393"
        transform="matrix(0.999986 -0.00533541 0.40728 0.913303 371.941 210.747)" fill="url(#paint9_linear_7760_8821)"
        fill-opacity="0.8" />
    <rect x="0.42409" y="0.273623" width="119.94" height="51.3547" rx="7.53393"
        transform="matrix(0.999986 -0.00533541 0.40728 0.913303 371.941 210.747)"
        stroke="url(#paint10_linear_7760_8821)" stroke-width="0.602715" />
    <path
        d="M425.513 237.533C424.741 237.537 424.066 237.442 423.488 237.246C422.906 237.043 422.414 236.763 422.013 236.404C421.616 236.039 421.313 235.621 421.104 235.151L421.02 234.964L422.298 234.957L422.352 235.078C422.486 235.379 422.655 235.632 422.859 235.837C423.072 236.042 423.353 236.195 423.705 236.296C424.056 236.397 424.517 236.446 425.087 236.443C425.682 236.44 426.065 236.361 426.238 236.205C426.407 236.042 426.416 235.792 426.265 235.455C426.164 235.227 426.046 235.044 425.912 234.905C425.777 234.766 425.582 234.653 425.325 234.566C425.074 234.471 424.723 234.389 424.272 234.318L422.785 234.072C422.283 233.993 421.838 233.871 421.449 233.704C421.057 233.529 420.716 233.307 420.426 233.036C420.144 232.765 419.918 232.439 419.748 232.057C419.585 231.69 419.537 231.349 419.605 231.032C419.678 230.708 419.891 230.445 420.245 230.245C420.607 230.044 421.133 229.942 421.824 229.939C422.563 229.935 423.213 230.045 423.772 230.27C424.34 230.495 424.812 230.794 425.187 231.168C425.568 231.533 425.857 231.937 426.053 232.377L426.112 232.509L424.822 232.516L424.768 232.395C424.631 232.087 424.461 231.834 424.261 231.636C424.064 231.431 423.803 231.278 423.476 231.177C423.153 231.068 422.755 231.015 422.281 231.018C421.686 231.021 421.292 231.104 421.099 231.267C420.906 231.43 420.882 231.672 421.026 231.995C421.124 232.216 421.242 232.392 421.382 232.523C421.529 232.655 421.725 232.76 421.97 232.84C422.22 232.912 422.543 232.988 422.941 233.067L424.433 233.324C424.987 233.409 425.463 233.546 425.861 233.735C426.268 233.924 426.61 234.158 426.887 234.436C427.16 234.707 427.381 235.029 427.548 235.404C427.718 235.785 427.771 236.138 427.706 236.462C427.641 236.786 427.43 237.045 427.073 237.238C426.724 237.431 426.204 237.53 425.513 237.533ZM432.09 237.498C431.439 237.502 430.844 237.387 430.306 237.155C429.764 236.915 429.293 236.582 428.895 236.158C428.493 235.726 428.165 235.227 427.913 234.662C427.661 234.097 427.557 233.601 427.6 233.174C427.652 232.747 427.842 232.415 428.171 232.178C428.497 231.933 428.957 231.81 429.552 231.806C430.09 231.804 430.607 231.896 431.102 232.085C431.602 232.266 432.043 232.533 432.425 232.884C432.815 233.235 433.121 233.66 433.344 234.159C433.409 234.306 433.465 234.449 433.511 234.588C433.562 234.72 433.599 234.831 433.622 234.919L428.656 234.945L428.302 234.153L432.208 234.132L432.124 234.243C432.006 233.905 431.843 233.63 431.636 233.418C431.436 233.205 431.193 233.048 430.906 232.947C430.627 232.845 430.311 232.796 429.958 232.797C429.323 232.801 428.954 232.95 428.852 233.245C428.747 233.532 428.807 233.929 429.033 234.436L429.18 234.766C429.344 235.133 429.531 235.445 429.742 235.701C429.958 235.95 430.218 236.136 430.523 236.26C430.828 236.383 431.197 236.444 431.631 236.441C432.137 236.439 432.462 236.363 432.605 236.215C432.749 236.067 432.767 235.872 432.659 235.63L432.619 235.542L433.909 235.535L433.953 235.634C434.12 236.009 434.153 236.336 434.053 236.616C433.949 236.889 433.73 237.103 433.397 237.26C433.072 237.416 432.637 237.495 432.09 237.498ZM438.617 237.474C437.99 237.478 437.406 237.36 436.864 237.12C436.322 236.88 435.839 236.548 435.417 236.123C435.002 235.699 434.668 235.204 434.416 234.639C434.164 234.074 434.06 233.577 434.103 233.151C434.151 232.716 434.344 232.38 434.681 232.143C435.015 231.899 435.495 231.775 436.122 231.771C436.653 231.769 437.16 231.858 437.643 232.039C438.127 232.221 438.551 232.476 438.915 232.805C439.287 233.134 439.572 233.519 439.768 233.959L439.812 234.058L438.522 234.065L438.493 233.999C438.313 233.595 438.061 233.302 437.739 233.12C437.42 232.931 437.012 232.837 436.514 232.84C435.935 232.843 435.589 232.995 435.474 233.298C435.364 233.593 435.439 234.034 435.701 234.621C435.966 235.215 436.287 235.662 436.662 235.962C437.042 236.254 437.521 236.399 438.1 236.396C438.598 236.393 438.923 236.299 439.074 236.115C439.23 235.923 439.22 235.628 439.043 235.232L439.013 235.166L440.303 235.159L440.347 235.258C440.537 235.684 440.595 236.066 440.52 236.405C440.443 236.736 440.241 236.999 439.917 237.192C439.597 237.377 439.163 237.472 438.617 237.474ZM444.534 237.432C444.02 237.435 443.551 237.341 443.129 237.152C442.703 236.956 442.336 236.693 442.028 236.364C441.717 236.027 441.469 235.653 441.286 235.242L439.779 231.862L441.081 231.855L442.49 235.015C442.709 235.507 442.98 235.862 443.304 236.081C443.627 236.3 444.046 236.408 444.56 236.405C444.897 236.404 445.161 236.354 445.352 236.258C445.539 236.154 445.646 235.995 445.671 235.781C445.693 235.561 445.626 235.274 445.469 234.922L445.807 234.92L446.386 236.219L446.097 236.221C446.1 236.427 446.05 236.622 445.947 236.806C445.852 236.991 445.69 237.142 445.461 237.261C445.237 237.373 444.928 237.43 444.534 237.432ZM447.836 237.304L446.631 237.31L445.899 235.67L445.778 235.615L444.094 231.839L445.396 231.832L447.836 237.304ZM450.42 237.29L449.118 237.297L446.663 231.792L447.857 231.786L448.539 233.316L448.672 233.371L450.42 237.29ZM448.829 233.723L448.528 233.725L448.052 232.657L448.305 232.655C448.311 232.398 448.409 232.177 448.601 231.992C448.797 231.799 449.116 231.702 449.558 231.7C449.984 231.697 450.359 231.78 450.684 231.948C451.016 232.115 451.301 232.338 451.537 232.616C451.774 232.894 451.97 233.206 452.124 233.551L452.286 233.914L450.984 233.921L450.886 233.701C450.722 233.334 450.539 233.078 450.337 232.932C450.135 232.785 449.845 232.713 449.467 232.715C449.074 232.718 448.827 232.796 448.727 232.951C448.631 233.099 448.666 233.356 448.829 233.723ZM453.013 231.096L451.723 231.103L451.171 229.892L452.473 229.885L453.013 231.096ZM455.774 237.262L454.472 237.268L452.018 231.764L453.319 231.757L455.774 237.262ZM459.43 237.242C458.771 237.246 458.207 237.12 457.739 236.865C457.279 236.61 456.913 236.178 456.642 235.568L455.007 231.902L454.65 230.426L455.651 230.42L457.919 235.506C458.046 235.793 458.205 235.976 458.393 236.056C458.587 236.128 458.888 236.163 459.298 236.161L460.022 236.157L460.458 237.137C460.351 237.167 460.206 237.194 460.023 237.217C459.836 237.232 459.639 237.241 459.43 237.242ZM458.504 232.756L454.394 232.777L453.952 231.787L458.063 231.765L458.504 232.756ZM463.043 239.099C462.882 239.1 462.713 239.089 462.534 239.068C462.359 239.055 462.212 239.033 462.095 239.004L461.663 238.036L462.495 238.031C462.744 238.03 462.914 237.996 463.005 237.929C463.099 237.87 463.154 237.741 463.171 237.542L463.201 236.769L463.264 237.155L458.262 231.764L459.696 231.756L462.085 234.403L463.157 235.589L463.266 235.588L463.218 234.397L463.132 231.738L464.578 231.73L464.458 237.855C464.461 238.186 464.409 238.44 464.303 238.618C464.196 238.795 464.037 238.917 463.826 238.984C463.625 239.059 463.365 239.097 463.043 239.099Z"
        fill="#F4F4F5" fill-opacity="0.8" />
    <rect x="0.42409" y="0.273623" width="119.94" height="51.3547" rx="7.53393"
        transform="matrix(0.999986 -0.00533541 0.40728 0.913303 144.285 218.909)" fill="url(#paint11_linear_7760_8821)"
        fill-opacity="0.8" />
    <rect x="0.42409" y="0.273623" width="119.94" height="51.3547" rx="7.53393"
        transform="matrix(0.999986 -0.00533541 0.40728 0.913303 144.285 218.909)"
        stroke="url(#paint12_linear_7760_8821)" stroke-width="0.602715" />
    <path
        d="M183.137 243.28L180.196 243.296L179.719 242.228L182.817 242.212C183.348 242.209 183.678 242.1 183.808 241.886C183.946 241.672 183.897 241.301 183.662 240.773C183.426 240.244 183.144 239.874 182.816 239.663C182.496 239.451 182.071 239.346 181.541 239.349L178.443 239.366L177.967 238.298L180.908 238.282C181.47 238.279 182.017 238.376 182.547 238.571C183.078 238.767 183.551 239.052 183.967 239.425C184.388 239.79 184.716 240.237 184.951 240.766C185.187 241.294 185.26 241.746 185.17 242.122C185.087 242.498 184.869 242.786 184.516 242.986C184.159 243.179 183.699 243.277 183.137 243.28ZM182.064 245.67L180.762 245.677L177.472 238.301L178.774 238.294L182.064 245.67ZM189.291 245.631L187.989 245.638L185.534 240.134L186.727 240.127L187.41 241.658L187.543 241.712L189.291 245.631ZM187.7 242.064L187.399 242.066L186.922 240.998L187.175 240.997C187.181 240.739 187.28 240.518 187.472 240.333C187.668 240.141 187.987 240.043 188.429 240.041C188.855 240.039 189.23 240.121 189.554 240.289C189.887 240.456 190.171 240.679 190.408 240.957C190.645 241.236 190.84 241.547 190.994 241.892L191.156 242.256L189.854 242.262L189.756 242.042C189.593 241.675 189.41 241.419 189.208 241.273C189.006 241.127 188.716 241.055 188.338 241.057C187.944 241.059 187.697 241.137 187.597 241.292C187.502 241.44 187.536 241.697 187.7 242.064ZM196.283 245.704C195.673 245.708 195.09 245.593 194.535 245.361C193.977 245.121 193.483 244.789 193.052 244.364C192.618 243.932 192.275 243.434 192.023 242.869C191.77 242.304 191.67 241.808 191.721 241.381C191.773 240.954 191.971 240.622 192.316 240.384C192.658 240.14 193.135 240.016 193.745 240.013C194.356 240.009 194.932 240.128 195.474 240.367C196.021 240.6 196.506 240.928 196.929 241.353C197.36 241.777 197.701 242.272 197.953 242.837C198.205 243.402 198.307 243.902 198.259 244.336C198.216 244.763 198.027 245.099 197.693 245.344C197.364 245.581 196.894 245.701 196.283 245.704ZM195.812 244.647C196.439 244.644 196.813 244.499 196.935 244.211C197.053 243.916 196.974 243.46 196.7 242.844C196.425 242.227 196.099 241.777 195.722 241.492C195.345 241.207 194.843 241.066 194.217 241.069C193.582 241.073 193.204 241.218 193.082 241.506C192.961 241.793 193.037 242.245 193.312 242.862C193.587 243.479 193.915 243.933 194.295 244.225C194.672 244.51 195.177 244.651 195.812 244.647ZM202.95 245.68C202.323 245.683 201.739 245.565 201.197 245.325C200.655 245.085 200.172 244.753 199.749 244.328C199.334 243.904 199.001 243.409 198.749 242.844C198.497 242.279 198.393 241.783 198.436 241.356C198.484 240.922 198.676 240.586 199.014 240.349C199.348 240.104 199.828 239.98 200.455 239.977C200.985 239.974 201.492 240.063 201.976 240.245C202.459 240.426 202.883 240.681 203.248 241.01C203.62 241.339 203.904 241.724 204.101 242.164L204.145 242.263L202.855 242.27L202.826 242.204C202.646 241.801 202.394 241.508 202.071 241.325C201.753 241.136 201.345 241.042 200.847 241.045C200.268 241.048 199.921 241.201 199.806 241.503C199.696 241.798 199.772 242.239 200.034 242.826C200.299 243.421 200.619 243.868 200.994 244.167C201.375 244.46 201.854 244.604 202.432 244.601C202.931 244.598 203.255 244.505 203.407 244.32C203.563 244.128 203.552 243.834 203.375 243.437L203.346 243.371L204.636 243.364L204.68 243.463C204.87 243.889 204.928 244.271 204.853 244.61C204.775 244.942 204.574 245.204 204.249 245.397C203.929 245.583 203.496 245.677 202.95 245.68ZM208.867 245.637C208.353 245.64 207.884 245.547 207.462 245.358C207.036 245.161 206.669 244.898 206.361 244.569C206.049 244.232 205.802 243.858 205.619 243.447L204.112 240.068L205.414 240.061L206.823 243.22C207.042 243.712 207.313 244.067 207.636 244.286C207.959 244.505 208.378 244.613 208.893 244.611C209.23 244.609 209.494 244.56 209.685 244.463C209.872 244.359 209.978 244.2 210.004 243.987C210.026 243.766 209.959 243.479 209.802 243.127L210.139 243.125L210.719 244.424L210.429 244.426C210.432 244.632 210.383 244.827 210.28 245.012C210.185 245.196 210.023 245.348 209.794 245.467C209.57 245.578 209.261 245.635 208.867 245.637ZM212.169 245.509L210.963 245.516L210.232 243.875L210.111 243.821L208.427 240.045L209.729 240.038L212.169 245.509ZM214.753 245.495L213.451 245.502L210.996 239.998L212.189 239.991L212.872 241.522L213.005 241.576L214.753 245.495ZM213.162 241.928L212.861 241.93L212.384 240.862L212.637 240.861C212.643 240.603 212.742 240.382 212.934 240.197C213.13 240.005 213.449 239.907 213.891 239.905C214.317 239.903 214.692 239.985 215.016 240.153C215.349 240.32 215.633 240.543 215.87 240.821C216.107 241.1 216.302 241.411 216.456 241.756L216.618 242.12L215.316 242.127L215.218 241.906C215.055 241.539 214.872 241.283 214.67 241.137C214.468 240.991 214.178 240.919 213.8 240.921C213.406 240.923 213.159 241.001 213.059 241.156C212.964 241.304 212.998 241.561 213.162 241.928ZM221.661 245.569C221.01 245.572 220.415 245.458 219.877 245.225C219.335 244.985 218.864 244.653 218.466 244.229C218.064 243.797 217.737 243.298 217.484 242.733C217.232 242.168 217.128 241.672 217.171 241.245C217.223 240.818 217.413 240.486 217.742 240.249C218.068 240.004 218.528 239.88 219.123 239.877C219.661 239.874 220.178 239.967 220.673 240.156C221.173 240.337 221.614 240.603 221.996 240.954C222.386 241.305 222.692 241.73 222.915 242.23C222.98 242.376 223.036 242.519 223.082 242.659C223.133 242.791 223.17 242.901 223.193 242.989L218.227 243.016L217.873 242.223L221.779 242.202L221.695 242.313C221.577 241.975 221.414 241.7 221.207 241.488C221.007 241.276 220.764 241.119 220.477 241.018C220.198 240.916 219.882 240.866 219.529 240.868C218.894 240.872 218.525 241.021 218.423 241.315C218.318 241.603 218.378 242 218.604 242.506L218.751 242.837C218.915 243.204 219.102 243.515 219.313 243.772C219.529 244.021 219.789 244.207 220.094 244.33C220.399 244.454 220.768 244.514 221.202 244.512C221.708 244.509 222.033 244.434 222.176 244.286C222.32 244.138 222.338 243.943 222.23 243.701L222.19 243.613L223.48 243.606L223.524 243.705C223.691 244.079 223.724 244.407 223.624 244.687C223.52 244.959 223.301 245.174 222.968 245.33C222.643 245.486 222.208 245.566 221.661 245.569ZM235.006 245.387L233.704 245.394L232.286 242.213C232.07 241.728 231.814 241.38 231.518 241.168C231.227 240.949 230.808 240.841 230.262 240.844C229.771 240.847 229.453 240.955 229.307 241.169C229.166 241.376 229.206 241.729 229.429 242.228L229.21 242.251L228.527 240.964L228.72 240.963C228.731 240.771 228.783 240.591 228.877 240.421C228.975 240.244 229.136 240.1 229.36 239.988C229.584 239.876 229.893 239.82 230.287 239.818C230.81 239.815 231.272 239.904 231.676 240.086C232.087 240.268 232.441 240.52 232.738 240.842C233.042 241.164 233.288 241.534 233.475 241.952L235.006 245.387ZM226.689 245.432L225.387 245.439L222.947 239.967L224.14 239.961L224.872 241.601L225.005 241.656L226.689 245.432ZM230.848 245.41L229.546 245.416L228.127 242.235C227.911 241.75 227.655 241.402 227.359 241.191C227.068 240.971 226.649 240.863 226.103 240.866C225.613 240.869 225.293 240.974 225.143 241.18C225.002 241.387 225.043 241.74 225.265 242.239L225.051 242.273L224.368 240.986L224.657 240.984C224.657 240.786 224.704 240.601 224.798 240.432C224.899 240.262 225.062 240.121 225.286 240.01C225.51 239.898 225.811 239.841 226.189 239.839C226.695 239.837 227.146 239.926 227.541 240.108C227.944 240.29 228.294 240.542 228.591 240.864C228.888 241.186 229.129 241.556 229.316 241.975L230.848 245.41ZM238.942 245.477C238.291 245.48 237.696 245.366 237.157 245.133C236.615 244.893 236.145 244.561 235.746 244.136C235.344 243.704 235.017 243.206 234.765 242.641C234.513 242.076 234.409 241.58 234.452 241.153C234.503 240.726 234.693 240.394 235.023 240.156C235.349 239.912 235.809 239.788 236.404 239.785C236.942 239.782 237.459 239.875 237.954 240.064C238.453 240.245 238.894 240.511 239.276 240.862C239.667 241.213 239.973 241.638 240.195 242.137C240.261 242.284 240.317 242.427 240.363 242.567C240.414 242.699 240.451 242.809 240.474 242.897L235.508 242.924L235.154 242.131L239.06 242.11L238.976 242.221C238.858 241.883 238.695 241.608 238.487 241.396C238.288 241.184 238.045 241.027 237.758 240.925C237.479 240.824 237.163 240.774 236.809 240.776C236.174 240.779 235.806 240.928 235.704 241.223C235.598 241.511 235.659 241.908 235.884 242.414L236.032 242.744C236.195 243.111 236.383 243.423 236.594 243.679C236.809 243.928 237.07 244.115 237.374 244.238C237.679 244.362 238.049 244.422 238.483 244.42C238.989 244.417 239.314 244.342 239.457 244.194C239.601 244.046 239.618 243.851 239.51 243.609L239.471 243.521L240.761 243.514L240.805 243.613C240.972 243.987 241.005 244.314 240.905 244.594C240.801 244.867 240.582 245.082 240.249 245.238C239.924 245.394 239.488 245.474 238.942 245.477ZM248.249 245.317L246.947 245.324L245.528 242.142C245.312 241.658 245.056 241.309 244.76 241.098C244.461 240.879 244.035 240.771 243.48 240.773C243.126 240.775 242.858 240.825 242.676 240.921C242.49 241.01 242.387 241.158 242.366 241.364C242.342 241.563 242.407 241.835 242.561 242.18L242.332 242.181L241.649 240.894L241.938 240.892C241.938 240.693 241.989 240.509 242.09 240.339C242.192 240.17 242.355 240.029 242.579 239.918C242.811 239.806 243.12 239.749 243.506 239.747C244.028 239.744 244.495 239.834 244.906 240.015C245.317 240.197 245.675 240.449 245.98 240.771C246.285 241.093 246.531 241.463 246.717 241.882L248.249 245.317ZM243.97 245.34L242.668 245.346L240.228 239.875L241.421 239.869L242.153 241.509L242.286 241.563L243.97 245.34ZM251.932 245.297C251.273 245.301 250.709 245.175 250.241 244.92C249.781 244.665 249.415 244.233 249.144 243.623L247.509 239.957L247.152 238.481L248.153 238.475L250.421 243.562C250.549 243.848 250.707 244.031 250.895 244.111C251.089 244.183 251.391 244.218 251.8 244.216L252.524 244.212L252.961 245.192C252.853 245.222 252.708 245.249 252.525 245.272C252.339 245.288 252.141 245.296 251.932 245.297ZM251.007 240.811L246.896 240.832L246.454 239.842L250.565 239.82L251.007 240.811Z"
        fill="#F4F4F5" fill-opacity="0.8" />
    <rect x="0.42409" y="0.273623" width="119.94" height="51.3547" rx="7.53393"
        transform="matrix(0.999986 -0.00533541 0.40728 0.913303 214.203 32.0787)" fill="url(#paint13_linear_7760_8821)"
        fill-opacity="0.8" />
    <rect x="0.42409" y="0.273623" width="119.94" height="51.3547" rx="7.53393"
        transform="matrix(0.999986 -0.00533541 0.40728 0.913303 214.203 32.0787)"
        stroke="url(#paint14_linear_7760_8821)" stroke-width="0.602715" />
    <path
        d="M260.787 58.7918L259.485 58.7987L256.196 51.4226L257.497 51.4156L260.787 58.7918ZM267.714 58.7548L266.412 58.7618L264.993 55.5801C264.777 55.0957 264.521 54.7476 264.225 54.5358C263.926 54.3167 263.499 54.2087 262.945 54.2116C262.591 54.2135 262.323 54.2627 262.141 54.3594C261.955 54.4486 261.852 54.5963 261.831 54.8024C261.807 55.0012 261.872 55.2731 262.026 55.618L261.796 55.6192L261.114 54.3317L261.403 54.3302C261.403 54.1316 261.454 53.9474 261.555 53.7776C261.657 53.6079 261.82 53.4672 262.044 53.3557C262.276 53.2441 262.585 53.1872 262.971 53.1852C263.493 53.1824 263.96 53.2719 264.371 53.4536C264.782 53.6353 265.14 53.8872 265.445 54.2093C265.75 54.5314 265.995 54.9016 266.182 55.32L267.714 58.7548ZM263.435 58.7777L262.133 58.7846L259.693 53.313L260.886 53.3067L261.618 54.947L261.751 55.0015L263.435 58.7777ZM274.541 58.7184L273.239 58.7253L271.821 55.5437C271.605 55.0593 271.349 54.7112 271.053 54.4994C270.754 54.2803 270.327 54.1722 269.772 54.1752C269.419 54.1771 269.151 54.2263 268.968 54.3229C268.783 54.4122 268.679 54.5599 268.658 54.766C268.634 54.9648 268.699 55.2366 268.853 55.5816L268.624 55.5828L267.941 54.2953L268.23 54.2938C268.23 54.0951 268.281 53.9109 268.383 53.7412C268.484 53.5714 268.647 53.4308 268.871 53.3192C269.103 53.2076 269.412 53.1508 269.798 53.1487C270.32 53.146 270.787 53.2354 271.199 53.4172C271.61 53.5989 271.968 53.8508 272.273 54.1729C272.577 54.495 272.823 54.8652 273.01 55.2835L274.541 58.7184ZM270.262 58.7412L268.96 58.7482L266.52 53.2766L267.714 53.2702L268.445 54.9106L268.578 54.9651L270.262 58.7412ZM278.562 58.8073C277.951 58.8106 277.368 58.696 276.813 58.4635C276.255 58.2237 275.761 57.8916 275.33 57.4672C274.896 57.0354 274.553 56.537 274.301 55.9719C274.049 55.4067 273.948 54.9107 274 54.4837C274.051 54.0567 274.249 53.7246 274.594 53.4873C274.936 53.2427 275.413 53.1188 276.023 53.1155C276.634 53.1123 277.211 53.2306 277.752 53.4705C278.299 53.703 278.784 54.0315 279.207 54.4559C279.638 54.8803 279.979 55.3751 280.231 55.9402C280.483 56.5054 280.585 57.0051 280.537 57.4394C280.494 57.8663 280.306 58.2021 279.972 58.4466C279.642 58.6838 279.172 58.804 278.562 58.8073ZM278.09 57.7504C278.717 57.7471 279.091 57.6016 279.213 57.314C279.331 57.0191 279.253 56.5634 278.978 55.9469C278.703 55.3304 278.377 54.8797 278 54.5948C277.623 54.3099 277.122 54.1691 276.495 54.1724C275.86 54.1758 275.482 54.3213 275.36 54.6089C275.239 54.8964 275.316 55.3485 275.59 55.965C275.865 56.5815 276.193 57.0359 276.573 57.3281C276.95 57.613 277.455 57.7538 278.09 57.7504ZM285.663 58.6591L284.012 58.6679L279.173 53.2091L280.62 53.2014L284.302 57.5297L284.386 57.5292L284.212 53.1822L285.622 53.1747L285.663 58.6591ZM293.552 58.617L292.347 58.6234L291.866 57.5445L291.697 57.2474L290.759 55.1447C290.576 54.7337 290.343 54.4553 290.061 54.3097C289.786 54.164 289.412 54.0925 288.938 54.095C288.464 54.0975 288.157 54.1764 288.016 54.3317C287.884 54.4869 287.898 54.7443 288.059 55.1039L288.132 55.269L286.879 55.2757L286.83 55.1656C286.646 54.7546 286.593 54.3907 286.669 54.074C286.753 53.7572 286.953 53.5097 287.268 53.3314C287.588 53.1458 288.014 53.0516 288.544 53.0487C289.106 53.0457 289.615 53.1387 290.07 53.3275C290.525 53.5164 290.92 53.7791 291.255 54.1157C291.595 54.445 291.867 54.8371 292.07 55.2922L293.552 58.617ZM290.166 58.7454C289.628 58.7483 289.118 58.6259 288.637 58.3783C288.161 58.1234 287.818 57.7611 287.608 57.2913C287.471 56.9831 287.433 56.7258 287.494 56.5195C287.563 56.3131 287.717 56.1431 287.955 56.0094C288.194 55.8757 288.514 55.782 288.917 55.7283L291.008 55.4303L291.381 56.267L289.478 56.553C289.152 56.5989 288.941 56.6662 288.843 56.755C288.746 56.8438 288.743 56.991 288.835 57.1965C288.93 57.4093 289.079 57.563 289.282 57.6576C289.493 57.7521 289.788 57.7984 290.166 57.7963C290.455 57.7948 290.714 57.753 290.943 57.6708C291.177 57.5813 291.339 57.437 291.427 57.2378C291.512 57.0314 291.473 56.7447 291.309 56.3777L292.101 57.775L291.904 57.765C291.866 57.9344 291.78 58.093 291.645 58.2409C291.517 58.3887 291.334 58.5111 291.096 58.608C290.854 58.6976 290.544 58.7434 290.166 58.7454ZM297.236 58.5973C296.577 58.6008 296.013 58.4751 295.545 58.2201C295.085 57.9651 294.719 57.533 294.447 56.9238L292.812 53.2577L292.456 51.7809L293.456 51.7755L295.725 56.8618C295.852 57.148 296.01 57.3311 296.199 57.411C296.392 57.4836 296.694 57.5187 297.104 57.5165L297.827 57.5127L298.264 58.4925C298.157 58.5225 298.011 58.549 297.828 58.5721C297.642 58.5878 297.444 58.5962 297.236 58.5973ZM296.31 54.1108L292.2 54.1328L291.758 53.1419L295.868 53.12L296.31 54.1108ZM297.623 52.4154L296.333 52.4223L295.781 51.2113L297.082 51.2044L297.623 52.4154ZM300.384 58.5805L299.082 58.5875L296.627 53.0829L297.929 53.0759L300.384 58.5805ZM304.318 58.6699C303.707 58.6731 303.124 58.5585 302.57 58.3261C302.012 58.0863 301.517 57.7542 301.086 57.3298C300.652 56.898 300.309 56.3996 300.057 55.8344C299.805 55.2693 299.705 54.7732 299.756 54.3463C299.807 53.9193 300.005 53.5872 300.351 53.3499C300.693 53.1053 301.169 52.9814 301.78 52.9781C302.39 52.9749 302.967 53.0932 303.509 53.3331C304.055 53.5656 304.54 53.894 304.963 54.3185C305.394 54.7429 305.736 55.2377 305.988 55.8028C306.24 56.3679 306.342 56.8677 306.294 57.302C306.25 57.7289 306.062 58.0647 305.728 58.3092C305.399 58.5464 304.929 58.6666 304.318 58.6699ZM303.847 57.613C304.473 57.6097 304.848 57.4642 304.969 57.1766C305.087 56.8817 305.009 56.426 304.734 55.8095C304.459 55.193 304.133 54.7423 303.756 54.4573C303.38 54.1724 302.878 54.0317 302.251 54.035C301.616 54.0384 301.238 54.1839 301.117 54.4714C300.995 54.759 301.072 55.211 301.347 55.8276C301.622 56.4441 301.949 56.8985 302.329 57.1907C302.706 57.4756 303.212 57.6164 303.847 57.613ZM313.764 58.5091L312.462 58.5161L311.044 55.3344C310.828 54.85 310.572 54.5019 310.276 54.2901C309.977 54.071 309.55 53.9629 308.995 53.9659C308.642 53.9678 308.374 54.017 308.191 54.1137C308.006 54.2029 307.902 54.3506 307.881 54.5567C307.857 54.7555 307.922 55.0274 308.076 55.3723L307.847 55.3735L307.164 54.086L307.453 54.0845C307.453 53.8859 307.504 53.7017 307.606 53.5319C307.707 53.3622 307.87 53.2215 308.094 53.11C308.326 52.9984 308.635 52.9415 309.021 52.9395C309.543 52.9367 310.01 53.0262 310.422 53.2079C310.833 53.3896 311.191 53.6415 311.496 53.9636C311.8 54.2857 312.046 54.6559 312.233 55.0742L313.764 58.5091ZM309.485 58.532L308.183 58.5389L305.743 53.0673L306.937 53.061L307.668 54.7013L307.801 54.7558L309.485 58.532Z"
        fill="white" />
    <rect x="0.42409" y="0.273623" width="190.52" height="53.9504" rx="7.53393"
        transform="matrix(0.999986 -0.00533541 0.40728 0.913303 10.6434 47.6754)" fill="url(#paint15_linear_7760_8821)"
        fill-opacity="0.8" />
    <rect x="0.42409" y="0.273623" width="190.52" height="53.9504" rx="7.53393"
        transform="matrix(0.999986 -0.00533541 0.40728 0.913303 10.6434 47.6754)"
        stroke="url(#paint16_linear_7760_8821)" stroke-width="0.602715" />
    <path
        d="M55.3493 74.5088C54.5698 74.513 53.826 74.3625 53.118 74.0573C52.4147 73.7447 51.7844 73.3066 51.227 72.7431C50.6744 72.1722 50.2262 71.5014 49.8826 70.7308C49.5389 69.9601 49.3897 69.2915 49.4351 68.7247C49.4851 68.1506 49.7227 67.7079 50.1478 67.3967C50.5776 67.078 51.1822 66.9166 51.9617 66.9125C52.693 66.9086 53.3682 67.0227 53.9872 67.2548C54.6063 67.4869 55.1514 67.8151 55.6224 68.2393C56.0935 68.6635 56.4616 69.1728 56.7268 69.7673L56.7562 69.8334L55.382 69.8407L55.3526 69.7746C55.0842 69.1728 54.7207 68.737 54.2621 68.4672C53.8082 68.1901 53.1996 68.0536 52.4362 68.0576C51.8817 68.0606 51.4709 68.1511 51.2039 68.3291C50.9369 68.507 50.8098 68.791 50.8226 69.1808C50.8353 69.5707 50.984 70.0849 51.2688 70.7234C51.5503 71.3546 51.8597 71.8679 52.1972 72.2634C52.5314 72.6515 52.9105 72.9328 53.3346 73.1071C53.7555 73.274 54.2431 73.356 54.7976 73.3531C55.5611 73.349 56.047 73.2103 56.2553 72.937C56.4718 72.6636 56.4458 72.226 56.1774 71.6242L56.1479 71.5581L57.5221 71.5508L57.5516 71.6168C57.8134 72.204 57.9002 72.7149 57.8121 73.1494C57.7206 73.5766 57.4701 73.909 57.0606 74.1466C56.651 74.3842 56.0806 74.5049 55.3493 74.5088ZM62.652 74.4699C62.0413 74.4731 61.4585 74.3585 60.9038 74.1261C60.3457 73.8863 59.8513 73.5542 59.4203 73.1298C58.9862 72.698 58.6431 72.1996 58.391 71.6344C58.139 71.0693 58.0386 70.5732 58.0899 70.1463C58.1411 69.7193 58.3394 69.3872 58.6847 69.1499C59.0267 68.9053 59.5031 68.7814 60.1138 68.7781C60.7246 68.7749 61.3009 68.8932 61.8429 69.1331C62.3896 69.3656 62.8744 69.694 63.2973 70.1185C63.7282 70.5429 64.0696 71.0377 64.3217 71.6028C64.5737 72.1679 64.6757 72.6677 64.6277 73.102C64.5845 73.5289 64.3959 73.8647 64.0619 74.1092C63.7327 74.3464 63.2628 74.4666 62.652 74.4699ZM62.1807 73.413C62.8075 73.4097 63.1817 73.2642 63.3031 72.9766C63.4213 72.6817 63.343 72.226 63.068 71.6095C62.7931 70.993 62.4673 70.5423 62.0905 70.2573C61.7137 69.9724 61.2119 69.8317 60.5851 69.835C59.9503 69.8384 59.5721 69.9839 59.4506 70.2714C59.3292 70.559 59.4059 71.011 59.6808 71.6276C59.9558 72.2441 60.2832 72.6985 60.6633 72.9907C61.04 73.2756 61.5458 73.4164 62.1807 73.413ZM76.1365 74.2876L74.8346 74.2945L73.4158 71.1129C73.1998 70.6285 72.9439 70.2804 72.6481 70.0686C72.357 69.8494 71.9382 69.7413 71.3918 69.7442C70.9016 69.7468 70.5834 69.8552 70.4372 70.0694C70.2958 70.2761 70.3364 70.629 70.559 71.1281L70.3398 71.1513L69.6569 69.8638L69.8497 69.8628C69.8611 69.6715 69.9135 69.4909 70.007 69.3212C70.1052 69.1441 70.2664 68.9998 70.4905 68.8883C70.7147 68.7767 71.0236 68.7199 71.4174 68.7178C71.9397 68.715 72.4025 68.8045 72.8058 68.9863C73.2171 69.168 73.5711 69.4199 73.8678 69.7421C74.1725 70.0641 74.4182 70.4344 74.6047 70.8527L76.1365 74.2876ZM67.8191 74.332L66.5173 74.3389L64.0773 68.8673L65.2707 68.861L66.0022 70.5013L66.1352 70.5558L67.8191 74.332ZM71.9778 74.3098L70.676 74.3167L69.2571 71.135C69.0411 70.6506 68.7852 70.3026 68.4894 70.0908C68.1983 69.8716 67.7796 69.7635 67.2331 69.7664C66.7429 69.769 66.4231 69.8737 66.2737 70.0805C66.1323 70.2873 66.1728 70.6402 66.3954 71.1393L66.1811 71.1735L65.4982 69.886L65.7875 69.8845C65.7875 69.6858 65.8343 69.5017 65.9278 69.332C66.0293 69.1622 66.1921 69.0216 66.4162 68.91C66.6404 68.7985 66.9413 68.7417 67.319 68.7397C67.8252 68.737 68.276 68.8265 68.6712 69.0083C69.0745 69.1901 69.4245 69.4421 69.7212 69.7642C70.0179 70.0863 70.2595 70.4565 70.4461 70.8749L71.9778 74.3098ZM87.0017 74.2296L85.6998 74.2366L84.281 71.0549C84.065 70.5705 83.8091 70.2224 83.5132 70.0106C83.2222 69.7915 82.8034 69.6833 82.257 69.6863C81.7668 69.6889 81.4486 69.7972 81.3024 70.0114C81.161 70.2181 81.2016 70.571 81.4242 71.0701L81.205 71.0934L80.5221 69.8059L80.7149 69.8048C80.7263 69.6135 80.7787 69.433 80.8722 69.2633C80.9704 69.0862 81.1316 68.9419 81.3557 68.8303C81.5799 68.7188 81.8888 68.6619 82.2826 68.6598C82.8049 68.657 83.2677 68.7465 83.671 68.9283C84.0823 69.11 84.4363 69.362 84.733 69.6841C85.0377 70.0062 85.2834 70.3764 85.4699 70.7947L87.0017 74.2296ZM78.6843 74.274L77.3825 74.2809L74.9425 68.8093L76.1358 68.803L76.8674 70.4434L77.0004 70.4978L78.6843 74.274ZM82.843 74.2518L81.5412 74.2587L80.1223 71.0771C79.9063 70.5927 79.6504 70.2446 79.3546 70.0328C79.0635 69.8137 78.6448 69.7055 78.0983 69.7084C77.6081 69.7111 77.2883 69.8158 77.1389 70.0226C76.9974 70.2293 77.038 70.5822 77.2606 71.0813L77.0463 71.1156L76.3634 69.8281L76.6527 69.8265C76.6527 69.6279 76.6995 69.4437 76.793 69.274C76.8945 69.1042 77.0573 68.9636 77.2814 68.852C77.5056 68.7405 77.8065 68.6837 78.1842 68.6817C78.6904 68.679 79.1412 68.7686 79.5364 68.9504C79.9397 69.1321 80.2897 69.3841 80.5864 69.7062C80.8831 70.0283 81.1247 70.3986 81.3113 70.8169L82.843 74.2518ZM90.5268 74.3212C90.0125 74.3239 89.544 74.2308 89.1214 74.0417C88.6955 73.8454 88.3286 73.5825 88.0206 73.2531C87.7093 72.9163 87.462 72.5424 87.2787 72.1314L85.7715 68.7516L87.0734 68.7446L88.4824 71.9043C88.7017 72.396 88.9729 72.7514 89.2961 72.9704C89.6193 73.1893 90.0381 73.2975 90.5524 73.2947C90.8899 73.2929 91.1539 73.2437 91.3444 73.147C91.5316 73.043 91.638 72.8843 91.6637 72.6708C91.686 72.45 91.6186 72.1634 91.4615 71.8111L91.7991 71.8093L92.3784 73.1084L92.0891 73.11C92.0923 73.3159 92.0424 73.5112 91.9394 73.6956C91.8445 73.8801 91.6825 74.0317 91.4536 74.1507C91.2295 74.2622 90.9206 74.3191 90.5268 74.3212ZM93.8287 74.1932L92.6233 74.1996L91.8918 72.5592L91.7708 72.5047L90.0869 68.7285L91.3887 68.7216L93.8287 74.1932ZM100.692 74.1566L99.3897 74.1635L97.9709 70.9818C97.7549 70.4974 97.499 70.1494 97.2032 69.9376C96.9041 69.7185 96.4773 69.6104 95.9228 69.6133C95.5692 69.6152 95.3012 69.6645 95.1187 69.7611C94.933 69.8504 94.8297 69.9981 94.8088 70.2042C94.7847 70.4029 94.8495 70.6748 95.0034 71.0198L94.7743 71.021L94.0914 69.7335L94.3807 69.7319C94.3808 69.5333 94.4315 69.3491 94.533 69.1793C94.6346 69.0096 94.7974 68.8689 95.0215 68.7574C95.2537 68.6458 95.5626 68.589 95.9484 68.5869C96.4707 68.5841 96.9375 68.6736 97.3488 68.8553C97.7601 69.0371 98.1182 69.289 98.4229 69.611C98.7276 69.9331 98.9733 70.3033 99.1598 70.7217L100.692 74.1566ZM96.4124 74.1794L95.1105 74.1863L92.6705 68.7148L93.8639 68.7084L94.5954 70.3488L94.7284 70.4032L96.4124 74.1794ZM100.406 67.9783L99.1164 67.9851L98.5643 66.7742L99.8662 66.7672L100.406 67.9783ZM103.168 74.1434L101.866 74.1503L99.411 68.6457L100.713 68.6387L103.168 74.1434ZM106.823 74.1239C106.164 74.1274 105.601 74.0016 105.133 73.7466C104.672 73.4916 104.307 73.0595 104.035 72.4503L102.4 68.7842L102.044 67.3074L103.044 67.3021L105.312 72.3883C105.44 72.6746 105.598 72.8576 105.787 72.9376C105.98 73.0101 106.282 73.0453 106.692 73.0431L107.415 73.0392L107.852 74.019C107.744 74.049 107.599 74.0756 107.416 74.0986C107.23 74.1143 107.032 74.1227 106.823 74.1239ZM105.898 69.6374L101.787 69.6593L101.346 68.6685L105.456 68.6465L105.898 69.6374ZM110.436 75.9806C110.276 75.9815 110.106 75.9713 109.928 75.9502C109.752 75.9364 109.606 75.9151 109.488 75.8863L109.056 74.9175L109.888 74.9131C110.137 74.9118 110.307 74.8777 110.398 74.811C110.493 74.7517 110.548 74.6226 110.564 74.4239L110.594 73.6513L110.657 74.0372L105.655 68.6455L107.09 68.6378L109.478 71.2846L110.551 72.4707L110.659 72.4701L110.611 71.2786L110.525 68.6195L111.971 68.6118L111.851 74.7371C111.854 75.0681 111.802 75.3222 111.696 75.4994C111.59 75.6765 111.431 75.7987 111.219 75.8661C111.019 75.9407 110.758 75.9789 110.436 75.9806ZM118.779 74.0601L117.477 74.067L114.188 66.6908L115.49 66.6839L118.779 74.0601ZM123.251 74.0362L117.875 74.0649L117.394 72.986L122.77 72.9573L123.251 74.0362ZM121.657 70.8665L116.461 70.8942L115.98 69.8153L121.175 69.7876L121.657 70.8665ZM120.438 67.7279L115.062 67.7566L114.586 66.6887L119.962 66.66L120.438 67.7279ZM129.956 74.0004L128.654 74.0074L127.235 70.8257C127.019 70.3413 126.763 69.9932 126.467 69.7814C126.168 69.5623 125.741 69.4542 125.187 69.4572C124.833 69.4591 124.565 69.5083 124.383 69.605C124.197 69.6942 124.094 69.8419 124.073 70.048C124.049 70.2468 124.114 70.5187 124.268 70.8636L124.039 70.8648L123.356 69.5773L123.645 69.5758C123.645 69.3772 123.696 69.193 123.797 69.0232C123.899 68.8535 124.062 68.7128 124.286 68.6013C124.518 68.4897 124.827 68.4328 125.213 68.4308C125.735 68.428 126.202 68.5175 126.613 68.6992C127.024 68.8809 127.382 69.1328 127.687 69.4549C127.992 69.777 128.237 70.1472 128.424 70.5655L129.956 74.0004ZM125.677 74.0233L124.375 74.0302L121.935 68.5586L123.128 68.5523L123.86 70.1926L123.993 70.2471L125.677 74.0233ZM134.895 75.9605C134.333 75.9635 133.806 75.8853 133.317 75.7261C132.835 75.5668 132.413 75.3336 132.05 75.0266C131.691 74.7269 131.413 74.3568 131.217 73.9165L132.519 73.9095C132.63 74.159 132.758 74.357 132.904 74.5034C133.05 74.6497 133.244 74.7517 133.488 74.8092C133.734 74.8741 134.058 74.9055 134.46 74.9034C134.854 74.9013 135.137 74.8593 135.31 74.7774C135.483 74.6956 135.567 74.559 135.562 74.3678C135.558 74.1765 135.48 73.9121 135.329 73.5745L133.709 69.9414L133.742 69.7978L133.163 68.4987L134.368 68.4923L136.631 73.5675C136.87 74.1033 136.954 74.5443 136.883 74.8904C136.815 75.2439 136.611 75.5099 136.272 75.6883C135.941 75.8666 135.482 75.9573 134.895 75.9605ZM133.274 73.4641C132.447 73.4685 131.71 73.2443 131.065 72.7916C130.417 72.3316 129.921 71.7163 129.578 70.9456C129.234 70.175 129.186 69.5609 129.433 69.1035C129.677 68.6387 130.221 68.4041 131.064 68.3996C131.554 68.3969 132.017 68.4864 132.453 68.668C132.885 68.8423 133.24 69.0869 133.517 69.4017L133.758 69.4004L134.297 70.7439L134.068 70.7451C133.93 70.4369 133.749 70.184 133.524 69.9866C133.299 69.7891 133.041 69.6434 132.749 69.5493C132.457 69.4552 132.147 69.409 131.817 69.4108C131.44 69.4128 131.152 69.4622 130.953 69.5589C130.762 69.6555 130.662 69.8179 130.651 70.046C130.636 70.2668 130.713 70.5644 130.88 70.9387C131.004 71.2176 131.142 71.456 131.295 71.6538C131.445 71.8443 131.614 71.9978 131.803 72.1146C131.992 72.2313 132.204 72.3184 132.439 72.376C132.671 72.4263 132.923 72.4507 133.196 72.4492C133.526 72.4475 133.79 72.3982 133.988 72.3015C134.184 72.1975 134.305 72.046 134.354 71.8471C134.402 71.6482 134.357 71.3947 134.22 71.0864L134.485 71.085L135.109 72.4832L134.795 72.4848C134.776 72.7498 134.641 72.9786 134.388 73.1712C134.136 73.3638 133.765 73.4614 133.274 73.4641ZM143.163 73.93L141.958 73.9364L141.477 72.8575L141.308 72.5604L140.37 70.4577C140.187 70.0467 139.954 69.7683 139.672 69.6227C139.397 69.477 139.023 69.4055 138.549 69.408C138.075 69.4105 137.768 69.4894 137.628 69.6446C137.495 69.7998 137.51 70.0573 137.67 70.4169L137.744 70.582L136.49 70.5887L136.441 70.4786C136.258 70.0676 136.204 69.7037 136.28 69.387C136.365 69.0702 136.564 68.8227 136.879 68.6444C137.199 68.4588 137.625 68.3646 138.155 68.3617C138.718 68.3587 139.226 68.4516 139.681 68.6405C140.136 68.8294 140.531 69.0921 140.866 69.4287C141.206 69.758 141.478 70.1501 141.681 70.6052L143.163 73.93ZM139.777 74.0584C139.239 74.0613 138.729 73.9389 138.248 73.6913C137.772 73.4364 137.429 73.074 137.22 72.6043C137.082 72.2961 137.044 72.0388 137.105 71.8324C137.174 71.6261 137.328 71.4561 137.566 71.3224C137.805 71.1887 138.125 71.095 138.528 71.0413L140.619 70.7433L140.992 71.58L139.089 71.866C138.764 71.9119 138.552 71.9792 138.455 72.068C138.357 72.1568 138.354 72.304 138.446 72.5095C138.541 72.7223 138.69 72.876 138.893 72.9706C139.105 73.0651 139.399 73.1114 139.777 73.1093C140.066 73.1078 140.325 73.0659 140.555 72.9838C140.788 72.8943 140.95 72.7499 141.038 72.5508C141.123 72.3444 141.084 72.0577 140.92 71.6907L141.713 73.088L141.515 73.078C141.478 73.2474 141.391 73.406 141.256 73.5539C141.128 73.7017 140.945 73.8241 140.707 73.921C140.465 74.0106 140.155 74.0564 139.777 74.0584ZM148.103 75.89C147.54 75.893 147.014 75.8149 146.524 75.6556C146.042 75.4963 145.62 75.2632 145.258 74.9561C144.899 74.6564 144.621 74.2864 144.424 73.846L145.726 73.839C145.838 74.0886 145.966 74.2865 146.112 74.4329C146.258 74.5793 146.452 74.6812 146.695 74.7388C146.942 74.8037 147.266 74.835 147.668 74.8329C148.062 74.8308 148.345 74.7888 148.518 74.707C148.691 74.6251 148.775 74.4886 148.77 74.2973C148.765 74.1061 148.688 73.8416 148.537 73.504L146.917 69.871L146.95 69.7273L146.37 68.4282L147.576 68.4218L149.839 73.4971C150.078 74.0328 150.162 74.4738 150.091 74.82C150.023 75.1735 149.819 75.4394 149.48 75.6178C149.148 75.7961 148.69 75.8869 148.103 75.89ZM146.482 73.3936C145.654 73.398 144.918 73.1739 144.273 72.7212C143.625 72.2611 143.129 71.6458 142.785 70.8752C142.442 70.1045 142.394 69.4905 142.641 69.033C142.884 68.5682 143.428 68.3336 144.272 68.3291C144.762 68.3265 145.225 68.416 145.66 68.5976C146.093 68.7718 146.447 69.0164 146.725 69.3313L146.966 69.33L147.504 70.6734L147.275 70.6746C147.138 70.3664 146.957 70.1135 146.732 69.9161C146.507 69.7187 146.248 69.5729 145.957 69.4788C145.665 69.3847 145.355 69.3386 145.025 69.3403C144.647 69.3423 144.359 69.3917 144.161 69.4884C143.97 69.5851 143.869 69.7474 143.858 69.9756C143.844 70.1964 143.92 70.4939 144.087 70.8682C144.212 71.1471 144.35 71.3855 144.503 71.5833C144.652 71.7738 144.821 71.9274 145.01 72.0441C145.199 72.1608 145.411 72.2479 145.647 72.3055C145.878 72.3558 146.131 72.3802 146.404 72.3787C146.734 72.377 146.998 72.3278 147.196 72.2311C147.391 72.127 147.513 71.9756 147.561 71.7767C147.61 71.5778 147.565 71.3242 147.428 71.0159L147.693 71.0145L148.316 72.4127L148.003 72.4144C147.984 72.6793 147.849 72.9081 147.596 73.1007C147.344 73.2934 146.972 73.391 146.482 73.3936ZM153.951 73.9828C153.3 73.9862 152.705 73.8717 152.166 73.6391C151.624 73.3993 151.154 73.067 150.755 72.6425C150.353 72.2105 150.026 71.712 149.774 71.1469C149.522 70.5817 149.418 70.0857 149.461 69.6588C149.512 69.2318 149.702 68.8997 150.031 68.6625C150.357 68.418 150.818 68.2942 151.412 68.291C151.951 68.2881 152.467 68.381 152.962 68.5696C153.462 68.7509 153.903 69.0171 154.285 69.3682C154.675 69.7192 154.982 70.1443 155.204 70.6434C155.27 70.7902 155.325 70.9333 155.372 71.0729C155.422 71.205 155.46 71.3152 155.483 71.4033L150.516 71.4298L150.163 70.6372L154.068 70.6163L153.985 70.7271C153.867 70.3893 153.704 70.1143 153.496 69.9021C153.297 69.6898 153.054 69.5329 152.767 69.4314C152.488 69.3299 152.172 69.2801 151.818 69.282C151.183 69.2854 150.815 69.4345 150.713 69.7293C150.607 70.0168 150.667 70.4138 150.893 70.9202L151.041 71.2505C151.204 71.6174 151.392 71.9291 151.603 72.1855C151.818 72.4345 152.079 72.6207 152.383 72.7441C152.688 72.8676 153.057 72.9281 153.491 72.9258C153.998 72.9231 154.322 72.8478 154.466 72.6999C154.609 72.552 154.627 72.3569 154.519 72.1147L154.48 72.0267L155.77 72.0198L155.814 72.1189C155.981 72.4932 156.014 72.8204 155.913 73.1005C155.809 73.3733 155.591 73.5878 155.258 73.744C154.933 73.9003 154.497 73.9798 153.951 73.9828ZM167.296 73.8012L165.994 73.8081L164.575 70.6265C164.359 70.1421 164.103 69.794 163.807 69.5822C163.516 69.3631 163.098 69.2549 162.551 69.2579C162.061 69.2605 161.743 69.3688 161.597 69.583C161.455 69.7897 161.496 70.1426 161.718 70.6417L161.499 70.665L160.816 69.3775L161.009 69.3764C161.02 69.1851 161.073 69.0046 161.166 68.8349C161.265 68.6578 161.426 68.5134 161.65 68.4019C161.874 68.2903 162.183 68.2335 162.577 68.2314C163.099 68.2286 163.562 68.3181 163.965 68.4999C164.376 68.6816 164.73 68.9336 165.027 69.2557C165.332 69.5778 165.577 69.948 165.764 70.3663L167.296 73.8012ZM158.978 73.8456L157.677 73.8525L155.237 68.3809L156.43 68.3746L157.161 70.0149L157.294 70.0694L158.978 73.8456ZM163.137 73.8234L161.835 73.8303L160.416 70.6487C160.2 70.1643 159.945 69.8162 159.649 69.6044C159.358 69.3852 158.939 69.2771 158.392 69.28C157.902 69.2827 157.582 69.3874 157.433 69.5942C157.292 69.8009 157.332 70.1538 157.555 70.6529L157.34 70.6872L156.658 69.3997L156.947 69.3981C156.947 69.1995 156.994 69.0153 157.087 68.8456C157.189 68.6758 157.351 68.5352 157.576 68.4236C157.8 68.3121 158.101 68.2553 158.478 68.2533C158.985 68.2506 159.435 68.3401 159.831 68.522C160.234 68.7037 160.584 68.9557 160.88 69.2778C161.177 69.5999 161.419 69.9702 161.605 70.3885L163.137 73.8234ZM171.231 73.8906C170.58 73.894 169.986 73.7795 169.447 73.5469C168.905 73.3071 168.435 72.9748 168.036 72.5503C167.634 72.1183 167.307 71.6198 167.055 71.0547C166.803 70.4895 166.698 69.9935 166.742 69.5666C166.793 69.1396 166.983 68.8075 167.312 68.5703C167.638 68.3258 168.098 68.202 168.693 68.1988C169.232 68.1959 169.748 68.2888 170.243 68.4774C170.743 68.6587 171.184 68.9249 171.566 69.276C171.956 69.627 172.262 70.0521 172.485 70.5512C172.55 70.698 172.606 70.8411 172.652 70.9807C172.703 71.1128 172.74 71.223 172.763 71.3111L167.797 71.3376L167.444 70.545L171.349 70.5241L171.266 70.6349C171.147 70.2971 170.984 70.0221 170.777 69.8099C170.578 69.5976 170.334 69.4407 170.047 69.3392C169.769 69.2377 169.452 69.1879 169.099 69.1898C168.464 69.1932 168.095 69.3423 167.993 69.6371C167.888 69.9246 167.948 70.3216 168.174 70.828L168.321 71.1583C168.485 71.5252 168.672 71.8369 168.883 72.0933C169.099 72.3423 169.359 72.5285 169.664 72.6519C169.969 72.7754 170.338 72.8359 170.772 72.8336C171.278 72.8309 171.603 72.7556 171.747 72.6077C171.89 72.4598 171.908 72.2647 171.8 72.0225L171.761 71.9345L173.05 71.9276L173.095 72.0267C173.262 72.401 173.295 72.7282 173.194 73.0083C173.09 73.281 172.872 73.4956 172.539 73.6518C172.214 73.8081 171.778 73.8876 171.231 73.8906ZM180.538 73.7305L179.237 73.7375L177.818 70.5558C177.602 70.0714 177.346 69.7233 177.05 69.5116C176.751 69.2924 176.324 69.1844 175.77 69.1873C175.416 69.1892 175.148 69.2385 174.966 69.3351C174.78 69.4243 174.676 69.572 174.656 69.7781C174.631 69.9769 174.696 70.2488 174.85 70.5937L174.621 70.595L173.938 69.3075L174.228 69.3059C174.228 69.1073 174.278 68.9231 174.38 68.7533C174.481 68.5836 174.644 68.4429 174.868 68.3314C175.1 68.2198 175.409 68.163 175.795 68.1609C176.318 68.1581 176.784 68.2476 177.196 68.4293C177.607 68.611 177.965 68.8629 178.27 69.185C178.574 69.5071 178.82 69.8773 179.007 70.2957L180.538 73.7305ZM176.259 73.7534L174.957 73.7603L172.517 68.2887L173.711 68.2824L174.442 69.9227L174.575 69.9772L176.259 73.7534ZM184.221 73.7109C183.563 73.7144 182.999 73.5887 182.531 73.3337C182.071 73.0786 181.705 72.6465 181.433 72.0374L179.798 68.3713L179.442 66.8944L180.442 66.8891L182.71 71.9754C182.838 72.2616 182.996 72.4447 183.185 72.5246C183.378 72.5971 183.68 72.6323 184.09 72.6301L184.813 72.6263L185.25 73.6061C185.143 73.6361 184.997 73.6626 184.814 73.6857C184.628 73.7014 184.43 73.7098 184.221 73.7109ZM183.296 69.2244L179.186 69.2463L178.744 68.2555L182.854 68.2336L183.296 69.2244Z"
        fill="white" />
    <rect x="0.42409" y="0.273623" width="42.7972" height="55" rx="7.53393"
        transform="matrix(0.999986 -0.00533541 0.40728 0.913303 50.6366 194.887)" fill="url(#paint17_linear_7760_8821)"
        fill-opacity="0.8" />
    <rect x="0.42409" y="0.273623" width="42.7972" height="55" rx="7.53393"
        transform="matrix(0.999986 -0.00533541 0.40728 0.913303 50.6366 194.887)"
        stroke="url(#paint18_linear_7760_8821)" stroke-width="0.602715" />
    <rect x="0.42409" y="0.273623" width="42.7972" height="55" rx="7.53393"
        transform="matrix(0.999986 -0.00533541 0.40728 0.913303 52.31 188.472)" fill="url(#paint19_linear_7760_8821)"
        fill-opacity="0.8" />
    <rect x="0.42409" y="0.273623" width="42.7972" height="55" rx="7.53393"
        transform="matrix(0.999986 -0.00533541 0.40728 0.913303 52.31 188.472)" stroke="url(#paint20_linear_7760_8821)"
        stroke-width="0.602715" />
    <rect x="0.42409" y="0.273623" width="42.7972" height="55" rx="7.53393"
        transform="matrix(0.999986 -0.00533541 0.40728 0.913303 54.5927 179.724)" fill="url(#paint21_linear_7760_8821)"
        fill-opacity="0.8" />
    <rect x="0.42409" y="0.273623" width="42.7972" height="55" rx="7.53393"
        transform="matrix(0.999986 -0.00533541 0.40728 0.913303 54.5927 179.724)"
        stroke="url(#paint22_linear_7760_8821)" stroke-width="0.602715" />
    <g clip-path="url(#clip0_7760_8821)">
        <path
            d="M80.7756 203.371L81.0448 203.382L80.8405 203.091L79.2998 200.896C78.6834 200.018 78.6003 199.144 79.1943 198.497C79.7864 197.853 80.9849 197.518 82.5384 197.582C84.1557 197.648 85.9014 198.128 87.405 198.835C88.9171 199.546 90.1175 200.451 90.7609 201.368L92.3016 203.563L92.5059 203.854L92.7752 203.865C93.6467 203.901 94.6252 204.157 95.485 204.561C96.3496 204.968 96.9609 205.457 97.2708 205.899L100.737 210.837C101.047 211.279 101.107 211.746 100.779 212.103C100.452 212.459 99.7861 212.647 98.9147 212.611L86.915 212.118C86.0436 212.082 85.0651 211.826 84.2052 211.422C83.3406 211.015 82.7293 210.525 82.4194 210.084L78.9528 205.145C78.6429 204.704 78.5828 204.237 78.9112 203.879C79.2379 203.524 79.9041 203.335 80.7756 203.371ZM91.061 203.794L91.3302 203.805L91.1259 203.514L89.5852 201.319C88.9756 200.451 87.8925 199.651 86.6603 199.072C85.4234 198.49 84.0745 198.145 82.9001 198.097C81.7257 198.049 80.795 198.3 80.3251 198.811C79.857 199.32 79.866 200.076 80.4755 200.945L82.0162 203.14L82.2205 203.431L82.4898 203.442L91.061 203.794Z"
            fill="white" fill-opacity="0.8" stroke="url(#paint23_linear_7760_8821)" stroke-width="0.602715" />
    </g>
    <rect x="0.42409" y="0.273623" width="42.7972" height="55" rx="7.53393"
        transform="matrix(0.999986 -0.00533541 0.40728 0.913303 392.143 91.2941)" fill="url(#paint24_linear_7760_8821)"
        fill-opacity="0.8" />
    <rect x="0.42409" y="0.273623" width="42.7972" height="55" rx="7.53393"
        transform="matrix(0.999986 -0.00533541 0.40728 0.913303 392.143 91.2941)"
        stroke="url(#paint25_linear_7760_8821)" stroke-width="0.602715" />
    <rect x="0.42409" y="0.273623" width="42.7972" height="55" rx="7.53393"
        transform="matrix(0.999986 -0.00533541 0.40728 0.913303 393.817 84.879)" fill="url(#paint26_linear_7760_8821)"
        fill-opacity="0.8" />
    <rect x="0.42409" y="0.273623" width="42.7972" height="55" rx="7.53393"
        transform="matrix(0.999986 -0.00533541 0.40728 0.913303 393.817 84.879)" stroke="url(#paint27_linear_7760_8821)"
        stroke-width="0.602715" />
    <rect x="0.42409" y="0.273623" width="42.7972" height="55" rx="7.53393"
        transform="matrix(0.999986 -0.00533541 0.40728 0.913303 396.102 76.1315)" fill="url(#paint28_linear_7760_8821)"
        fill-opacity="0.8" />
    <rect x="0.42409" y="0.273623" width="42.7972" height="55" rx="7.53393"
        transform="matrix(0.999986 -0.00533541 0.40728 0.913303 396.102 76.1315)"
        stroke="url(#paint29_linear_7760_8821)" stroke-width="0.602715" />
    <g clip-path="url(#clip1_7760_8821)">
        <path
            d="M422.285 99.7789L422.555 99.79L422.35 99.4989L420.81 97.3039C420.193 96.4258 420.11 95.5513 420.704 94.905C421.296 94.2607 422.495 93.9255 424.048 93.9894C425.665 94.0559 427.411 94.5357 428.915 95.2426C430.427 95.9534 431.627 96.8586 432.271 97.7753L433.811 99.9703L434.016 100.261L434.285 100.272C435.156 100.308 436.135 100.565 436.995 100.969C437.859 101.375 438.471 101.865 438.781 102.306L442.247 107.245C442.557 107.687 442.617 108.154 442.289 108.511C441.962 108.866 441.296 109.055 440.424 109.019L428.425 108.526C427.553 108.49 426.575 108.233 425.715 107.829C424.85 107.423 424.239 106.933 423.929 106.492L420.463 101.553C420.153 101.111 420.093 100.645 420.421 100.287C420.748 99.9317 421.414 99.7431 422.285 99.7789ZM432.571 100.202L432.84 100.213L432.636 99.9219L431.095 97.7269C430.485 96.8586 429.402 96.0585 428.17 95.4793C426.933 94.8978 425.584 94.553 424.41 94.5047C423.235 94.4564 422.305 94.7075 421.835 95.2187C421.367 95.728 421.376 96.4839 421.985 97.3523L423.526 99.5473L423.73 99.8383L424 99.8494L432.571 100.202Z"
            fill="white" fill-opacity="0.8" stroke="url(#paint30_linear_7760_8821)" stroke-width="0.602715" />
    </g>
    <defs>
        <linearGradient id="paint0_linear_7760_8821" x1="0" y1="41.5873" x2="276.043" y2="41.5873"
            gradientUnits="userSpaceOnUse">
            <stop stop-color="#079BFD" />
            <stop offset="1" stop-color="#045D97" />
        </linearGradient>
        <linearGradient id="paint1_linear_7760_8821" x1="276.043" y1="28.2794" x2="62.1747" y2="50.3245"
            gradientUnits="userSpaceOnUse">
            <stop stop-color="white" />
            <stop offset="1" stop-color="#9BD8FA" />
        </linearGradient>
        <linearGradient id="paint2_linear_7760_8821" x1="0" y1="41.5873" x2="276.043" y2="41.5873"
            gradientUnits="userSpaceOnUse">
            <stop stop-color="#079BFD" />
            <stop offset="1" stop-color="#045D97" />
        </linearGradient>
        <linearGradient id="paint3_linear_7760_8821" x1="276.043" y1="28.2794" x2="62.1747" y2="50.3245"
            gradientUnits="userSpaceOnUse">
            <stop stop-color="white" />
            <stop offset="1" stop-color="#9BD8FA" />
        </linearGradient>
        <linearGradient id="paint4_linear_7760_8821" x1="300.6" y1="35.1177" x2="67.1387" y2="56.2203"
            gradientUnits="userSpaceOnUse">
            <stop stop-color="#07619D" />
            <stop offset="1" stop-color="#2189C3" />
        </linearGradient>
        <linearGradient id="paint5_linear_7760_8821" x1="314.765" y1="39.2503" x2="70.06" y2="59.9729"
            gradientUnits="userSpaceOnUse">
            <stop stop-color="#07619D" />
            <stop offset="1" stop-color="#2189C3" />
        </linearGradient>
        <linearGradient id="paint6_linear_7760_8821" x1="329.99" y1="45.8934" x2="73.0901" y2="65.3997"
            gradientUnits="userSpaceOnUse">
            <stop stop-color="#07619D" />
            <stop offset="1" stop-color="#2189C3" />
        </linearGradient>
        <linearGradient id="paint7_linear_7760_8821" x1="0" y1="41.9787" x2="276.043" y2="41.9787"
            gradientUnits="userSpaceOnUse">
            <stop stop-color="#079BFD" />
            <stop offset="1" stop-color="#045D97" />
        </linearGradient>
        <linearGradient id="paint8_linear_7760_8821" x1="276.043" y1="28.5455" x2="62.133" y2="50.3894"
            gradientUnits="userSpaceOnUse">
            <stop stop-color="white" />
            <stop offset="1" stop-color="#9BD8FA" />
        </linearGradient>
        <linearGradient id="paint9_linear_7760_8821" x1="0" y1="25.9787" x2="120.543" y2="25.9787"
            gradientUnits="userSpaceOnUse">
            <stop stop-color="#079BFD" />
            <stop offset="1" stop-color="#045D97" />
        </linearGradient>
        <linearGradient id="paint10_linear_7760_8821" x1="120.543" y1="17.6655" x2="26.6458" y2="24.4314"
            gradientUnits="userSpaceOnUse">
            <stop stop-color="white" />
            <stop offset="1" stop-color="#9BD8FA" />
        </linearGradient>
        <linearGradient id="paint11_linear_7760_8821" x1="0" y1="25.9787" x2="120.543" y2="25.9787"
            gradientUnits="userSpaceOnUse">
            <stop stop-color="#079BFD" />
            <stop offset="1" stop-color="#045D97" />
        </linearGradient>
        <linearGradient id="paint12_linear_7760_8821" x1="120.543" y1="17.6655" x2="26.6458" y2="24.4314"
            gradientUnits="userSpaceOnUse">
            <stop stop-color="white" />
            <stop offset="1" stop-color="#9BD8FA" />
        </linearGradient>
        <linearGradient id="paint13_linear_7760_8821" x1="0" y1="25.9787" x2="120.543" y2="25.9787"
            gradientUnits="userSpaceOnUse">
            <stop stop-color="#079BFD" />
            <stop offset="1" stop-color="#045D97" />
        </linearGradient>
        <linearGradient id="paint14_linear_7760_8821" x1="120.543" y1="17.6655" x2="26.6458" y2="24.4314"
            gradientUnits="userSpaceOnUse">
            <stop stop-color="white" />
            <stop offset="1" stop-color="#9BD8FA" />
        </linearGradient>
        <linearGradient id="paint15_linear_7760_8821" x1="0" y1="27.2765" x2="191.122" y2="27.2765"
            gradientUnits="userSpaceOnUse">
            <stop stop-color="#079BFD" />
            <stop offset="1" stop-color="#045D97" />
        </linearGradient>
        <linearGradient id="paint16_linear_7760_8821" x1="191.122" y1="18.548" x2="43.2253" y2="34.6408"
            gradientUnits="userSpaceOnUse">
            <stop stop-color="white" />
            <stop offset="1" stop-color="#9BD8FA" />
        </linearGradient>
        <linearGradient id="paint17_linear_7760_8821" x1="0" y1="27.8014" x2="43.3999" y2="27.8014"
            gradientUnits="userSpaceOnUse">
            <stop stop-color="#079BFD" />
            <stop offset="1" stop-color="#045D97" />
        </linearGradient>
        <linearGradient id="paint18_linear_7760_8821" x1="43.3999" y1="18.9049" x2="9.43789" y2="19.7282"
            gradientUnits="userSpaceOnUse">
            <stop stop-color="white" />
            <stop offset="1" stop-color="#9BD8FA" />
        </linearGradient>
        <linearGradient id="paint19_linear_7760_8821" x1="0" y1="27.8014" x2="43.3999" y2="27.8014"
            gradientUnits="userSpaceOnUse">
            <stop stop-color="#079BFD" />
            <stop offset="1" stop-color="#045D97" />
        </linearGradient>
        <linearGradient id="paint20_linear_7760_8821" x1="43.3999" y1="18.9049" x2="9.43789" y2="19.7282"
            gradientUnits="userSpaceOnUse">
            <stop stop-color="white" />
            <stop offset="1" stop-color="#9BD8FA" />
        </linearGradient>
        <linearGradient id="paint21_linear_7760_8821" x1="0" y1="27.8014" x2="43.3999" y2="27.8014"
            gradientUnits="userSpaceOnUse">
            <stop stop-color="#079BFD" />
            <stop offset="1" stop-color="#045D97" />
        </linearGradient>
        <linearGradient id="paint22_linear_7760_8821" x1="43.3999" y1="18.9049" x2="9.43789" y2="19.7282"
            gradientUnits="userSpaceOnUse">
            <stop stop-color="white" />
            <stop offset="1" stop-color="#9BD8FA" />
        </linearGradient>
        <linearGradient id="paint23_linear_7760_8821" x1="77.1314" y1="202.363" x2="82.2481" y2="216.571"
            gradientUnits="userSpaceOnUse">
            <stop stop-color="white" />
            <stop offset="1" stop-color="#054E80" />
        </linearGradient>
        <linearGradient id="paint24_linear_7760_8821" x1="0" y1="27.8014" x2="43.3999" y2="27.8014"
            gradientUnits="userSpaceOnUse">
            <stop stop-color="#079BFD" />
            <stop offset="1" stop-color="#045D97" />
        </linearGradient>
        <linearGradient id="paint25_linear_7760_8821" x1="43.3999" y1="18.9049" x2="9.43789" y2="19.7282"
            gradientUnits="userSpaceOnUse">
            <stop stop-color="white" />
            <stop offset="1" stop-color="#9BD8FA" />
        </linearGradient>
        <linearGradient id="paint26_linear_7760_8821" x1="0" y1="27.8014" x2="43.3999" y2="27.8014"
            gradientUnits="userSpaceOnUse">
            <stop stop-color="#079BFD" />
            <stop offset="1" stop-color="#045D97" />
        </linearGradient>
        <linearGradient id="paint27_linear_7760_8821" x1="43.3999" y1="18.9049" x2="9.43789" y2="19.7282"
            gradientUnits="userSpaceOnUse">
            <stop stop-color="white" />
            <stop offset="1" stop-color="#9BD8FA" />
        </linearGradient>
        <linearGradient id="paint28_linear_7760_8821" x1="0" y1="27.8014" x2="43.3999" y2="27.8014"
            gradientUnits="userSpaceOnUse">
            <stop stop-color="#079BFD" />
            <stop offset="1" stop-color="#045D97" />
        </linearGradient>
        <linearGradient id="paint29_linear_7760_8821" x1="43.3999" y1="18.9049" x2="9.43789" y2="19.7282"
            gradientUnits="userSpaceOnUse">
            <stop stop-color="white" />
            <stop offset="1" stop-color="#9BD8FA" />
        </linearGradient>
        <linearGradient id="paint30_linear_7760_8821" x1="418.641" y1="98.7705" x2="423.758" y2="112.978"
            gradientUnits="userSpaceOnUse">
            <stop stop-color="white" />
            <stop offset="1" stop-color="#054E80" />
        </linearGradient>
        <clipPath id="clip0_7760_8821">
            <rect width="30.6981" height="18.1803" fill="white"
                transform="matrix(0.893467 0.0367465 0.677978 0.965885 67.8496 195.629)" />
        </clipPath>
        <clipPath id="clip1_7760_8821">
            <rect width="30.6981" height="18.1803" fill="white"
                transform="matrix(0.893467 0.0367465 0.677978 0.965885 409.359 92.0366)" />
        </clipPath>
    </defs>
</svg>