<svg width="274" height="281" viewBox="0 0 274 281" fill="none" xmlns="http://www.w3.org/2000/svg">
    <path
        d="M77.3307 116.861H92.639C94.6785 116.861 96.3309 118.513 96.3309 120.534V166.459C96.3309 168.498 94.6785 170.15 92.639 170.15H77.3307C75.2912 170.15 73.6571 168.498 73.6571 166.459V120.534C73.6571 118.52 75.2973 116.861 77.3307 116.861ZM84.9971 89.3052C95.8457 89.3052 101.331 102.484 93.6342 110.161C85.9554 117.856 72.7726 112.372 72.7726 101.526C72.7725 94.771 78.2398 89.3052 84.9971 89.3052ZM106.903 57.1184C105.613 117.494 105.49 124.022 164.242 153.857L178.297 146.53C216.709 125.834 221.937 115.351 221.882 77.7165C221.882 66.1769 221.427 52.6107 221.237 39.9411C199.626 35.9554 179.55 25.6993 164.242 10.1556C148.921 25.6932 128.858 35.9492 107.235 39.9349C107.143 46.15 107.026 51.843 106.903 57.1184ZM129.835 143.324C104.919 127.553 99.7956 114.982 99.2735 85.301C78.6575 78.8772 56.2294 87.6347 45.3809 106.403C32.5973 128.567 40.1901 156.921 62.3786 169.732H62.3602C88.1116 184.582 121.007 171.704 129.835 143.324ZM99.4332 63.6958C70.9972 57.6896 41.7934 70.746 27.2529 95.9194C10.5869 124.784 17.59 161.497 43.5687 182.162L43.5503 182.181C44.9632 183.292 45.3809 185.282 44.4533 186.879L37.3336 199.204L49.3309 206.132L56.3339 194.033C57.1509 192.326 59.1719 191.509 60.9657 192.222C95.6552 205.8 134.798 188.703 148.325 153.887C143.939 151.554 139.934 149.361 136.291 147.236C130.492 163.812 116.769 176.917 99.4455 181.462C85.1814 185.202 70.4689 183.028 58.6805 176.082C32.8369 161.183 24.1875 127.86 39.0229 102.724V102.706C51.143 81.7267 75.8195 71.4584 99.2182 77.6182C99.2366 73.3254 99.3287 68.6948 99.4332 63.6958ZM124.73 64.2362C123.827 106.188 123.735 110.874 164.242 131.484C204.73 110.874 204.638 106.188 203.735 64.2362C203.668 60.7357 203.594 56.9956 203.526 52.9362C188.691 50.0313 174.937 43.0118 164.242 32.4794C153.553 43.0118 139.774 50.0252 124.939 52.9362C124.89 57.014 124.804 60.7418 124.73 64.2362ZM162.571 138.884C116.29 115.467 116.394 110.806 117.383 64.095C117.469 59.6916 117.573 54.9198 117.647 49.8041C117.666 47.9617 119.042 46.4632 120.817 46.2175C136.211 43.9391 151.114 36.1396 161.514 24.6983C162.976 23.0954 165.483 23.077 166.982 24.7167C177.584 36.33 192.094 43.7978 207.71 46.2175C209.522 46.4939 210.812 48.0477 210.824 49.8225C210.892 54.926 210.996 59.7101 211.088 64.095C212.084 110.8 212.188 115.467 165.9 138.884C164.801 139.443 163.578 139.388 162.571 138.884ZM164.242 50.713C174.255 50.713 182.229 59.0529 182.229 69.0817C182.229 79.1965 176.172 81.1311 176.172 83.2007V103.258C176.172 108.061 172.289 112.083 167.467 112.083H162.331C157.528 112.083 153.645 108.061 153.645 103.258V83.2007C153.645 82.6418 153.246 83.4095 152.724 82.9366C150.039 80.4801 146.261 77.0532 146.261 69.0818C146.255 59.0529 154.229 50.713 164.242 50.713ZM253.727 59.9741C258.131 64.3775 265.307 64.4327 269.748 59.9926C274.171 55.5708 274.171 48.3977 269.748 43.9759C262.64 36.8581 250.422 41.9063 250.422 51.9843C250.422 55.0979 251.675 57.9352 253.727 59.9741ZM256.534 3.60279C249.415 -3.51502 237.172 1.55159 237.172 11.6111C237.172 21.689 249.415 26.7556 256.534 19.6378C260.957 15.2161 260.957 8.02456 256.534 3.60279ZM209.067 172.361C202.851 166.146 192.162 170.567 192.162 179.374C192.162 188.162 202.851 192.584 209.067 186.375C212.931 182.512 212.931 176.242 209.067 172.361ZM137.895 235.85C135.873 235.868 134.203 234.247 134.184 232.226C134.166 230.187 135.787 228.535 137.809 228.499L187.106 227.891C189.146 227.872 190.798 229.493 190.835 231.514C190.853 233.553 189.232 235.205 187.198 235.242L137.895 235.85ZM137.895 220.773C135.855 220.791 134.203 219.151 134.184 217.137C134.166 215.123 135.806 213.446 137.821 213.428L203.711 212.82C205.75 212.801 207.403 214.441 207.421 216.455C207.439 218.494 205.799 220.146 203.784 220.165L137.895 220.773ZM255.349 150.025C264.803 150.025 269.576 138.553 262.886 131.865C259.962 128.941 255.57 127.946 251.657 129.408C251.171 131.687 249.077 133.289 246.749 133.117C241.644 140.125 246.644 150.025 255.349 150.025ZM137.895 275.824C135.873 275.842 134.203 274.221 134.184 272.188C134.166 270.168 135.787 268.497 137.809 268.479L187.106 267.871C189.146 267.834 190.798 269.474 190.835 271.494C190.853 273.533 189.232 275.185 187.198 275.203L137.895 275.824ZM137.895 260.747C135.855 260.765 134.203 259.125 134.184 257.111C134.166 255.072 135.806 253.42 137.821 253.402L203.711 252.794C205.75 252.775 207.403 254.415 207.421 256.429C207.439 258.468 205.799 260.12 203.784 260.139L137.895 260.747ZM84.1248 3.78089C74.5847 3.78089 69.7932 15.3757 76.5321 22.1128C83.2709 28.8683 94.8689 24.0596 94.8689 14.5221C94.8689 8.58342 90.0651 3.78089 84.1248 3.78089ZM107.18 32.031C108.592 33.4927 108.537 35.8264 107.075 37.2389C105.613 38.633 103.279 38.5961 101.884 37.1345L87.7246 22.4567C86.3117 20.9951 86.367 18.6798 87.829 17.2673C89.2911 15.8548 91.6254 15.91 93.0383 17.3717L107.18 32.031ZM228.025 77.6796C225.985 77.6796 224.333 76.046 224.333 74.0071C224.333 71.9682 225.985 70.3162 228.025 70.3162H237.135L253.1 54.3671C254.526 52.9239 256.86 52.9239 258.31 54.3671C259.735 55.7919 259.735 58.1256 258.31 59.575L241.3 76.568C240.636 77.262 239.696 77.6796 238.67 77.6796H228.025ZM229.997 37.9881C228.602 39.4498 226.268 39.4866 224.806 38.0741C223.344 36.68 223.288 34.3463 224.701 32.8847L241.502 15.4617C242.915 14.0001 245.231 13.9632 246.693 15.3757C248.155 16.7698 248.211 19.1035 246.798 20.5652L229.997 37.9881ZM221.691 118.446C219.652 118.446 217.999 116.812 217.999 114.773C217.999 112.734 219.652 111.082 221.691 111.082H238.67C240.065 111.082 241.263 111.85 241.889 112.98L253.506 131.103C254.605 132.81 254.096 135.089 252.394 136.188C250.686 137.287 248.407 136.778 247.308 135.077L236.668 118.452H221.691V118.446ZM178.733 151.769C178.733 149.73 180.367 148.078 182.407 148.078C184.446 148.078 186.099 149.73 186.099 151.769V161.22L198.237 169.296C199.927 170.426 200.381 172.711 199.245 174.4C198.114 176.088 195.829 176.543 194.14 175.407L180.625 166.391C179.495 165.765 178.727 164.561 178.727 163.173V151.769H178.733Z"
        fill="#12AAFF" />
    <path fill-rule="evenodd" clip-rule="evenodd"
        d="M120.675 248.563C123.046 248.563 124.975 250.479 124.975 252.862V275.757C124.975 278.139 123.04 280.055 120.675 280.055H93.0376C90.6664 280.055 88.7375 278.139 88.7375 275.757V252.862C88.7375 250.479 90.6725 248.563 93.0376 248.563H120.675ZM88.7375 212.888C88.7375 210.505 90.6725 208.589 93.0376 208.589H120.675C123.046 208.589 124.975 210.505 124.975 212.888V235.783C124.975 238.165 123.04 240.081 120.675 240.081H93.0376C90.6664 240.081 88.7375 238.165 88.7375 235.783V212.888ZM24.5677 262.663C23.6647 264.125 21.4347 265.537 19.7761 264.598L1.16283 253.856L1.21812 253.789C-0.0166208 252.536 0.327385 250.116 1.15055 248.722L26.3491 205.064L26.386 205.082C27.4487 203.688 29.4329 202.417 31.0547 203.356L48.8694 213.625L48.8878 213.643C49.0107 213.729 49.1335 213.803 49.2687 213.87L49.2871 213.889H49.3055C50.9273 214.914 50.5219 217.788 49.6864 219.213L24.5922 262.682L24.5677 262.663ZM79.5291 101.527C79.5291 96.6689 85.4325 94.2308 88.8603 97.6638C90.9858 99.7887 90.9858 103.252 88.8603 105.396C85.4325 108.823 79.5291 106.385 79.5291 101.527ZM89.5729 163.395H80.4137V123.617H89.5729V163.395ZM172.147 60.8281C174.303 63.039 175.471 65.9991 175.471 69.082C175.471 72.5089 174.512 74.4066 172.282 76.8631C170.403 78.9143 169.407 80.2408 169.407 83.201V103.259C169.407 104.358 168.59 105.328 167.46 105.328H162.325C161.194 105.328 160.389 104.352 160.389 103.259V83.201C160.389 80.5356 158.663 79.2644 156.888 77.6123C154.222 75.1251 153.006 72.8221 153.006 69.082C153.006 64.3839 155.586 60.2201 159.935 58.3593C164.192 56.5414 168.928 57.4995 172.147 60.8281Z"
        fill="#004E8E" />
</svg>