<svg width="302" height="327" viewBox="0 0 302 327" fill="none" xmlns="http://www.w3.org/2000/svg">
<path d="M69.8918 138.483H87.9806C90.3905 138.483 92.3431 140.435 92.3431 142.822V197.088C92.3431 199.497 90.3905 201.45 87.9806 201.45H69.8918C67.4819 201.45 65.5511 199.497 65.5511 197.088V142.822C65.5511 140.442 67.4892 138.483 69.8918 138.483ZM78.9507 105.921C91.7697 105.921 98.2517 121.494 89.1565 130.565C80.0831 139.658 64.5059 133.178 64.5059 120.362C64.5059 112.38 70.9661 105.921 78.9507 105.921ZM104.835 67.8887C103.311 139.23 103.166 146.944 172.588 182.197L189.196 173.54C234.585 149.085 240.762 136.697 240.697 92.2279C240.697 78.5924 240.16 62.5622 239.935 47.5915C214.399 42.8819 190.677 30.763 172.588 12.3962C154.485 30.7558 130.778 42.8746 105.227 47.5842C105.118 54.9281 104.981 61.6551 104.835 67.8887ZM131.932 169.752C102.491 151.117 96.437 136.262 95.82 101.19C71.4597 93.5994 44.9581 103.948 32.1391 126.124C17.0337 152.314 26.0055 185.818 52.2241 200.956H52.2023C82.6309 218.503 121.501 203.286 131.932 169.752ZM96.0088 75.6607C62.4081 68.5635 27.9 83.9914 10.7186 113.737C-8.97433 147.844 -0.699377 191.225 29.9978 215.644L29.976 215.666C31.6456 216.979 32.1391 219.33 31.0431 221.217L22.6302 235.781L36.8065 243.967L45.0815 229.671C46.0469 227.654 48.435 226.689 50.5546 227.53C91.5447 243.575 137.797 223.372 153.781 182.234C148.598 179.476 143.866 176.885 139.561 174.374C132.709 193.961 116.493 209.446 96.0233 214.816C79.1685 219.236 61.7838 216.667 47.8543 208.46C17.3168 190.855 7.09651 151.479 24.6264 121.777V121.756C38.9478 96.9665 68.1062 84.8332 95.7547 92.1117C95.7765 87.0393 95.8854 81.5677 96.0088 75.6607ZM125.9 76.2993C124.833 125.87 124.724 131.407 172.588 155.761C220.431 131.407 220.322 125.87 219.255 76.2993C219.175 72.1629 219.088 67.7435 219.008 62.9468C201.478 59.5144 185.226 51.2199 172.588 38.7745C159.958 51.2199 143.677 59.5071 126.147 62.9468C126.089 67.7653 125.987 72.1702 125.9 76.2993ZM170.614 164.505C115.927 136.835 116.05 131.327 117.219 76.1324C117.32 70.9293 117.444 65.2907 117.531 59.2458C117.553 57.0688 119.179 55.2982 121.276 55.0079C139.467 52.3156 157.077 43.0995 169.366 29.5802C171.093 27.6862 174.055 27.6644 175.826 29.6019C188.354 43.3245 205.5 52.1487 223.951 55.0079C226.093 55.3344 227.617 57.1704 227.631 59.2676C227.711 65.298 227.835 70.951 227.944 76.1324C229.119 131.32 229.243 136.835 174.548 164.505C173.249 165.166 171.805 165.1 170.614 164.505ZM172.588 60.3199C184.42 60.3199 193.842 70.1746 193.842 82.0249C193.842 93.9768 186.685 96.2626 186.685 98.7082V122.409C186.685 128.084 182.097 132.837 176.399 132.837H170.331C164.655 132.837 160.067 128.084 160.067 122.409V98.7082C160.067 98.0478 159.595 98.9549 158.978 98.3961C155.806 95.4934 151.342 91.4442 151.342 82.0249C151.335 70.1745 160.757 60.3199 172.588 60.3199ZM278.326 71.2631C283.531 76.4662 292.009 76.5315 297.257 71.2848C302.484 66.06 302.484 57.584 297.257 52.3592C288.859 43.9486 274.421 49.9136 274.421 61.822C274.421 65.5012 275.902 68.8538 278.326 71.2631ZM281.644 4.65316C273.231 -3.75744 258.764 2.2294 258.764 14.116C258.764 26.0244 273.231 32.0112 281.644 23.6006C286.87 18.3757 286.87 9.87804 281.644 4.65316ZM225.555 204.062C218.21 196.718 205.579 201.943 205.579 212.349C205.579 222.734 218.21 227.959 225.555 220.622C230.121 216.057 230.121 208.648 225.555 204.062ZM141.456 279.082C139.068 279.104 137.093 277.188 137.071 274.801C137.05 272.392 138.966 270.44 141.354 270.396L199.605 269.678C202.015 269.656 203.968 271.572 204.012 273.959C204.033 276.368 202.117 278.321 199.714 278.364L141.456 279.082ZM141.456 261.267C139.046 261.289 137.093 259.351 137.071 256.971C137.05 254.591 138.988 252.61 141.369 252.588L219.226 251.87C221.636 251.848 223.588 253.785 223.61 256.166C223.632 258.575 221.694 260.527 219.313 260.549L141.456 261.267ZM280.243 177.669C291.414 177.669 297.054 164.113 289.149 156.211C285.694 152.757 280.504 151.581 275.88 153.308C275.307 156 272.832 157.894 270.081 157.691C264.049 165.971 269.957 177.669 280.243 177.669ZM141.456 326.317C139.068 326.339 137.093 324.423 137.071 322.021C137.05 319.633 138.966 317.659 141.354 317.638L199.605 316.919C202.015 316.876 203.968 318.813 204.012 321.201C204.033 323.61 202.117 325.562 199.714 325.584L141.456 326.317ZM141.456 308.501C139.046 308.523 137.093 306.586 137.071 304.205C137.05 301.796 138.988 299.844 141.369 299.822L219.226 299.104C221.636 299.082 223.588 301.02 223.61 303.4C223.632 305.809 221.694 307.761 219.313 307.783L141.456 308.501ZM77.92 4.86361C66.6472 4.86361 60.9854 18.5644 68.9482 26.5251C76.911 34.5075 90.6155 28.8255 90.6155 17.5557C90.6155 10.5384 84.9392 4.86361 77.92 4.86361ZM105.162 38.2448C106.832 39.9719 106.766 42.7294 105.039 44.3985C103.311 46.0458 100.553 46.0022 98.905 44.2751L82.1736 26.9315C80.5041 25.2043 80.5694 22.4685 82.297 20.7995C84.0246 19.1304 86.7829 19.1957 88.4524 20.9228L105.162 38.2448ZM247.956 92.1843C245.546 92.1843 243.593 90.254 243.593 87.8448C243.593 85.4355 245.546 83.4835 247.956 83.4835H258.721L277.586 64.6376C279.27 62.9323 282.028 62.9323 283.741 64.6376C285.426 66.3212 285.426 69.0788 283.741 70.7914L263.642 90.8709C262.858 91.6909 261.747 92.1843 260.535 92.1843H247.956ZM250.286 45.2838C248.638 47.0109 245.88 47.0545 244.152 45.3854C242.425 43.7381 242.359 40.9806 244.029 39.2535L263.882 18.666C265.551 16.9389 268.288 16.8953 270.015 18.5644C271.743 20.2117 271.808 22.9693 270.139 24.6964L250.286 45.2838ZM240.472 140.355C238.062 140.355 236.11 138.424 236.11 136.015C236.11 133.606 238.062 131.654 240.472 131.654H260.535C262.183 131.654 263.599 132.561 264.339 133.896L278.065 155.311C279.364 157.328 278.762 160.021 276.751 161.32C274.733 162.619 272.04 162.016 270.741 160.006L258.169 140.362H240.472V140.355ZM189.712 179.73C189.712 177.321 191.643 175.369 194.053 175.369C196.462 175.369 198.415 177.321 198.415 179.73V190.898L212.758 200.441C214.754 201.776 215.292 204.476 213.949 206.471C212.613 208.467 209.913 209.004 207.917 207.661L191.948 197.008C190.612 196.268 189.705 194.846 189.705 193.206V179.73H189.712Z" fill="#12AAFF"/>
</svg>
