<svg width="419" height="280" viewBox="0 0 419 280" fill="none" xmlns="http://www.w3.org/2000/svg">
<mask id="mask0_7711_6445" style="mask-type:luminance" maskUnits="userSpaceOnUse" x="44" y="0" width="332" height="280">
<path fill-rule="evenodd" clip-rule="evenodd" d="M44 0H375.304V279.706H44V0Z" fill="white"/>
</mask>
<g mask="url(#mask0_7711_6445)">
<path d="M241.831 24.8453L211.569 41.1501C210.359 41.9265 208.745 41.7324 207.534 41.1501L177.675 24.6511C174.851 23.0983 174.851 19.2162 177.675 17.6633L207.534 0.776164C208.745 -0.000257835 210.359 -0.000257835 211.771 0.776164L242.033 17.8574C244.656 19.4103 244.656 23.2924 241.831 24.8453ZM241.831 212.933L211.569 195.852C210.359 195.076 208.745 195.076 207.332 195.852L177.474 212.739C174.649 214.292 174.649 218.174 177.474 219.727L207.332 236.226C208.543 237.003 210.157 237.003 211.367 236.226L241.63 219.921C244.656 218.368 244.656 214.486 241.831 212.933ZM368.327 110.446L338.065 93.3645C336.855 92.5881 335.241 92.5881 333.828 93.3645L303.97 110.252C301.145 111.805 301.145 115.687 303.97 117.239L333.828 133.738C335.039 134.515 336.653 134.515 337.863 133.738L368.126 117.434C370.95 115.881 370.95 111.999 368.327 110.446ZM115.335 108.505L85.0731 91.4234C83.8626 90.647 82.2486 90.647 80.8364 91.4234L51.1794 108.311C48.3549 109.863 48.3549 113.746 51.1794 115.298L81.0381 131.797C82.2486 132.574 83.8626 132.574 85.0731 131.797L115.335 115.493C118.16 113.94 118.16 110.058 115.335 108.505Z" fill="#12AAFF"/>
<path d="M246.068 67.5485L220.244 82.6887C217.218 84.4357 213.183 82.3005 213.183 79.0007V49.3026C213.183 47.7497 213.99 46.1969 215.402 45.4205L241.226 30.4743C244.252 28.7274 248.287 30.8626 248.287 34.3565V63.8605C248.085 65.4133 247.278 66.7721 246.068 67.5485ZM248.287 258.742V229.238C248.287 225.744 244.454 223.609 241.226 225.356L215.402 240.302C213.99 241.079 213.183 242.632 213.183 244.184V273.883C213.183 277.377 217.218 279.512 220.244 277.571L245.866 262.43C247.278 261.848 248.085 260.295 248.287 258.742ZM374.582 156.255V126.751C374.582 123.257 370.748 121.122 367.52 122.869L341.697 137.815C340.284 138.591 339.477 140.144 339.477 141.697V171.395C339.477 174.889 343.512 177.024 346.539 175.083L372.161 159.943C373.775 159.36 374.582 157.808 374.582 156.255ZM121.791 154.508V125.004C121.791 121.51 117.958 119.375 114.73 121.122L88.9062 136.068C87.494 136.844 86.687 138.397 86.687 139.95V169.648C86.687 173.142 90.722 175.277 93.7482 173.336L119.37 158.196C120.782 157.419 121.791 156.061 121.791 154.508Z" fill="#168FD2"/>
<path d="M171.219 64.0549V33.1921C171.219 30.0864 174.649 28.3395 177.272 29.8923L204.306 45.4208C205.516 46.1972 206.323 47.3618 206.323 48.7206V79.7774C206.323 82.8831 202.894 84.6301 200.069 83.0772L173.237 67.3547C172.026 66.7724 171.219 65.4136 171.219 64.0549ZM173.237 262.431L200.069 278.153C202.692 279.706 206.323 277.959 206.323 274.853V243.797C206.323 242.438 205.516 241.079 204.306 240.497L177.272 224.968C174.649 223.416 171.219 225.357 171.219 228.268V259.131C171.219 260.49 172.026 261.654 173.237 262.431ZM299.531 159.943L326.363 175.666C328.986 177.218 332.618 175.471 332.618 172.366V141.309C332.618 139.95 331.811 138.591 330.6 138.009L303.566 122.481C300.943 120.928 297.514 122.869 297.514 125.78V156.643C297.715 158.002 298.32 159.167 299.531 159.943ZM46.7406 158.002L73.5731 173.724C76.1958 175.277 79.8273 173.53 79.8273 170.425V139.368C79.8273 138.009 79.0203 136.65 77.8098 136.068L50.7756 120.54C48.1529 118.987 44.7231 120.928 44.7231 123.839V154.702C44.9249 156.061 45.5301 157.42 46.7406 158.002Z" fill="#0D5781"/>
<path d="M154.676 212.351L141.361 204.781C139.545 203.81 138.334 202.063 137.729 200.122C137.124 198.181 137.527 196.24 138.536 194.493C139.948 192.164 142.571 190.805 145.194 190.805C146.606 190.805 148.018 191.193 149.229 191.776L162.544 199.346C166.176 201.481 167.386 206.14 165.369 209.633C163.956 211.963 161.334 213.321 158.711 213.321C157.299 213.321 155.886 212.933 154.676 212.351ZM140.352 195.27C139.545 196.628 139.343 198.181 139.747 199.54C140.15 200.899 141.159 202.257 142.369 203.034L155.685 210.604C156.492 211.186 157.5 211.38 158.711 211.38C160.728 211.38 162.746 210.41 163.755 208.663C165.369 205.945 164.36 202.646 161.737 201.093L148.422 193.523C147.615 192.94 146.606 192.746 145.396 192.746C143.176 192.552 141.361 193.717 140.352 195.27ZM134.703 204.781L121.388 197.211C119.572 196.24 118.361 194.493 117.756 192.552C117.151 190.611 117.554 188.67 118.563 186.923C119.975 184.594 122.598 183.235 125.221 183.235C126.633 183.235 128.045 183.623 129.256 184.206L142.571 191.776C146.203 193.911 147.413 198.569 145.396 202.063C143.983 204.393 141.361 205.751 138.738 205.751C137.326 205.751 135.913 205.363 134.703 204.781ZM120.379 187.7C119.572 189.058 119.37 190.611 119.774 191.97C120.177 193.329 121.186 194.687 122.396 195.464L135.712 203.034C136.519 203.616 137.527 203.81 138.738 203.81C140.755 203.81 142.773 202.84 143.782 201.093C145.396 198.375 144.387 195.076 141.764 193.523L128.449 185.953C127.642 185.37 126.633 185.176 125.422 185.176C123.203 184.982 121.388 186.147 120.379 187.7ZM286.619 102.293L273.304 94.723C271.488 93.7524 270.278 92.0055 269.672 90.0644C269.067 88.1234 269.471 86.1823 270.479 84.4354C271.892 82.1061 274.514 80.7474 277.137 80.7474C278.549 80.7474 279.962 81.1356 281.172 81.7179L294.487 89.288C298.119 91.4232 299.329 96.0817 297.312 99.5756C295.9 101.905 293.277 103.264 290.654 103.264C289.242 103.264 287.83 103.069 286.619 102.293ZM272.295 85.4059C271.488 86.7646 271.286 88.3175 271.69 89.6762C272.093 91.035 273.102 92.3937 274.313 93.1701L287.628 100.74C288.435 101.323 289.444 101.517 290.654 101.517C292.672 101.517 294.689 100.546 295.698 98.7992C297.312 96.0817 296.303 92.7819 293.68 91.2291L280.365 83.6589C279.558 83.0766 278.549 82.8825 277.339 82.8825C275.321 82.6884 273.304 83.6589 272.295 85.4059ZM266.848 94.723L253.533 87.1528C251.717 86.1823 250.506 84.4354 249.901 82.4943C249.296 80.5533 249.699 78.6122 250.708 76.8652C252.12 74.536 254.743 73.1772 257.366 73.1772C258.778 73.1772 260.19 73.5655 261.401 74.1478L274.716 81.7179C278.348 83.853 279.558 88.5116 277.541 92.0055C276.128 94.3348 273.506 95.6935 270.883 95.6935C269.269 95.6935 268.058 95.4994 266.848 94.723ZM252.322 77.8358C251.515 79.1945 251.313 80.7474 251.717 82.1061C252.12 83.4648 253.129 84.8236 254.34 85.6L267.655 93.1701C268.462 93.7524 269.471 93.9465 270.681 93.9465C272.699 93.9465 274.716 92.976 275.725 91.2291C277.339 88.5116 276.33 85.2118 273.707 83.6589L260.392 76.0888C259.585 75.5065 258.576 75.3124 257.366 75.3124C255.348 75.1183 253.331 76.0888 252.322 77.8358ZM128.852 93.1701L141.966 85.0177C143.782 83.8531 145.799 83.6589 147.817 84.0472C149.834 84.4354 151.65 85.6 152.658 87.347C154.071 89.4821 154.272 92.3937 153.062 94.723C152.457 95.8876 151.448 96.8581 150.237 97.6345L137.124 105.787C133.492 108.116 128.65 106.952 126.431 103.458C125.019 101.323 124.817 98.411 126.028 96.0817C126.835 94.9171 127.642 93.9465 128.852 93.1701ZM151.044 88.5116C150.237 87.1528 148.825 86.3764 147.413 85.9882C145.799 85.6 144.387 85.9882 142.975 86.7646L129.861 94.9171C129.054 95.4994 128.247 96.2758 127.843 97.0522C126.835 98.7992 127.036 100.934 128.247 102.681C130.063 105.205 133.492 105.981 136.317 104.428L149.431 96.2758C150.237 95.6935 151.044 94.9171 151.448 94.1407C152.255 92.1996 152.255 90.0644 151.044 88.5116ZM144.79 79.5827L157.904 71.4303C159.72 70.2657 161.737 70.0716 163.755 70.4598C165.772 70.848 167.588 72.0126 168.597 73.7596C170.009 75.8947 170.211 78.8063 169 81.1356C168.395 82.3002 167.386 83.2707 166.176 84.0472L153.062 92.1996C149.431 94.5289 144.589 93.3642 142.369 89.8703C140.957 87.7352 140.755 84.8236 141.966 82.4943C142.773 81.3297 143.58 80.165 144.79 79.5827ZM166.983 74.7301C166.176 73.3714 164.763 72.5949 163.351 72.2067C161.737 71.8185 160.325 72.2067 158.913 72.9832L145.799 81.1356C144.992 81.7179 144.185 82.4943 143.782 83.2707C142.773 85.0177 142.975 87.1529 144.185 88.8998C146.001 91.4232 149.43 92.1996 152.255 90.6468L165.369 82.4943C166.176 81.912 166.983 81.1356 167.386 80.3592C168.193 78.6122 168.193 76.477 166.983 74.7301ZM253.936 199.346L267.251 191.582C269.067 190.611 271.085 190.223 273.102 190.805C275.12 191.193 276.734 192.552 277.944 194.299C279.356 196.628 279.356 199.346 278.146 201.675C277.541 202.84 276.532 203.81 275.321 204.587L262.006 212.351C258.374 214.486 253.533 213.321 251.313 209.828C249.901 207.498 249.901 204.781 251.112 202.452C251.717 200.899 252.726 199.928 253.936 199.346ZM276.33 195.27C275.523 193.911 274.313 192.94 272.699 192.746C271.286 192.358 269.672 192.552 268.26 193.329L254.945 201.093C254.138 201.675 253.331 202.257 252.927 203.228C251.919 204.975 251.919 207.11 253.129 208.857C254.743 211.574 258.374 212.351 261.199 210.798L274.514 203.034C275.321 202.452 276.128 201.869 276.532 200.899C277.339 198.958 277.339 196.822 276.33 195.27ZM270.278 185.953L283.593 178.188C285.409 177.218 287.426 176.83 289.444 177.412C291.461 177.8 293.075 179.159 294.286 180.906C295.698 183.235 295.698 185.953 294.487 188.282C293.882 189.446 292.873 190.417 291.663 191.193L278.348 198.958C274.716 201.093 269.874 199.928 267.655 196.434C266.243 194.105 266.243 191.388 267.453 189.058C268.058 187.699 269.067 186.729 270.278 185.953ZM292.672 181.876C291.865 180.518 290.654 179.547 289.04 179.353C287.628 178.965 286.014 179.159 284.602 179.935L271.286 187.7C270.479 188.282 269.672 188.864 269.269 189.835C268.26 191.582 268.26 193.717 269.471 195.464C271.085 198.181 274.716 198.958 277.541 197.405L290.856 189.641C291.663 189.058 292.47 188.476 292.873 187.505C293.68 185.758 293.68 183.623 292.672 181.876Z" fill="#12AAFF"/>
<path d="M154.676 212.351L141.361 204.781C139.545 203.81 138.334 202.063 137.729 200.122C137.124 198.181 137.527 196.24 138.536 194.493C139.948 192.164 142.571 190.805 145.194 190.805C146.606 190.805 148.018 191.193 149.229 191.776L162.544 199.346C166.176 201.481 167.386 206.14 165.369 209.633C163.956 211.963 161.334 213.321 158.711 213.321C157.299 213.321 155.886 212.933 154.676 212.351ZM140.352 195.27C139.545 196.628 139.343 198.181 139.747 199.54C140.15 200.899 141.159 202.257 142.369 203.034L155.685 210.604C156.492 211.186 157.5 211.38 158.711 211.38C160.728 211.38 162.746 210.41 163.755 208.663C165.369 205.945 164.36 202.646 161.737 201.093L148.422 193.523C147.615 192.94 146.606 192.746 145.396 192.746C143.176 192.552 141.361 193.717 140.352 195.27ZM134.703 204.781L121.388 197.211C119.572 196.24 118.361 194.493 117.756 192.552C117.151 190.611 117.554 188.67 118.563 186.923C119.975 184.594 122.598 183.235 125.221 183.235C126.633 183.235 128.045 183.623 129.256 184.206L142.571 191.776C146.203 193.911 147.413 198.569 145.396 202.063C143.983 204.393 141.361 205.751 138.738 205.751C137.326 205.751 135.913 205.363 134.703 204.781ZM120.379 187.699C119.572 189.058 119.37 190.611 119.774 191.97C120.177 193.329 121.186 194.687 122.396 195.464L135.712 203.034C136.519 203.616 137.527 203.81 138.738 203.81C140.755 203.81 142.773 202.84 143.782 201.093C145.396 198.375 144.387 195.076 141.764 193.523L128.449 185.953C127.642 185.37 126.633 185.176 125.422 185.176C123.203 184.982 121.388 186.147 120.379 187.699ZM286.619 102.293L273.304 94.723C271.488 93.7524 270.278 92.0055 269.672 90.0644C269.067 88.1234 269.471 86.1823 270.479 84.4354C271.892 82.1061 274.514 80.7474 277.137 80.7474C278.549 80.7474 279.962 81.1356 281.172 81.7179L294.487 89.288C298.119 91.4232 299.329 96.0817 297.312 99.5756C295.9 101.905 293.277 103.264 290.654 103.264C289.242 103.264 287.83 103.07 286.619 102.293ZM272.295 85.4059C271.488 86.7646 271.286 88.3175 271.69 89.6762C272.093 91.035 273.102 92.3937 274.313 93.1701L287.628 100.74C288.435 101.323 289.444 101.517 290.654 101.517C292.672 101.517 294.689 100.546 295.698 98.7992C297.312 96.0817 296.303 92.7819 293.68 91.2291L280.365 83.6589C279.558 83.0766 278.549 82.8825 277.339 82.8825C275.321 82.6884 273.304 83.6589 272.295 85.4059ZM266.848 94.723L253.533 87.1528C251.717 86.1823 250.506 84.4354 249.901 82.4943C249.296 80.5533 249.699 78.6122 250.708 76.8652C252.12 74.536 254.743 73.1772 257.366 73.1772C258.778 73.1772 260.19 73.5655 261.401 74.1478L274.716 81.7179C278.348 83.853 279.558 88.5116 277.541 92.0055C276.128 94.3348 273.506 95.6935 270.883 95.6935C269.269 95.6935 268.058 95.4994 266.848 94.723ZM252.322 77.8358C251.515 79.1945 251.313 80.7474 251.717 82.1061C252.12 83.4648 253.129 84.8236 254.34 85.6L267.655 93.1701C268.462 93.7524 269.471 93.9465 270.681 93.9465C272.699 93.9465 274.716 92.976 275.725 91.2291C277.339 88.5116 276.33 85.2118 273.707 83.6589L260.392 76.0888C259.585 75.5065 258.576 75.3124 257.366 75.3124C255.348 75.1183 253.331 76.0888 252.322 77.8358ZM128.852 93.1701L141.966 85.0177C143.782 83.8531 145.799 83.6589 147.817 84.0472C149.834 84.4354 151.65 85.6 152.658 87.347C154.071 89.4821 154.272 92.3937 153.062 94.723C152.457 95.8876 151.448 96.8581 150.237 97.6345L137.124 105.787C133.492 108.116 128.65 106.952 126.431 103.458C125.019 101.323 124.817 98.411 126.028 96.0817C126.835 94.9171 127.642 93.9465 128.852 93.1701ZM151.044 88.5116C150.237 87.1528 148.825 86.3764 147.413 85.9882C145.799 85.6 144.387 85.9882 142.975 86.7646L129.861 94.9171C129.054 95.4994 128.247 96.2758 127.843 97.0522C126.835 98.7992 127.036 100.934 128.247 102.681C130.063 105.205 133.492 105.981 136.317 104.428L149.431 96.2758C150.237 95.6935 151.044 94.9171 151.448 94.1407C152.255 92.1996 152.255 90.0644 151.044 88.5116ZM144.79 79.5827L157.904 71.4303C159.72 70.2657 161.737 70.0716 163.755 70.4598C165.772 70.848 167.588 72.0126 168.597 73.7596C170.009 75.8947 170.211 78.8063 169 81.1356C168.395 82.3002 167.386 83.2707 166.176 84.0472L153.062 92.1996C149.431 94.5289 144.589 93.3642 142.369 89.8703C140.957 87.7352 140.755 84.8236 141.966 82.4943C142.773 81.3297 143.58 80.1651 144.79 79.5827ZM166.983 74.7301C166.176 73.3714 164.763 72.5949 163.351 72.2067C161.737 71.8185 160.325 72.2067 158.913 72.9832L145.799 81.1356C144.992 81.7179 144.185 82.4943 143.782 83.2707C142.773 85.0177 142.975 87.1529 144.185 88.8998C146.001 91.4232 149.43 92.1996 152.255 90.6468L165.369 82.4943C166.176 81.912 166.983 81.1356 167.386 80.3592C168.193 78.6122 168.193 76.477 166.983 74.7301ZM253.936 199.346L267.251 191.582C269.067 190.611 271.085 190.223 273.102 190.805C275.12 191.193 276.734 192.552 277.944 194.299C279.356 196.628 279.356 199.346 278.146 201.675C277.541 202.84 276.532 203.81 275.321 204.587L262.006 212.351C258.374 214.486 253.533 213.321 251.313 209.828C249.901 207.498 249.901 204.781 251.112 202.452C251.717 200.899 252.726 199.928 253.936 199.346ZM276.33 195.27C275.523 193.911 274.313 192.94 272.699 192.746C271.286 192.358 269.672 192.552 268.26 193.329L254.945 201.093C254.138 201.675 253.331 202.257 252.927 203.228C251.919 204.975 251.919 207.11 253.129 208.857C254.743 211.574 258.374 212.351 261.199 210.798L274.514 203.034C275.321 202.452 276.128 201.869 276.532 200.899C277.339 198.958 277.339 196.822 276.33 195.27ZM270.278 185.953L283.593 178.188C285.409 177.218 287.426 176.83 289.444 177.412C291.461 177.8 293.075 179.159 294.286 180.906C295.698 183.235 295.698 185.953 294.487 188.282C293.882 189.446 292.873 190.417 291.663 191.193L278.348 198.958C274.716 201.093 269.874 199.928 267.655 196.434C266.243 194.105 266.243 191.388 267.453 189.058C268.058 187.699 269.067 186.729 270.278 185.953ZM292.672 181.876C291.865 180.518 290.654 179.547 289.04 179.353C287.628 178.965 286.014 179.159 284.602 179.935L271.286 187.699C270.479 188.282 269.672 188.864 269.269 189.835C268.26 191.582 268.26 193.717 269.471 195.464C271.085 198.181 274.716 198.958 277.541 197.405L290.856 189.641C291.663 189.058 292.47 188.476 292.873 187.505C293.68 185.758 293.68 183.623 292.672 181.876Z" stroke="#12AAFF" stroke-width="3.59654" stroke-miterlimit="10"/>
</g>
<rect width="419" height="38" transform="translate(0 241)" fill="#12AAFF"/>
<path d="M18.4297 266L17.6016 263.281H13.4375L12.6094 266H10L14.0312 254.531H16.9922L21.0391 266H18.4297ZM17.0234 261.25L16.1953 258.594C16.1432 258.417 16.0729 258.19 15.9844 257.914C15.901 257.633 15.8151 257.349 15.7266 257.062C15.6432 256.771 15.5755 256.518 15.5234 256.305C15.4714 256.518 15.3984 256.784 15.3047 257.102C15.2161 257.414 15.1302 257.711 15.0469 257.992C14.9635 258.273 14.9036 258.474 14.8672 258.594L14.0469 261.25H17.0234ZM25.8125 254.578C26.849 254.578 27.7031 254.703 28.375 254.953C29.0521 255.203 29.5547 255.581 29.8828 256.086C30.2109 256.591 30.375 257.229 30.375 258C30.375 258.521 30.276 258.977 30.0781 259.367C29.8802 259.758 29.6198 260.089 29.2969 260.359C28.974 260.63 28.625 260.852 28.25 261.023L31.6094 266H28.9219L26.1953 261.617H24.9062V266H22.4844V254.578H25.8125ZM25.6406 256.562H24.9062V259.648H25.6875C26.4896 259.648 27.0625 259.516 27.4062 259.25C27.7552 258.979 27.9297 258.583 27.9297 258.062C27.9297 257.521 27.7422 257.135 27.3672 256.906C26.9974 256.677 26.4219 256.562 25.6406 256.562ZM33.0469 254.578H36.6016C38.1224 254.578 39.2734 254.792 40.0547 255.219C40.8359 255.646 41.2266 256.396 41.2266 257.469C41.2266 257.901 41.1562 258.292 41.0156 258.641C40.8802 258.99 40.6823 259.276 40.4219 259.5C40.1615 259.724 39.8438 259.87 39.4688 259.938V260.016C39.849 260.094 40.1927 260.229 40.5 260.422C40.8073 260.609 41.0521 260.885 41.2344 261.25C41.4219 261.609 41.5156 262.089 41.5156 262.688C41.5156 263.38 41.3464 263.974 41.0078 264.469C40.6693 264.964 40.1849 265.344 39.5547 265.609C38.9297 265.87 38.1849 266 37.3203 266H33.0469V254.578ZM35.4688 259.102H36.875C37.5781 259.102 38.0651 258.992 38.3359 258.773C38.6068 258.549 38.7422 258.221 38.7422 257.789C38.7422 257.352 38.5807 257.039 38.2578 256.852C37.9401 256.659 37.4349 256.562 36.7422 256.562H35.4688V259.102ZM35.4688 261.023V264H37.0469C37.776 264 38.2839 263.859 38.5703 263.578C38.8568 263.297 39 262.919 39 262.445C39 262.164 38.9375 261.917 38.8125 261.703C38.6875 261.49 38.4766 261.323 38.1797 261.203C37.888 261.083 37.4844 261.023 36.9688 261.023H35.4688ZM43.7969 266V254.578H46.2188V266H43.7969ZM53.5 266H51.0781V256.594H47.9766V254.578H56.6016V256.594H53.5V266ZM61.6875 254.578C62.724 254.578 63.5781 254.703 64.25 254.953C64.9271 255.203 65.4297 255.581 65.7578 256.086C66.0859 256.591 66.25 257.229 66.25 258C66.25 258.521 66.151 258.977 65.9531 259.367C65.7552 259.758 65.4948 260.089 65.1719 260.359C64.849 260.63 64.5 260.852 64.125 261.023L67.4844 266H64.7969L62.0703 261.617H60.7812V266H58.3594V254.578H61.6875ZM61.5156 256.562H60.7812V259.648H61.5625C62.3646 259.648 62.9375 259.516 63.2812 259.25C63.6302 258.979 63.8047 258.583 63.8047 258.062C63.8047 257.521 63.6172 257.135 63.2422 256.906C62.8724 256.677 62.2969 256.562 61.5156 256.562ZM78.2188 254.578V261.969C78.2188 262.755 78.0443 263.466 77.6953 264.102C77.3516 264.732 76.8281 265.232 76.125 265.602C75.4271 265.971 74.5469 266.156 73.4844 266.156C71.974 266.156 70.8229 265.771 70.0312 265C69.2396 264.229 68.8438 263.208 68.8438 261.938V254.578H71.2578V261.57C71.2578 262.513 71.4505 263.174 71.8359 263.555C72.2214 263.935 72.7917 264.125 73.5469 264.125C74.0781 264.125 74.5078 264.034 74.8359 263.852C75.1693 263.669 75.4141 263.388 75.5703 263.008C75.7266 262.628 75.8047 262.143 75.8047 261.555V254.578H78.2188ZM85.8516 266L83.1016 257.039H83.0312C83.0417 257.253 83.0573 257.576 83.0781 258.008C83.1042 258.435 83.1276 258.891 83.1484 259.375C83.1693 259.859 83.1797 260.297 83.1797 260.688V266H81.0156V254.578H84.3125L87.0156 263.312H87.0625L89.9297 254.578H93.2266V266H90.9688V260.594C90.9688 260.234 90.974 259.82 90.9844 259.352C91 258.883 91.0182 258.438 91.0391 258.016C91.0599 257.589 91.0755 257.268 91.0859 257.055H91.0156L88.0703 266H85.8516ZM103.594 254.578C104.63 254.578 105.484 254.703 106.156 254.953C106.833 255.203 107.336 255.581 107.664 256.086C107.992 256.591 108.156 257.229 108.156 258C108.156 258.521 108.057 258.977 107.859 259.367C107.661 259.758 107.401 260.089 107.078 260.359C106.755 260.63 106.406 260.852 106.031 261.023L109.391 266H106.703L103.977 261.617H102.688V266H100.266V254.578H103.594ZM103.422 256.562H102.688V259.648H103.469C104.271 259.648 104.844 259.516 105.188 259.25C105.536 258.979 105.711 258.583 105.711 258.062C105.711 257.521 105.523 257.135 105.148 256.906C104.779 256.677 104.203 256.562 103.422 256.562ZM117.406 266H110.828V254.578H117.406V256.562H113.25V259.07H117.117V261.055H113.25V264H117.406V266ZM126.539 262.828C126.539 263.505 126.375 264.094 126.047 264.594C125.719 265.094 125.24 265.479 124.609 265.75C123.984 266.021 123.224 266.156 122.328 266.156C121.932 266.156 121.544 266.13 121.164 266.078C120.789 266.026 120.427 265.951 120.078 265.852C119.734 265.747 119.406 265.62 119.094 265.469V263.219C119.635 263.458 120.198 263.674 120.781 263.867C121.365 264.06 121.943 264.156 122.516 264.156C122.911 264.156 123.229 264.104 123.469 264C123.714 263.896 123.891 263.753 124 263.57C124.109 263.388 124.164 263.18 124.164 262.945C124.164 262.659 124.068 262.414 123.875 262.211C123.682 262.008 123.417 261.818 123.078 261.641C122.745 261.464 122.367 261.273 121.945 261.07C121.68 260.945 121.391 260.794 121.078 260.617C120.766 260.435 120.469 260.214 120.188 259.953C119.906 259.693 119.674 259.378 119.492 259.008C119.315 258.633 119.227 258.185 119.227 257.664C119.227 256.982 119.383 256.398 119.695 255.914C120.008 255.43 120.453 255.06 121.031 254.805C121.615 254.544 122.302 254.414 123.094 254.414C123.688 254.414 124.253 254.484 124.789 254.625C125.331 254.76 125.896 254.958 126.484 255.219L125.703 257.102C125.177 256.888 124.706 256.724 124.289 256.609C123.872 256.49 123.448 256.43 123.016 256.43C122.714 256.43 122.456 256.479 122.242 256.578C122.029 256.672 121.867 256.807 121.758 256.984C121.648 257.156 121.594 257.357 121.594 257.586C121.594 257.857 121.672 258.086 121.828 258.273C121.99 258.456 122.229 258.633 122.547 258.805C122.87 258.977 123.271 259.177 123.75 259.406C124.333 259.682 124.831 259.971 125.242 260.273C125.659 260.57 125.979 260.922 126.203 261.328C126.427 261.729 126.539 262.229 126.539 262.828ZM135.188 266H128.609V254.578H135.188V256.562H131.031V259.07H134.898V261.055H131.031V264H135.188V266ZM144.57 266L143.742 263.281H139.578L138.75 266H136.141L140.172 254.531H143.133L147.18 266H144.57ZM143.164 261.25L142.336 258.594C142.284 258.417 142.214 258.19 142.125 257.914C142.042 257.633 141.956 257.349 141.867 257.062C141.784 256.771 141.716 256.518 141.664 256.305C141.612 256.518 141.539 256.784 141.445 257.102C141.357 257.414 141.271 257.711 141.188 257.992C141.104 258.273 141.044 258.474 141.008 258.594L140.188 261.25H143.164ZM151.953 254.578C152.99 254.578 153.844 254.703 154.516 254.953C155.193 255.203 155.695 255.581 156.023 256.086C156.352 256.591 156.516 257.229 156.516 258C156.516 258.521 156.417 258.977 156.219 259.367C156.021 259.758 155.76 260.089 155.438 260.359C155.115 260.63 154.766 260.852 154.391 261.023L157.75 266H155.062L152.336 261.617H151.047V266H148.625V254.578H151.953ZM151.781 256.562H151.047V259.648H151.828C152.63 259.648 153.203 259.516 153.547 259.25C153.896 258.979 154.07 258.583 154.07 258.062C154.07 257.521 153.883 257.135 153.508 256.906C153.138 256.677 152.562 256.562 151.781 256.562ZM164.039 256.43C163.576 256.43 163.164 256.521 162.805 256.703C162.451 256.88 162.151 257.138 161.906 257.477C161.667 257.815 161.484 258.224 161.359 258.703C161.234 259.182 161.172 259.721 161.172 260.32C161.172 261.128 161.271 261.818 161.469 262.391C161.672 262.958 161.984 263.393 162.406 263.695C162.828 263.992 163.372 264.141 164.039 264.141C164.503 264.141 164.966 264.089 165.43 263.984C165.898 263.88 166.406 263.732 166.953 263.539V265.57C166.448 265.779 165.951 265.927 165.461 266.016C164.971 266.109 164.422 266.156 163.812 266.156C162.635 266.156 161.667 265.914 160.906 265.43C160.151 264.94 159.591 264.258 159.227 263.383C158.862 262.503 158.68 261.477 158.68 260.305C158.68 259.44 158.797 258.648 159.031 257.93C159.266 257.211 159.609 256.589 160.062 256.062C160.516 255.536 161.076 255.13 161.742 254.844C162.409 254.557 163.174 254.414 164.039 254.414C164.607 254.414 165.174 254.487 165.742 254.633C166.315 254.773 166.862 254.969 167.383 255.219L166.602 257.188C166.174 256.984 165.745 256.807 165.312 256.656C164.88 256.505 164.456 256.43 164.039 256.43ZM178.75 266H176.336V261.07H171.812V266H169.391V254.578H171.812V259.055H176.336V254.578H178.75V266ZM189.32 254.414C189.935 254.414 190.482 254.51 190.961 254.703C191.44 254.896 191.818 255.177 192.094 255.547C192.375 255.917 192.516 256.367 192.516 256.898C192.516 257.633 192.297 258.25 191.859 258.75C191.427 259.25 190.885 259.688 190.234 260.062L192.453 262.227C192.672 261.867 192.857 261.487 193.008 261.086C193.164 260.685 193.299 260.281 193.414 259.875H195.898C195.737 260.474 195.5 261.115 195.188 261.797C194.88 262.474 194.487 263.112 194.008 263.711L196.359 266H193.414L192.516 265.117C192.208 265.331 191.878 265.516 191.523 265.672C191.174 265.828 190.799 265.948 190.398 266.031C190.003 266.115 189.583 266.156 189.141 266.156C188.276 266.156 187.534 266.021 186.914 265.75C186.294 265.479 185.82 265.102 185.492 264.617C185.164 264.128 185 263.56 185 262.914C185 262.372 185.083 261.909 185.25 261.523C185.417 261.133 185.656 260.792 185.969 260.5C186.281 260.203 186.656 259.93 187.094 259.68C186.818 259.357 186.596 259.055 186.43 258.773C186.268 258.492 186.151 258.214 186.078 257.938C186.01 257.656 185.977 257.362 185.977 257.055C185.977 256.513 186.117 256.047 186.398 255.656C186.685 255.26 187.078 254.956 187.578 254.742C188.083 254.523 188.664 254.414 189.32 254.414ZM188.484 261.102C188.286 261.253 188.112 261.409 187.961 261.57C187.815 261.732 187.703 261.904 187.625 262.086C187.547 262.268 187.508 262.469 187.508 262.688C187.508 263.146 187.68 263.505 188.023 263.766C188.367 264.026 188.794 264.156 189.305 264.156C189.648 264.156 189.969 264.115 190.266 264.031C190.562 263.948 190.833 263.831 191.078 263.68L188.484 261.102ZM189.305 256.258C189.039 256.258 188.784 256.326 188.539 256.461C188.299 256.596 188.18 256.849 188.18 257.219C188.18 257.479 188.247 257.734 188.383 257.984C188.518 258.229 188.698 258.479 188.922 258.734C189.37 258.49 189.714 258.245 189.953 258C190.193 257.75 190.312 257.466 190.312 257.148C190.312 256.831 190.203 256.604 189.984 256.469C189.771 256.328 189.544 256.258 189.305 256.258ZM211.43 260.18C211.43 261.466 211.182 262.542 210.688 263.406C210.198 264.266 209.487 264.914 208.555 265.352C207.622 265.784 206.5 266 205.188 266H201.953V254.578H205.539C206.737 254.578 207.776 254.792 208.656 255.219C209.536 255.641 210.219 256.268 210.703 257.102C211.188 257.93 211.43 258.956 211.43 260.18ZM208.914 260.242C208.914 259.398 208.789 258.706 208.539 258.164C208.294 257.617 207.93 257.214 207.445 256.953C206.966 256.693 206.372 256.562 205.664 256.562H204.375V264H205.414C206.596 264 207.474 263.685 208.047 263.055C208.625 262.424 208.914 261.487 208.914 260.242ZM220.375 266H213.797V254.578H220.375V256.562H216.219V259.07H220.086V261.055H216.219V264H220.375V266ZM231.727 254.578L227.844 266H225.203L221.328 254.578H223.773L225.922 261.375C225.958 261.49 226.018 261.706 226.102 262.023C226.185 262.336 226.268 262.669 226.352 263.023C226.44 263.372 226.5 263.661 226.531 263.891C226.562 263.661 226.617 263.372 226.695 263.023C226.779 262.674 226.859 262.344 226.938 262.031C227.021 261.714 227.081 261.495 227.117 261.375L229.281 254.578H231.727ZM239.75 266H233.172V254.578H239.75V256.562H235.594V259.07H239.461V261.055H235.594V264H239.75V266ZM242.141 266V254.578H244.562V264H249.195V266H242.141ZM261.555 260.273C261.555 261.154 261.445 261.956 261.227 262.68C261.008 263.398 260.674 264.018 260.227 264.539C259.784 265.06 259.221 265.461 258.539 265.742C257.857 266.018 257.049 266.156 256.117 266.156C255.185 266.156 254.378 266.018 253.695 265.742C253.013 265.461 252.448 265.06 252 264.539C251.557 264.018 251.227 263.396 251.008 262.672C250.789 261.948 250.68 261.143 250.68 260.258C250.68 259.076 250.872 258.047 251.258 257.172C251.648 256.292 252.247 255.609 253.055 255.125C253.862 254.641 254.888 254.398 256.133 254.398C257.372 254.398 258.391 254.641 259.188 255.125C259.99 255.609 260.583 256.292 260.969 257.172C261.359 258.052 261.555 259.086 261.555 260.273ZM253.219 260.273C253.219 261.07 253.318 261.758 253.516 262.336C253.719 262.909 254.034 263.352 254.461 263.664C254.888 263.971 255.44 264.125 256.117 264.125C256.805 264.125 257.362 263.971 257.789 263.664C258.216 263.352 258.526 262.909 258.719 262.336C258.917 261.758 259.016 261.07 259.016 260.273C259.016 259.076 258.792 258.133 258.344 257.445C257.896 256.758 257.159 256.414 256.133 256.414C255.451 256.414 254.893 256.57 254.461 256.883C254.034 257.19 253.719 257.633 253.516 258.211C253.318 258.784 253.219 259.471 253.219 260.273ZM267.57 254.578C269.044 254.578 270.12 254.896 270.797 255.531C271.474 256.161 271.812 257.031 271.812 258.141C271.812 258.641 271.737 259.12 271.586 259.578C271.435 260.031 271.188 260.435 270.844 260.789C270.505 261.143 270.052 261.424 269.484 261.633C268.917 261.836 268.216 261.938 267.383 261.938H266.344V266H263.922V254.578H267.57ZM267.445 256.562H266.344V259.953H267.141C267.594 259.953 267.987 259.893 268.32 259.773C268.654 259.654 268.911 259.466 269.094 259.211C269.276 258.956 269.367 258.628 269.367 258.227C269.367 257.664 269.211 257.247 268.898 256.977C268.586 256.701 268.102 256.562 267.445 256.562ZM278.805 266L276.055 257.039H275.984C275.995 257.253 276.01 257.576 276.031 258.008C276.057 258.435 276.081 258.891 276.102 259.375C276.122 259.859 276.133 260.297 276.133 260.688V266H273.969V254.578H277.266L279.969 263.312H280.016L282.883 254.578H286.18V266H283.922V260.594C283.922 260.234 283.927 259.82 283.938 259.352C283.953 258.883 283.971 258.438 283.992 258.016C284.013 257.589 284.029 257.268 284.039 257.055H283.969L281.023 266H278.805ZM295.641 266H289.062V254.578H295.641V256.562H291.484V259.07H295.352V261.055H291.484V264H295.641V266ZM308.164 266H305.086L300.117 257.359H300.047C300.068 257.719 300.086 258.081 300.102 258.445C300.117 258.81 300.133 259.174 300.148 259.539C300.164 259.898 300.18 260.26 300.195 260.625V266H298.031V254.578H301.086L306.047 263.133H306.102C306.091 262.779 306.078 262.427 306.062 262.078C306.047 261.729 306.031 261.38 306.016 261.031C306.005 260.682 305.995 260.333 305.984 259.984V254.578H308.164V266ZM315.453 266H313.031V256.594H309.93V254.578H318.555V256.594H315.453V266ZM329.32 256.43C328.857 256.43 328.445 256.521 328.086 256.703C327.732 256.88 327.432 257.138 327.188 257.477C326.948 257.815 326.766 258.224 326.641 258.703C326.516 259.182 326.453 259.721 326.453 260.32C326.453 261.128 326.552 261.818 326.75 262.391C326.953 262.958 327.266 263.393 327.688 263.695C328.109 263.992 328.654 264.141 329.32 264.141C329.784 264.141 330.247 264.089 330.711 263.984C331.18 263.88 331.688 263.732 332.234 263.539V265.57C331.729 265.779 331.232 265.927 330.742 266.016C330.253 266.109 329.703 266.156 329.094 266.156C327.917 266.156 326.948 265.914 326.188 265.43C325.432 264.94 324.872 264.258 324.508 263.383C324.143 262.503 323.961 261.477 323.961 260.305C323.961 259.44 324.078 258.648 324.312 257.93C324.547 257.211 324.891 256.589 325.344 256.062C325.797 255.536 326.357 255.13 327.023 254.844C327.69 254.557 328.456 254.414 329.32 254.414C329.888 254.414 330.456 254.487 331.023 254.633C331.596 254.773 332.143 254.969 332.664 255.219L331.883 257.188C331.456 256.984 331.026 256.807 330.594 256.656C330.161 256.505 329.737 256.43 329.32 256.43ZM345.039 260.273C345.039 261.154 344.93 261.956 344.711 262.68C344.492 263.398 344.159 264.018 343.711 264.539C343.268 265.06 342.706 265.461 342.023 265.742C341.341 266.018 340.534 266.156 339.602 266.156C338.669 266.156 337.862 266.018 337.18 265.742C336.497 265.461 335.932 265.06 335.484 264.539C335.042 264.018 334.711 263.396 334.492 262.672C334.273 261.948 334.164 261.143 334.164 260.258C334.164 259.076 334.357 258.047 334.742 257.172C335.133 256.292 335.732 255.609 336.539 255.125C337.346 254.641 338.372 254.398 339.617 254.398C340.857 254.398 341.875 254.641 342.672 255.125C343.474 255.609 344.068 256.292 344.453 257.172C344.844 258.052 345.039 259.086 345.039 260.273ZM336.703 260.273C336.703 261.07 336.802 261.758 337 262.336C337.203 262.909 337.518 263.352 337.945 263.664C338.372 263.971 338.924 264.125 339.602 264.125C340.289 264.125 340.846 263.971 341.273 263.664C341.701 263.352 342.01 262.909 342.203 262.336C342.401 261.758 342.5 261.07 342.5 260.273C342.5 259.076 342.276 258.133 341.828 257.445C341.38 256.758 340.643 256.414 339.617 256.414C338.935 256.414 338.378 256.57 337.945 256.883C337.518 257.19 337.203 257.633 337 258.211C336.802 258.784 336.703 259.471 336.703 260.273ZM352.242 266L349.492 257.039H349.422C349.432 257.253 349.448 257.576 349.469 258.008C349.495 258.435 349.518 258.891 349.539 259.375C349.56 259.859 349.57 260.297 349.57 260.688V266H347.406V254.578H350.703L353.406 263.312H353.453L356.32 254.578H359.617V266H357.359V260.594C357.359 260.234 357.365 259.82 357.375 259.352C357.391 258.883 357.409 258.438 357.43 258.016C357.451 257.589 357.466 257.268 357.477 257.055H357.406L354.461 266H352.242ZM367.336 266L364.586 257.039H364.516C364.526 257.253 364.542 257.576 364.562 258.008C364.589 258.435 364.612 258.891 364.633 259.375C364.654 259.859 364.664 260.297 364.664 260.688V266H362.5V254.578H365.797L368.5 263.312H368.547L371.414 254.578H374.711V266H372.453V260.594C372.453 260.234 372.458 259.82 372.469 259.352C372.484 258.883 372.503 258.438 372.523 258.016C372.544 257.589 372.56 257.268 372.57 257.055H372.5L369.555 266H367.336ZM377.594 266V254.578H380.016V266H377.594ZM387.297 266H384.875V256.594H381.773V254.578H390.398V256.594H387.297V266ZM398.734 266H392.156V254.578H398.734V256.562H394.578V259.07H398.445V261.055H394.578V264H398.734V266ZM407.703 266H401.125V254.578H407.703V256.562H403.547V259.07H407.414V261.055H403.547V264H407.703V266Z" fill="white"/>
</svg>
