<svg width="302" height="330" viewBox="0 0 302 330" fill="none" xmlns="http://www.w3.org/2000/svg">
    <path fill-rule="evenodd" clip-rule="evenodd"
        d="M29.4731 143.484C27.5071 149.541 21.8135 153.925 15.1042 153.925C6.76788 153.925 0 147.157 0 138.822C0 130.486 6.76788 123.718 15.1042 123.718C21.8135 123.718 27.5071 128.102 29.4731 134.16H43.5717C46.1464 134.16 48.2337 136.247 48.2337 138.822V157.711H58.909V143.192C58.909 140.761 60.7784 138.737 63.2027 138.545C87.3724 136.629 108.419 126.009 124.337 114.641C125.127 114.076 126.074 113.773 127.046 113.773H179.637C180.608 113.773 181.555 114.076 182.346 114.641C198.263 126.009 219.31 136.629 243.48 138.545C245.904 138.737 247.774 140.761 247.774 143.192V157.711H257.75V138.822C257.75 136.247 259.837 134.16 262.412 134.16H272.224C273.959 127.733 279.834 122.999 286.807 122.999C295.143 122.999 301.911 129.766 301.911 138.102C301.911 146.438 295.143 153.205 286.807 153.205C280.366 153.205 274.862 149.165 272.691 143.484H267.074V162.373C267.074 164.947 264.986 167.035 262.412 167.035H247.774V205.717H263.364C265.331 199.659 271.024 195.275 277.734 195.275C286.069 195.275 292.837 202.042 292.837 210.379C292.837 218.714 286.069 225.482 277.734 225.482C271.024 225.482 265.331 221.098 263.364 215.041H247.774V221.626C247.774 233.032 245.308 244.058 241.027 254.443H257.517C260.092 254.443 262.179 256.53 262.179 259.105V277.993H272.071C273.589 271.256 279.614 266.217 286.807 266.217C295.143 266.217 301.911 272.985 301.911 281.321C301.911 289.657 295.143 296.425 286.807 296.425C280.601 296.425 275.263 292.674 272.942 287.317H257.517C254.942 287.317 252.855 285.229 252.855 282.655V263.766H236.617C231.188 273.92 224.079 283.325 215.978 291.702C197.705 310.598 174.434 324.231 154.549 329.564C153.758 329.776 152.925 329.776 152.134 329.564C132.255 324.231 108.983 310.598 90.7097 291.702C82.6079 283.325 75.4983 273.92 70.0678 263.766H48.6446V282.655C48.6446 285.229 46.5573 287.317 43.9826 287.317H30.7059C28.7399 293.374 23.0462 297.759 16.337 297.759C8.00065 297.759 1.23276 290.991 1.23276 282.655C1.23276 274.319 8.00065 267.551 16.337 267.551C23.0462 267.551 28.7399 271.936 30.7059 277.993H39.3206V259.105C39.3206 256.53 41.4078 254.443 43.9826 254.443H65.6569C61.3745 244.058 58.909 233.032 58.909 221.626V215.041H38.1358C36.1691 221.098 30.4755 225.482 23.7662 225.482C15.4305 225.482 8.66265 218.714 8.66265 210.379C8.66265 202.042 15.4305 195.275 23.7662 195.275C30.4755 195.275 36.1691 199.659 38.1358 205.717H58.909V167.035H43.5717C40.9969 167.035 38.9097 164.947 38.9097 162.373V143.484H29.4731ZM20.8837 138.822C20.8837 135.632 18.2937 133.042 15.1042 133.042C11.9141 133.042 9.32399 135.632 9.32399 138.822C9.32399 142.012 11.9141 144.601 15.1042 144.601C18.2937 144.601 20.8837 142.012 20.8837 138.822ZM271.953 210.379C271.953 213.568 274.543 216.158 277.734 216.158C280.924 216.158 283.513 213.568 283.513 210.379C283.513 207.189 280.924 204.598 277.734 204.598C274.543 204.598 271.953 207.189 271.953 210.379ZM22.1165 282.655C22.1165 279.465 19.5264 276.875 16.337 276.875C13.1468 276.875 10.5568 279.465 10.5568 282.655C10.5568 285.845 13.1468 288.435 16.337 288.435C19.5264 288.435 22.1165 285.845 22.1165 282.655ZM23.7662 204.598C20.576 204.598 17.9866 207.189 17.9866 210.379C17.9866 213.568 20.576 216.158 23.7662 216.158C26.9563 216.158 29.5464 213.568 29.5464 210.379C29.5464 207.189 26.9563 204.598 23.7662 204.598ZM68.2329 147.412V221.626C68.2329 245.729 80.6065 267.843 97.4124 285.221C114.058 302.433 135.105 315.037 153.342 320.225C171.583 315.037 192.631 302.433 209.275 285.221C226.079 267.843 238.45 245.729 238.45 221.626V147.412C214.848 144.593 194.166 134.315 178.155 123.096H128.529C112.517 134.315 91.8346 144.593 68.2329 147.412ZM151.949 316.063C129.27 308.966 105.033 291.652 89.2878 269.973C78.5872 255.24 71.8187 238.507 71.8187 221.626V154.503C71.8187 152.251 73.4291 150.321 75.6449 149.917C94.6305 146.457 112.484 138.335 128.482 127.497C129.254 126.974 130.165 126.694 131.097 126.694H175.598C176.53 126.694 177.442 126.974 178.214 127.498C194.199 138.336 212.053 146.457 231.038 149.917C233.254 150.321 234.864 152.251 234.864 154.503V221.626C234.864 238.512 228.095 255.246 217.395 269.978C201.65 291.657 177.413 308.966 154.734 316.063C153.827 316.347 152.855 316.347 151.949 316.063ZM153.341 306.716C173.904 299.891 195.613 284.101 209.85 264.499C219.353 251.416 225.54 236.621 225.54 221.626V158.331C207.174 154.398 189.844 146.456 174.177 136.018H132.517C116.84 146.456 99.5076 154.398 81.1427 158.331V221.626C81.1427 236.616 87.3298 251.411 96.8323 264.494C111.069 284.097 132.778 299.89 153.341 306.716ZM186.347 196.334H192.263C194.837 196.334 196.925 198.421 196.925 200.995V234.151C196.925 258.123 177.313 277.734 153.341 277.734C129.37 277.734 109.758 258.123 109.758 234.151V200.995C109.758 198.421 111.845 196.334 114.42 196.334H120.335V186.157C120.335 177.073 124.041 168.819 130.026 162.835C136.003 156.858 144.257 153.151 153.341 153.151C162.425 153.151 170.677 156.856 176.662 162.833L176.666 162.837C182.642 168.821 186.347 177.074 186.347 186.157V196.334ZM129.659 196.334H132.697V186.157C132.697 180.484 135.013 175.319 138.768 171.573C142.514 167.827 147.669 165.513 153.341 165.513C159.013 165.513 164.177 167.828 167.924 171.575C171.67 175.321 173.986 180.485 173.986 186.157V196.334H177.023V186.157C177.023 179.64 174.358 173.722 170.07 169.427C165.777 165.14 159.858 162.475 153.341 162.475C146.825 162.475 140.907 165.14 136.619 169.427C132.325 173.721 129.659 179.64 129.659 186.157V196.334ZM142.021 196.334H164.662V186.157C164.662 183.048 163.384 180.221 161.33 178.167C159.277 176.114 156.45 174.837 153.341 174.837C150.233 174.837 147.412 176.115 145.359 178.167L145.355 178.171C143.298 180.224 142.021 183.05 142.021 186.157V196.334ZM119.082 205.657V234.151C119.082 252.995 134.498 268.41 153.341 268.41C172.185 268.41 187.601 252.995 187.601 234.151V205.657H119.082ZM153.341 217.427C160.169 217.427 165.709 222.967 165.709 229.795C165.709 233.114 164.403 236.132 162.271 238.354V247.71C162.271 252.638 158.269 256.64 153.341 256.64C148.413 256.64 144.411 252.638 144.411 247.71L144.412 238.353C142.284 236.133 140.974 233.12 140.974 229.795C140.974 222.967 146.513 217.427 153.341 217.427ZM153.341 234.338C153.695 233.534 154.273 232.834 155.026 232.333C155.847 231.786 156.385 230.853 156.385 229.795C156.385 228.115 155.021 226.751 153.341 226.751C151.661 226.751 150.298 228.115 150.298 229.795C150.298 230.857 150.843 231.79 151.663 232.337C152.413 232.838 152.989 233.536 153.341 234.338ZM286.807 132.322C283.617 132.322 281.027 134.912 281.027 138.102C281.027 141.292 283.617 143.881 286.807 143.881C289.997 143.881 292.587 141.292 292.587 138.102C292.587 134.912 289.997 132.322 286.807 132.322ZM286.807 275.541C283.617 275.541 281.027 278.131 281.027 281.321C281.027 284.511 283.617 287.101 286.807 287.101C289.997 287.101 292.587 284.511 292.587 281.321C292.587 278.131 289.997 275.541 286.807 275.541ZM173.366 17.0752C176.736 15.616 180.478 14.8009 184.419 14.8009C199.349 14.8009 211.357 26.4571 211.357 40.6707C211.357 40.7819 211.357 40.8924 211.355 41.003C223.284 46.9536 231.421 58.9128 231.421 72.5623C231.421 92.0499 214.781 108.115 194.312 108.115H107.589C87.12 108.115 70.4893 92.0506 70.4893 72.5623C70.4893 57.0181 81.0494 43.6663 95.7241 38.7712C97.6008 17.4449 116.158 0.723145 138.891 0.723145C152.971 0.723145 165.466 7.15463 173.366 17.0752ZM168.02 25.6079C162.049 16.2554 151.224 10.047 138.891 10.047C120.169 10.047 104.892 24.3852 104.892 42.3363C104.892 44.5034 103.399 46.3842 101.289 46.8764C89.0774 49.7248 79.8133 60.1296 79.8133 72.5623C79.8133 87.051 92.3714 98.7911 107.589 98.7911H194.312C209.531 98.7911 222.097 87.0516 222.097 72.5623C222.097 61.5868 214.855 52.1757 204.753 48.2696C202.699 47.4751 201.481 45.3506 201.832 43.1761C201.965 42.3596 202.033 41.5225 202.033 40.6707C202.033 31.474 194.079 24.1248 184.419 24.1248C180.737 24.1248 177.313 25.1877 174.476 27.0172C173.434 27.6891 172.166 27.9189 170.955 27.6538C169.743 27.3894 168.687 26.6535 168.02 25.6079ZM106.933 61.9211C121.348 45.238 136.15 37.083 150.819 37.0224C165.495 36.9617 180.392 44.9929 194.982 61.9258C196.489 63.6747 196.489 66.2634 194.982 68.0123C180.392 84.9451 165.495 92.9756 150.819 92.915C136.15 92.8551 121.348 84.7 106.933 68.0169C105.42 66.266 105.42 63.6713 106.933 61.9211ZM140.311 48.1697C132.403 50.8696 124.556 56.5366 116.718 64.9687C124.556 73.4008 132.403 79.0684 140.311 81.7683C134.756 78.2392 131.067 72.0315 131.067 64.9687C131.067 57.9065 134.756 51.6988 140.311 48.1697ZM161.539 81.8063C169.441 79.1337 177.309 73.4801 185.2 64.9687C177.309 56.458 169.441 50.8044 161.539 48.1318C167.128 51.6542 170.843 57.8812 170.843 64.9687C170.843 72.0568 167.128 78.2839 161.539 81.8063ZM150.955 54.4047C145.125 54.4047 140.391 59.1386 140.391 64.9687C140.391 70.7994 145.125 75.5333 150.955 75.5333C156.786 75.5333 161.519 70.7994 161.519 64.9687C161.519 59.1386 156.786 54.4047 150.955 54.4047Z"
        fill="#004E8E" />
</svg>